<svg width="409" height="392" viewBox="0 0 409 392" fill="none" xmlns="http://www.w3.org/2000/svg">
<g filter="url(#filter0_d_668_6209)">
<rect x="43" y="31" width="324" height="347.948" rx="17" fill="#FBFBFB"/>
</g>
<g filter="url(#filter1_f_668_6209)">
<rect x="89.4883" y="89" width="229.617" height="56.3478" rx="28.1739" fill="#EBEBEB"/>
</g>
<path d="M205.582 154V150.608H208.878V154H205.582ZM201.678 161.328C201.145 161.328 200.697 161.211 200.334 160.976C199.972 160.741 199.694 160.464 199.502 160.144C199.332 159.845 199.246 159.589 199.246 159.376C199.694 159.035 200.078 158.651 200.398 158.224C200.718 157.797 200.964 157.243 201.134 156.56C201.326 155.899 201.422 155.045 201.422 154V140.624C201.422 140.005 201.614 139.525 201.998 139.184C202.404 138.821 202.905 138.64 203.502 138.64C204.121 138.64 204.622 138.821 205.006 139.184C205.39 139.525 205.582 140.005 205.582 140.624V154C205.582 154.939 205.497 155.845 205.326 156.72C205.177 157.595 204.942 158.373 204.622 159.056C204.324 159.76 203.929 160.315 203.438 160.72C202.948 161.125 202.361 161.328 201.678 161.328ZM208.878 154V150.608C209.113 150.608 209.273 150.768 209.358 151.088C209.465 151.387 209.518 151.792 209.518 152.304C209.518 152.816 209.465 153.232 209.358 153.552C209.273 153.851 209.113 154 208.878 154ZM237.56 154C236.365 154 235.288 153.733 234.328 153.2C233.389 152.667 232.642 151.931 232.088 150.992C231.554 150.053 231.288 148.997 231.288 147.824L235.448 147.088V147.824C235.448 148.251 235.522 148.688 235.672 149.136C235.821 149.563 236.056 149.915 236.376 150.192C236.696 150.469 237.09 150.608 237.56 150.608H239.192V154H237.56ZM210.488 154V150.608H227.384C228.173 150.608 228.856 150.459 229.432 150.16C230.029 149.861 230.488 149.424 230.808 148.848C231.149 148.251 231.32 147.547 231.32 146.736C231.32 145.669 231.064 144.784 230.552 144.08C230.061 143.376 229.421 142.853 228.632 142.512C227.842 142.171 227 142 226.104 142C225.037 142 224.088 142.213 223.256 142.64C222.424 143.067 221.698 143.611 221.08 144.272C220.461 144.912 219.938 145.584 219.512 146.288C219.085 146.992 218.754 147.643 218.52 148.24C218.306 148.816 218.168 149.243 218.104 149.52L218.168 144.752C218.424 144.112 218.808 143.44 219.32 142.736C219.832 142.032 220.461 141.371 221.208 140.752C221.954 140.112 222.808 139.6 223.768 139.216C224.728 138.832 225.794 138.64 226.968 138.64C227.949 138.64 228.941 138.8 229.944 139.12C230.946 139.44 231.864 139.941 232.696 140.624C233.528 141.307 234.189 142.171 234.68 143.216C235.192 144.261 235.448 145.52 235.448 146.992C235.448 147.845 235.341 148.688 235.128 149.52C234.914 150.352 234.552 151.109 234.04 151.792C233.528 152.453 232.834 152.987 231.96 153.392C231.106 153.797 230.029 154 228.728 154H210.488ZM214.104 151.312V137.584C214.104 136.816 214.008 136.261 213.816 135.92C213.624 135.579 213.41 135.355 213.176 135.248C212.941 135.141 212.76 135.056 212.632 134.992C212.632 134.8 212.706 134.544 212.856 134.224C213.026 133.883 213.293 133.573 213.656 133.296C214.04 133.019 214.541 132.88 215.16 132.88C215.8 132.88 216.344 133.051 216.792 133.392C217.261 133.712 217.624 134.16 217.88 134.736C218.136 135.312 218.264 135.973 218.264 136.72V151.312H214.104ZM210.488 154C210.274 154 210.114 153.851 210.008 153.552C209.901 153.232 209.848 152.816 209.848 152.304C209.848 151.792 209.901 151.387 210.008 151.088C210.114 150.768 210.274 150.608 210.488 150.608V154ZM239.192 154V150.608C239.426 150.608 239.586 150.768 239.672 151.088C239.778 151.387 239.832 151.792 239.832 152.304C239.832 152.816 239.778 153.232 239.672 153.552C239.586 153.851 239.426 154 239.192 154ZM258.022 154C256.828 154 255.75 153.733 254.79 153.2C253.852 152.667 253.105 151.931 252.55 150.992C252.017 150.053 251.75 148.997 251.75 147.824H255.91C255.91 148.251 255.985 148.688 256.134 149.136C256.284 149.563 256.518 149.915 256.838 150.192C257.158 150.469 257.553 150.608 258.022 150.608H259.654V154H258.022ZM240.806 154V150.608H249.51C250.236 150.608 250.79 150.384 251.174 149.936C251.558 149.488 251.75 148.837 251.75 147.984V142.192C251.601 142.149 251.388 142.117 251.11 142.096C250.833 142.053 250.534 142.032 250.214 142.032C249.105 142.032 248.273 142.363 247.718 143.024C247.164 143.685 246.886 144.773 246.886 146.288C246.886 147.653 247.132 148.688 247.622 149.392C248.134 150.096 248.881 150.501 249.862 150.608L249.446 153.968C248.209 153.84 247.078 153.488 246.054 152.912C245.052 152.315 244.241 151.472 243.622 150.384C243.025 149.275 242.726 147.909 242.726 146.288C242.726 143.877 243.398 142 244.742 140.656C246.108 139.312 247.932 138.64 250.214 138.64C251.9 138.64 253.265 138.981 254.31 139.664C255.377 140.325 255.91 141.168 255.91 142.192V147.984C255.91 149.136 255.633 150.171 255.078 151.088C254.545 151.984 253.798 152.699 252.838 153.232C251.878 153.744 250.769 154 249.51 154H240.806ZM240.806 154C240.593 154 240.433 153.851 240.326 153.552C240.22 153.232 240.166 152.816 240.166 152.304C240.166 151.792 240.22 151.387 240.326 151.088C240.433 150.768 240.593 150.608 240.806 150.608V154ZM259.654 154V150.608C259.889 150.608 260.049 150.768 260.134 151.088C260.241 151.387 260.294 151.792 260.294 152.304C260.294 152.816 260.241 153.232 260.134 153.552C260.049 153.851 259.889 154 259.654 154ZM250.246 136.56C249.585 136.56 249.02 136.336 248.55 135.888C248.102 135.419 247.878 134.875 247.878 134.256C247.878 133.616 248.102 133.072 248.55 132.624C249.02 132.176 249.585 131.952 250.246 131.952C250.865 131.952 251.398 132.176 251.846 132.624C252.316 133.072 252.55 133.616 252.55 134.256C252.55 134.875 252.316 135.419 251.846 135.888C251.398 136.336 250.865 136.56 250.246 136.56ZM261.25 154V150.608H262.882C263.373 150.608 263.767 150.469 264.066 150.192C264.386 149.915 264.621 149.563 264.77 149.136C264.919 148.688 264.994 148.251 264.994 147.824V137.584C264.994 136.816 264.898 136.261 264.706 135.92C264.514 135.579 264.301 135.355 264.066 135.248C263.831 135.141 263.65 135.056 263.522 134.992C263.522 134.8 263.597 134.544 263.746 134.224C263.917 133.883 264.183 133.573 264.546 133.296C264.93 133.019 265.431 132.88 266.05 132.88C266.69 132.88 267.234 133.051 267.682 133.392C268.151 133.712 268.514 134.16 268.77 134.736C269.026 135.312 269.154 135.973 269.154 136.72V147.824C269.154 148.997 268.877 150.053 268.322 150.992C267.789 151.931 267.053 152.667 266.114 153.2C265.175 153.733 264.098 154 262.882 154H261.25ZM261.25 154C261.037 154 260.877 153.851 260.77 153.552C260.663 153.232 260.61 152.816 260.61 152.304C260.61 151.792 260.663 151.387 260.77 151.088C260.877 150.768 261.037 150.608 261.25 150.608V154ZM277.752 154C276.963 154 276.419 153.776 276.12 153.328C275.821 152.859 275.672 152.357 275.672 151.824V137.584C275.672 136.816 275.576 136.261 275.384 135.92C275.192 135.579 274.979 135.355 274.744 135.248C274.509 135.141 274.328 135.056 274.2 134.992C274.2 134.821 274.275 134.565 274.424 134.224C274.595 133.883 274.861 133.573 275.224 133.296C275.608 133.019 276.12 132.88 276.76 132.88C277.379 132.88 277.912 133.051 278.36 133.392C278.829 133.712 279.192 134.16 279.448 134.736C279.704 135.312 279.832 135.973 279.832 136.72V151.888C279.832 152.379 279.683 152.859 279.384 153.328C279.085 153.776 278.541 154 277.752 154ZM309.22 154C308.025 154 306.948 153.733 305.988 153.2C305.049 152.667 304.302 151.931 303.748 150.992C303.214 150.053 302.948 148.997 302.948 147.824V146.416H307.108V147.824C307.108 148.251 307.182 148.688 307.332 149.136C307.481 149.563 307.716 149.915 308.036 150.192C308.356 150.469 308.75 150.608 309.22 150.608H310.852V154H309.22ZM296.516 154C296.089 154 295.684 153.883 295.3 153.648C294.916 153.392 294.724 152.944 294.724 152.304C294.724 151.664 294.916 151.227 295.3 150.992C295.684 150.736 296.089 150.608 296.516 150.608H299.588C300.676 150.608 301.508 150.235 302.084 149.488C302.66 148.72 302.948 147.664 302.948 146.32C302.948 145.317 302.809 144.496 302.532 143.856C302.276 143.216 301.956 142.715 301.572 142.352C301.209 141.989 300.868 141.733 300.548 141.584L301.124 141.712C300.91 141.627 300.633 141.648 300.292 141.776C299.972 141.904 299.673 142.16 299.396 142.544C299.14 142.928 299.012 143.472 299.012 144.176C298.777 144.261 298.457 144.357 298.052 144.464C297.668 144.571 297.316 144.624 296.996 144.624C296.441 144.624 295.918 144.432 295.428 144.048C294.958 143.664 294.724 143.067 294.724 142.256C294.724 141.509 294.937 140.901 295.364 140.432C295.79 139.941 296.302 139.568 296.9 139.312C297.518 139.056 298.116 138.885 298.692 138.8C299.268 138.693 299.705 138.64 300.004 138.64C300.58 138.64 301.262 138.779 302.052 139.056C302.841 139.333 303.62 139.781 304.388 140.4C305.177 140.997 305.828 141.797 306.34 142.8C306.852 143.781 307.108 144.997 307.108 146.448C307.108 148.112 306.745 149.509 306.02 150.64C305.316 151.749 304.388 152.592 303.236 153.168C302.105 153.723 300.889 154 299.588 154H296.516ZM310.852 154V150.608C311.086 150.608 311.246 150.768 311.332 151.088C311.438 151.387 311.492 151.792 311.492 152.304C311.492 152.816 311.438 153.232 311.332 153.552C311.246 153.851 311.086 154 310.852 154ZM312.462 154V150.608H314.094C314.585 150.608 314.98 150.469 315.278 150.192C315.598 149.915 315.833 149.563 315.982 149.136C316.132 148.688 316.206 148.251 316.206 147.824V140.752C316.206 140.261 316.356 139.792 316.654 139.344C316.953 138.875 317.497 138.64 318.286 138.64C319.076 138.64 319.62 138.875 319.918 139.344C320.217 139.792 320.366 140.261 320.366 140.752V147.824C320.366 148.997 320.089 150.053 319.534 150.992C319.001 151.931 318.265 152.667 317.326 153.2C316.388 153.733 315.31 154 314.094 154H312.462ZM322.478 154C321.284 154 320.206 153.733 319.246 153.2C318.308 152.667 317.561 151.931 317.006 150.992C316.473 150.053 316.206 148.997 316.206 147.824H320.366C320.366 148.251 320.441 148.688 320.59 149.136C320.74 149.563 320.974 149.915 321.294 150.192C321.614 150.469 322.009 150.608 322.478 150.608H324.11V154H322.478ZM324.11 154V150.608C324.345 150.608 324.505 150.768 324.59 151.088C324.697 151.387 324.75 151.792 324.75 152.304C324.75 152.816 324.697 153.232 324.59 153.552C324.505 153.851 324.345 154 324.11 154ZM312.462 154C312.249 154 312.089 153.851 311.982 153.552C311.876 153.232 311.822 152.816 311.822 152.304C311.822 151.792 311.876 151.387 311.982 151.088C312.089 150.768 312.249 150.608 312.462 150.608V154ZM320.878 160.88C320.324 160.88 319.833 160.677 319.406 160.272C319.001 159.867 318.798 159.376 318.798 158.8C318.798 158.224 319.001 157.733 319.406 157.328C319.833 156.923 320.324 156.72 320.878 156.72C321.476 156.72 321.966 156.923 322.35 157.328C322.756 157.733 322.958 158.224 322.958 158.8C322.958 159.376 322.756 159.867 322.35 160.272C321.966 160.677 321.476 160.88 320.878 160.88ZM315.694 160.88C315.14 160.88 314.649 160.677 314.222 160.272C313.817 159.867 313.614 159.376 313.614 158.8C313.614 158.224 313.817 157.733 314.222 157.328C314.649 156.923 315.14 156.72 315.694 156.72C316.27 156.72 316.761 156.923 317.166 157.328C317.572 157.733 317.774 158.224 317.774 158.8C317.774 159.376 317.572 159.867 317.166 160.272C316.761 160.677 316.27 160.88 315.694 160.88ZM325.719 154V150.608H330.775L329.463 151.696C328.865 151.077 328.396 150.331 328.055 149.456C327.713 148.56 327.543 147.557 327.543 146.448C327.543 144.997 327.799 143.781 328.311 142.8C328.823 141.797 329.463 140.997 330.231 140.4C331.02 139.781 331.809 139.333 332.599 139.056C333.388 138.779 334.071 138.64 334.647 138.64C334.945 138.64 335.383 138.693 335.959 138.8C336.535 138.885 337.121 139.056 337.719 139.312C338.337 139.568 338.86 139.941 339.287 140.432C339.713 140.901 339.927 141.509 339.927 142.256C339.927 143.067 339.681 143.664 339.191 144.048C338.721 144.432 338.209 144.624 337.655 144.624C337.335 144.624 336.972 144.571 336.567 144.464C336.183 144.357 335.873 144.261 335.639 144.176C335.639 143.472 335.5 142.928 335.223 142.544C334.967 142.16 334.668 141.904 334.327 141.776C334.007 141.648 333.74 141.627 333.527 141.712L334.103 141.584C333.804 141.733 333.463 141.989 333.079 142.352C332.695 142.715 332.364 143.216 332.087 143.856C331.831 144.496 331.703 145.317 331.703 146.32C331.703 147.664 331.991 148.72 332.567 149.488C333.143 150.235 333.975 150.608 335.063 150.608H338.135C338.561 150.608 338.967 150.736 339.351 150.992C339.735 151.227 339.927 151.664 339.927 152.304C339.927 152.944 339.735 153.392 339.351 153.648C338.967 153.883 338.561 154 338.135 154H325.719ZM325.719 154C325.505 154 325.345 153.851 325.239 153.552C325.132 153.232 325.079 152.816 325.079 152.304C325.079 151.792 325.132 151.387 325.239 151.088C325.345 150.768 325.505 150.608 325.719 150.608V154Z" fill="#4F4F4F"/>
<path d="M297.193 109C296.564 109 296.004 108.851 295.513 108.552C295.022 108.243 294.638 107.8 294.361 107.224C294.084 106.648 293.945 105.955 293.945 105.144C293.945 103.939 294.27 103 294.921 102.328C295.582 101.656 296.462 101.32 297.561 101.32C298.372 101.32 299.033 101.485 299.545 101.816C300.057 102.147 300.313 102.573 300.313 103.096V109H298.873V103.096C298.873 102.893 298.766 102.733 298.553 102.616C298.35 102.499 298.02 102.44 297.561 102.44C296.857 102.44 296.318 102.669 295.945 103.128C295.572 103.576 295.385 104.248 295.385 105.144C295.385 106.029 295.582 106.707 295.977 107.176C296.372 107.645 296.937 107.88 297.673 107.88H301.081V109H297.193ZM301.081 109V107.88C301.209 107.88 301.294 107.928 301.337 108.024C301.38 108.12 301.401 108.259 301.401 108.44C301.401 108.611 301.38 108.749 301.337 108.856C301.294 108.952 301.209 109 301.081 109ZM301.877 109V107.88H304.629C305.28 107.88 305.898 107.784 306.485 107.592C307.082 107.389 307.616 107.123 308.085 106.792C308.554 106.451 308.922 106.067 309.189 105.64C309.466 105.213 309.605 104.771 309.605 104.312C309.605 103.715 309.37 103.256 308.901 102.936C308.432 102.605 307.765 102.44 306.901 102.44C306.037 102.44 305.37 102.605 304.901 102.936C304.432 103.256 304.197 103.715 304.197 104.312C304.197 104.771 304.33 105.213 304.597 105.64C304.874 106.067 305.248 106.451 305.717 106.792C306.186 107.123 306.72 107.389 307.317 107.592C307.914 107.784 308.533 107.88 309.173 107.88H311.925V109H309.173C308.437 109 307.69 108.883 306.933 108.648C306.176 108.413 305.482 108.088 304.853 107.672C304.224 107.245 303.717 106.749 303.333 106.184C302.949 105.608 302.757 104.984 302.757 104.312C302.757 103.779 302.88 103.325 303.125 102.952C303.37 102.568 303.696 102.259 304.101 102.024C304.517 101.779 304.965 101.603 305.445 101.496C305.936 101.379 306.421 101.32 306.901 101.32C307.381 101.32 307.861 101.379 308.341 101.496C308.832 101.603 309.28 101.773 309.685 102.008C310.09 102.243 310.416 102.552 310.661 102.936C310.917 103.309 311.045 103.768 311.045 104.312C311.045 104.984 310.853 105.608 310.469 106.184C310.096 106.749 309.594 107.245 308.965 107.672C308.336 108.088 307.642 108.413 306.885 108.648C306.128 108.883 305.376 109 304.629 109H301.877ZM301.877 109C301.749 109 301.664 108.952 301.621 108.856C301.578 108.749 301.557 108.611 301.557 108.44C301.557 108.259 301.578 108.12 301.621 108.024C301.664 107.928 301.749 107.88 301.877 107.88V109ZM311.925 109V107.88C312.053 107.88 312.138 107.928 312.181 108.024C312.224 108.12 312.245 108.259 312.245 108.44C312.245 108.611 312.224 108.749 312.181 108.856C312.138 108.952 312.053 109 311.925 109ZM321.284 109C320.729 109 320.233 108.872 319.796 108.616C319.369 108.349 319.033 107.992 318.788 107.544C318.542 107.085 318.42 106.568 318.42 105.992V105.176H319.86V105.992C319.86 106.291 319.908 106.584 320.004 106.872C320.11 107.16 320.265 107.4 320.468 107.592C320.681 107.784 320.953 107.88 321.284 107.88H321.86V109H321.284ZM312.724 109V107.88H316.132C316.868 107.88 317.433 107.645 317.828 107.176C318.222 106.707 318.42 106.029 318.42 105.144C318.42 104.248 318.233 103.576 317.86 103.128C317.486 102.669 316.948 102.44 316.244 102.44C315.785 102.44 315.449 102.499 315.236 102.616C315.033 102.733 314.932 102.893 314.932 103.096V109H313.492V103.096C313.492 102.573 313.748 102.147 314.26 101.816C314.772 101.485 315.433 101.32 316.244 101.32C317.353 101.32 318.233 101.656 318.884 102.328C319.534 103 319.86 103.939 319.86 105.144C319.86 105.955 319.721 106.648 319.444 107.224C319.166 107.8 318.782 108.243 318.292 108.552C317.801 108.851 317.241 109 316.612 109H312.724ZM312.724 109C312.596 109 312.51 108.952 312.468 108.856C312.425 108.749 312.404 108.611 312.404 108.44C312.404 108.259 312.425 108.12 312.468 108.024C312.51 107.928 312.596 107.88 312.724 107.88V109ZM321.86 109V107.88C321.988 107.88 322.073 107.928 322.116 108.024C322.158 108.12 322.18 108.259 322.18 108.44C322.18 108.611 322.158 108.749 322.116 108.856C322.073 108.952 321.988 109 321.86 109ZM331.832 109C331.278 109 330.782 108.872 330.344 108.616C329.918 108.349 329.582 107.992 329.336 107.544C329.091 107.085 328.968 106.568 328.968 105.992V105.544H330.408V105.992C330.408 106.291 330.456 106.584 330.552 106.872C330.659 107.16 330.819 107.4 331.032 107.592C331.246 107.784 331.512 107.88 331.832 107.88H332.408V109H331.832ZM322.664 109V107.88H327.544C327.982 107.88 328.328 107.709 328.584 107.368C328.84 107.016 328.968 106.419 328.968 105.576C328.968 104.403 328.696 103.587 328.152 103.128C327.619 102.669 326.846 102.44 325.832 102.44C325.619 102.44 325.427 102.445 325.256 102.456C325.086 102.467 324.931 102.483 324.792 102.504C324.654 102.515 324.52 102.52 324.392 102.52C324.136 102.52 323.928 102.483 323.768 102.408C323.608 102.333 323.486 102.227 323.4 102.088C323.326 101.939 323.267 101.773 323.224 101.592C323.203 101.475 323.182 101.357 323.16 101.24C323.15 101.112 323.15 101.027 323.16 100.984C323.267 101.059 323.411 101.144 323.592 101.24C323.774 101.336 324.019 101.384 324.328 101.384C324.435 101.384 324.558 101.379 324.696 101.368C324.846 101.357 325.011 101.347 325.192 101.336C325.374 101.325 325.571 101.32 325.784 101.32C326.606 101.32 327.31 101.421 327.896 101.624C328.483 101.816 328.958 102.099 329.32 102.472C329.694 102.845 329.966 103.293 330.136 103.816C330.318 104.339 330.408 104.92 330.408 105.56C330.408 106.413 330.275 107.096 330.008 107.608C329.742 108.109 329.39 108.467 328.952 108.68C328.526 108.893 328.056 109 327.544 109H322.664ZM322.664 109C322.536 109 322.451 108.952 322.408 108.856C322.366 108.749 322.344 108.611 322.344 108.44C322.344 108.259 322.366 108.12 322.408 108.024C322.451 107.928 322.536 107.88 322.664 107.88V109ZM332.408 109V107.88C332.536 107.88 332.622 107.928 332.664 108.024C332.707 108.12 332.728 108.259 332.728 108.44C332.728 108.611 332.707 108.749 332.664 108.856C332.622 108.952 332.536 109 332.408 109ZM326.056 112.12C325.79 112.12 325.566 112.029 325.384 111.848C325.203 111.667 325.112 111.453 325.112 111.208C325.112 110.952 325.203 110.733 325.384 110.552C325.566 110.371 325.79 110.28 326.056 110.28C326.302 110.28 326.515 110.371 326.696 110.552C326.878 110.733 326.968 110.952 326.968 111.208C326.968 111.453 326.878 111.667 326.696 111.848C326.515 112.029 326.302 112.12 326.056 112.12ZM333.214 109V107.88H333.614C333.945 107.88 334.212 107.784 334.414 107.592C334.628 107.4 334.782 107.16 334.878 106.872C334.985 106.584 335.038 106.291 335.038 105.992V100.808C335.038 100.477 334.99 100.179 334.894 99.912C334.809 99.6453 334.697 99.4213 334.558 99.24C334.42 99.0587 334.286 98.9253 334.158 98.84C334.201 98.7867 334.27 98.728 334.366 98.664C334.473 98.6 334.596 98.5467 334.734 98.504C334.884 98.4613 335.038 98.44 335.198 98.44C335.401 98.44 335.598 98.4933 335.79 98.6C335.993 98.696 336.158 98.872 336.286 99.128C336.414 99.384 336.478 99.7467 336.478 100.216V105.992C336.478 106.568 336.356 107.085 336.11 107.544C335.865 107.992 335.529 108.349 335.102 108.616C334.676 108.872 334.18 109 333.614 109H333.214ZM333.214 109C333.086 109 333.001 108.952 332.958 108.856C332.916 108.749 332.894 108.611 332.894 108.44C332.894 108.259 332.916 108.12 332.958 108.024C333.001 107.928 333.086 107.88 333.214 107.88V109ZM340.695 109C340.354 109 340.151 108.899 340.087 108.696C340.023 108.493 339.991 108.253 339.991 107.976V100.808C339.991 100.477 339.943 100.179 339.847 99.912C339.762 99.6453 339.65 99.4213 339.511 99.24C339.373 99.0587 339.239 98.9253 339.111 98.84C339.154 98.7867 339.223 98.728 339.319 98.664C339.426 98.6 339.554 98.5467 339.703 98.504C339.853 98.4613 340.007 98.44 340.167 98.44C340.37 98.44 340.567 98.4933 340.759 98.6C340.951 98.696 341.111 98.872 341.239 99.128C341.367 99.384 341.431 99.7467 341.431 100.216V107.976C341.431 108.253 341.394 108.493 341.319 108.696C341.245 108.899 341.037 109 340.695 109Z" fill="#4F4F4F"/>
<path d="M96.624 256V251.84C97.6907 250.773 99.056 249.472 100.72 247.936C102.384 246.357 104.112 244.651 105.904 242.816C107.739 240.939 109.445 238.997 111.024 236.992C112.603 234.944 113.883 232.896 114.864 230.848C115.888 228.8 116.4 226.795 116.4 224.832C116.4 222.613 116.059 220.821 115.376 219.456C114.693 218.048 113.819 217.024 112.752 216.384C111.685 215.701 110.555 215.36 109.36 215.36C106.672 215.36 104.411 216.256 102.576 218.048C100.741 219.84 99.504 222.677 98.864 226.56H96.624C96.624 224.939 96.688 223.296 96.816 221.632C96.944 219.925 97.392 218.581 98.16 217.6C99.312 216.192 100.997 214.997 103.216 214.016C105.477 212.992 107.952 212.48 110.64 212.48C112.133 212.48 113.712 212.651 115.376 212.992C117.083 213.291 118.683 213.867 120.176 214.72C121.712 215.573 122.949 216.811 123.888 218.432C124.869 220.053 125.36 222.187 125.36 224.832C125.36 226.837 124.891 228.821 123.952 230.784C123.013 232.747 121.776 234.667 120.24 236.544C118.747 238.421 117.104 240.213 115.312 241.92C113.52 243.627 111.749 245.205 110 246.656C108.251 248.064 106.672 249.323 105.264 250.432C103.899 251.541 102.875 252.437 102.192 253.12H115.44C118 253.12 119.963 252.523 121.328 251.328C122.736 250.091 123.44 248.341 123.44 246.08H125.36V250.88C125.36 251.733 125.211 252.565 124.912 253.376C124.613 254.144 124.08 254.784 123.312 255.296C122.544 255.765 121.413 256 119.92 256H96.624ZM136.116 256V221.312L130.548 224.896L129.012 222.912L138.868 213.76H144.436V256H136.116Z" fill="#4F4F4F"/>
<path d="M315.616 251V216.312L310.048 219.896L308.512 217.912L318.368 208.76H323.936V251H315.616Z" fill="#4F4F4F"/>
<path d="M72.5693 276V275.3C73.1573 274.731 73.6893 274.217 74.1653 273.76C74.6506 273.303 75.0753 272.883 75.4393 272.5C75.8033 272.117 76.1113 271.749 76.3633 271.394C76.6153 271.039 76.802 270.68 76.9233 270.316C77.054 269.952 77.1193 269.56 77.1193 269.14C77.1193 268.673 77.0353 268.286 76.8673 267.978C76.6993 267.661 76.4753 267.427 76.1953 267.278C75.9246 267.119 75.626 267.04 75.2993 267.04C74.7393 267.04 74.2493 267.245 73.8293 267.656C73.4093 268.057 73.1293 268.645 72.9893 269.42H72.7093C72.7093 269.065 72.7233 268.729 72.7513 268.412C72.7793 268.085 72.8773 267.815 73.0453 267.6C73.2973 267.292 73.666 267.031 74.1513 266.816C74.6366 266.592 75.1593 266.48 75.7193 266.48C75.9993 266.48 76.298 266.517 76.6153 266.592C76.942 266.657 77.25 266.783 77.5393 266.97C77.8286 267.157 78.062 267.427 78.2393 267.782C78.426 268.127 78.5193 268.58 78.5193 269.14C78.5193 269.541 78.454 269.919 78.3233 270.274C78.202 270.619 78.0293 270.955 77.8053 271.282C77.5813 271.609 77.3153 271.935 77.0073 272.262C76.6993 272.579 76.3586 272.906 75.9853 273.242C75.6213 273.569 75.2293 273.914 74.8093 274.278C74.3986 274.642 73.9786 275.029 73.5493 275.44H76.6993C77.2593 275.44 77.6886 275.319 77.9873 275.076C78.2953 274.833 78.4493 274.465 78.4493 273.97H78.7293V274.88C78.7293 275.067 78.6966 275.249 78.6313 275.426C78.566 275.594 78.4493 275.734 78.2813 275.846C78.1133 275.949 77.866 276 77.5393 276H72.5693ZM84.2071 276.28C83.3951 276.28 82.7418 276.079 82.2471 275.678C81.7525 275.267 81.3931 274.693 81.1691 273.956C80.9545 273.219 80.8471 272.36 80.8471 271.38C80.8471 270.391 80.9545 269.532 81.1691 268.804C81.3931 268.067 81.7525 267.497 82.2471 267.096C82.7418 266.685 83.3951 266.48 84.2071 266.48C85.0285 266.48 85.6818 266.685 86.1671 267.096C86.6618 267.497 87.0165 268.067 87.2311 268.804C87.4551 269.532 87.5671 270.391 87.5671 271.38C87.5671 272.36 87.4551 273.219 87.2311 273.956C87.0165 274.693 86.6618 275.267 86.1671 275.678C85.6818 276.079 85.0285 276.28 84.2071 276.28ZM84.2071 275.72C84.9725 275.72 85.4905 275.365 85.7611 274.656C86.0318 273.937 86.1671 272.845 86.1671 271.38C86.1671 269.905 86.0318 268.813 85.7611 268.104C85.4905 267.395 84.9725 267.04 84.2071 267.04C83.4418 267.04 82.9238 267.395 82.6531 268.104C82.3825 268.813 82.2471 269.905 82.2471 271.38C82.2471 272.845 82.3825 273.937 82.6531 274.656C82.9238 275.365 83.4418 275.72 84.2071 275.72ZM89.5689 276V275.3C90.1569 274.731 90.6889 274.217 91.1649 273.76C91.6503 273.303 92.0749 272.883 92.4389 272.5C92.8029 272.117 93.1109 271.749 93.3629 271.394C93.6149 271.039 93.8016 270.68 93.9229 270.316C94.0536 269.952 94.1189 269.56 94.1189 269.14C94.1189 268.673 94.0349 268.286 93.8669 267.978C93.6989 267.661 93.4749 267.427 93.1949 267.278C92.9243 267.119 92.6256 267.04 92.2989 267.04C91.7389 267.04 91.2489 267.245 90.8289 267.656C90.4089 268.057 90.1289 268.645 89.9889 269.42H89.7089C89.7089 269.065 89.7229 268.729 89.7509 268.412C89.7789 268.085 89.8769 267.815 90.0449 267.6C90.2969 267.292 90.6656 267.031 91.1509 266.816C91.6363 266.592 92.1589 266.48 92.7189 266.48C92.9989 266.48 93.2976 266.517 93.6149 266.592C93.9416 266.657 94.2496 266.783 94.5389 266.97C94.8283 267.157 95.0616 267.427 95.2389 267.782C95.4256 268.127 95.5189 268.58 95.5189 269.14C95.5189 269.541 95.4536 269.919 95.3229 270.274C95.2016 270.619 95.0289 270.955 94.8049 271.282C94.5809 271.609 94.3149 271.935 94.0069 272.262C93.6989 272.579 93.3583 272.906 92.9849 273.242C92.6209 273.569 92.2289 273.914 91.8089 274.278C91.3983 274.642 90.9783 275.029 90.5489 275.44H93.6989C94.2589 275.44 94.6883 275.319 94.9869 275.076C95.2949 274.833 95.4489 274.465 95.4489 273.97H95.7289V274.88C95.7289 275.067 95.6963 275.249 95.6309 275.426C95.5656 275.594 95.4489 275.734 95.2809 275.846C95.1129 275.949 94.8656 276 94.5389 276H89.5689ZM100.843 276.28C100.376 276.28 99.9514 276.219 99.5688 276.098C99.1954 275.977 98.8501 275.804 98.5328 275.58C98.2248 275.356 97.9401 275.09 97.6788 274.782L97.9028 274.53C98.2574 274.922 98.6448 275.221 99.0648 275.426C99.4848 275.622 99.9608 275.72 100.493 275.72C100.866 275.72 101.211 275.641 101.529 275.482C101.846 275.314 102.103 275.062 102.299 274.726C102.495 274.39 102.593 273.951 102.593 273.41C102.593 272.915 102.499 272.509 102.313 272.192C102.126 271.875 101.893 271.637 101.613 271.478C101.333 271.319 101.053 271.24 100.773 271.24C100.493 271.24 100.269 271.249 100.101 271.268C99.9328 271.277 99.7741 271.296 99.6248 271.324C99.4848 271.352 99.3074 271.394 99.0928 271.45L98.7288 270.862L102.523 267.32H99.9328C99.3728 267.32 98.9388 267.441 98.6308 267.684C98.3321 267.927 98.1828 268.295 98.1828 268.79H97.9028V267.88C97.9028 267.693 97.9354 267.516 98.0008 267.348C98.0661 267.171 98.1828 267.031 98.3508 266.928C98.5281 266.816 98.7754 266.76 99.0928 266.76H103.545V267.32L99.7928 270.82C100.035 270.755 100.283 270.717 100.535 270.708C100.796 270.689 100.969 270.68 101.053 270.68C101.258 270.68 101.524 270.717 101.851 270.792C102.177 270.857 102.504 270.988 102.831 271.184C103.157 271.38 103.433 271.655 103.657 272.01C103.881 272.365 103.993 272.831 103.993 273.41C103.993 274.026 103.881 274.525 103.657 274.908C103.433 275.281 103.148 275.571 102.803 275.776C102.467 275.972 102.121 276.103 101.767 276.168C101.412 276.243 101.104 276.28 100.843 276.28ZM110.437 278.17L110.297 277.96C110.539 277.801 110.74 277.629 110.899 277.442C111.067 277.255 111.193 277.05 111.277 276.826C111.37 276.602 111.417 276.35 111.417 276.07C111.379 276.098 111.319 276.126 111.235 276.154C111.151 276.191 111.071 276.21 110.997 276.21C110.782 276.21 110.6 276.135 110.451 275.986C110.301 275.837 110.227 275.655 110.227 275.44C110.227 275.197 110.306 274.997 110.465 274.838C110.623 274.679 110.824 274.6 111.067 274.6C111.347 274.6 111.566 274.684 111.725 274.852C111.893 275.02 111.977 275.263 111.977 275.58C111.977 276.177 111.841 276.686 111.571 277.106C111.309 277.535 110.931 277.89 110.437 278.17ZM127.493 276C127.008 276 126.574 275.888 126.191 275.664C125.818 275.431 125.524 275.118 125.309 274.726C125.094 274.325 124.987 273.872 124.987 273.368H126.247C126.247 273.629 126.289 273.886 126.373 274.138C126.466 274.39 126.606 274.6 126.793 274.768C126.98 274.936 127.213 275.02 127.493 275.02H127.997V276H127.493ZM122.663 279.304C121.786 279.304 121.039 279.155 120.423 278.856C119.816 278.557 119.354 278.147 119.037 277.624C118.729 277.111 118.575 276.537 118.575 275.902C118.575 275.669 118.598 275.379 118.645 275.034C118.701 274.679 118.79 274.329 118.911 273.984C119.042 273.629 119.214 273.335 119.429 273.102C119.653 272.859 119.938 272.738 120.283 272.738C120.404 272.738 120.512 272.752 120.605 272.78C120.698 272.808 120.778 272.845 120.843 272.892C120.918 272.929 120.978 272.971 121.025 273.018C120.689 273.298 120.437 273.611 120.269 273.956C120.101 274.301 119.984 274.637 119.919 274.964C119.863 275.281 119.835 275.561 119.835 275.804C119.835 276.691 120.092 277.33 120.605 277.722C121.128 278.123 121.809 278.324 122.649 278.324C123.47 278.324 124.063 278.133 124.427 277.75C124.8 277.377 124.987 276.751 124.987 275.874V268.832C124.987 268.543 124.945 268.281 124.861 268.048C124.786 267.815 124.688 267.619 124.567 267.46C124.446 267.301 124.329 267.185 124.217 267.11C124.254 267.063 124.315 267.012 124.399 266.956C124.492 266.9 124.6 266.853 124.721 266.816C124.852 266.779 124.987 266.76 125.127 266.76C125.304 266.76 125.477 266.807 125.645 266.9C125.822 266.984 125.967 267.138 126.079 267.362C126.191 267.586 126.247 267.903 126.247 268.314V275.874C126.247 276.919 125.962 277.75 125.393 278.366C124.824 278.991 123.914 279.304 122.663 279.304ZM127.997 276V275.02C128.109 275.02 128.184 275.062 128.221 275.146C128.258 275.23 128.277 275.351 128.277 275.51C128.277 275.659 128.258 275.781 128.221 275.874C128.184 275.958 128.109 276 127.997 276ZM128.701 276V275.02H129.639C129.937 275.02 130.185 274.95 130.381 274.81C130.577 274.67 130.726 274.493 130.829 274.278C130.941 274.063 131.02 273.839 131.067 273.606C131.123 273.373 131.155 273.163 131.165 272.976C131.174 272.78 131.179 272.64 131.179 272.556C131.179 272.304 131.155 272.005 131.109 271.66C131.062 271.315 130.955 270.955 130.787 270.582C130.628 270.209 130.362 269.868 129.989 269.56C130.035 269.513 130.091 269.471 130.157 269.434C130.231 269.387 130.315 269.35 130.409 269.322C130.502 269.294 130.609 269.28 130.731 269.28C131.057 269.28 131.328 269.387 131.543 269.602C131.767 269.817 131.944 270.097 132.075 270.442C132.205 270.778 132.299 271.137 132.355 271.52C132.411 271.903 132.439 272.257 132.439 272.584C132.439 273.657 132.191 274.497 131.697 275.104C131.202 275.701 130.516 276 129.639 276H128.701ZM128.701 276C128.589 276 128.514 275.958 128.477 275.874C128.439 275.781 128.421 275.659 128.421 275.51C128.421 275.351 128.439 275.23 128.477 275.146C128.514 275.062 128.589 275.02 128.701 275.02V276ZM131.781 278.73C131.566 278.73 131.379 278.651 131.221 278.492C131.062 278.333 130.983 278.147 130.983 277.932C130.983 277.708 131.062 277.517 131.221 277.358C131.379 277.199 131.566 277.12 131.781 277.12C132.005 277.12 132.191 277.199 132.341 277.358C132.499 277.517 132.579 277.708 132.579 277.932C132.579 278.147 132.499 278.333 132.341 278.492C132.191 278.651 132.005 278.73 131.781 278.73ZM129.737 278.73C129.522 278.73 129.335 278.651 129.177 278.492C129.018 278.333 128.939 278.147 128.939 277.932C128.939 277.708 129.018 277.517 129.177 277.358C129.335 277.199 129.522 277.12 129.737 277.12C129.961 277.12 130.147 277.199 130.297 277.358C130.455 277.517 130.535 277.708 130.535 277.932C130.535 278.147 130.455 278.333 130.297 278.492C130.147 278.651 129.961 278.73 129.737 278.73ZM136.779 276V275.02H138.515V276H136.779ZM135.071 279.206C134.95 279.206 134.843 279.192 134.749 279.164C134.656 279.136 134.572 279.099 134.497 279.052C134.432 279.005 134.376 278.963 134.329 278.926C134.703 278.609 134.969 278.273 135.127 277.918C135.295 277.563 135.403 277.213 135.449 276.868C135.496 276.532 135.519 276.243 135.519 276V269.896C135.519 269.663 135.58 269.504 135.701 269.42C135.823 269.327 135.972 269.28 136.149 269.28C136.327 269.28 136.476 269.327 136.597 269.42C136.719 269.504 136.779 269.663 136.779 269.896V276C136.779 276.327 136.751 276.677 136.695 277.05C136.639 277.423 136.546 277.773 136.415 278.1C136.285 278.427 136.107 278.693 135.883 278.898C135.669 279.103 135.398 279.206 135.071 279.206ZM138.515 276V275.02C138.627 275.02 138.702 275.062 138.739 275.146C138.777 275.23 138.795 275.351 138.795 275.51C138.795 275.659 138.777 275.781 138.739 275.874C138.702 275.958 138.627 276 138.515 276ZM139.22 276V275.02H140.158C140.457 275.02 140.704 274.95 140.9 274.81C141.096 274.67 141.245 274.493 141.348 274.278C141.46 274.063 141.539 273.839 141.586 273.606C141.642 273.373 141.675 273.163 141.684 272.976C141.693 272.78 141.698 272.64 141.698 272.556C141.698 272.304 141.675 272.005 141.628 271.66C141.581 271.315 141.474 270.955 141.306 270.582C141.147 270.209 140.881 269.868 140.508 269.56C140.555 269.513 140.611 269.471 140.676 269.434C140.751 269.387 140.835 269.35 140.928 269.322C141.021 269.294 141.129 269.28 141.25 269.28C141.577 269.28 141.847 269.387 142.062 269.602C142.286 269.817 142.463 270.097 142.594 270.442C142.725 270.778 142.818 271.137 142.874 271.52C142.93 271.903 142.958 272.257 142.958 272.584C142.958 273.657 142.711 274.497 142.216 275.104C141.721 275.701 141.035 276 140.158 276H139.22ZM139.22 276C139.108 276 139.033 275.958 138.996 275.874C138.959 275.781 138.94 275.659 138.94 275.51C138.94 275.351 138.959 275.23 138.996 275.146C139.033 275.062 139.108 275.02 139.22 275.02V276ZM141.292 278.73C141.059 278.73 140.863 278.651 140.704 278.492C140.545 278.333 140.466 278.147 140.466 277.932C140.466 277.708 140.545 277.517 140.704 277.358C140.863 277.199 141.059 277.12 141.292 277.12C141.507 277.12 141.693 277.199 141.852 277.358C142.011 277.517 142.09 277.708 142.09 277.932C142.09 278.147 142.011 278.333 141.852 278.492C141.693 278.651 141.507 278.73 141.292 278.73ZM146.654 276C146.356 276 146.178 275.911 146.122 275.734C146.066 275.557 146.038 275.347 146.038 275.104V268.832C146.038 268.543 145.996 268.281 145.912 268.048C145.838 267.815 145.74 267.619 145.618 267.46C145.497 267.301 145.38 267.185 145.268 267.11C145.306 267.063 145.366 267.012 145.45 266.956C145.544 266.9 145.656 266.853 145.786 266.816C145.917 266.779 146.052 266.76 146.192 266.76C146.37 266.76 146.542 266.807 146.71 266.9C146.878 266.984 147.018 267.138 147.13 267.362C147.242 267.586 147.298 267.903 147.298 268.314V275.104C147.298 275.347 147.266 275.557 147.2 275.734C147.135 275.911 146.953 276 146.654 276Z" fill="#828282"/>
<path d="M260.136 276V268.16L258.778 269.042L258.526 268.72L260.696 266.76H261.396V276H260.136ZM268.028 276V273.62H263.548V273.06L268.168 266.76H269.288V273.06H270.548V273.62H269.288V276H268.028ZM264.388 273.06H268.028V268.104L264.388 273.06ZM276.37 276V273.62H271.89V273.06L276.51 266.76H277.63V273.06H278.89V273.62H277.63V276H276.37ZM272.73 273.06H276.37V268.104L272.73 273.06ZM284.713 276V273.62H280.233V273.06L284.853 266.76H285.973V273.06H287.233V273.62H285.973V276H284.713ZM281.073 273.06H284.713V268.104L281.073 273.06ZM293.517 278.17L293.377 277.96C293.62 277.801 293.821 277.629 293.979 277.442C294.147 277.255 294.273 277.05 294.357 276.826C294.451 276.602 294.497 276.35 294.497 276.07C294.46 276.098 294.399 276.126 294.315 276.154C294.231 276.191 294.152 276.21 294.077 276.21C293.863 276.21 293.681 276.135 293.531 275.986C293.382 275.837 293.307 275.655 293.307 275.44C293.307 275.197 293.387 274.997 293.545 274.838C293.704 274.679 293.905 274.6 294.147 274.6C294.427 274.6 294.647 274.684 294.805 274.852C294.973 275.02 295.057 275.263 295.057 275.58C295.057 276.177 294.922 276.686 294.651 277.106C294.39 277.535 294.012 277.89 293.517 278.17ZM305.758 279.304C304.88 279.304 304.134 279.155 303.518 278.856C302.911 278.557 302.449 278.147 302.132 277.624C301.824 277.111 301.67 276.537 301.67 275.902C301.67 275.669 301.693 275.379 301.74 275.034C301.796 274.679 301.884 274.329 302.006 273.984C302.136 273.629 302.309 273.335 302.524 273.102C302.748 272.859 303.032 272.738 303.378 272.738C303.499 272.738 303.606 272.752 303.7 272.78C303.793 272.808 303.872 272.845 303.938 272.892C304.012 272.929 304.073 272.971 304.12 273.018C303.784 273.298 303.532 273.611 303.364 273.956C303.196 274.301 303.079 274.637 303.014 274.964C302.958 275.281 302.93 275.561 302.93 275.804C302.93 276.691 303.186 277.33 303.7 277.722C304.222 278.123 304.904 278.324 305.744 278.324C306.565 278.324 307.158 278.133 307.522 277.75C307.895 277.377 308.082 276.751 308.082 275.874V268.832C308.082 268.543 308.04 268.281 307.956 268.048C307.881 267.815 307.783 267.619 307.662 267.46C307.54 267.301 307.424 267.185 307.312 267.11C307.349 267.063 307.41 267.012 307.494 266.956C307.587 266.9 307.694 266.853 307.816 266.816C307.946 266.779 308.082 266.76 308.222 266.76C308.399 266.76 308.572 266.807 308.74 266.9C308.917 266.984 309.062 267.138 309.174 267.362C309.286 267.586 309.342 267.903 309.342 268.314V275.874C309.342 276.919 309.057 277.75 308.488 278.366C307.918 278.991 307.008 279.304 305.758 279.304ZM313.034 276C312.735 276 312.558 275.911 312.502 275.734C312.446 275.557 312.418 275.347 312.418 275.104V268.832C312.418 268.543 312.376 268.281 312.292 268.048C312.217 267.815 312.119 267.619 311.998 267.46C311.876 267.301 311.76 267.185 311.648 267.11C311.685 267.063 311.746 267.012 311.83 266.956C311.923 266.9 312.035 266.853 312.166 266.816C312.296 266.779 312.432 266.76 312.572 266.76C312.749 266.76 312.922 266.807 313.09 266.9C313.258 266.984 313.398 267.138 313.51 267.362C313.622 267.586 313.678 267.903 313.678 268.314V275.104C313.678 275.347 313.645 275.557 313.58 275.734C313.514 275.911 313.332 276 313.034 276ZM321.561 276V275.02H322.471V276H321.561ZM318.831 276C318.281 276 317.791 275.869 317.361 275.608C316.932 275.337 316.596 274.95 316.353 274.446C316.111 273.942 315.989 273.335 315.989 272.626C315.989 271.571 316.274 270.75 316.843 270.162C317.422 269.574 318.192 269.28 319.153 269.28C319.863 269.28 320.441 269.425 320.889 269.714C321.337 270.003 321.561 270.377 321.561 270.834V276H320.301V270.834C320.301 270.657 320.208 270.517 320.021 270.414C319.844 270.311 319.555 270.26 319.153 270.26C318.537 270.26 318.066 270.461 317.739 270.862C317.413 271.254 317.249 271.842 317.249 272.626C317.249 273.401 317.422 273.993 317.767 274.404C318.113 274.815 318.607 275.02 319.251 275.02H321.561V276H318.831ZM319.853 279.206C319.732 279.206 319.625 279.192 319.531 279.164C319.438 279.136 319.354 279.099 319.279 279.052C319.214 279.005 319.158 278.963 319.111 278.926C319.485 278.609 319.751 278.273 319.909 277.918C320.077 277.563 320.185 277.213 320.231 276.868C320.278 276.532 320.301 276.243 320.301 276V275.02H321.561V276C321.561 276.327 321.533 276.677 321.477 277.05C321.421 277.423 321.328 277.773 321.197 278.1C321.067 278.427 320.889 278.693 320.665 278.898C320.451 279.103 320.18 279.206 319.853 279.206ZM322.471 276V275.02C322.583 275.02 322.658 275.062 322.695 275.146C322.733 275.23 322.751 275.351 322.751 275.51C322.751 275.659 322.733 275.781 322.695 275.874C322.658 275.958 322.583 276 322.471 276ZM331.926 276V275.02H332.29C332.588 275.02 332.836 274.95 333.032 274.81C333.228 274.67 333.377 274.493 333.48 274.278C333.592 274.063 333.671 273.839 333.718 273.606C333.774 273.373 333.806 273.163 333.816 272.976C333.825 272.78 333.83 272.64 333.83 272.556C333.83 272.304 333.806 272.005 333.76 271.66C333.713 271.315 333.606 270.955 333.438 270.582C333.279 270.209 333.013 269.868 332.64 269.56C332.686 269.513 332.742 269.471 332.808 269.434C332.882 269.387 332.966 269.35 333.06 269.322C333.153 269.294 333.26 269.28 333.382 269.28C333.708 269.28 333.979 269.387 334.194 269.602C334.418 269.817 334.595 270.097 334.726 270.442C334.856 270.778 334.95 271.137 335.006 271.52C335.062 271.903 335.09 272.257 335.09 272.584C335.09 273.657 334.842 274.497 334.348 275.104C333.853 275.701 333.167 276 332.29 276H331.926ZM327.474 276C326.988 276 326.554 275.888 326.172 275.664C325.798 275.431 325.504 275.118 325.29 274.726C325.075 274.325 324.968 273.872 324.968 273.368H326.228C326.228 273.629 326.27 273.886 326.354 274.138C326.447 274.39 326.587 274.6 326.774 274.768C326.96 274.936 327.194 275.02 327.474 275.02H327.67V276H327.474ZM323.176 276V275.02H323.722C324.011 275.02 324.244 274.936 324.422 274.768C324.608 274.6 324.744 274.39 324.828 274.138C324.921 273.886 324.968 273.629 324.968 273.368V270.666C324.968 270.433 325.028 270.274 325.15 270.19C325.271 270.097 325.42 270.05 325.598 270.05C325.775 270.05 325.924 270.097 326.046 270.19C326.167 270.274 326.228 270.433 326.228 270.666V273.368C326.228 273.872 326.12 274.325 325.906 274.726C325.691 275.118 325.397 275.431 325.024 275.664C324.65 275.888 324.216 276 323.722 276H323.176ZM331.646 276C331.16 276 330.726 275.888 330.344 275.664C329.97 275.431 329.676 275.118 329.462 274.726C329.247 274.325 329.14 273.872 329.14 273.368H330.4C330.4 273.629 330.442 273.886 330.526 274.138C330.619 274.39 330.759 274.6 330.946 274.768C331.132 274.936 331.366 275.02 331.646 275.02H331.926V276H331.646ZM327.67 276V275.02H327.894C328.183 275.02 328.416 274.936 328.594 274.768C328.78 274.6 328.916 274.39 329 274.138C329.093 273.886 329.14 273.629 329.14 273.368V270.33C329.14 270.097 329.2 269.938 329.322 269.854C329.443 269.761 329.592 269.714 329.77 269.714C329.947 269.714 330.096 269.761 330.218 269.854C330.339 269.938 330.4 270.097 330.4 270.33V273.368C330.4 273.872 330.292 274.325 330.078 274.726C329.863 275.118 329.569 275.431 329.196 275.664C328.822 275.888 328.388 276 327.894 276H327.67ZM323.176 276C323.064 276 322.989 275.958 322.952 275.874C322.914 275.781 322.896 275.659 322.896 275.51C322.896 275.351 322.914 275.23 322.952 275.146C322.989 275.062 323.064 275.02 323.176 275.02V276ZM330.792 268.37C330.577 268.37 330.39 268.291 330.232 268.132C330.073 267.973 329.994 267.782 329.994 267.558C329.994 267.343 330.073 267.157 330.232 266.998C330.39 266.839 330.577 266.76 330.792 266.76C331.016 266.76 331.202 266.839 331.352 266.998C331.51 267.157 331.59 267.343 331.59 267.558C331.59 267.782 331.51 267.973 331.352 268.132C331.202 268.291 331.016 268.37 330.792 268.37ZM328.748 268.37C328.533 268.37 328.346 268.291 328.188 268.132C328.029 267.973 327.95 267.782 327.95 267.558C327.95 267.343 328.029 267.157 328.188 266.998C328.346 266.839 328.533 266.76 328.748 266.76C328.972 266.76 329.158 266.839 329.308 266.998C329.466 267.157 329.546 267.343 329.546 267.558C329.546 267.782 329.466 267.973 329.308 268.132C329.158 268.291 328.972 268.37 328.748 268.37ZM329.77 266.578C329.564 266.578 329.387 266.508 329.238 266.368C329.098 266.219 329.028 266.041 329.028 265.836C329.028 265.631 329.098 265.458 329.238 265.318C329.387 265.169 329.564 265.094 329.77 265.094C329.975 265.094 330.148 265.169 330.288 265.318C330.437 265.458 330.512 265.631 330.512 265.836C330.512 266.041 330.437 266.219 330.288 266.368C330.148 266.508 329.975 266.578 329.77 266.578Z" fill="#828282"/>
<defs>
<filter id="filter0_d_668_6209" x="30" y="18" width="350" height="373.948" filterUnits="userSpaceOnUse" color-interpolation-filters="sRGB">
<feFlood flood-opacity="0" result="BackgroundImageFix"/>
<feColorMatrix in="SourceAlpha" type="matrix" values="0 0 0 0 0 0 0 0 0 0 0 0 0 0 0 0 0 0 127 0" result="hardAlpha"/>
<feOffset/>
<feGaussianBlur stdDeviation="6.5"/>
<feComposite in2="hardAlpha" operator="out"/>
<feColorMatrix type="matrix" values="0 0 0 0 0.1375 0 0 0 0 0.1375 0 0 0 0 0.1375 0 0 0 0.25 0"/>
<feBlend mode="normal" in2="BackgroundImageFix" result="effect1_dropShadow_668_6209"/>
<feBlend mode="normal" in="SourceGraphic" in2="effect1_dropShadow_668_6209" result="shape"/>
</filter>
<filter id="filter1_f_668_6209" x="0.488281" y="0" width="407.617" height="234.348" filterUnits="userSpaceOnUse" color-interpolation-filters="sRGB">
<feFlood flood-opacity="0" result="BackgroundImageFix"/>
<feBlend mode="normal" in="SourceGraphic" in2="BackgroundImageFix" result="shape"/>
<feGaussianBlur stdDeviation="44.5" result="effect1_foregroundBlur_668_6209"/>
</filter>
</defs>
</svg>
