<svg width="409" height="392" viewBox="0 0 409 392" fill="none" xmlns="http://www.w3.org/2000/svg">
<g filter="url(#filter0_d_668_6288)">
<rect x="43" y="31" width="324" height="347.948" rx="17" fill="#FBFBFB"/>
</g>
<g filter="url(#filter1_f_668_6288)">
<rect x="89.4883" y="89" width="229.617" height="56.3478" rx="28.1739" fill="#EBEBEB"/>
</g>
<path d="M89.9478 161.552C87.9424 161.552 86.2038 161.211 84.7318 160.528C83.2598 159.867 82.1184 158.896 81.3078 157.616C80.5184 156.357 80.1238 154.832 80.1238 153.04C80.1238 152.272 80.1984 151.504 80.3478 150.736C80.5184 149.968 80.7638 149.264 81.0838 148.624C81.4038 147.984 81.7984 147.472 82.2678 147.088C82.7584 146.704 83.3344 146.512 83.9958 146.512C84.5504 146.512 85.0091 146.629 85.3718 146.864C85.7344 147.099 86.0011 147.365 86.1718 147.664C86.3638 147.963 86.4598 148.229 86.4598 148.464C86.0331 148.784 85.6491 149.136 85.3078 149.52C84.9878 149.883 84.7318 150.373 84.5398 150.992C84.3691 151.589 84.2838 152.4 84.2838 153.424C84.2838 154.96 84.7638 156.133 85.7238 156.944C86.7051 157.755 88.1344 158.16 90.0118 158.16C91.6331 158.16 92.7744 157.797 93.4358 157.072C94.1184 156.368 94.4598 155.109 94.4598 153.296V140.816C94.4598 140.283 94.6091 139.792 94.9078 139.344C95.2064 138.875 95.7504 138.64 96.5398 138.64C97.3291 138.64 97.8731 138.875 98.1718 139.344C98.4704 139.792 98.6198 140.283 98.6198 140.816V153.296C98.6198 155.813 97.9371 157.819 96.5718 159.312C95.2064 160.805 92.9984 161.552 89.9478 161.552ZM89.4038 138.64C88.7424 138.64 88.1771 138.416 87.7078 137.968C87.2598 137.499 87.0358 136.955 87.0358 136.336C87.0358 135.696 87.2598 135.152 87.7078 134.704C88.1771 134.256 88.7424 134.032 89.4038 134.032C90.0224 134.032 90.5558 134.256 91.0038 134.704C91.4731 135.152 91.7078 135.696 91.7078 136.336C91.7078 136.955 91.4731 137.499 91.0038 137.968C90.5558 138.416 90.0224 138.64 89.4038 138.64ZM111.644 154C110.449 154 109.372 153.733 108.412 153.2C107.473 152.667 106.727 151.931 106.172 150.992C105.639 150.053 105.372 148.997 105.372 147.824V137.584C105.372 136.816 105.276 136.261 105.084 135.92C104.892 135.579 104.679 135.355 104.444 135.248C104.209 135.141 104.028 135.056 103.9 134.992C103.9 134.821 103.975 134.565 104.124 134.224C104.295 133.883 104.561 133.573 104.924 133.296C105.308 133.019 105.82 132.88 106.46 132.88C107.079 132.88 107.612 133.051 108.06 133.392C108.529 133.712 108.892 134.16 109.148 134.736C109.404 135.312 109.532 135.973 109.532 136.72V147.824C109.532 148.251 109.607 148.688 109.756 149.136C109.905 149.563 110.14 149.915 110.46 150.192C110.78 150.469 111.175 150.608 111.644 150.608H112.508V154H111.644ZM112.508 154V150.608C112.743 150.608 112.903 150.768 112.988 151.088C113.095 151.387 113.148 151.792 113.148 152.304C113.148 152.816 113.095 153.232 112.988 153.552C112.903 153.851 112.743 154 112.508 154ZM114.119 154V150.608H115.751C116.241 150.608 116.636 150.469 116.935 150.192C117.255 149.915 117.489 149.563 117.639 149.136C117.788 148.688 117.863 148.251 117.863 147.824V140.752C117.863 140.261 118.012 139.792 118.311 139.344C118.609 138.875 119.153 138.64 119.943 138.64C120.732 138.64 121.276 138.875 121.575 139.344C121.873 139.792 122.023 140.261 122.023 140.752V147.824C122.023 148.997 121.745 150.053 121.191 150.992C120.657 151.931 119.921 152.667 118.983 153.2C118.044 153.733 116.967 154 115.751 154H114.119ZM124.135 154C122.94 154 121.863 153.733 120.903 153.2C119.964 152.667 119.217 151.931 118.663 150.992C118.129 150.053 117.863 148.997 117.863 147.824H122.023C122.023 148.251 122.097 148.688 122.247 149.136C122.396 149.563 122.631 149.915 122.951 150.192C123.271 150.469 123.665 150.608 124.135 150.608H125.767V154H124.135ZM125.767 154V150.608C126.001 150.608 126.161 150.768 126.247 151.088C126.353 151.387 126.407 151.792 126.407 152.304C126.407 152.816 126.353 153.232 126.247 153.552C126.161 153.851 126.001 154 125.767 154ZM114.119 154C113.905 154 113.745 153.851 113.639 153.552C113.532 153.232 113.479 152.816 113.479 152.304C113.479 151.792 113.532 151.387 113.639 151.088C113.745 150.768 113.905 150.608 114.119 150.608V154ZM119.975 161.168C119.313 161.168 118.748 160.933 118.279 160.464C117.831 160.016 117.607 159.483 117.607 158.864C117.607 158.224 117.831 157.68 118.279 157.232C118.748 156.784 119.313 156.56 119.975 156.56C120.593 156.56 121.127 156.784 121.575 157.232C122.044 157.68 122.279 158.224 122.279 158.864C122.279 159.483 122.044 160.016 121.575 160.464C121.127 160.933 120.593 161.168 119.975 161.168ZM127.375 154V150.608H132.879C134.01 150.608 135.087 150.437 136.111 150.096C137.156 149.755 138.084 149.307 138.895 148.752C139.727 148.176 140.378 147.536 140.847 146.832C141.316 146.107 141.551 145.371 141.551 144.624C141.551 143.792 141.22 143.152 140.559 142.704C139.898 142.256 138.852 142.032 137.423 142.032C136.015 142.032 134.97 142.256 134.287 142.704C133.626 143.131 133.295 143.771 133.295 144.624C133.295 145.371 133.53 146.107 133.999 146.832C134.49 147.536 135.14 148.176 135.951 148.752C136.762 149.307 137.69 149.755 138.735 150.096C139.78 150.437 140.858 150.608 141.967 150.608H147.471V154H141.967C140.495 154 139.002 153.765 137.487 153.296C135.972 152.827 134.586 152.176 133.327 151.344C132.068 150.491 131.055 149.499 130.287 148.368C129.519 147.216 129.135 145.968 129.135 144.624C129.135 143.557 129.38 142.651 129.871 141.904C130.362 141.136 131.012 140.517 131.823 140.048C132.655 139.557 133.551 139.205 134.511 138.992C135.492 138.757 136.463 138.64 137.423 138.64C138.383 138.64 139.343 138.757 140.303 138.992C141.284 139.205 142.18 139.547 142.991 140.016C143.802 140.485 144.452 141.104 144.943 141.872C145.455 142.619 145.711 143.536 145.711 144.624C145.711 145.968 145.327 147.216 144.559 148.368C143.812 149.499 142.81 150.491 141.551 151.344C140.292 152.176 138.906 152.827 137.391 153.296C135.876 153.765 134.372 154 132.879 154H127.375ZM127.375 154C127.162 154 127.002 153.851 126.895 153.552C126.788 153.232 126.735 152.816 126.735 152.304C126.735 151.792 126.788 151.387 126.895 151.088C127.002 150.768 127.162 150.608 127.375 150.608V154ZM147.471 154V150.608C147.706 150.608 147.866 150.768 147.951 151.088C148.058 151.387 148.111 151.792 148.111 152.304C148.111 152.816 148.058 153.232 147.951 153.552C147.866 153.851 147.706 154 147.471 154ZM170.317 154V150.608H171.213C171.447 150.608 171.671 150.544 171.885 150.416C172.098 150.288 172.301 150.107 172.493 149.872C172.685 149.616 172.845 149.296 172.973 148.912C173.122 148.507 173.229 148.037 173.293 147.504C173.378 146.949 173.421 146.331 173.421 145.648C173.421 144.603 173.325 143.771 173.133 143.152C172.962 142.533 172.717 142.032 172.397 141.648C172.077 141.264 171.693 140.912 171.245 140.592C171.245 140.357 171.33 140.091 171.501 139.792C171.693 139.493 171.97 139.227 172.333 138.992C172.717 138.757 173.175 138.64 173.709 138.64C174.37 138.64 174.946 138.832 175.437 139.216C175.927 139.6 176.322 140.123 176.621 140.784C176.941 141.424 177.175 142.171 177.325 143.024C177.495 143.856 177.581 144.741 177.581 145.68C177.581 148.261 177.026 150.299 175.917 151.792C174.807 153.264 173.239 154 171.213 154H170.317ZM158.669 154C157.453 154 156.375 153.733 155.437 153.2C154.498 152.667 153.751 151.931 153.197 150.992C152.663 150.053 152.397 148.997 152.397 147.824H156.557C156.557 148.251 156.631 148.688 156.781 149.136C156.93 149.563 157.165 149.915 157.485 150.192C157.805 150.469 158.199 150.608 158.669 150.608H159.373V154H158.669ZM149.069 154V150.608H150.285C150.775 150.608 151.17 150.469 151.469 150.192C151.789 149.915 152.023 149.563 152.173 149.136C152.322 148.688 152.397 148.251 152.397 147.824V142.512C152.397 142.021 152.546 141.552 152.845 141.104C153.143 140.635 153.687 140.4 154.477 140.4C155.266 140.4 155.81 140.635 156.109 141.104C156.407 141.552 156.557 142.021 156.557 142.512V147.824C156.557 148.997 156.279 150.053 155.725 150.992C155.191 151.931 154.455 152.667 153.517 153.2C152.578 153.733 151.501 154 150.285 154H149.069ZM168.973 154C167.778 154 166.701 153.733 165.741 153.2C164.802 152.667 164.055 151.931 163.501 150.992C162.967 150.053 162.701 148.997 162.701 147.824H166.861C166.861 148.251 166.935 148.688 167.085 149.136C167.234 149.563 167.469 149.915 167.789 150.192C168.109 150.469 168.503 150.608 168.973 150.608H170.317V154H168.973ZM159.373 154V150.608H160.589C161.079 150.608 161.474 150.469 161.773 150.192C162.093 149.915 162.327 149.563 162.477 149.136C162.626 148.688 162.701 148.251 162.701 147.824V141.744C162.701 141.253 162.85 140.784 163.149 140.336C163.447 139.867 163.991 139.632 164.781 139.632C165.57 139.632 166.114 139.867 166.413 140.336C166.711 140.784 166.861 141.253 166.861 141.744V147.824C166.861 148.997 166.583 150.053 166.029 150.992C165.495 151.931 164.759 152.667 163.821 153.2C162.882 153.733 161.805 154 160.589 154H159.373ZM149.069 154C148.855 154 148.695 153.851 148.589 153.552C148.482 153.232 148.429 152.816 148.429 152.304C148.429 151.792 148.482 151.387 148.589 151.088C148.695 150.768 148.855 150.608 149.069 150.608V154ZM167.373 136.56C166.818 136.56 166.327 136.357 165.901 135.952C165.495 135.547 165.293 135.056 165.293 134.48C165.293 133.904 165.495 133.413 165.901 133.008C166.327 132.603 166.818 132.4 167.373 132.4C167.97 132.4 168.461 132.603 168.845 133.008C169.25 133.413 169.453 133.904 169.453 134.48C169.453 135.056 169.25 135.547 168.845 135.952C168.461 136.357 167.97 136.56 167.373 136.56ZM162.189 136.56C161.634 136.56 161.143 136.357 160.717 135.952C160.311 135.547 160.109 135.056 160.109 134.48C160.109 133.904 160.311 133.413 160.717 133.008C161.143 132.603 161.634 132.4 162.189 132.4C162.765 132.4 163.255 132.603 163.661 133.008C164.066 133.413 164.269 133.904 164.269 134.48C164.269 135.056 164.066 135.547 163.661 135.952C163.255 136.357 162.765 136.56 162.189 136.56ZM164.781 131.792C164.226 131.792 163.767 131.611 163.405 131.248C163.042 130.864 162.861 130.405 162.861 129.872C162.861 129.317 163.042 128.859 163.405 128.496C163.767 128.133 164.215 127.952 164.749 127.952C165.303 127.952 165.762 128.133 166.125 128.496C166.509 128.859 166.701 129.317 166.701 129.872C166.701 130.405 166.509 130.864 166.125 131.248C165.762 131.611 165.314 131.792 164.781 131.792ZM213.551 154C212.356 154 211.279 153.733 210.319 153.2C209.38 152.667 208.633 151.931 208.079 150.992C207.545 150.053 207.279 148.997 207.279 147.824H211.439C211.439 148.251 211.513 148.688 211.663 149.136C211.812 149.563 212.047 149.915 212.367 150.192C212.687 150.469 213.081 150.608 213.551 150.608H215.183V154H213.551ZM202.767 161.552C200.761 161.552 199.023 161.211 197.551 160.528C196.079 159.867 194.937 158.896 194.127 157.616C193.337 156.357 192.943 154.832 192.943 153.04C192.943 152.272 193.017 151.504 193.167 150.736C193.337 149.968 193.583 149.264 193.903 148.624C194.223 147.984 194.617 147.472 195.087 147.088C195.577 146.704 196.153 146.512 196.815 146.512C197.369 146.512 197.828 146.629 198.191 146.864C198.553 147.099 198.82 147.365 198.991 147.664C199.183 147.963 199.279 148.229 199.279 148.464C198.852 148.784 198.468 149.136 198.127 149.52C197.807 149.883 197.551 150.373 197.359 150.992C197.188 151.589 197.103 152.4 197.103 153.424C197.103 154.96 197.583 156.133 198.543 156.944C199.524 157.755 200.953 158.16 202.831 158.16C204.452 158.16 205.593 157.797 206.255 157.072C206.937 156.368 207.279 155.109 207.279 153.296V140.816C207.279 140.283 207.428 139.792 207.727 139.344C208.025 138.875 208.569 138.64 209.359 138.64C210.148 138.64 210.692 138.875 210.991 139.344C211.289 139.792 211.439 140.283 211.439 140.816V153.296C211.439 155.813 210.756 157.819 209.391 159.312C208.025 160.805 205.817 161.552 202.767 161.552ZM215.183 154V150.608C215.417 150.608 215.577 150.768 215.663 151.088C215.769 151.387 215.823 151.792 215.823 152.304C215.823 152.816 215.769 153.232 215.663 153.552C215.577 153.851 215.417 154 215.183 154ZM202.223 138.64C201.561 138.64 200.996 138.416 200.527 137.968C200.079 137.499 199.855 136.955 199.855 136.336C199.855 135.696 200.079 135.152 200.527 134.704C200.996 134.256 201.561 134.032 202.223 134.032C202.841 134.032 203.375 134.256 203.823 134.704C204.292 135.152 204.527 135.696 204.527 136.336C204.527 136.955 204.292 137.499 203.823 137.968C203.375 138.416 202.841 138.64 202.223 138.64ZM216.775 154V150.608H224.839C225.82 150.608 226.556 150.235 227.047 149.488C227.559 148.72 227.815 147.653 227.815 146.288C227.815 144.773 227.538 143.685 226.983 143.024C226.428 142.363 225.596 142.032 224.487 142.032C224.167 142.032 223.868 142.053 223.591 142.096C223.314 142.117 223.1 142.149 222.951 142.192V154H218.791V142.192C218.791 141.168 219.314 140.325 220.359 139.664C221.426 138.981 222.802 138.64 224.487 138.64C226.77 138.64 228.583 139.312 229.927 140.656C231.292 142 231.975 143.877 231.975 146.288C231.975 147.909 231.676 149.296 231.079 150.448C230.482 151.6 229.671 152.485 228.647 153.104C227.644 153.701 226.514 154 225.255 154H216.775ZM216.775 154C216.562 154 216.402 153.851 216.295 153.552C216.188 153.232 216.135 152.816 216.135 152.304C216.135 151.792 216.188 151.387 216.295 151.088C216.402 150.768 216.562 150.608 216.775 150.608V154ZM276.684 154C275.489 154 274.412 153.733 273.452 153.2C272.513 152.667 271.767 151.931 271.212 150.992C270.679 150.053 270.412 148.997 270.412 147.824H274.572C274.572 148.251 274.647 148.688 274.796 149.136C274.945 149.563 275.18 149.915 275.5 150.192C275.82 150.469 276.215 150.608 276.684 150.608H278.316V154H276.684ZM253.644 154C252.193 154 250.988 153.733 250.028 153.2C249.068 152.667 248.353 151.888 247.884 150.864C247.415 149.819 247.18 148.549 247.18 147.056C247.18 145.563 247.372 144.389 247.756 143.536C248.161 142.683 248.663 142.085 249.26 141.744C249.879 141.381 250.508 141.2 251.148 141.2C251.98 141.2 252.588 141.413 252.972 141.84C253.356 142.245 253.559 142.651 253.58 143.056C253.281 143.205 252.951 143.483 252.588 143.888C252.247 144.272 251.948 144.784 251.692 145.424C251.457 146.064 251.34 146.843 251.34 147.76C251.34 148.315 251.404 148.773 251.532 149.136C251.681 149.499 251.863 149.787 252.076 150C252.311 150.213 252.567 150.373 252.844 150.48C253.121 150.565 253.409 150.608 253.708 150.608H268.172C268.897 150.608 269.452 150.384 269.836 149.936C270.22 149.488 270.412 148.837 270.412 147.984V142.192C270.263 142.149 270.049 142.117 269.772 142.096C269.495 142.053 269.196 142.032 268.876 142.032C267.767 142.032 266.935 142.363 266.38 143.024C265.825 143.685 265.548 144.773 265.548 146.288C265.548 147.653 265.793 148.688 266.284 149.392C266.796 150.096 267.543 150.501 268.524 150.608L268.108 153.968C266.871 153.84 265.74 153.488 264.716 152.912C263.713 152.315 262.903 151.472 262.284 150.384C261.687 149.275 261.388 147.909 261.388 146.288C261.388 143.877 262.06 142 263.404 140.656C264.769 139.312 266.593 138.64 268.876 138.64C270.561 138.64 271.927 138.981 272.972 139.664C274.039 140.325 274.572 141.168 274.572 142.192V147.984C274.572 149.136 274.295 150.171 273.74 151.088C273.207 151.984 272.46 152.699 271.5 153.232C270.54 153.744 269.431 154 268.172 154H253.644ZM278.316 154V150.608C278.551 150.608 278.711 150.768 278.796 151.088C278.903 151.387 278.956 151.792 278.956 152.304C278.956 152.816 278.903 153.232 278.796 153.552C278.711 153.851 278.551 154 278.316 154ZM268.908 136.56C268.247 136.56 267.681 136.336 267.212 135.888C266.764 135.419 266.54 134.875 266.54 134.256C266.54 133.616 266.764 133.072 267.212 132.624C267.681 132.176 268.247 131.952 268.908 131.952C269.527 131.952 270.06 132.176 270.508 132.624C270.977 133.072 271.212 133.616 271.212 134.256C271.212 134.875 270.977 135.419 270.508 135.888C270.06 136.336 269.527 136.56 268.908 136.56ZM305.327 154C304.132 154 303.055 153.733 302.095 153.2C301.156 152.667 300.409 151.931 299.855 150.992C299.321 150.053 299.055 148.997 299.055 147.824L303.215 147.024V147.824C303.215 148.251 303.289 148.688 303.439 149.136C303.588 149.563 303.823 149.915 304.143 150.192C304.463 150.469 304.857 150.608 305.327 150.608H306.959V154H305.327ZM279.919 154V150.608H296.783C297.465 150.608 298.009 150.331 298.415 149.776C298.841 149.221 299.055 148.315 299.055 147.056C299.055 145.285 298.628 144.005 297.775 143.216C296.943 142.427 295.759 142.032 294.223 142.032C293.028 142.032 292.004 142.235 291.151 142.64C290.319 143.024 289.615 143.536 289.039 144.176C288.484 144.795 288.036 145.477 287.695 146.224C287.353 146.949 287.076 147.653 286.863 148.336H284.815C285.156 146.949 285.529 145.733 285.935 144.688C286.34 143.621 286.788 142.704 287.279 141.936C287.791 141.168 288.367 140.549 289.007 140.08C289.668 139.589 290.415 139.227 291.247 138.992C292.079 138.757 293.028 138.64 294.095 138.64C296.953 138.64 299.183 139.387 300.783 140.88C302.404 142.373 303.215 144.411 303.215 146.992C303.215 149.168 302.639 150.885 301.487 152.144C300.356 153.381 298.788 154 296.783 154H279.919ZM282.703 154V143.952C282.703 143.333 282.543 142.853 282.223 142.512C281.924 142.149 281.625 141.925 281.327 141.84C281.433 141.477 281.7 141.104 282.127 140.72C282.575 140.336 283.236 140.144 284.111 140.144C284.772 140.144 285.284 140.261 285.647 140.496C286.031 140.731 286.308 141.029 286.479 141.392C286.649 141.733 286.756 142.075 286.799 142.416C286.841 142.736 286.863 142.992 286.863 143.184V154H282.703ZM279.919 154C279.705 154 279.545 153.851 279.439 153.552C279.332 153.232 279.279 152.816 279.279 152.304C279.279 151.792 279.332 151.387 279.439 151.088C279.545 150.768 279.705 150.608 279.919 150.608V154ZM306.959 154V150.608C307.193 150.608 307.353 150.768 307.439 151.088C307.545 151.387 307.599 151.792 307.599 152.304C307.599 152.816 307.545 153.232 307.439 153.552C307.353 153.851 307.193 154 306.959 154ZM308.55 154V150.608H310.182C310.673 150.608 311.067 150.469 311.366 150.192C311.686 149.915 311.921 149.563 312.07 149.136C312.219 148.688 312.294 148.251 312.294 147.824V140.752C312.294 140.261 312.443 139.792 312.742 139.344C313.041 138.875 313.585 138.64 314.374 138.64C315.163 138.64 315.707 138.875 316.006 139.344C316.305 139.792 316.454 140.261 316.454 140.752V147.824C316.454 148.997 316.177 150.053 315.622 150.992C315.089 151.931 314.353 152.667 313.414 153.2C312.475 153.733 311.398 154 310.182 154H308.55ZM318.566 154C317.371 154 316.294 153.733 315.334 153.2C314.395 152.667 313.649 151.931 313.094 150.992C312.561 150.053 312.294 148.997 312.294 147.824H316.454C316.454 148.251 316.529 148.688 316.678 149.136C316.827 149.563 317.062 149.915 317.382 150.192C317.702 150.469 318.097 150.608 318.566 150.608H320.198V154H318.566ZM320.198 154V150.608C320.433 150.608 320.593 150.768 320.678 151.088C320.785 151.387 320.838 151.792 320.838 152.304C320.838 152.816 320.785 153.232 320.678 153.552C320.593 153.851 320.433 154 320.198 154ZM308.55 154C308.337 154 308.177 153.851 308.07 153.552C307.963 153.232 307.91 152.816 307.91 152.304C307.91 151.792 307.963 151.387 308.07 151.088C308.177 150.768 308.337 150.608 308.55 150.608V154ZM314.406 136.56C313.745 136.56 313.179 136.336 312.71 135.888C312.262 135.419 312.038 134.875 312.038 134.256C312.038 133.616 312.262 133.072 312.71 132.624C313.179 132.176 313.745 131.952 314.406 131.952C315.025 131.952 315.558 132.176 316.006 132.624C316.475 133.072 316.71 133.616 316.71 134.256C316.71 134.875 316.475 135.419 316.006 135.888C315.558 136.336 315.025 136.56 314.406 136.56ZM321.806 154V150.608H323.438C323.929 150.608 324.324 150.469 324.622 150.192C324.942 149.915 325.177 149.563 325.326 149.136C325.476 148.688 325.55 148.251 325.55 147.824V137.584C325.55 136.816 325.454 136.261 325.262 135.92C325.07 135.579 324.857 135.355 324.622 135.248C324.388 135.141 324.206 135.056 324.078 134.992C324.078 134.8 324.153 134.544 324.302 134.224C324.473 133.883 324.74 133.573 325.102 133.296C325.486 133.019 325.988 132.88 326.606 132.88C327.246 132.88 327.79 133.051 328.238 133.392C328.708 133.712 329.07 134.16 329.326 134.736C329.582 135.312 329.71 135.973 329.71 136.72V147.824C329.71 148.997 329.433 150.053 328.878 150.992C328.345 151.931 327.609 152.667 326.67 153.2C325.732 153.733 324.654 154 323.438 154H321.806ZM321.806 154C321.593 154 321.433 153.851 321.326 153.552C321.22 153.232 321.166 152.816 321.166 152.304C321.166 151.792 321.22 151.387 321.326 151.088C321.433 150.768 321.593 150.608 321.806 150.608V154ZM338.308 154C337.519 154 336.975 153.776 336.676 153.328C336.378 152.859 336.228 152.357 336.228 151.824V139.536C336.228 138.768 336.132 138.213 335.94 137.872C335.748 137.531 335.535 137.307 335.3 137.2C335.066 137.093 334.884 137.008 334.756 136.944C334.756 136.773 334.831 136.517 334.98 136.176C335.151 135.835 335.418 135.525 335.78 135.248C336.164 134.971 336.676 134.832 337.316 134.832C337.935 134.832 338.468 135.003 338.916 135.344C339.386 135.664 339.748 136.112 340.004 136.688C340.26 137.264 340.388 137.925 340.388 138.672V151.888C340.388 152.379 340.239 152.859 339.94 153.328C339.642 153.776 339.098 154 338.308 154ZM334.82 133.808C334.564 133.744 334.351 133.595 334.18 133.36C334.031 133.125 333.967 132.869 333.988 132.592C334.01 132.315 334.148 132.08 334.404 131.888C334.66 131.675 335.076 131.568 335.652 131.568C335.375 131.44 335.087 131.195 334.788 130.832C334.49 130.448 334.34 129.989 334.34 129.456C334.34 129.008 334.458 128.549 334.692 128.08C334.927 127.589 335.29 127.184 335.78 126.864C336.292 126.523 336.954 126.352 337.764 126.352C338.191 126.352 338.564 126.416 338.884 126.544C339.204 126.651 339.45 126.821 339.62 127.056C339.812 127.291 339.908 127.6 339.908 127.984C339.908 128.389 339.802 128.677 339.588 128.848C339.396 128.997 339.162 129.072 338.884 129.072C338.607 129.051 338.33 128.987 338.052 128.88C338.074 128.624 338.02 128.357 337.892 128.08C337.786 127.803 337.562 127.664 337.22 127.664C337.092 127.813 336.954 128.027 336.804 128.304C336.676 128.56 336.612 128.837 336.612 129.136C336.612 129.456 336.698 129.765 336.868 130.064C337.039 130.363 337.284 130.619 337.604 130.832C337.924 131.024 338.298 131.12 338.724 131.12C338.98 131.12 339.215 131.099 339.428 131.056C339.642 130.992 339.823 130.96 339.972 130.96C340.292 130.96 340.506 131.109 340.612 131.408C340.719 131.685 340.719 131.973 340.612 132.272C340.527 132.549 340.356 132.699 340.1 132.72C340.015 132.72 339.78 132.731 339.396 132.752C339.012 132.773 338.564 132.805 338.052 132.848C337.54 132.891 337.039 132.955 336.548 133.04C336.058 133.125 335.642 133.232 335.3 133.36C334.98 133.488 334.82 133.637 334.82 133.808Z" fill="#4F4F4F"/>
<path d="M316.451 109C315.896 109 315.4 108.872 314.963 108.616C314.536 108.349 314.2 107.992 313.955 107.544C313.71 107.085 313.587 106.568 313.587 105.992V105.176H315.027V105.992C315.027 106.291 315.075 106.584 315.171 106.872C315.278 107.16 315.438 107.4 315.651 107.592C315.864 107.784 316.131 107.88 316.451 107.88H317.027V109H316.451ZM309.427 109C309.224 109 309.08 108.947 308.995 108.84C308.92 108.723 308.883 108.589 308.883 108.44C308.883 108.291 308.92 108.163 308.995 108.056C309.08 107.939 309.224 107.88 309.427 107.88H311.571C312.232 107.88 312.734 107.635 313.075 107.144C313.416 106.643 313.587 105.96 313.587 105.096C313.587 104.456 313.496 103.928 313.315 103.512C313.134 103.096 312.862 102.803 312.499 102.632C312.147 102.451 311.715 102.403 311.203 102.488L312.131 102.312C311.8 102.376 311.502 102.472 311.235 102.6C310.968 102.728 310.76 102.909 310.611 103.144C310.462 103.379 310.387 103.693 310.387 104.088C310.302 104.099 310.184 104.099 310.035 104.088C309.896 104.067 309.768 104.029 309.651 103.976C309.512 103.912 309.39 103.811 309.283 103.672C309.176 103.533 309.123 103.341 309.123 103.096C309.123 102.84 309.182 102.605 309.299 102.392C309.427 102.168 309.603 101.981 309.827 101.832C310.062 101.672 310.334 101.549 310.643 101.464C310.952 101.368 311.294 101.32 311.667 101.32C312.179 101.32 312.638 101.405 313.043 101.576C313.459 101.747 313.816 101.997 314.115 102.328C314.414 102.659 314.638 103.059 314.787 103.528C314.947 103.997 315.027 104.536 315.027 105.144C315.027 106.029 314.867 106.76 314.547 107.336C314.227 107.901 313.806 108.323 313.283 108.6C312.76 108.867 312.19 109 311.571 109H309.427ZM317.027 109V107.88C317.155 107.88 317.24 107.928 317.283 108.024C317.326 108.12 317.347 108.259 317.347 108.44C317.347 108.611 317.326 108.749 317.283 108.856C317.24 108.952 317.155 109 317.027 109ZM317.821 109V107.88H322.701C323.138 107.88 323.485 107.709 323.741 107.368C323.997 107.016 324.125 106.419 324.125 105.576C324.125 104.403 323.853 103.587 323.309 103.128C322.775 102.669 322.002 102.44 320.989 102.44C320.775 102.44 320.583 102.445 320.413 102.456C320.242 102.467 320.087 102.483 319.949 102.504C319.81 102.515 319.677 102.52 319.549 102.52C319.293 102.52 319.085 102.483 318.925 102.408C318.765 102.333 318.642 102.227 318.557 102.088C318.482 101.939 318.423 101.773 318.381 101.592C318.359 101.475 318.338 101.357 318.317 101.24C318.306 101.112 318.306 101.027 318.317 100.984C318.423 101.059 318.567 101.144 318.749 101.24C318.93 101.336 319.175 101.384 319.485 101.384C319.591 101.384 319.714 101.379 319.853 101.368C320.002 101.357 320.167 101.347 320.349 101.336C320.53 101.325 320.727 101.32 320.941 101.32C321.762 101.32 322.466 101.421 323.053 101.624C323.639 101.816 324.114 102.099 324.477 102.472C324.85 102.845 325.122 103.293 325.293 103.816C325.474 104.339 325.565 104.92 325.565 105.56C325.565 106.413 325.431 107.096 325.165 107.608C324.898 108.109 324.546 108.467 324.109 108.68C323.682 108.893 323.213 109 322.701 109H317.821ZM317.821 109C317.693 109 317.607 108.952 317.565 108.856C317.522 108.749 317.501 108.611 317.501 108.44C317.501 108.259 317.522 108.12 317.565 108.024C317.607 107.928 317.693 107.88 317.821 107.88V109ZM328.415 109C328.245 109 328.127 108.936 328.063 108.808C327.999 108.68 327.967 108.557 327.967 108.44C327.967 108.323 327.999 108.2 328.063 108.072C328.127 107.944 328.245 107.88 328.415 107.88H333.583C333.914 107.88 334.181 107.784 334.383 107.592C334.597 107.4 334.751 107.16 334.847 106.872C334.954 106.584 335.007 106.291 335.007 105.992V100.808C335.007 100.477 334.959 100.179 334.863 99.912C334.778 99.6453 334.666 99.4213 334.527 99.24C334.389 99.0587 334.255 98.9253 334.127 98.84C334.17 98.7867 334.239 98.728 334.335 98.664C334.442 98.6 334.565 98.5467 334.703 98.504C334.853 98.4613 335.007 98.44 335.167 98.44C335.37 98.44 335.567 98.4933 335.759 98.6C335.962 98.696 336.127 98.872 336.255 99.128C336.383 99.384 336.447 99.7467 336.447 100.216V105.992C336.447 106.568 336.325 107.085 336.079 107.544C335.834 107.992 335.498 108.349 335.071 108.616C334.645 108.872 334.149 109 333.583 109H328.415ZM330.607 107.88V103.064C330.607 102.733 330.559 102.435 330.463 102.168C330.378 101.901 330.266 101.677 330.127 101.496C329.989 101.315 329.855 101.181 329.727 101.096C329.77 101.043 329.839 100.984 329.935 100.92C330.042 100.856 330.165 100.803 330.303 100.76C330.453 100.717 330.607 100.696 330.767 100.696C330.97 100.696 331.167 100.749 331.359 100.856C331.562 100.952 331.727 101.128 331.855 101.384C331.983 101.64 332.047 102.003 332.047 102.472V107.88H330.607ZM329.263 99.88C329.167 99.752 329.125 99.6347 329.135 99.528C329.146 99.4107 329.183 99.32 329.247 99.256C329.322 99.1813 329.413 99.1387 329.519 99.128C329.626 99.1067 329.733 99.1173 329.839 99.16C329.733 99.0427 329.615 98.8613 329.487 98.616C329.37 98.36 329.311 98.088 329.311 97.8C329.311 97.512 329.375 97.256 329.503 97.032C329.642 96.7973 329.839 96.616 330.095 96.488C330.362 96.36 330.677 96.296 331.039 96.296C331.349 96.296 331.573 96.3387 331.711 96.424C331.85 96.4987 331.935 96.584 331.967 96.68C332.01 96.776 332.031 96.8613 332.031 96.936C332.031 97.1067 331.983 97.2347 331.887 97.32C331.802 97.3947 331.706 97.4373 331.599 97.448C331.493 97.448 331.413 97.4267 331.359 97.384C331.37 97.1707 331.301 97.0107 331.151 96.904C331.013 96.7867 330.869 96.7173 330.719 96.696C330.613 96.7173 330.501 96.808 330.383 96.968C330.277 97.128 330.223 97.3627 330.223 97.672C330.223 98.0347 330.298 98.3067 330.447 98.488C330.597 98.6587 330.773 98.7707 330.975 98.824C331.189 98.8773 331.375 98.904 331.535 98.904C331.663 98.904 331.775 98.8987 331.871 98.888C331.967 98.8667 332.037 98.8507 332.079 98.84C332.25 98.84 332.351 98.888 332.383 98.984C332.426 99.08 332.431 99.176 332.399 99.272C332.367 99.368 332.319 99.416 332.255 99.416C332.01 99.4373 331.754 99.464 331.487 99.496C331.221 99.528 330.959 99.56 330.703 99.592C330.458 99.624 330.229 99.656 330.015 99.688C329.813 99.72 329.642 99.752 329.503 99.784C329.365 99.816 329.285 99.848 329.263 99.88ZM340.695 109C340.354 109 340.151 108.899 340.087 108.696C340.023 108.493 339.991 108.253 339.991 107.976V100.808C339.991 100.477 339.943 100.179 339.847 99.912C339.762 99.6453 339.65 99.4213 339.511 99.24C339.373 99.0587 339.239 98.9253 339.111 98.84C339.154 98.7867 339.223 98.728 339.319 98.664C339.426 98.6 339.554 98.5467 339.703 98.504C339.853 98.4613 340.007 98.44 340.167 98.44C340.37 98.44 340.567 98.4933 340.759 98.6C340.951 98.696 341.111 98.872 341.239 99.128C341.367 99.384 341.431 99.7467 341.431 100.216V107.976C341.431 108.253 341.394 108.493 341.319 108.696C341.245 108.899 341.037 109 340.695 109Z" fill="#4F4F4F"/>
<path d="M93.624 256V251.84C94.6907 250.773 96.056 249.472 97.72 247.936C99.384 246.357 101.112 244.651 102.904 242.816C104.739 240.939 106.445 238.997 108.024 236.992C109.603 234.944 110.883 232.896 111.864 230.848C112.888 228.8 113.4 226.795 113.4 224.832C113.4 222.613 113.059 220.821 112.376 219.456C111.693 218.048 110.819 217.024 109.752 216.384C108.685 215.701 107.555 215.36 106.36 215.36C103.672 215.36 101.411 216.256 99.576 218.048C97.7413 219.84 96.504 222.677 95.864 226.56H93.624C93.624 224.939 93.688 223.296 93.816 221.632C93.944 219.925 94.392 218.581 95.16 217.6C96.312 216.192 97.9973 214.997 100.216 214.016C102.477 212.992 104.952 212.48 107.64 212.48C109.133 212.48 110.712 212.651 112.376 212.992C114.083 213.291 115.683 213.867 117.176 214.72C118.712 215.573 119.949 216.811 120.888 218.432C121.869 220.053 122.36 222.187 122.36 224.832C122.36 226.837 121.891 228.821 120.952 230.784C120.013 232.747 118.776 234.667 117.24 236.544C115.747 238.421 114.104 240.213 112.312 241.92C110.52 243.627 108.749 245.205 107 246.656C105.251 248.064 103.672 249.323 102.264 250.432C100.899 251.541 99.8747 252.437 99.192 253.12H112.44C115 253.12 116.963 252.523 118.328 251.328C119.736 250.091 120.44 248.341 120.44 246.08H122.36V250.88C122.36 251.733 122.211 252.565 121.912 253.376C121.613 254.144 121.08 254.784 120.312 255.296C119.544 255.765 118.413 256 116.92 256H93.624ZM142.46 257.28C138.961 257.28 136.103 256.661 133.884 255.424C131.665 254.187 129.66 252.501 127.868 250.368L129.724 248.704C131.345 250.709 133.159 252.16 135.164 253.056C137.212 253.952 139.153 254.4 140.988 254.4C142.652 254.4 144.145 254.059 145.468 253.376C146.791 252.651 147.836 251.52 148.604 249.984C149.415 248.405 149.82 246.357 149.82 243.84C149.82 240.512 148.924 238.037 147.132 236.416C145.383 234.795 142.908 233.984 139.708 233.984C138.257 233.984 136.764 234.176 135.228 234.56C133.735 234.901 132.561 235.2 131.708 235.456L129.148 232.96L129.852 213.76H154.748V216.576H137.276L136.7 231.36L138.62 231.232C139.175 231.189 139.772 231.147 140.412 231.104C141.052 231.061 141.671 231.04 142.268 231.04C143.932 231.04 145.724 231.232 147.644 231.616C149.564 232 151.356 232.683 153.02 233.664C154.727 234.603 156.113 235.904 157.18 237.568C158.247 239.232 158.78 241.323 158.78 243.84C158.78 246.528 158.225 248.747 157.116 250.496C156.007 252.245 154.599 253.611 152.892 254.592C151.185 255.573 149.393 256.256 147.516 256.64C145.681 257.067 143.996 257.28 142.46 257.28Z" fill="#4F4F4F"/>
<path d="M298.616 251V216.312L293.048 219.896L291.512 217.912L301.368 208.76H306.936V251H298.616ZM328.648 252.28C325.149 252.28 322.29 251.661 320.072 250.424C317.853 249.187 315.848 247.501 314.056 245.368L315.911 243.704C317.533 245.709 319.346 247.16 321.352 248.056C323.4 248.952 325.341 249.4 327.176 249.4C328.84 249.4 330.333 249.059 331.656 248.376C332.978 247.651 334.024 246.52 334.792 244.984C335.602 243.405 336.008 241.357 336.008 238.84C336.008 235.512 335.112 233.037 333.32 231.416C331.57 229.795 329.096 228.984 325.896 228.984C324.445 228.984 322.952 229.176 321.416 229.56C319.922 229.901 318.749 230.2 317.896 230.456L315.336 227.96L316.04 208.76H340.936V211.576H323.464L322.888 226.36L324.808 226.232C325.362 226.189 325.96 226.147 326.6 226.104C327.24 226.061 327.858 226.04 328.456 226.04C330.12 226.04 331.912 226.232 333.832 226.616C335.752 227 337.544 227.683 339.208 228.664C340.914 229.603 342.301 230.904 343.368 232.568C344.434 234.232 344.968 236.323 344.968 238.84C344.968 241.528 344.413 243.747 343.304 245.496C342.194 247.245 340.786 248.611 339.08 249.592C337.373 250.573 335.581 251.256 333.704 251.64C331.869 252.067 330.184 252.28 328.648 252.28Z" fill="#4F4F4F"/>
<path d="M69.9826 276V275.3C70.5706 274.731 71.1026 274.217 71.5786 273.76C72.0639 273.303 72.4886 272.883 72.8526 272.5C73.2166 272.117 73.5246 271.749 73.7766 271.394C74.0286 271.039 74.2153 270.68 74.3366 270.316C74.4673 269.952 74.5326 269.56 74.5326 269.14C74.5326 268.673 74.4486 268.286 74.2806 267.978C74.1126 267.661 73.8886 267.427 73.6086 267.278C73.3379 267.119 73.0393 267.04 72.7126 267.04C72.1526 267.04 71.6626 267.245 71.2426 267.656C70.8226 268.057 70.5426 268.645 70.4026 269.42H70.1226C70.1226 269.065 70.1366 268.729 70.1646 268.412C70.1926 268.085 70.2906 267.815 70.4586 267.6C70.7106 267.292 71.0793 267.031 71.5646 266.816C72.0499 266.592 72.5726 266.48 73.1326 266.48C73.4126 266.48 73.7113 266.517 74.0286 266.592C74.3553 266.657 74.6633 266.783 74.9526 266.97C75.2419 267.157 75.4753 267.427 75.6526 267.782C75.8393 268.127 75.9326 268.58 75.9326 269.14C75.9326 269.541 75.8673 269.919 75.7366 270.274C75.6153 270.619 75.4426 270.955 75.2186 271.282C74.9946 271.609 74.7286 271.935 74.4206 272.262C74.1126 272.579 73.7719 272.906 73.3986 273.242C73.0346 273.569 72.6426 273.914 72.2226 274.278C71.8119 274.642 71.3919 275.029 70.9626 275.44H74.1126C74.6726 275.44 75.1019 275.319 75.4006 275.076C75.7086 274.833 75.8626 274.465 75.8626 273.97H76.1426V274.88C76.1426 275.067 76.1099 275.249 76.0446 275.426C75.9793 275.594 75.8626 275.734 75.6946 275.846C75.5266 275.949 75.2793 276 74.9526 276H69.9826ZM81.6204 276.28C80.8084 276.28 80.1551 276.079 79.6604 275.678C79.1658 275.267 78.8064 274.693 78.5824 273.956C78.3678 273.219 78.2604 272.36 78.2604 271.38C78.2604 270.391 78.3678 269.532 78.5824 268.804C78.8064 268.067 79.1658 267.497 79.6604 267.096C80.1551 266.685 80.8084 266.48 81.6204 266.48C82.4418 266.48 83.0951 266.685 83.5804 267.096C84.0751 267.497 84.4298 268.067 84.6444 268.804C84.8684 269.532 84.9804 270.391 84.9804 271.38C84.9804 272.36 84.8684 273.219 84.6444 273.956C84.4298 274.693 84.0751 275.267 83.5804 275.678C83.0951 276.079 82.4418 276.28 81.6204 276.28ZM81.6204 275.72C82.3858 275.72 82.9038 275.365 83.1744 274.656C83.4451 273.937 83.5804 272.845 83.5804 271.38C83.5804 269.905 83.4451 268.813 83.1744 268.104C82.9038 267.395 82.3858 267.04 81.6204 267.04C80.8551 267.04 80.3371 267.395 80.0664 268.104C79.7958 268.813 79.6604 269.905 79.6604 271.38C79.6604 272.845 79.7958 273.937 80.0664 274.656C80.3371 275.365 80.8551 275.72 81.6204 275.72ZM86.9822 276V275.3C87.5702 274.731 88.1022 274.217 88.5782 273.76C89.0635 273.303 89.4882 272.883 89.8522 272.5C90.2162 272.117 90.5242 271.749 90.7762 271.394C91.0282 271.039 91.2149 270.68 91.3362 270.316C91.4669 269.952 91.5322 269.56 91.5322 269.14C91.5322 268.673 91.4482 268.286 91.2802 267.978C91.1122 267.661 90.8882 267.427 90.6082 267.278C90.3375 267.119 90.0389 267.04 89.7122 267.04C89.1522 267.04 88.6622 267.245 88.2422 267.656C87.8222 268.057 87.5422 268.645 87.4022 269.42H87.1222C87.1222 269.065 87.1362 268.729 87.1642 268.412C87.1922 268.085 87.2902 267.815 87.4582 267.6C87.7102 267.292 88.0789 267.031 88.5642 266.816C89.0495 266.592 89.5722 266.48 90.1322 266.48C90.4122 266.48 90.7109 266.517 91.0282 266.592C91.3549 266.657 91.6629 266.783 91.9522 266.97C92.2415 267.157 92.4749 267.427 92.6522 267.782C92.8389 268.127 92.9322 268.58 92.9322 269.14C92.9322 269.541 92.8669 269.919 92.7362 270.274C92.6149 270.619 92.4422 270.955 92.2182 271.282C91.9942 271.609 91.7282 271.935 91.4202 272.262C91.1122 272.579 90.7715 272.906 90.3982 273.242C90.0342 273.569 89.6422 273.914 89.2222 274.278C88.8115 274.642 88.3915 275.029 87.9622 275.44H91.1122C91.6722 275.44 92.1015 275.319 92.4002 275.076C92.7082 274.833 92.8622 274.465 92.8622 273.97H93.1422V274.88C93.1422 275.067 93.1095 275.249 93.0442 275.426C92.9789 275.594 92.8622 275.734 92.6942 275.846C92.5262 275.949 92.2789 276 91.9522 276H86.9822ZM99.264 276V273.62H94.784V273.06L99.404 266.76H100.524V273.06H101.784V273.62H100.524V276H99.264ZM95.624 273.06H99.264V268.104L95.624 273.06ZM108.069 278.17L107.929 277.96C108.171 277.801 108.372 277.629 108.531 277.442C108.699 277.255 108.825 277.05 108.909 276.826C109.002 276.602 109.049 276.35 109.049 276.07C109.011 276.098 108.951 276.126 108.867 276.154C108.783 276.191 108.703 276.21 108.629 276.21C108.414 276.21 108.232 276.135 108.083 275.986C107.933 275.837 107.859 275.655 107.859 275.44C107.859 275.197 107.938 274.997 108.097 274.838C108.255 274.679 108.456 274.6 108.699 274.6C108.979 274.6 109.198 274.684 109.357 274.852C109.525 275.02 109.609 275.263 109.609 275.58C109.609 276.177 109.473 276.686 109.203 277.106C108.941 277.535 108.563 277.89 108.069 278.17ZM118.027 276V275.02H119.763V276H118.027ZM116.319 279.206C116.198 279.206 116.09 279.192 115.997 279.164C115.904 279.136 115.82 279.099 115.745 279.052C115.68 279.005 115.624 278.963 115.577 278.926C115.95 278.609 116.216 278.273 116.375 277.918C116.543 277.563 116.65 277.213 116.697 276.868C116.744 276.532 116.767 276.243 116.767 276V269.896C116.767 269.663 116.828 269.504 116.949 269.42C117.07 269.327 117.22 269.28 117.397 269.28C117.574 269.28 117.724 269.327 117.845 269.42C117.966 269.504 118.027 269.663 118.027 269.896V276C118.027 276.327 117.999 276.677 117.943 277.05C117.887 277.423 117.794 277.773 117.663 278.1C117.532 278.427 117.355 278.693 117.131 278.898C116.916 279.103 116.646 279.206 116.319 279.206ZM119.763 276V275.02C119.875 275.02 119.95 275.062 119.987 275.146C120.024 275.23 120.043 275.351 120.043 275.51C120.043 275.659 120.024 275.781 119.987 275.874C119.95 275.958 119.875 276 119.763 276ZM120.468 276V275.02H121.406C121.704 275.02 121.952 274.95 122.148 274.81C122.344 274.67 122.493 274.493 122.596 274.278C122.708 274.063 122.787 273.839 122.834 273.606C122.89 273.373 122.922 273.163 122.932 272.976C122.941 272.78 122.946 272.64 122.946 272.556C122.946 272.304 122.922 272.005 122.876 271.66C122.829 271.315 122.722 270.955 122.554 270.582C122.395 270.209 122.129 269.868 121.756 269.56C121.802 269.513 121.858 269.471 121.924 269.434C121.998 269.387 122.082 269.35 122.176 269.322C122.269 269.294 122.376 269.28 122.498 269.28C122.824 269.28 123.095 269.387 123.31 269.602C123.534 269.817 123.711 270.097 123.842 270.442C123.972 270.778 124.066 271.137 124.122 271.52C124.178 271.903 124.206 272.257 124.206 272.584C124.206 273.657 123.958 274.497 123.464 275.104C122.969 275.701 122.283 276 121.406 276H120.468ZM120.468 276C120.356 276 120.281 275.958 120.244 275.874C120.206 275.781 120.188 275.659 120.188 275.51C120.188 275.351 120.206 275.23 120.244 275.146C120.281 275.062 120.356 275.02 120.468 275.02V276ZM123.548 278.73C123.333 278.73 123.146 278.651 122.988 278.492C122.829 278.333 122.75 278.147 122.75 277.932C122.75 277.708 122.829 277.517 122.988 277.358C123.146 277.199 123.333 277.12 123.548 277.12C123.772 277.12 123.958 277.199 124.108 277.358C124.266 277.517 124.346 277.708 124.346 277.932C124.346 278.147 124.266 278.333 124.108 278.492C123.958 278.651 123.772 278.73 123.548 278.73ZM121.504 278.73C121.289 278.73 121.102 278.651 120.944 278.492C120.785 278.333 120.706 278.147 120.706 277.932C120.706 277.708 120.785 277.517 120.944 277.358C121.102 277.199 121.289 277.12 121.504 277.12C121.728 277.12 121.914 277.199 122.064 277.358C122.222 277.517 122.302 277.708 122.302 277.932C122.302 278.147 122.222 278.333 122.064 278.492C121.914 278.651 121.728 278.73 121.504 278.73ZM127.902 276C127.603 276 127.426 275.911 127.37 275.734C127.314 275.557 127.286 275.347 127.286 275.104V268.832C127.286 268.543 127.244 268.281 127.16 268.048C127.085 267.815 126.987 267.619 126.866 267.46C126.745 267.301 126.628 267.185 126.516 267.11C126.553 267.063 126.614 267.012 126.698 266.956C126.791 266.9 126.903 266.853 127.034 266.816C127.165 266.779 127.3 266.76 127.44 266.76C127.617 266.76 127.79 266.807 127.958 266.9C128.126 266.984 128.266 267.138 128.378 267.362C128.49 267.586 128.546 267.903 128.546 268.314V275.104C128.546 275.347 128.513 275.557 128.448 275.734C128.383 275.911 128.201 276 127.902 276ZM132.678 276V275.02H134.414V276H132.678ZM130.97 279.206C130.848 279.206 130.741 279.192 130.648 279.164C130.554 279.136 130.47 279.099 130.396 279.052C130.33 279.005 130.274 278.963 130.228 278.926C130.601 278.609 130.867 278.273 131.026 277.918C131.194 277.563 131.301 277.213 131.348 276.868C131.394 276.532 131.418 276.243 131.418 276V269.896C131.418 269.663 131.478 269.504 131.6 269.42C131.721 269.327 131.87 269.28 132.048 269.28C132.225 269.28 132.374 269.327 132.496 269.42C132.617 269.504 132.678 269.663 132.678 269.896V276C132.678 276.327 132.65 276.677 132.594 277.05C132.538 277.423 132.444 277.773 132.314 278.1C132.183 278.427 132.006 278.693 131.782 278.898C131.567 279.103 131.296 279.206 130.97 279.206ZM134.414 276V275.02C134.526 275.02 134.6 275.062 134.638 275.146C134.675 275.23 134.694 275.351 134.694 275.51C134.694 275.659 134.675 275.781 134.638 275.874C134.6 275.958 134.526 276 134.414 276ZM135.118 276V275.02H135.468C135.758 275.02 135.991 274.936 136.168 274.768C136.355 274.6 136.49 274.39 136.574 274.138C136.668 273.886 136.714 273.629 136.714 273.368V269.896C136.714 269.663 136.775 269.504 136.896 269.42C137.018 269.327 137.167 269.28 137.344 269.28C137.522 269.28 137.671 269.327 137.792 269.42C137.914 269.504 137.974 269.663 137.974 269.896V273.368C137.974 273.872 137.867 274.325 137.652 274.726C137.438 275.118 137.144 275.431 136.77 275.664C136.397 275.888 135.963 276 135.468 276H135.118ZM139.22 276C138.735 276 138.301 275.888 137.918 275.664C137.545 275.431 137.251 275.118 137.036 274.726C136.822 274.325 136.714 273.872 136.714 273.368H137.974C137.974 273.629 138.016 273.886 138.1 274.138C138.194 274.39 138.334 274.6 138.52 274.768C138.707 274.936 138.94 275.02 139.22 275.02H139.724V276H139.22ZM139.724 276V275.02C139.836 275.02 139.911 275.062 139.948 275.146C139.986 275.23 140.004 275.351 140.004 275.51C140.004 275.659 139.986 275.781 139.948 275.874C139.911 275.958 139.836 276 139.724 276ZM135.118 276C135.006 276 134.932 275.958 134.894 275.874C134.857 275.781 134.838 275.659 134.838 275.51C134.838 275.351 134.857 275.23 134.894 275.146C134.932 275.062 135.006 275.02 135.118 275.02V276ZM137.358 278.73C137.125 278.73 136.929 278.651 136.77 278.492C136.612 278.333 136.532 278.147 136.532 277.932C136.532 277.708 136.612 277.517 136.77 277.358C136.929 277.199 137.125 277.12 137.358 277.12C137.573 277.12 137.76 277.199 137.918 277.358C138.077 277.517 138.156 277.708 138.156 277.932C138.156 278.147 138.077 278.333 137.918 278.492C137.76 278.651 137.573 278.73 137.358 278.73ZM140.426 276V275.02H144.388C144.826 275.02 145.176 274.871 145.438 274.572C145.699 274.273 145.83 273.872 145.83 273.368V270.834C145.83 270.657 145.736 270.517 145.55 270.414C145.372 270.311 145.083 270.26 144.682 270.26C144.066 270.26 143.594 270.461 143.268 270.862C142.941 271.254 142.778 271.842 142.778 272.626C142.778 273.401 142.95 273.993 143.296 274.404C143.641 274.815 144.136 275.02 144.78 275.02L144.36 275.986C143.837 275.93 143.361 275.776 142.932 275.524C142.502 275.263 142.157 274.894 141.896 274.418C141.644 273.933 141.518 273.335 141.518 272.626C141.518 271.571 141.802 270.75 142.372 270.162C142.95 269.574 143.72 269.28 144.682 269.28C145.391 269.28 145.97 269.429 146.418 269.728C146.866 270.017 147.09 270.386 147.09 270.834V273.368C147.09 273.872 146.973 274.325 146.74 274.726C146.516 275.118 146.198 275.431 145.788 275.664C145.386 275.888 144.92 276 144.388 276H140.426ZM140.426 276C140.314 276 140.239 275.958 140.202 275.874C140.164 275.781 140.146 275.659 140.146 275.51C140.146 275.351 140.164 275.23 140.202 275.146C140.239 275.062 140.314 275.02 140.426 275.02V276ZM144.738 268.37C144.504 268.37 144.308 268.291 144.15 268.132C143.991 267.973 143.912 267.787 143.912 267.572C143.912 267.348 143.991 267.157 144.15 266.998C144.308 266.839 144.504 266.76 144.738 266.76C144.952 266.76 145.139 266.839 145.298 266.998C145.456 267.157 145.536 267.348 145.536 267.572C145.536 267.787 145.456 267.973 145.298 268.132C145.139 268.291 144.952 268.37 144.738 268.37Z" fill="#828282"/>
<path d="M262.669 276V268.16L261.311 269.042L261.059 268.72L263.229 266.76H263.929V276H262.669ZM270.56 276V273.62H266.08V273.06L270.7 266.76H271.82V273.06H273.08V273.62H271.82V276H270.56ZM266.92 273.06H270.56V268.104L266.92 273.06ZM278.903 276V273.62H274.423V273.06L279.043 266.76H280.163V273.06H281.423V273.62H280.163V276H278.903ZM275.263 273.06H278.903V268.104L275.263 273.06ZM286.111 276.28C285.411 276.28 284.828 276.149 284.361 275.888C283.904 275.627 283.484 275.267 283.101 274.81L283.367 274.572C283.722 274.964 284.105 275.253 284.515 275.44C284.926 275.627 285.388 275.72 285.901 275.72C286.275 275.72 286.62 275.641 286.937 275.482C287.255 275.314 287.511 275.062 287.707 274.726C287.903 274.39 288.001 273.951 288.001 273.41C288.001 272.673 287.801 272.127 287.399 271.772C287.007 271.417 286.461 271.24 285.761 271.24C285.528 271.24 285.285 271.249 285.033 271.268C284.781 271.287 284.441 271.324 284.011 271.38L283.451 270.82L283.591 266.76H288.841V267.32H284.739L284.613 270.75L285.061 270.722C285.192 270.713 285.341 270.703 285.509 270.694C285.687 270.685 285.864 270.68 286.041 270.68C286.396 270.68 286.765 270.717 287.147 270.792C287.539 270.867 287.903 271.007 288.239 271.212C288.585 271.408 288.865 271.683 289.079 272.038C289.294 272.393 289.401 272.85 289.401 273.41C289.401 274.007 289.285 274.497 289.051 274.88C288.827 275.253 288.543 275.543 288.197 275.748C287.852 275.944 287.493 276.079 287.119 276.154C286.746 276.238 286.41 276.28 286.111 276.28ZM295.831 278.17L295.691 277.96C295.934 277.801 296.134 277.629 296.293 277.442C296.461 277.255 296.587 277.05 296.671 276.826C296.764 276.602 296.811 276.35 296.811 276.07C296.774 276.098 296.713 276.126 296.629 276.154C296.545 276.191 296.466 276.21 296.391 276.21C296.176 276.21 295.994 276.135 295.845 275.986C295.696 275.837 295.621 275.655 295.621 275.44C295.621 275.197 295.7 274.997 295.859 274.838C296.018 274.679 296.218 274.6 296.461 274.6C296.741 274.6 296.96 274.684 297.119 274.852C297.287 275.02 297.371 275.263 297.371 275.58C297.371 276.177 297.236 276.686 296.965 277.106C296.704 277.535 296.326 277.89 295.831 278.17ZM308.057 279.304C307.18 279.304 306.433 279.155 305.817 278.856C305.211 278.557 304.749 278.147 304.431 277.624C304.123 277.111 303.969 276.537 303.969 275.902C303.969 275.669 303.993 275.379 304.039 275.034C304.095 274.679 304.184 274.329 304.305 273.984C304.436 273.629 304.609 273.335 304.823 273.102C305.047 272.859 305.332 272.738 305.677 272.738C305.799 272.738 305.906 272.752 305.999 272.78C306.093 272.808 306.172 272.845 306.237 272.892C306.312 272.929 306.373 272.971 306.419 273.018C306.083 273.298 305.831 273.611 305.663 273.956C305.495 274.301 305.379 274.637 305.313 274.964C305.257 275.281 305.229 275.561 305.229 275.804C305.229 276.691 305.486 277.33 305.999 277.722C306.522 278.123 307.203 278.324 308.043 278.324C308.865 278.324 309.457 278.133 309.821 277.75C310.195 277.377 310.381 276.751 310.381 275.874V269.896C310.381 269.663 310.442 269.504 310.563 269.42C310.685 269.327 310.834 269.28 311.011 269.28C311.189 269.28 311.338 269.327 311.459 269.42C311.581 269.504 311.641 269.663 311.641 269.896V275.874C311.641 276.919 311.357 277.75 310.787 278.366C310.218 278.991 309.308 279.304 308.057 279.304ZM307.819 269.28C307.586 269.28 307.39 269.201 307.231 269.042C307.073 268.883 306.993 268.697 306.993 268.482C306.993 268.258 307.073 268.067 307.231 267.908C307.39 267.749 307.586 267.67 307.819 267.67C308.034 267.67 308.221 267.749 308.379 267.908C308.538 268.067 308.617 268.258 308.617 268.482C308.617 268.697 308.538 268.883 308.379 269.042C308.221 269.201 308.034 269.28 307.819 269.28ZM317.237 276C316.752 276 316.318 275.888 315.935 275.664C315.562 275.431 315.268 275.118 315.053 274.726C314.839 274.325 314.731 273.872 314.731 273.368V268.832C314.731 268.543 314.689 268.281 314.605 268.048C314.531 267.815 314.433 267.619 314.311 267.46C314.19 267.301 314.073 267.185 313.961 267.11C313.999 267.063 314.059 267.012 314.143 266.956C314.237 266.9 314.349 266.853 314.479 266.816C314.61 266.779 314.745 266.76 314.885 266.76C315.063 266.76 315.235 266.807 315.403 266.9C315.571 266.984 315.711 267.138 315.823 267.362C315.935 267.586 315.991 267.903 315.991 268.314V273.368C315.991 273.629 316.033 273.886 316.117 274.138C316.211 274.39 316.351 274.6 316.537 274.768C316.724 274.936 316.957 275.02 317.237 275.02H317.671V276H317.237ZM317.671 276V275.02C317.783 275.02 317.858 275.062 317.895 275.146C317.933 275.23 317.951 275.351 317.951 275.51C317.951 275.659 317.933 275.781 317.895 275.874C317.858 275.958 317.783 276 317.671 276ZM318.377 276V275.02H318.727C319.017 275.02 319.25 274.936 319.427 274.768C319.614 274.6 319.749 274.39 319.833 274.138C319.927 273.886 319.973 273.629 319.973 273.368V269.896C319.973 269.663 320.034 269.504 320.155 269.42C320.277 269.327 320.426 269.28 320.603 269.28C320.781 269.28 320.93 269.327 321.051 269.42C321.173 269.504 321.233 269.663 321.233 269.896V273.368C321.233 273.872 321.126 274.325 320.911 274.726C320.697 275.118 320.403 275.431 320.029 275.664C319.656 275.888 319.222 276 318.727 276H318.377ZM322.479 276C321.994 276 321.56 275.888 321.177 275.664C320.804 275.431 320.51 275.118 320.295 274.726C320.081 274.325 319.973 273.872 319.973 273.368H321.233C321.233 273.629 321.275 273.886 321.359 274.138C321.453 274.39 321.593 274.6 321.779 274.768C321.966 274.936 322.199 275.02 322.479 275.02H322.983V276H322.479ZM322.983 276V275.02C323.095 275.02 323.17 275.062 323.207 275.146C323.245 275.23 323.263 275.351 323.263 275.51C323.263 275.659 323.245 275.781 323.207 275.874C323.17 275.958 323.095 276 322.983 276ZM318.377 276C318.265 276 318.191 275.958 318.153 275.874C318.116 275.781 318.097 275.659 318.097 275.51C318.097 275.351 318.116 275.23 318.153 275.146C318.191 275.062 318.265 275.02 318.377 275.02V276ZM320.617 278.73C320.384 278.73 320.188 278.651 320.029 278.492C319.871 278.333 319.791 278.147 319.791 277.932C319.791 277.708 319.871 277.517 320.029 277.358C320.188 277.199 320.384 277.12 320.617 277.12C320.832 277.12 321.019 277.199 321.177 277.358C321.336 277.517 321.415 277.708 321.415 277.932C321.415 278.147 321.336 278.333 321.177 278.492C321.019 278.651 320.832 278.73 320.617 278.73ZM323.685 276V275.02H326.093C326.662 275.02 327.203 274.936 327.717 274.768C328.239 274.591 328.706 274.357 329.117 274.068C329.527 273.769 329.849 273.433 330.083 273.06C330.325 272.687 330.447 272.299 330.447 271.898C330.447 271.375 330.241 270.974 329.831 270.694C329.42 270.405 328.837 270.26 328.081 270.26C327.325 270.26 326.741 270.405 326.331 270.694C325.92 270.974 325.715 271.375 325.715 271.898C325.715 272.299 325.831 272.687 326.065 273.06C326.307 273.433 326.634 273.769 327.045 274.068C327.455 274.357 327.922 274.591 328.445 274.768C328.967 274.936 329.509 275.02 330.069 275.02H332.477V276H330.069C329.425 276 328.771 275.897 328.109 275.692C327.446 275.487 326.839 275.202 326.289 274.838C325.738 274.465 325.295 274.031 324.959 273.536C324.623 273.032 324.455 272.486 324.455 271.898C324.455 271.431 324.562 271.035 324.777 270.708C324.991 270.372 325.276 270.101 325.631 269.896C325.995 269.681 326.387 269.527 326.807 269.434C327.236 269.331 327.661 269.28 328.081 269.28C328.501 269.28 328.921 269.331 329.341 269.434C329.77 269.527 330.162 269.677 330.517 269.882C330.871 270.087 331.156 270.358 331.371 270.694C331.595 271.021 331.707 271.422 331.707 271.898C331.707 272.486 331.539 273.032 331.203 273.536C330.876 274.031 330.437 274.465 329.887 274.838C329.336 275.202 328.729 275.487 328.067 275.692C327.404 275.897 326.746 276 326.093 276H323.685ZM323.685 276C323.573 276 323.498 275.958 323.461 275.874C323.423 275.781 323.405 275.659 323.405 275.51C323.405 275.351 323.423 275.23 323.461 275.146C323.498 275.062 323.573 275.02 323.685 275.02V276ZM332.477 276V275.02C332.589 275.02 332.663 275.062 332.701 275.146C332.738 275.23 332.757 275.351 332.757 275.51C332.757 275.659 332.738 275.781 332.701 275.874C332.663 275.958 332.589 276 332.477 276ZM341.926 276V275.02H342.29C342.588 275.02 342.836 274.95 343.032 274.81C343.228 274.67 343.377 274.493 343.48 274.278C343.592 274.063 343.671 273.839 343.718 273.606C343.774 273.373 343.806 273.163 343.816 272.976C343.825 272.78 343.83 272.64 343.83 272.556C343.83 272.304 343.806 272.005 343.76 271.66C343.713 271.315 343.606 270.955 343.438 270.582C343.279 270.209 343.013 269.868 342.64 269.56C342.686 269.513 342.742 269.471 342.808 269.434C342.882 269.387 342.966 269.35 343.06 269.322C343.153 269.294 343.26 269.28 343.382 269.28C343.708 269.28 343.979 269.387 344.194 269.602C344.418 269.817 344.595 270.097 344.726 270.442C344.856 270.778 344.95 271.137 345.006 271.52C345.062 271.903 345.09 272.257 345.09 272.584C345.09 273.657 344.842 274.497 344.348 275.104C343.853 275.701 343.167 276 342.29 276H341.926ZM337.474 276C336.988 276 336.554 275.888 336.172 275.664C335.798 275.431 335.504 275.118 335.29 274.726C335.075 274.325 334.968 273.872 334.968 273.368H336.228C336.228 273.629 336.27 273.886 336.354 274.138C336.447 274.39 336.587 274.6 336.774 274.768C336.96 274.936 337.194 275.02 337.474 275.02H337.67V276H337.474ZM333.176 276V275.02H333.722C334.011 275.02 334.244 274.936 334.422 274.768C334.608 274.6 334.744 274.39 334.828 274.138C334.921 273.886 334.968 273.629 334.968 273.368V270.666C334.968 270.433 335.028 270.274 335.15 270.19C335.271 270.097 335.42 270.05 335.598 270.05C335.775 270.05 335.924 270.097 336.046 270.19C336.167 270.274 336.228 270.433 336.228 270.666V273.368C336.228 273.872 336.12 274.325 335.906 274.726C335.691 275.118 335.397 275.431 335.024 275.664C334.65 275.888 334.216 276 333.722 276H333.176ZM341.646 276C341.16 276 340.726 275.888 340.344 275.664C339.97 275.431 339.676 275.118 339.462 274.726C339.247 274.325 339.14 273.872 339.14 273.368H340.4C340.4 273.629 340.442 273.886 340.526 274.138C340.619 274.39 340.759 274.6 340.946 274.768C341.132 274.936 341.366 275.02 341.646 275.02H341.926V276H341.646ZM337.67 276V275.02H337.894C338.183 275.02 338.416 274.936 338.594 274.768C338.78 274.6 338.916 274.39 339 274.138C339.093 273.886 339.14 273.629 339.14 273.368V270.33C339.14 270.097 339.2 269.938 339.322 269.854C339.443 269.761 339.592 269.714 339.77 269.714C339.947 269.714 340.096 269.761 340.218 269.854C340.339 269.938 340.4 270.097 340.4 270.33V273.368C340.4 273.872 340.292 274.325 340.078 274.726C339.863 275.118 339.569 275.431 339.196 275.664C338.822 275.888 338.388 276 337.894 276H337.67ZM333.176 276C333.064 276 332.989 275.958 332.952 275.874C332.914 275.781 332.896 275.659 332.896 275.51C332.896 275.351 332.914 275.23 332.952 275.146C332.989 275.062 333.064 275.02 333.176 275.02V276ZM340.792 268.37C340.577 268.37 340.39 268.291 340.232 268.132C340.073 267.973 339.994 267.782 339.994 267.558C339.994 267.343 340.073 267.157 340.232 266.998C340.39 266.839 340.577 266.76 340.792 266.76C341.016 266.76 341.202 266.839 341.352 266.998C341.51 267.157 341.59 267.343 341.59 267.558C341.59 267.782 341.51 267.973 341.352 268.132C341.202 268.291 341.016 268.37 340.792 268.37ZM338.748 268.37C338.533 268.37 338.346 268.291 338.188 268.132C338.029 267.973 337.95 267.782 337.95 267.558C337.95 267.343 338.029 267.157 338.188 266.998C338.346 266.839 338.533 266.76 338.748 266.76C338.972 266.76 339.158 266.839 339.308 266.998C339.466 267.157 339.546 267.343 339.546 267.558C339.546 267.782 339.466 267.973 339.308 268.132C339.158 268.291 338.972 268.37 338.748 268.37ZM339.77 266.578C339.564 266.578 339.387 266.508 339.238 266.368C339.098 266.219 339.028 266.041 339.028 265.836C339.028 265.631 339.098 265.458 339.238 265.318C339.387 265.169 339.564 265.094 339.77 265.094C339.975 265.094 340.148 265.169 340.288 265.318C340.437 265.458 340.512 265.631 340.512 265.836C340.512 266.041 340.437 266.219 340.288 266.368C340.148 266.508 339.975 266.578 339.77 266.578Z" fill="#828282"/>
<defs>
<filter id="filter0_d_668_6288" x="30" y="18" width="350" height="373.948" filterUnits="userSpaceOnUse" color-interpolation-filters="sRGB">
<feFlood flood-opacity="0" result="BackgroundImageFix"/>
<feColorMatrix in="SourceAlpha" type="matrix" values="0 0 0 0 0 0 0 0 0 0 0 0 0 0 0 0 0 0 127 0" result="hardAlpha"/>
<feOffset/>
<feGaussianBlur stdDeviation="6.5"/>
<feComposite in2="hardAlpha" operator="out"/>
<feColorMatrix type="matrix" values="0 0 0 0 0.1375 0 0 0 0 0.1375 0 0 0 0 0.1375 0 0 0 0.25 0"/>
<feBlend mode="normal" in2="BackgroundImageFix" result="effect1_dropShadow_668_6288"/>
<feBlend mode="normal" in="SourceGraphic" in2="effect1_dropShadow_668_6288" result="shape"/>
</filter>
<filter id="filter1_f_668_6288" x="0.488281" y="0" width="407.617" height="234.348" filterUnits="userSpaceOnUse" color-interpolation-filters="sRGB">
<feFlood flood-opacity="0" result="BackgroundImageFix"/>
<feBlend mode="normal" in="SourceGraphic" in2="BackgroundImageFix" result="shape"/>
<feGaussianBlur stdDeviation="44.5" result="effect1_foregroundBlur_668_6288"/>
</filter>
</defs>
</svg>
