<svg width="409" height="392" viewBox="0 0 409 392" fill="none" xmlns="http://www.w3.org/2000/svg">
<g filter="url(#filter0_d_668_6276)">
<rect x="43" y="31" width="324" height="347.948" rx="17" fill="#FBFBFB"/>
</g>
<g filter="url(#filter1_f_668_6276)">
<rect x="89.4883" y="89" width="229.617" height="56.3478" rx="28.1739" fill="#EBEBEB"/>
</g>
<path d="M106.269 162.512C105.608 162.512 105.032 162.32 104.541 161.936C104.051 161.552 103.645 161.029 103.325 160.368C103.027 159.728 102.792 158.981 102.621 158.128C102.472 157.275 102.397 156.389 102.397 155.472C102.397 153.765 102.781 152.528 103.549 151.76C104.317 150.992 105.416 150.608 106.845 150.608H113.437C114.12 150.608 114.643 150.363 115.005 149.872C115.368 149.381 115.549 148.539 115.549 147.344C115.549 145.573 115.123 144.251 114.269 143.376C113.416 142.48 112.125 142.032 110.397 142.032C110.141 142.032 109.811 142.032 109.405 142.032C109 142.032 108.595 142.043 108.189 142.064C107.784 142.064 107.443 142.064 107.165 142.064C106.461 142.064 105.885 141.904 105.437 141.584C104.989 141.243 104.648 140.805 104.413 140.272C104.2 139.739 104.093 139.195 104.093 138.64C104.093 138.192 104.179 137.883 104.349 137.712C104.541 137.52 104.723 137.435 104.893 137.456C105 137.797 105.267 138.096 105.693 138.352C106.12 138.587 106.76 138.704 107.613 138.704C107.827 138.704 108.125 138.704 108.509 138.704C108.893 138.683 109.267 138.672 109.629 138.672C110.013 138.651 110.269 138.64 110.397 138.64C112.061 138.64 113.48 138.885 114.653 139.376C115.827 139.845 116.787 140.496 117.533 141.328C118.28 142.16 118.824 143.099 119.165 144.144C119.528 145.168 119.709 146.235 119.709 147.344C119.709 148.944 119.4 150.235 118.781 151.216C118.163 152.197 117.373 152.912 116.413 153.36C115.453 153.787 114.461 154 113.437 154H105.277L106.845 152.816C106.76 153.157 106.685 153.552 106.621 154C106.579 154.448 106.557 154.949 106.557 155.504C106.557 156.549 106.643 157.381 106.813 158C107.005 158.619 107.261 159.109 107.581 159.472C107.923 159.856 108.307 160.219 108.733 160.56C108.733 160.773 108.637 161.029 108.445 161.328C108.275 161.648 108.008 161.925 107.645 162.16C107.283 162.395 106.824 162.512 106.269 162.512ZM112.509 160.144C111.848 160.144 111.283 159.909 110.813 159.44C110.365 158.992 110.141 158.459 110.141 157.84C110.141 157.2 110.365 156.656 110.813 156.208C111.283 155.76 111.848 155.536 112.509 155.536C113.128 155.536 113.661 155.76 114.109 156.208C114.579 156.656 114.813 157.2 114.813 157.84C114.813 158.459 114.579 158.992 114.109 159.44C113.661 159.909 113.128 160.144 112.509 160.144ZM128.54 154C127.75 154 127.206 153.776 126.908 153.328C126.609 152.859 126.46 152.357 126.46 151.824V137.584C126.46 136.816 126.364 136.261 126.172 135.92C125.98 135.579 125.766 135.355 125.532 135.248C125.297 135.141 125.116 135.056 124.988 134.992C124.988 134.821 125.062 134.565 125.212 134.224C125.382 133.883 125.649 133.573 126.012 133.296C126.396 133.019 126.908 132.88 127.548 132.88C128.166 132.88 128.7 133.051 129.148 133.392C129.617 133.712 129.98 134.16 130.236 134.736C130.492 135.312 130.62 135.973 130.62 136.72V151.888C130.62 152.379 130.47 152.859 130.172 153.328C129.873 153.776 129.329 154 128.54 154ZM140.807 154V150.608H144.103V154H140.807ZM136.903 161.328C136.37 161.328 135.922 161.211 135.559 160.976C135.197 160.741 134.919 160.464 134.727 160.144C134.557 159.845 134.471 159.589 134.471 159.376C134.919 159.035 135.303 158.651 135.623 158.224C135.943 157.797 136.189 157.243 136.359 156.56C136.551 155.899 136.647 155.045 136.647 154V140.624C136.647 140.005 136.839 139.525 137.223 139.184C137.629 138.821 138.13 138.64 138.727 138.64C139.346 138.64 139.847 138.821 140.231 139.184C140.615 139.525 140.807 140.005 140.807 140.624V154C140.807 154.939 140.722 155.845 140.551 156.72C140.402 157.595 140.167 158.373 139.847 159.056C139.549 159.76 139.154 160.315 138.663 160.72C138.173 161.125 137.586 161.328 136.903 161.328ZM144.103 154V150.608C144.338 150.608 144.498 150.768 144.583 151.088C144.69 151.387 144.743 151.792 144.743 152.304C144.743 152.816 144.69 153.232 144.583 153.552C144.498 153.851 144.338 154 144.103 154ZM145.713 154V150.608H151.217C152.347 150.608 153.425 150.437 154.449 150.096C155.494 149.755 156.422 149.307 157.233 148.752C158.065 148.176 158.715 147.536 159.185 146.832C159.654 146.107 159.889 145.371 159.889 144.624C159.889 143.792 159.558 143.152 158.897 142.704C158.235 142.256 157.19 142.032 155.761 142.032C154.353 142.032 153.307 142.256 152.625 142.704C151.963 143.131 151.633 143.771 151.633 144.624C151.633 145.371 151.867 146.107 152.337 146.832C152.827 147.536 153.478 148.176 154.289 148.752C155.099 149.307 156.027 149.755 157.073 150.096C158.118 150.437 159.195 150.608 160.305 150.608H165.809V154H160.305C158.833 154 157.339 153.765 155.825 153.296C154.31 152.827 152.923 152.176 151.665 151.344C150.406 150.491 149.393 149.499 148.625 148.368C147.857 147.216 147.473 145.968 147.473 144.624C147.473 143.557 147.718 142.651 148.209 141.904C148.699 141.136 149.35 140.517 150.161 140.048C150.993 139.557 151.889 139.205 152.849 138.992C153.83 138.757 154.801 138.64 155.761 138.64C156.721 138.64 157.681 138.757 158.641 138.992C159.622 139.205 160.518 139.547 161.329 140.016C162.139 140.485 162.79 141.104 163.281 141.872C163.793 142.619 164.049 143.536 164.049 144.624C164.049 145.968 163.665 147.216 162.897 148.368C162.15 149.499 161.147 150.491 159.889 151.344C158.63 152.176 157.243 152.827 155.729 153.296C154.214 153.765 152.71 154 151.217 154H145.713ZM145.713 154C145.499 154 145.339 153.851 145.233 153.552C145.126 153.232 145.073 152.816 145.073 152.304C145.073 151.792 145.126 151.387 145.233 151.088C145.339 150.768 145.499 150.608 145.713 150.608V154ZM165.809 154V150.608C166.043 150.608 166.203 150.768 166.289 151.088C166.395 151.387 166.449 151.792 166.449 152.304C166.449 152.816 166.395 153.232 166.289 153.552C166.203 153.851 166.043 154 165.809 154ZM184.718 154C183.524 154 182.446 153.733 181.486 153.2C180.548 152.667 179.801 151.931 179.246 150.992C178.713 150.053 178.446 148.997 178.446 147.824V146.416H182.606V147.824C182.606 148.251 182.681 148.688 182.83 149.136C182.98 149.563 183.214 149.915 183.534 150.192C183.854 150.469 184.249 150.608 184.718 150.608H186.35V154H184.718ZM167.406 154V150.608H175.47C176.452 150.608 177.188 150.235 177.678 149.488C178.19 148.72 178.446 147.653 178.446 146.288C178.446 144.773 178.169 143.685 177.614 143.024C177.06 142.363 176.228 142.032 175.118 142.032C174.798 142.032 174.5 142.053 174.222 142.096C173.945 142.117 173.732 142.149 173.582 142.192V154H169.422V142.192C169.422 141.168 169.945 140.325 170.99 139.664C172.057 138.981 173.433 138.64 175.118 138.64C177.401 138.64 179.214 139.312 180.558 140.656C181.924 142 182.606 143.877 182.606 146.288C182.606 147.909 182.308 149.296 181.71 150.448C181.113 151.6 180.302 152.485 179.278 153.104C178.276 153.701 177.145 154 175.886 154H167.406ZM167.406 154C167.193 154 167.033 153.851 166.926 153.552C166.82 153.232 166.766 152.816 166.766 152.304C166.766 151.792 166.82 151.387 166.926 151.088C167.033 150.768 167.193 150.608 167.406 150.608V154ZM186.35 154V150.608C186.585 150.608 186.745 150.768 186.83 151.088C186.937 151.387 186.99 151.792 186.99 152.304C186.99 152.816 186.937 153.232 186.83 153.552C186.745 153.851 186.585 154 186.35 154ZM187.944 154V150.608H189.576C190.066 150.608 190.461 150.469 190.76 150.192C191.08 149.915 191.314 149.563 191.464 149.136C191.613 148.688 191.688 148.251 191.688 147.824V137.584C191.688 136.816 191.592 136.261 191.4 135.92C191.208 135.579 190.994 135.355 190.76 135.248C190.525 135.141 190.344 135.056 190.216 134.992C190.216 134.8 190.29 134.544 190.44 134.224C190.61 133.883 190.877 133.573 191.24 133.296C191.624 133.019 192.125 132.88 192.744 132.88C193.384 132.88 193.928 133.051 194.376 133.392C194.845 133.712 195.208 134.16 195.464 134.736C195.72 135.312 195.848 135.973 195.848 136.72V147.824C195.848 148.997 195.57 150.053 195.016 150.992C194.482 151.931 193.746 152.667 192.808 153.2C191.869 153.733 190.792 154 189.576 154H187.944ZM187.944 154C187.73 154 187.57 153.851 187.464 153.552C187.357 153.232 187.304 152.816 187.304 152.304C187.304 151.792 187.357 151.387 187.464 151.088C187.57 150.768 187.73 150.608 187.944 150.608V154ZM204.446 154C203.656 154 203.112 153.776 202.814 153.328C202.515 152.859 202.366 152.357 202.366 151.824V137.584C202.366 136.816 202.27 136.261 202.078 135.92C201.886 135.579 201.672 135.355 201.438 135.248C201.203 135.141 201.022 135.056 200.894 134.992C200.894 134.821 200.968 134.565 201.118 134.224C201.288 133.883 201.555 133.573 201.918 133.296C202.302 133.019 202.814 132.88 203.454 132.88C204.072 132.88 204.606 133.051 205.054 133.392C205.523 133.712 205.886 134.16 206.142 134.736C206.398 135.312 206.526 135.973 206.526 136.72V151.888C206.526 152.379 206.376 152.859 206.078 153.328C205.779 153.776 205.235 154 204.446 154ZM218.378 154C217.14 154 216.01 153.701 214.986 153.104C213.962 152.485 213.151 151.6 212.554 150.448C211.956 149.296 211.658 147.909 211.658 146.288C211.658 143.877 212.33 142 213.674 140.656C215.039 139.312 216.863 138.64 219.146 138.64C220.831 138.64 222.196 138.981 223.242 139.664C224.308 140.325 224.842 141.168 224.842 142.192V154H220.682V142.192C220.532 142.149 220.319 142.117 220.042 142.096C219.764 142.053 219.466 142.032 219.146 142.032C218.036 142.032 217.204 142.363 216.65 143.024C216.095 143.685 215.818 144.773 215.818 146.288C215.818 147.653 216.063 148.72 216.554 149.488C217.066 150.235 217.812 150.608 218.794 150.608H224.842V154H218.378ZM220.938 161.328C220.404 161.328 219.956 161.211 219.594 160.976C219.231 160.741 218.954 160.464 218.762 160.144C218.591 159.845 218.506 159.589 218.506 159.376C218.954 159.035 219.338 158.651 219.658 158.224C219.978 157.797 220.223 157.243 220.394 156.56C220.586 155.899 220.682 155.045 220.682 154V150.608H224.842V154C224.842 154.939 224.756 155.845 224.586 156.72C224.436 157.595 224.202 158.373 223.882 159.056C223.583 159.76 223.188 160.315 222.698 160.72C222.207 161.125 221.62 161.328 220.938 161.328ZM240.585 154.48C240.244 154.16 240.02 153.755 239.913 153.264C239.828 152.773 239.924 152.315 240.201 151.888C240.479 151.44 241.001 151.131 241.769 150.96C242.537 150.768 243.604 150.811 244.969 151.088L243.497 151.056C243.177 150.992 242.783 150.8 242.313 150.48C241.844 150.139 241.428 149.68 241.065 149.104C240.724 148.507 240.553 147.803 240.553 146.992C240.553 146.416 240.671 145.808 240.905 145.168C241.14 144.507 241.503 143.899 241.993 143.344C242.484 142.768 243.124 142.309 243.913 141.968C244.703 141.605 245.641 141.424 246.729 141.424C247.497 141.424 248.169 141.531 248.745 141.744C249.343 141.936 249.801 142.245 250.121 142.672C250.463 143.099 250.633 143.664 250.633 144.368C250.633 145.093 250.452 145.605 250.089 145.904C249.727 146.203 249.289 146.341 248.777 146.32C248.265 146.299 247.764 146.192 247.273 146C247.295 145.659 247.252 145.307 247.145 144.944C247.06 144.581 246.889 144.283 246.633 144.048C246.377 143.813 246.004 143.728 245.513 143.792L245.993 143.6C245.844 143.707 245.663 143.909 245.449 144.208C245.236 144.507 245.044 144.859 244.873 145.264C244.724 145.648 244.649 146.053 244.649 146.48C244.649 147.035 244.799 147.589 245.097 148.144C245.417 148.699 245.865 149.157 246.441 149.52C247.017 149.861 247.7 150.032 248.489 150.032C248.959 150.032 249.385 149.989 249.769 149.904C250.153 149.797 250.484 149.744 250.761 149.744C251.188 149.744 251.508 149.904 251.721 150.224C251.935 150.544 252.041 150.917 252.041 151.344C252.041 151.749 251.945 152.112 251.753 152.432C251.583 152.752 251.327 152.923 250.985 152.944C250.9 152.944 250.612 152.965 250.121 153.008C249.631 153.051 249.012 153.115 248.265 153.2C247.54 153.264 246.761 153.349 245.929 153.456C245.119 153.541 244.329 153.648 243.561 153.776C242.815 153.883 242.164 153.989 241.609 154.096C241.076 154.224 240.735 154.352 240.585 154.48ZM260.408 154C259.619 154 259.075 153.776 258.776 153.328C258.478 152.859 258.328 152.357 258.328 151.824V137.584C258.328 136.816 258.232 136.261 258.04 135.92C257.848 135.579 257.635 135.355 257.4 135.248C257.166 135.141 256.984 135.056 256.856 134.992C256.856 134.821 256.931 134.565 257.08 134.224C257.251 133.883 257.518 133.573 257.88 133.296C258.264 133.019 258.776 132.88 259.416 132.88C260.035 132.88 260.568 133.051 261.016 133.392C261.486 133.712 261.848 134.16 262.104 134.736C262.36 135.312 262.488 135.973 262.488 136.72V151.888C262.488 152.379 262.339 152.859 262.04 153.328C261.742 153.776 261.198 154 260.408 154ZM272.676 154V150.608H275.972V154H272.676ZM268.772 161.328C268.239 161.328 267.791 161.211 267.428 160.976C267.065 160.741 266.788 160.464 266.596 160.144C266.425 159.845 266.34 159.589 266.34 159.376C266.788 159.035 267.172 158.651 267.492 158.224C267.812 157.797 268.057 157.243 268.228 156.56C268.42 155.899 268.516 155.045 268.516 154V140.624C268.516 140.005 268.708 139.525 269.092 139.184C269.497 138.821 269.999 138.64 270.596 138.64C271.215 138.64 271.716 138.821 272.1 139.184C272.484 139.525 272.676 140.005 272.676 140.624V154C272.676 154.939 272.591 155.845 272.42 156.72C272.271 157.595 272.036 158.373 271.716 159.056C271.417 159.76 271.023 160.315 270.532 160.72C270.041 161.125 269.455 161.328 268.772 161.328ZM275.972 154V150.608C276.207 150.608 276.367 150.768 276.452 151.088C276.559 151.387 276.612 151.792 276.612 152.304C276.612 152.816 276.559 153.232 276.452 153.552C276.367 153.851 276.207 154 275.972 154ZM298.829 154V150.608H299.725C299.96 150.608 300.184 150.544 300.397 150.416C300.611 150.288 300.813 150.107 301.005 149.872C301.197 149.616 301.357 149.296 301.485 148.912C301.635 148.507 301.741 148.037 301.805 147.504C301.891 146.949 301.933 146.331 301.933 145.648C301.933 144.603 301.837 143.771 301.645 143.152C301.475 142.533 301.229 142.032 300.909 141.648C300.589 141.264 300.205 140.912 299.757 140.592C299.757 140.357 299.843 140.091 300.013 139.792C300.205 139.493 300.483 139.227 300.845 138.992C301.229 138.757 301.688 138.64 302.221 138.64C302.883 138.64 303.459 138.832 303.949 139.216C304.44 139.6 304.835 140.123 305.133 140.784C305.453 141.424 305.688 142.171 305.837 143.024C306.008 143.856 306.093 144.741 306.093 145.68C306.093 148.261 305.539 150.299 304.429 151.792C303.32 153.264 301.752 154 299.725 154H298.829ZM287.181 154C285.965 154 284.888 153.733 283.949 153.2C283.011 152.667 282.264 151.931 281.709 150.992C281.176 150.053 280.909 148.997 280.909 147.824H285.069C285.069 148.251 285.144 148.688 285.293 149.136C285.443 149.563 285.677 149.915 285.997 150.192C286.317 150.469 286.712 150.608 287.181 150.608H287.885V154H287.181ZM277.581 154V150.608H278.797C279.288 150.608 279.683 150.469 279.981 150.192C280.301 149.915 280.536 149.563 280.685 149.136C280.835 148.688 280.909 148.251 280.909 147.824V142.512C280.909 142.021 281.059 141.552 281.357 141.104C281.656 140.635 282.2 140.4 282.989 140.4C283.779 140.4 284.323 140.635 284.621 141.104C284.92 141.552 285.069 142.021 285.069 142.512V147.824C285.069 148.997 284.792 150.053 284.237 150.992C283.704 151.931 282.968 152.667 282.029 153.2C281.091 153.733 280.013 154 278.797 154H277.581ZM297.485 154C296.291 154 295.213 153.733 294.253 153.2C293.315 152.667 292.568 151.931 292.013 150.992C291.48 150.053 291.213 148.997 291.213 147.824H295.373C295.373 148.251 295.448 148.688 295.597 149.136C295.747 149.563 295.981 149.915 296.301 150.192C296.621 150.469 297.016 150.608 297.485 150.608H298.829V154H297.485ZM287.885 154V150.608H289.101C289.592 150.608 289.987 150.469 290.285 150.192C290.605 149.915 290.84 149.563 290.989 149.136C291.139 148.688 291.213 148.251 291.213 147.824V141.744C291.213 141.253 291.363 140.784 291.661 140.336C291.96 139.867 292.504 139.632 293.293 139.632C294.083 139.632 294.627 139.867 294.925 140.336C295.224 140.784 295.373 141.253 295.373 141.744V147.824C295.373 148.997 295.096 150.053 294.541 150.992C294.008 151.931 293.272 152.667 292.333 153.2C291.395 153.733 290.317 154 289.101 154H287.885ZM277.581 154C277.368 154 277.208 153.851 277.101 153.552C276.995 153.232 276.941 152.816 276.941 152.304C276.941 151.792 276.995 151.387 277.101 151.088C277.208 150.768 277.368 150.608 277.581 150.608V154ZM312.911 154C312.548 154 312.196 153.861 311.855 153.584C311.535 153.307 311.375 152.88 311.375 152.304C311.375 151.728 311.535 151.301 311.855 151.024C312.196 150.747 312.57 150.608 312.975 150.608H323.215C323.706 150.608 324.1 150.469 324.399 150.192C324.719 149.915 324.954 149.563 325.103 149.136C325.252 148.688 325.327 148.251 325.327 147.824V137.584C325.327 136.816 325.231 136.261 325.039 135.92C324.847 135.579 324.634 135.355 324.399 135.248C324.164 135.141 323.983 135.056 323.855 134.992C323.855 134.8 323.93 134.544 324.079 134.224C324.25 133.883 324.516 133.573 324.879 133.296C325.263 133.019 325.764 132.88 326.383 132.88C327.023 132.88 327.567 133.051 328.015 133.392C328.484 133.712 328.847 134.16 329.103 134.736C329.359 135.312 329.487 135.973 329.487 136.72V147.824C329.487 148.997 329.21 150.053 328.655 150.992C328.122 151.931 327.386 152.667 326.447 153.2C325.508 153.733 324.431 154 323.215 154H312.911ZM316.495 150.608V142.096C316.495 141.328 316.399 140.773 316.207 140.432C316.015 140.091 315.802 139.867 315.567 139.76C315.332 139.653 315.151 139.568 315.023 139.504C315.023 139.312 315.098 139.056 315.247 138.736C315.418 138.395 315.684 138.085 316.047 137.808C316.431 137.531 316.932 137.392 317.551 137.392C318.191 137.392 318.735 137.563 319.183 137.904C319.652 138.224 320.015 138.672 320.271 139.248C320.527 139.824 320.655 140.485 320.655 141.232V150.608H316.495ZM315.087 136.048C314.831 135.984 314.618 135.835 314.447 135.6C314.298 135.365 314.234 135.109 314.255 134.832C314.276 134.555 314.415 134.32 314.671 134.128C314.927 133.915 315.343 133.808 315.919 133.808C315.642 133.68 315.354 133.435 315.055 133.072C314.756 132.688 314.607 132.229 314.607 131.696C314.607 131.248 314.724 130.789 314.959 130.32C315.194 129.829 315.556 129.424 316.047 129.104C316.559 128.763 317.22 128.592 318.031 128.592C318.458 128.592 318.831 128.656 319.151 128.784C319.471 128.891 319.716 129.061 319.887 129.296C320.079 129.531 320.175 129.84 320.175 130.224C320.175 130.629 320.068 130.917 319.855 131.088C319.663 131.237 319.428 131.312 319.151 131.312C318.874 131.291 318.596 131.227 318.319 131.12C318.34 130.864 318.287 130.597 318.159 130.32C318.052 130.043 317.828 129.904 317.487 129.904C317.359 130.053 317.22 130.267 317.071 130.544C316.943 130.8 316.879 131.077 316.879 131.376C316.879 131.696 316.964 132.005 317.135 132.304C317.306 132.603 317.551 132.859 317.871 133.072C318.191 133.264 318.564 133.36 318.991 133.36C319.247 133.36 319.482 133.339 319.695 133.296C319.908 133.232 320.09 133.2 320.239 133.2C320.559 133.2 320.772 133.349 320.879 133.648C320.986 133.925 320.986 134.213 320.879 134.512C320.794 134.789 320.623 134.939 320.367 134.96C320.282 134.96 320.047 134.971 319.663 134.992C319.279 135.013 318.831 135.045 318.319 135.088C317.807 135.131 317.306 135.195 316.815 135.28C316.324 135.365 315.908 135.472 315.567 135.6C315.247 135.728 315.087 135.877 315.087 136.048ZM338.308 154C337.519 154 336.975 153.776 336.676 153.328C336.378 152.859 336.228 152.357 336.228 151.824V137.584C336.228 136.816 336.132 136.261 335.94 135.92C335.748 135.579 335.535 135.355 335.3 135.248C335.066 135.141 334.884 135.056 334.756 134.992C334.756 134.821 334.831 134.565 334.98 134.224C335.151 133.883 335.418 133.573 335.78 133.296C336.164 133.019 336.676 132.88 337.316 132.88C337.935 132.88 338.468 133.051 338.916 133.392C339.386 133.712 339.748 134.16 340.004 134.736C340.26 135.312 340.388 135.973 340.388 136.72V151.888C340.388 152.379 340.239 152.859 339.94 153.328C339.642 153.776 339.098 154 338.308 154Z" fill="#4F4F4F"/>
<path d="M290.226 113.064C289.224 113.064 288.37 112.893 287.666 112.552C286.973 112.211 286.445 111.741 286.082 111.144C285.73 110.557 285.554 109.901 285.554 109.176C285.554 108.909 285.581 108.579 285.634 108.184C285.698 107.779 285.8 107.379 285.938 106.984C286.088 106.579 286.285 106.243 286.53 105.976C286.786 105.699 287.112 105.56 287.506 105.56C287.645 105.56 287.768 105.576 287.874 105.608C287.981 105.64 288.072 105.683 288.146 105.736C288.232 105.779 288.301 105.827 288.354 105.88C287.97 106.2 287.682 106.557 287.49 106.952C287.298 107.347 287.165 107.731 287.09 108.104C287.026 108.467 286.994 108.787 286.994 109.064C286.994 110.077 287.288 110.808 287.874 111.256C288.472 111.715 289.25 111.944 290.21 111.944C291.149 111.944 291.826 111.725 292.242 111.288C292.669 110.861 292.882 110.147 292.882 109.144V102.904C292.882 102.637 292.952 102.456 293.09 102.36C293.229 102.253 293.4 102.2 293.602 102.2C293.805 102.2 293.976 102.253 294.114 102.36C294.253 102.456 294.322 102.637 294.322 102.904V109.144C294.322 110.339 293.997 111.288 293.346 111.992C292.696 112.707 291.656 113.064 290.226 113.064ZM295.746 109C295.192 109 294.696 108.872 294.258 108.616C293.832 108.349 293.496 107.992 293.25 107.544C293.005 107.085 292.882 106.568 292.882 105.992H294.322C294.322 106.291 294.37 106.584 294.466 106.872C294.573 107.16 294.733 107.4 294.946 107.592C295.16 107.784 295.426 107.88 295.746 107.88H295.97V109H295.746ZM300.514 109C299.96 109 299.464 108.872 299.026 108.616C298.6 108.349 298.264 107.992 298.018 107.544C297.773 107.085 297.65 106.568 297.65 105.992H299.09C299.09 106.291 299.138 106.584 299.234 106.872C299.341 107.16 299.501 107.4 299.714 107.592C299.928 107.784 300.194 107.88 300.514 107.88H300.898V109H300.514ZM295.97 109V107.88H296.226C296.557 107.88 296.824 107.784 297.026 107.592C297.24 107.4 297.394 107.16 297.49 106.872C297.597 106.584 297.65 106.291 297.65 105.992V102.52C297.65 102.253 297.72 102.072 297.858 101.976C297.997 101.869 298.168 101.816 298.37 101.816C298.573 101.816 298.744 101.869 298.882 101.976C299.021 102.072 299.09 102.253 299.09 102.52V105.992C299.09 106.568 298.968 107.085 298.722 107.544C298.477 107.992 298.141 108.349 297.714 108.616C297.288 108.872 296.792 109 296.226 109H295.97ZM305.282 109C304.728 109 304.232 108.872 303.794 108.616C303.368 108.349 303.032 107.992 302.786 107.544C302.541 107.085 302.418 106.568 302.418 105.992H303.858C303.858 106.291 303.906 106.584 304.002 106.872C304.109 107.16 304.269 107.4 304.482 107.592C304.696 107.784 304.962 107.88 305.282 107.88H305.858V109H305.282ZM300.898 109V107.88H300.994C301.325 107.88 301.592 107.784 301.794 107.592C302.008 107.4 302.162 107.16 302.258 106.872C302.365 106.584 302.418 106.291 302.418 105.992V102.024C302.418 101.757 302.488 101.576 302.626 101.48C302.765 101.373 302.936 101.32 303.138 101.32C303.341 101.32 303.512 101.373 303.65 101.48C303.789 101.576 303.858 101.757 303.858 102.024V105.992C303.858 106.568 303.736 107.085 303.49 107.544C303.245 107.992 302.909 108.349 302.482 108.616C302.056 108.872 301.56 109 300.994 109H300.898ZM305.858 109V107.88C305.986 107.88 306.072 107.928 306.114 108.024C306.157 108.12 306.178 108.259 306.178 108.44C306.178 108.611 306.157 108.749 306.114 108.856C306.072 108.952 305.986 109 305.858 109ZM306.658 109V107.88H307.058C307.389 107.88 307.655 107.784 307.858 107.592C308.071 107.4 308.226 107.16 308.322 106.872C308.429 106.584 308.482 106.291 308.482 105.992V102.024C308.482 101.757 308.551 101.576 308.69 101.48C308.829 101.373 308.999 101.32 309.202 101.32C309.405 101.32 309.575 101.373 309.714 101.48C309.853 101.576 309.922 101.757 309.922 102.024V105.992C309.922 106.568 309.799 107.085 309.554 107.544C309.309 107.992 308.973 108.349 308.546 108.616C308.119 108.872 307.623 109 307.058 109H306.658ZM311.346 109C310.791 109 310.295 108.872 309.858 108.616C309.431 108.349 309.095 107.992 308.85 107.544C308.605 107.085 308.482 106.568 308.482 105.992H309.922C309.922 106.291 309.97 106.584 310.066 106.872C310.173 107.16 310.333 107.4 310.546 107.592C310.759 107.784 311.026 107.88 311.346 107.88H311.922V109H311.346ZM311.922 109V107.88C312.05 107.88 312.135 107.928 312.178 108.024C312.221 108.12 312.242 108.259 312.242 108.44C312.242 108.611 312.221 108.749 312.178 108.856C312.135 108.952 312.05 109 311.922 109ZM306.658 109C306.53 109 306.445 108.952 306.402 108.856C306.359 108.749 306.338 108.611 306.338 108.44C306.338 108.259 306.359 108.12 306.402 108.024C306.445 107.928 306.53 107.88 306.658 107.88V109ZM310.37 112.12C310.125 112.12 309.911 112.029 309.73 111.848C309.549 111.667 309.458 111.453 309.458 111.208C309.458 110.952 309.549 110.733 309.73 110.552C309.911 110.371 310.125 110.28 310.37 110.28C310.626 110.28 310.839 110.371 311.01 110.552C311.191 110.733 311.282 110.952 311.282 111.208C311.282 111.453 311.191 111.667 311.01 111.848C310.839 112.029 310.626 112.12 310.37 112.12ZM308.034 112.12C307.789 112.12 307.575 112.029 307.394 111.848C307.213 111.667 307.122 111.453 307.122 111.208C307.122 110.952 307.213 110.733 307.394 110.552C307.575 110.371 307.789 110.28 308.034 110.28C308.29 110.28 308.503 110.371 308.674 110.552C308.855 110.733 308.946 110.952 308.946 111.208C308.946 111.453 308.855 111.667 308.674 111.848C308.503 112.029 308.29 112.12 308.034 112.12ZM321.284 109C320.729 109 320.233 108.872 319.796 108.616C319.369 108.349 319.033 107.992 318.788 107.544C318.542 107.085 318.42 106.568 318.42 105.992V105.176H319.86V105.992C319.86 106.291 319.908 106.584 320.004 106.872C320.11 107.16 320.265 107.4 320.468 107.592C320.681 107.784 320.953 107.88 321.284 107.88H321.86V109H321.284ZM312.724 109V107.88H316.132C316.868 107.88 317.433 107.645 317.828 107.176C318.222 106.707 318.42 106.029 318.42 105.144C318.42 104.248 318.233 103.576 317.86 103.128C317.486 102.669 316.948 102.44 316.244 102.44C315.785 102.44 315.449 102.499 315.236 102.616C315.033 102.733 314.932 102.893 314.932 103.096V109H313.492V103.096C313.492 102.573 313.748 102.147 314.26 101.816C314.772 101.485 315.433 101.32 316.244 101.32C317.353 101.32 318.233 101.656 318.884 102.328C319.534 103 319.86 103.939 319.86 105.144C319.86 105.955 319.721 106.648 319.444 107.224C319.166 107.8 318.782 108.243 318.292 108.552C317.801 108.851 317.241 109 316.612 109H312.724ZM312.724 109C312.596 109 312.51 108.952 312.468 108.856C312.425 108.749 312.404 108.611 312.404 108.44C312.404 108.259 312.425 108.12 312.468 108.024C312.51 107.928 312.596 107.88 312.724 107.88V109ZM321.86 109V107.88C321.988 107.88 322.073 107.928 322.116 108.024C322.158 108.12 322.18 108.259 322.18 108.44C322.18 108.611 322.158 108.749 322.116 108.856C322.073 108.952 321.988 109 321.86 109ZM331.832 109C331.278 109 330.782 108.872 330.344 108.616C329.918 108.349 329.582 107.992 329.336 107.544C329.091 107.085 328.968 106.568 328.968 105.992V105.544H330.408V105.992C330.408 106.291 330.456 106.584 330.552 106.872C330.659 107.16 330.819 107.4 331.032 107.592C331.246 107.784 331.512 107.88 331.832 107.88H332.408V109H331.832ZM322.664 109V107.88H327.544C327.982 107.88 328.328 107.709 328.584 107.368C328.84 107.016 328.968 106.419 328.968 105.576C328.968 104.403 328.696 103.587 328.152 103.128C327.619 102.669 326.846 102.44 325.832 102.44C325.619 102.44 325.427 102.445 325.256 102.456C325.086 102.467 324.931 102.483 324.792 102.504C324.654 102.515 324.52 102.52 324.392 102.52C324.136 102.52 323.928 102.483 323.768 102.408C323.608 102.333 323.486 102.227 323.4 102.088C323.326 101.939 323.267 101.773 323.224 101.592C323.203 101.475 323.182 101.357 323.16 101.24C323.15 101.112 323.15 101.027 323.16 100.984C323.267 101.059 323.411 101.144 323.592 101.24C323.774 101.336 324.019 101.384 324.328 101.384C324.435 101.384 324.558 101.379 324.696 101.368C324.846 101.357 325.011 101.347 325.192 101.336C325.374 101.325 325.571 101.32 325.784 101.32C326.606 101.32 327.31 101.421 327.896 101.624C328.483 101.816 328.958 102.099 329.32 102.472C329.694 102.845 329.966 103.293 330.136 103.816C330.318 104.339 330.408 104.92 330.408 105.56C330.408 106.413 330.275 107.096 330.008 107.608C329.742 108.109 329.39 108.467 328.952 108.68C328.526 108.893 328.056 109 327.544 109H322.664ZM322.664 109C322.536 109 322.451 108.952 322.408 108.856C322.366 108.749 322.344 108.611 322.344 108.44C322.344 108.259 322.366 108.12 322.408 108.024C322.451 107.928 322.536 107.88 322.664 107.88V109ZM332.408 109V107.88C332.536 107.88 332.622 107.928 332.664 108.024C332.707 108.12 332.728 108.259 332.728 108.44C332.728 108.611 332.707 108.749 332.664 108.856C332.622 108.952 332.536 109 332.408 109ZM326.056 100.28C325.79 100.28 325.566 100.189 325.384 100.008C325.203 99.8267 325.112 99.6133 325.112 99.368C325.112 99.112 325.203 98.8933 325.384 98.712C325.566 98.5307 325.79 98.44 326.056 98.44C326.302 98.44 326.515 98.5307 326.696 98.712C326.878 98.8933 326.968 99.112 326.968 99.368C326.968 99.6133 326.878 99.8267 326.696 100.008C326.515 100.189 326.302 100.28 326.056 100.28ZM333.214 109V107.88H333.614C333.945 107.88 334.212 107.784 334.414 107.592C334.628 107.4 334.782 107.16 334.878 106.872C334.985 106.584 335.038 106.291 335.038 105.992V100.808C335.038 100.477 334.99 100.179 334.894 99.912C334.809 99.6453 334.697 99.4213 334.558 99.24C334.42 99.0587 334.286 98.9253 334.158 98.84C334.201 98.7867 334.27 98.728 334.366 98.664C334.473 98.6 334.596 98.5467 334.734 98.504C334.884 98.4613 335.038 98.44 335.198 98.44C335.401 98.44 335.598 98.4933 335.79 98.6C335.993 98.696 336.158 98.872 336.286 99.128C336.414 99.384 336.478 99.7467 336.478 100.216V105.992C336.478 106.568 336.356 107.085 336.11 107.544C335.865 107.992 335.529 108.349 335.102 108.616C334.676 108.872 334.18 109 333.614 109H333.214ZM333.214 109C333.086 109 333.001 108.952 332.958 108.856C332.916 108.749 332.894 108.611 332.894 108.44C332.894 108.259 332.916 108.12 332.958 108.024C333.001 107.928 333.086 107.88 333.214 107.88V109ZM340.695 109C340.354 109 340.151 108.899 340.087 108.696C340.023 108.493 339.991 108.253 339.991 107.976V100.808C339.991 100.477 339.943 100.179 339.847 99.912C339.762 99.6453 339.65 99.4213 339.511 99.24C339.373 99.0587 339.239 98.9253 339.111 98.84C339.154 98.7867 339.223 98.728 339.319 98.664C339.426 98.6 339.554 98.5467 339.703 98.504C339.853 98.4613 340.007 98.44 340.167 98.44C340.37 98.44 340.567 98.4933 340.759 98.6C340.951 98.696 341.111 98.872 341.239 99.128C341.367 99.384 341.431 99.7467 341.431 100.216V107.976C341.431 108.253 341.394 108.493 341.319 108.696C341.245 108.899 341.037 109 340.695 109Z" fill="#4F4F4F"/>
<path d="M127.496 257.28C124.595 257.28 121.928 256.896 119.496 256.128C117.064 255.403 115.123 254.229 113.672 252.608C112.221 250.987 111.496 248.875 111.496 246.272C111.496 244.224 111.987 242.475 112.968 241.024C113.992 239.573 115.315 238.336 116.936 237.312C118.6 236.245 120.349 235.328 122.184 234.56C120.52 233.621 119.005 232.661 117.64 231.68C116.275 230.656 115.165 229.504 114.312 228.224C113.501 226.901 113.096 225.323 113.096 223.488C113.096 220.672 113.736 218.475 115.016 216.896C116.339 215.275 118.088 214.144 120.264 213.504C122.483 212.821 124.893 212.48 127.496 212.48C130.141 212.48 132.552 212.8 134.728 213.44C136.904 214.08 138.632 215.147 139.912 216.64C141.235 218.133 141.896 220.203 141.896 222.848C141.896 224.469 141.512 225.941 140.744 227.264C139.976 228.544 138.931 229.675 137.608 230.656C136.328 231.595 134.877 232.405 133.256 233.088C135.048 234.027 136.712 235.072 138.248 236.224C139.827 237.333 141.085 238.656 142.024 240.192C143.005 241.685 143.496 243.499 143.496 245.632C143.496 248.448 142.771 250.709 141.32 252.416C139.912 254.123 137.992 255.36 135.56 256.128C133.171 256.896 130.483 257.28 127.496 257.28ZM127.496 254.4C128.947 254.4 130.227 254.123 131.336 253.568C132.445 253.013 133.299 252.181 133.896 251.072C134.536 249.92 134.856 248.533 134.856 246.912C134.856 245.163 134.429 243.648 133.576 242.368C132.723 241.045 131.592 239.893 130.184 238.912C128.776 237.888 127.24 236.949 125.576 236.096C124.509 236.651 123.549 237.355 122.696 238.208C121.885 239.061 121.245 240.128 120.776 241.408C120.349 242.688 120.136 244.309 120.136 246.272C120.136 248.149 120.435 249.685 121.032 250.88C121.672 252.075 122.547 252.971 123.656 253.568C124.765 254.123 126.045 254.4 127.496 254.4ZM129.928 231.424C131.037 230.571 131.869 229.525 132.424 228.288C132.979 227.008 133.256 225.195 133.256 222.848C133.256 220.885 132.936 219.371 132.296 218.304C131.699 217.195 130.952 216.427 130.056 216C129.16 215.573 128.307 215.36 127.496 215.36C126.685 215.36 125.832 215.573 124.936 216C124.04 216.384 123.272 217.067 122.632 218.048C122.035 219.029 121.736 220.416 121.736 222.208C121.736 223.531 122.099 224.768 122.824 225.92C123.592 227.029 124.595 228.053 125.832 228.992C127.112 229.931 128.477 230.741 129.928 231.424Z" fill="#4F4F4F"/>
<path d="M293.624 251V246.84C294.691 245.773 296.056 244.472 297.72 242.936C299.384 241.357 301.112 239.651 302.904 237.816C304.739 235.939 306.445 233.997 308.024 231.992C309.603 229.944 310.883 227.896 311.864 225.848C312.888 223.8 313.4 221.795 313.4 219.832C313.4 217.613 313.059 215.821 312.376 214.456C311.693 213.048 310.819 212.024 309.752 211.384C308.685 210.701 307.555 210.36 306.36 210.36C303.672 210.36 301.411 211.256 299.576 213.048C297.741 214.84 296.504 217.677 295.864 221.56H293.624C293.624 219.939 293.688 218.296 293.816 216.632C293.944 214.925 294.392 213.581 295.16 212.6C296.312 211.192 297.997 209.997 300.216 209.016C302.477 207.992 304.952 207.48 307.64 207.48C309.133 207.48 310.712 207.651 312.376 207.992C314.083 208.291 315.683 208.867 317.176 209.72C318.712 210.573 319.949 211.811 320.888 213.432C321.869 215.053 322.36 217.187 322.36 219.832C322.36 221.837 321.891 223.821 320.952 225.784C320.013 227.747 318.776 229.667 317.24 231.544C315.747 233.421 314.104 235.213 312.312 236.92C310.52 238.627 308.749 240.205 307 241.656C305.251 243.064 303.672 244.323 302.264 245.432C300.899 246.541 299.875 247.437 299.192 248.12H312.44C315 248.12 316.963 247.523 318.328 246.328C319.736 245.091 320.44 243.341 320.44 241.08H322.36V245.88C322.36 246.733 322.211 247.565 321.912 248.376C321.613 249.144 321.08 249.784 320.312 250.296C319.544 250.765 318.413 251 316.92 251H293.624ZM331.644 251L347.644 211.64H336.764C334.204 211.64 332.22 212.259 330.812 213.496C329.447 214.691 328.764 216.419 328.764 218.68H326.844V213.88C326.844 213.027 326.993 212.216 327.292 211.448C327.591 210.637 328.124 209.997 328.892 209.528C329.703 209.016 330.833 208.76 332.284 208.76H355.388V211.64L339.388 251H331.644Z" fill="#4F4F4F"/>
<path d="M69.9826 276V275.3C70.5706 274.731 71.1026 274.217 71.5786 273.76C72.0639 273.303 72.4886 272.883 72.8526 272.5C73.2166 272.117 73.5246 271.749 73.7766 271.394C74.0286 271.039 74.2153 270.68 74.3366 270.316C74.4673 269.952 74.5326 269.56 74.5326 269.14C74.5326 268.673 74.4486 268.286 74.2806 267.978C74.1126 267.661 73.8886 267.427 73.6086 267.278C73.3379 267.119 73.0393 267.04 72.7126 267.04C72.1526 267.04 71.6626 267.245 71.2426 267.656C70.8226 268.057 70.5426 268.645 70.4026 269.42H70.1226C70.1226 269.065 70.1366 268.729 70.1646 268.412C70.1926 268.085 70.2906 267.815 70.4586 267.6C70.7106 267.292 71.0793 267.031 71.5646 266.816C72.0499 266.592 72.5726 266.48 73.1326 266.48C73.4126 266.48 73.7113 266.517 74.0286 266.592C74.3553 266.657 74.6633 266.783 74.9526 266.97C75.2419 267.157 75.4753 267.427 75.6526 267.782C75.8393 268.127 75.9326 268.58 75.9326 269.14C75.9326 269.541 75.8673 269.919 75.7366 270.274C75.6153 270.619 75.4426 270.955 75.2186 271.282C74.9946 271.609 74.7286 271.935 74.4206 272.262C74.1126 272.579 73.7719 272.906 73.3986 273.242C73.0346 273.569 72.6426 273.914 72.2226 274.278C71.8119 274.642 71.3919 275.029 70.9626 275.44H74.1126C74.6726 275.44 75.1019 275.319 75.4006 275.076C75.7086 274.833 75.8626 274.465 75.8626 273.97H76.1426V274.88C76.1426 275.067 76.1099 275.249 76.0446 275.426C75.9793 275.594 75.8626 275.734 75.6946 275.846C75.5266 275.949 75.2793 276 74.9526 276H69.9826ZM81.6204 276.28C80.8084 276.28 80.1551 276.079 79.6604 275.678C79.1658 275.267 78.8064 274.693 78.5824 273.956C78.3678 273.219 78.2604 272.36 78.2604 271.38C78.2604 270.391 78.3678 269.532 78.5824 268.804C78.8064 268.067 79.1658 267.497 79.6604 267.096C80.1551 266.685 80.8084 266.48 81.6204 266.48C82.4418 266.48 83.0951 266.685 83.5804 267.096C84.0751 267.497 84.4298 268.067 84.6444 268.804C84.8684 269.532 84.9804 270.391 84.9804 271.38C84.9804 272.36 84.8684 273.219 84.6444 273.956C84.4298 274.693 84.0751 275.267 83.5804 275.678C83.0951 276.079 82.4418 276.28 81.6204 276.28ZM81.6204 275.72C82.3858 275.72 82.9038 275.365 83.1744 274.656C83.4451 273.937 83.5804 272.845 83.5804 271.38C83.5804 269.905 83.4451 268.813 83.1744 268.104C82.9038 267.395 82.3858 267.04 81.6204 267.04C80.8551 267.04 80.3371 267.395 80.0664 268.104C79.7958 268.813 79.6604 269.905 79.6604 271.38C79.6604 272.845 79.7958 273.937 80.0664 274.656C80.3371 275.365 80.8551 275.72 81.6204 275.72ZM86.9822 276V275.3C87.5702 274.731 88.1022 274.217 88.5782 273.76C89.0635 273.303 89.4882 272.883 89.8522 272.5C90.2162 272.117 90.5242 271.749 90.7762 271.394C91.0282 271.039 91.2149 270.68 91.3362 270.316C91.4669 269.952 91.5322 269.56 91.5322 269.14C91.5322 268.673 91.4482 268.286 91.2802 267.978C91.1122 267.661 90.8882 267.427 90.6082 267.278C90.3375 267.119 90.0389 267.04 89.7122 267.04C89.1522 267.04 88.6622 267.245 88.2422 267.656C87.8222 268.057 87.5422 268.645 87.4022 269.42H87.1222C87.1222 269.065 87.1362 268.729 87.1642 268.412C87.1922 268.085 87.2902 267.815 87.4582 267.6C87.7102 267.292 88.0789 267.031 88.5642 266.816C89.0495 266.592 89.5722 266.48 90.1322 266.48C90.4122 266.48 90.7109 266.517 91.0282 266.592C91.3549 266.657 91.6629 266.783 91.9522 266.97C92.2415 267.157 92.4749 267.427 92.6522 267.782C92.8389 268.127 92.9322 268.58 92.9322 269.14C92.9322 269.541 92.8669 269.919 92.7362 270.274C92.6149 270.619 92.4422 270.955 92.2182 271.282C91.9942 271.609 91.7282 271.935 91.4202 272.262C91.1122 272.579 90.7715 272.906 90.3982 273.242C90.0342 273.569 89.6422 273.914 89.2222 274.278C88.8115 274.642 88.3915 275.029 87.9622 275.44H91.1122C91.6722 275.44 92.1015 275.319 92.4002 275.076C92.7082 274.833 92.8622 274.465 92.8622 273.97H93.1422V274.88C93.1422 275.067 93.1095 275.249 93.0442 275.426C92.9789 275.594 92.8622 275.734 92.6942 275.846C92.5262 275.949 92.2789 276 91.9522 276H86.9822ZM99.264 276V273.62H94.784V273.06L99.404 266.76H100.524V273.06H101.784V273.62H100.524V276H99.264ZM95.624 273.06H99.264V268.104L95.624 273.06ZM108.069 278.17L107.929 277.96C108.171 277.801 108.372 277.629 108.531 277.442C108.699 277.255 108.825 277.05 108.909 276.826C109.002 276.602 109.049 276.35 109.049 276.07C109.011 276.098 108.951 276.126 108.867 276.154C108.783 276.191 108.703 276.21 108.629 276.21C108.414 276.21 108.232 276.135 108.083 275.986C107.933 275.837 107.859 275.655 107.859 275.44C107.859 275.197 107.938 274.997 108.097 274.838C108.255 274.679 108.456 274.6 108.699 274.6C108.979 274.6 109.198 274.684 109.357 274.852C109.525 275.02 109.609 275.263 109.609 275.58C109.609 276.177 109.473 276.686 109.203 277.106C108.941 277.535 108.563 277.89 108.069 278.17ZM118.027 276V275.02H119.763V276H118.027ZM116.319 279.206C116.198 279.206 116.09 279.192 115.997 279.164C115.904 279.136 115.82 279.099 115.745 279.052C115.68 279.005 115.624 278.963 115.577 278.926C115.95 278.609 116.216 278.273 116.375 277.918C116.543 277.563 116.65 277.213 116.697 276.868C116.744 276.532 116.767 276.243 116.767 276V269.896C116.767 269.663 116.828 269.504 116.949 269.42C117.07 269.327 117.22 269.28 117.397 269.28C117.574 269.28 117.724 269.327 117.845 269.42C117.966 269.504 118.027 269.663 118.027 269.896V276C118.027 276.327 117.999 276.677 117.943 277.05C117.887 277.423 117.794 277.773 117.663 278.1C117.532 278.427 117.355 278.693 117.131 278.898C116.916 279.103 116.646 279.206 116.319 279.206ZM119.763 276V275.02C119.875 275.02 119.95 275.062 119.987 275.146C120.024 275.23 120.043 275.351 120.043 275.51C120.043 275.659 120.024 275.781 119.987 275.874C119.95 275.958 119.875 276 119.763 276ZM120.468 276V275.02H121.406C121.704 275.02 121.952 274.95 122.148 274.81C122.344 274.67 122.493 274.493 122.596 274.278C122.708 274.063 122.787 273.839 122.834 273.606C122.89 273.373 122.922 273.163 122.932 272.976C122.941 272.78 122.946 272.64 122.946 272.556C122.946 272.304 122.922 272.005 122.876 271.66C122.829 271.315 122.722 270.955 122.554 270.582C122.395 270.209 122.129 269.868 121.756 269.56C121.802 269.513 121.858 269.471 121.924 269.434C121.998 269.387 122.082 269.35 122.176 269.322C122.269 269.294 122.376 269.28 122.498 269.28C122.824 269.28 123.095 269.387 123.31 269.602C123.534 269.817 123.711 270.097 123.842 270.442C123.972 270.778 124.066 271.137 124.122 271.52C124.178 271.903 124.206 272.257 124.206 272.584C124.206 273.657 123.958 274.497 123.464 275.104C122.969 275.701 122.283 276 121.406 276H120.468ZM120.468 276C120.356 276 120.281 275.958 120.244 275.874C120.206 275.781 120.188 275.659 120.188 275.51C120.188 275.351 120.206 275.23 120.244 275.146C120.281 275.062 120.356 275.02 120.468 275.02V276ZM123.548 278.73C123.333 278.73 123.146 278.651 122.988 278.492C122.829 278.333 122.75 278.147 122.75 277.932C122.75 277.708 122.829 277.517 122.988 277.358C123.146 277.199 123.333 277.12 123.548 277.12C123.772 277.12 123.958 277.199 124.108 277.358C124.266 277.517 124.346 277.708 124.346 277.932C124.346 278.147 124.266 278.333 124.108 278.492C123.958 278.651 123.772 278.73 123.548 278.73ZM121.504 278.73C121.289 278.73 121.102 278.651 120.944 278.492C120.785 278.333 120.706 278.147 120.706 277.932C120.706 277.708 120.785 277.517 120.944 277.358C121.102 277.199 121.289 277.12 121.504 277.12C121.728 277.12 121.914 277.199 122.064 277.358C122.222 277.517 122.302 277.708 122.302 277.932C122.302 278.147 122.222 278.333 122.064 278.492C121.914 278.651 121.728 278.73 121.504 278.73ZM127.902 276C127.603 276 127.426 275.911 127.37 275.734C127.314 275.557 127.286 275.347 127.286 275.104V268.832C127.286 268.543 127.244 268.281 127.16 268.048C127.085 267.815 126.987 267.619 126.866 267.46C126.745 267.301 126.628 267.185 126.516 267.11C126.553 267.063 126.614 267.012 126.698 266.956C126.791 266.9 126.903 266.853 127.034 266.816C127.165 266.779 127.3 266.76 127.44 266.76C127.617 266.76 127.79 266.807 127.958 266.9C128.126 266.984 128.266 267.138 128.378 267.362C128.49 267.586 128.546 267.903 128.546 268.314V275.104C128.546 275.347 128.513 275.557 128.448 275.734C128.383 275.911 128.201 276 127.902 276ZM132.678 276V275.02H134.414V276H132.678ZM130.97 279.206C130.848 279.206 130.741 279.192 130.648 279.164C130.554 279.136 130.47 279.099 130.396 279.052C130.33 279.005 130.274 278.963 130.228 278.926C130.601 278.609 130.867 278.273 131.026 277.918C131.194 277.563 131.301 277.213 131.348 276.868C131.394 276.532 131.418 276.243 131.418 276V269.896C131.418 269.663 131.478 269.504 131.6 269.42C131.721 269.327 131.87 269.28 132.048 269.28C132.225 269.28 132.374 269.327 132.496 269.42C132.617 269.504 132.678 269.663 132.678 269.896V276C132.678 276.327 132.65 276.677 132.594 277.05C132.538 277.423 132.444 277.773 132.314 278.1C132.183 278.427 132.006 278.693 131.782 278.898C131.567 279.103 131.296 279.206 130.97 279.206ZM134.414 276V275.02C134.526 275.02 134.6 275.062 134.638 275.146C134.675 275.23 134.694 275.351 134.694 275.51C134.694 275.659 134.675 275.781 134.638 275.874C134.6 275.958 134.526 276 134.414 276ZM135.118 276V275.02H135.468C135.758 275.02 135.991 274.936 136.168 274.768C136.355 274.6 136.49 274.39 136.574 274.138C136.668 273.886 136.714 273.629 136.714 273.368V269.896C136.714 269.663 136.775 269.504 136.896 269.42C137.018 269.327 137.167 269.28 137.344 269.28C137.522 269.28 137.671 269.327 137.792 269.42C137.914 269.504 137.974 269.663 137.974 269.896V273.368C137.974 273.872 137.867 274.325 137.652 274.726C137.438 275.118 137.144 275.431 136.77 275.664C136.397 275.888 135.963 276 135.468 276H135.118ZM139.22 276C138.735 276 138.301 275.888 137.918 275.664C137.545 275.431 137.251 275.118 137.036 274.726C136.822 274.325 136.714 273.872 136.714 273.368H137.974C137.974 273.629 138.016 273.886 138.1 274.138C138.194 274.39 138.334 274.6 138.52 274.768C138.707 274.936 138.94 275.02 139.22 275.02H139.724V276H139.22ZM139.724 276V275.02C139.836 275.02 139.911 275.062 139.948 275.146C139.986 275.23 140.004 275.351 140.004 275.51C140.004 275.659 139.986 275.781 139.948 275.874C139.911 275.958 139.836 276 139.724 276ZM135.118 276C135.006 276 134.932 275.958 134.894 275.874C134.857 275.781 134.838 275.659 134.838 275.51C134.838 275.351 134.857 275.23 134.894 275.146C134.932 275.062 135.006 275.02 135.118 275.02V276ZM137.358 278.73C137.125 278.73 136.929 278.651 136.77 278.492C136.612 278.333 136.532 278.147 136.532 277.932C136.532 277.708 136.612 277.517 136.77 277.358C136.929 277.199 137.125 277.12 137.358 277.12C137.573 277.12 137.76 277.199 137.918 277.358C138.077 277.517 138.156 277.708 138.156 277.932C138.156 278.147 138.077 278.333 137.918 278.492C137.76 278.651 137.573 278.73 137.358 278.73ZM140.426 276V275.02H144.388C144.826 275.02 145.176 274.871 145.438 274.572C145.699 274.273 145.83 273.872 145.83 273.368V270.834C145.83 270.657 145.736 270.517 145.55 270.414C145.372 270.311 145.083 270.26 144.682 270.26C144.066 270.26 143.594 270.461 143.268 270.862C142.941 271.254 142.778 271.842 142.778 272.626C142.778 273.401 142.95 273.993 143.296 274.404C143.641 274.815 144.136 275.02 144.78 275.02L144.36 275.986C143.837 275.93 143.361 275.776 142.932 275.524C142.502 275.263 142.157 274.894 141.896 274.418C141.644 273.933 141.518 273.335 141.518 272.626C141.518 271.571 141.802 270.75 142.372 270.162C142.95 269.574 143.72 269.28 144.682 269.28C145.391 269.28 145.97 269.429 146.418 269.728C146.866 270.017 147.09 270.386 147.09 270.834V273.368C147.09 273.872 146.973 274.325 146.74 274.726C146.516 275.118 146.198 275.431 145.788 275.664C145.386 275.888 144.92 276 144.388 276H140.426ZM140.426 276C140.314 276 140.239 275.958 140.202 275.874C140.164 275.781 140.146 275.659 140.146 275.51C140.146 275.351 140.164 275.23 140.202 275.146C140.239 275.062 140.314 275.02 140.426 275.02V276ZM144.738 268.37C144.504 268.37 144.308 268.291 144.15 268.132C143.991 267.973 143.912 267.787 143.912 267.572C143.912 267.348 143.991 267.157 144.15 266.998C144.308 266.839 144.504 266.76 144.738 266.76C144.952 266.76 145.139 266.839 145.298 266.998C145.456 267.157 145.536 267.348 145.536 267.572C145.536 267.787 145.456 267.973 145.298 268.132C145.139 268.291 144.952 268.37 144.738 268.37Z" fill="#828282"/>
<path d="M282.266 276V268.16L280.908 269.042L280.656 268.72L282.826 266.76H283.526V276H282.266ZM290.157 276V273.62H285.677V273.06L290.297 266.76H291.417V273.06H292.677V273.62H291.417V276H290.157ZM286.517 273.06H290.157V268.104L286.517 273.06ZM298.5 276V273.62H294.02V273.06L298.64 266.76H299.76V273.06H301.02V273.62H299.76V276H298.5ZM294.86 273.06H298.5V268.104L294.86 273.06ZM305.709 276.28C305.009 276.28 304.425 276.149 303.959 275.888C303.501 275.627 303.081 275.267 302.699 274.81L302.965 274.572C303.319 274.964 303.702 275.253 304.113 275.44C304.523 275.627 304.985 275.72 305.499 275.72C305.872 275.72 306.217 275.641 306.535 275.482C306.852 275.314 307.109 275.062 307.305 274.726C307.501 274.39 307.599 273.951 307.599 273.41C307.599 272.673 307.398 272.127 306.997 271.772C306.605 271.417 306.059 271.24 305.359 271.24C305.125 271.24 304.883 271.249 304.631 271.268C304.379 271.287 304.038 271.324 303.609 271.38L303.049 270.82L303.189 266.76H308.439V267.32H304.337L304.211 270.75L304.659 270.722C304.789 270.713 304.939 270.703 305.107 270.694C305.284 270.685 305.461 270.68 305.639 270.68C305.993 270.68 306.362 270.717 306.745 270.792C307.137 270.867 307.501 271.007 307.837 271.212C308.182 271.408 308.462 271.683 308.677 272.038C308.891 272.393 308.999 272.85 308.999 273.41C308.999 274.007 308.882 274.497 308.649 274.88C308.425 275.253 308.14 275.543 307.795 275.748C307.449 275.944 307.09 276.079 306.717 276.154C306.343 276.238 306.007 276.28 305.709 276.28ZM315.428 278.17L315.288 277.96C315.531 277.801 315.732 277.629 315.89 277.442C316.058 277.255 316.184 277.05 316.268 276.826C316.362 276.602 316.408 276.35 316.408 276.07C316.371 276.098 316.31 276.126 316.226 276.154C316.142 276.191 316.063 276.21 315.988 276.21C315.774 276.21 315.592 276.135 315.442 275.986C315.293 275.837 315.218 275.655 315.218 275.44C315.218 275.197 315.298 274.997 315.456 274.838C315.615 274.679 315.816 274.6 316.058 274.6C316.338 274.6 316.558 274.684 316.716 274.852C316.884 275.02 316.968 275.263 316.968 275.58C316.968 276.177 316.833 276.686 316.562 277.106C316.301 277.535 315.923 277.89 315.428 278.17ZM333.409 276C332.923 276 332.489 275.888 332.107 275.664C331.733 275.431 331.439 275.118 331.225 274.726C331.01 274.325 330.903 273.872 330.903 273.368H332.163C332.163 273.629 332.205 273.886 332.289 274.138C332.382 274.39 332.522 274.6 332.709 274.768C332.895 274.936 333.129 275.02 333.409 275.02H333.759V276H333.409ZM326.367 276C325.489 276 324.803 275.701 324.309 275.104C323.814 274.497 323.567 273.657 323.567 272.584C323.567 272.257 323.595 271.903 323.651 271.52C323.707 271.137 323.8 270.778 323.931 270.442C324.061 270.097 324.234 269.817 324.449 269.602C324.673 269.387 324.948 269.28 325.275 269.28C325.396 269.28 325.503 269.294 325.597 269.322C325.69 269.35 325.769 269.387 325.835 269.434C325.909 269.471 325.97 269.513 326.017 269.56C325.653 269.868 325.387 270.209 325.219 270.582C325.051 270.955 324.943 271.315 324.897 271.66C324.85 272.005 324.827 272.304 324.827 272.556C324.827 272.64 324.831 272.78 324.841 272.976C324.85 273.163 324.878 273.373 324.925 273.606C324.981 273.839 325.06 274.063 325.163 274.278C325.275 274.493 325.429 274.67 325.625 274.81C325.821 274.95 326.068 275.02 326.367 275.02H329.657C329.946 275.02 330.179 274.936 330.357 274.768C330.543 274.6 330.679 274.39 330.763 274.138C330.856 273.886 330.903 273.629 330.903 273.368V270.638C330.903 270.405 330.963 270.246 331.085 270.162C331.206 270.069 331.355 270.022 331.533 270.022C331.71 270.022 331.859 270.069 331.981 270.162C332.102 270.246 332.163 270.405 332.163 270.638V273.368C332.163 273.872 332.055 274.325 331.841 274.726C331.626 275.118 331.332 275.431 330.959 275.664C330.585 275.888 330.151 276 329.657 276H326.367ZM333.759 276V275.02C333.871 275.02 333.945 275.062 333.983 275.146C334.02 275.23 334.039 275.351 334.039 275.51C334.039 275.659 334.02 275.781 333.983 275.874C333.945 275.958 333.871 276 333.759 276ZM327.879 278.73C327.645 278.73 327.449 278.651 327.291 278.492C327.132 278.333 327.053 278.147 327.053 277.932C327.053 277.708 327.132 277.517 327.291 277.358C327.449 277.199 327.645 277.12 327.879 277.12C328.093 277.12 328.28 277.199 328.439 277.358C328.597 277.517 328.677 277.708 328.677 277.932C328.677 278.147 328.597 278.333 328.439 278.492C328.28 278.651 328.093 278.73 327.879 278.73ZM334.458 276V275.02H338.728C339.111 275.02 339.414 274.871 339.638 274.572C339.862 274.264 339.974 273.741 339.974 273.004C339.974 271.977 339.736 271.263 339.26 270.862C338.794 270.461 338.117 270.26 337.23 270.26C337.044 270.26 336.876 270.265 336.726 270.274C336.577 270.283 336.442 270.297 336.32 270.316C336.199 270.325 336.082 270.33 335.97 270.33C335.746 270.33 335.564 270.297 335.424 270.232C335.284 270.167 335.177 270.073 335.102 269.952C335.037 269.821 334.986 269.677 334.948 269.518C334.93 269.415 334.911 269.313 334.892 269.21C334.883 269.098 334.883 269.023 334.892 268.986C334.986 269.051 335.112 269.126 335.27 269.21C335.429 269.294 335.644 269.336 335.914 269.336C336.008 269.336 336.115 269.331 336.236 269.322C336.367 269.313 336.512 269.303 336.67 269.294C336.829 269.285 337.002 269.28 337.188 269.28C337.907 269.28 338.523 269.369 339.036 269.546C339.55 269.714 339.965 269.961 340.282 270.288C340.609 270.615 340.847 271.007 340.996 271.464C341.155 271.921 341.234 272.43 341.234 272.99C341.234 273.737 341.118 274.334 340.884 274.782C340.651 275.221 340.343 275.533 339.96 275.72C339.587 275.907 339.176 276 338.728 276H334.458ZM334.458 276C334.346 276 334.272 275.958 334.234 275.874C334.197 275.781 334.178 275.659 334.178 275.51C334.178 275.351 334.197 275.23 334.234 275.146C334.272 275.062 334.346 275.02 334.458 275.02V276ZM337.426 278.73C337.193 278.73 336.997 278.651 336.838 278.492C336.68 278.333 336.6 278.147 336.6 277.932C336.6 277.708 336.68 277.517 336.838 277.358C336.997 277.199 337.193 277.12 337.426 277.12C337.641 277.12 337.828 277.199 337.986 277.358C338.145 277.517 338.224 277.708 338.224 277.932C338.224 278.147 338.145 278.333 337.986 278.492C337.828 278.651 337.641 278.73 337.426 278.73ZM343.659 279.206C343.537 279.206 343.43 279.192 343.337 279.164C343.243 279.136 343.159 279.099 343.085 279.052C343.019 279.005 342.963 278.963 342.917 278.926C343.29 278.609 343.556 278.273 343.715 277.918C343.883 277.563 343.99 277.213 344.037 276.868C344.083 276.532 344.107 276.243 344.107 276V269.896C344.107 269.663 344.167 269.504 344.289 269.42C344.41 269.327 344.559 269.28 344.737 269.28C344.914 269.28 345.063 269.327 345.185 269.42C345.306 269.504 345.367 269.663 345.367 269.896V276C345.367 276.327 345.339 276.677 345.283 277.05C345.227 277.423 345.133 277.773 345.003 278.1C344.872 278.427 344.695 278.693 344.471 278.898C344.256 279.103 343.985 279.206 343.659 279.206Z" fill="#828282"/>
<defs>
<filter id="filter0_d_668_6276" x="30" y="18" width="350" height="373.948" filterUnits="userSpaceOnUse" color-interpolation-filters="sRGB">
<feFlood flood-opacity="0" result="BackgroundImageFix"/>
<feColorMatrix in="SourceAlpha" type="matrix" values="0 0 0 0 0 0 0 0 0 0 0 0 0 0 0 0 0 0 127 0" result="hardAlpha"/>
<feOffset/>
<feGaussianBlur stdDeviation="6.5"/>
<feComposite in2="hardAlpha" operator="out"/>
<feColorMatrix type="matrix" values="0 0 0 0 0.1375 0 0 0 0 0.1375 0 0 0 0 0.1375 0 0 0 0.25 0"/>
<feBlend mode="normal" in2="BackgroundImageFix" result="effect1_dropShadow_668_6276"/>
<feBlend mode="normal" in="SourceGraphic" in2="effect1_dropShadow_668_6276" result="shape"/>
</filter>
<filter id="filter1_f_668_6276" x="0.488281" y="0" width="407.617" height="234.348" filterUnits="userSpaceOnUse" color-interpolation-filters="sRGB">
<feFlood flood-opacity="0" result="BackgroundImageFix"/>
<feBlend mode="normal" in="SourceGraphic" in2="BackgroundImageFix" result="shape"/>
<feGaussianBlur stdDeviation="44.5" result="effect1_foregroundBlur_668_6276"/>
</filter>
</defs>
</svg>
