<svg width="409" height="392" viewBox="0 0 409 392" fill="none" xmlns="http://www.w3.org/2000/svg">
<g filter="url(#filter0_d_668_6198)">
<rect x="43" y="31" width="324" height="347.948" rx="17" fill="#FBFBFB"/>
</g>
<g filter="url(#filter1_f_668_6198)">
<rect x="89.4883" y="89" width="229.617" height="56.3478" rx="28.1739" fill="#EBEBEB"/>
</g>
<path d="M207.766 161.328C207.232 161.328 206.784 161.211 206.422 160.976C206.059 160.741 205.782 160.464 205.59 160.144C205.419 159.845 205.334 159.589 205.334 159.376C205.782 159.035 206.166 158.651 206.486 158.224C206.806 157.797 207.051 157.243 207.222 156.56C207.414 155.899 207.51 155.045 207.51 154V140.624C207.51 140.005 207.702 139.525 208.086 139.184C208.491 138.821 208.992 138.64 209.59 138.64C210.208 138.64 210.71 138.821 211.094 139.184C211.478 139.525 211.67 140.005 211.67 140.624V154C211.67 154.939 211.584 155.845 211.414 156.72C211.264 157.595 211.03 158.373 210.71 159.056C210.411 159.76 210.016 160.315 209.526 160.72C209.035 161.125 208.448 161.328 207.766 161.328ZM231.932 154C230.738 154 229.66 153.733 228.7 153.2C227.762 152.667 227.015 151.931 226.46 150.992C225.927 150.053 225.66 148.997 225.66 147.824V146.416H229.82V147.824C229.82 148.251 229.895 148.688 230.044 149.136C230.194 149.563 230.428 149.915 230.748 150.192C231.068 150.469 231.463 150.608 231.932 150.608H233.564V154H231.932ZM219.228 154C218.802 154 218.396 153.883 218.012 153.648C217.628 153.392 217.436 152.944 217.436 152.304C217.436 151.664 217.628 151.227 218.012 150.992C218.396 150.736 218.802 150.608 219.228 150.608H222.3C223.388 150.608 224.22 150.235 224.796 149.488C225.372 148.72 225.66 147.664 225.66 146.32C225.66 145.317 225.522 144.496 225.244 143.856C224.988 143.216 224.668 142.715 224.284 142.352C223.922 141.989 223.58 141.733 223.26 141.584L223.836 141.712C223.623 141.627 223.346 141.648 223.004 141.776C222.684 141.904 222.386 142.16 222.108 142.544C221.852 142.928 221.724 143.472 221.724 144.176C221.49 144.261 221.17 144.357 220.764 144.464C220.38 144.571 220.028 144.624 219.708 144.624C219.154 144.624 218.631 144.432 218.14 144.048C217.671 143.664 217.436 143.067 217.436 142.256C217.436 141.509 217.65 140.901 218.076 140.432C218.503 139.941 219.015 139.568 219.612 139.312C220.231 139.056 220.828 138.885 221.404 138.8C221.98 138.693 222.418 138.64 222.716 138.64C223.292 138.64 223.975 138.779 224.764 139.056C225.554 139.333 226.332 139.781 227.1 140.4C227.89 140.997 228.54 141.797 229.052 142.8C229.564 143.781 229.82 144.997 229.82 146.448C229.82 148.112 229.458 149.509 228.732 150.64C228.028 151.749 227.1 152.592 225.948 153.168C224.818 153.723 223.602 154 222.3 154H219.228ZM233.564 154V150.608C233.799 150.608 233.959 150.768 234.044 151.088C234.151 151.387 234.204 151.792 234.204 152.304C234.204 152.816 234.151 153.232 234.044 153.552C233.959 153.851 233.799 154 233.564 154ZM252.391 154C251.196 154 250.119 153.733 249.159 153.2C248.22 152.667 247.474 151.931 246.919 150.992C246.386 150.053 246.119 148.997 246.119 147.824H250.279C250.279 148.251 250.354 148.688 250.503 149.136C250.652 149.563 250.887 149.915 251.207 150.192C251.527 150.469 251.922 150.608 252.391 150.608H254.023V154H252.391ZM235.175 154V150.608H243.879C244.604 150.608 245.159 150.384 245.543 149.936C245.927 149.488 246.119 148.837 246.119 147.984V142.192C245.97 142.149 245.756 142.117 245.479 142.096C245.202 142.053 244.903 142.032 244.583 142.032C243.474 142.032 242.642 142.363 242.087 143.024C241.532 143.685 241.255 144.773 241.255 146.288C241.255 147.653 241.5 148.688 241.991 149.392C242.503 150.096 243.25 150.501 244.231 150.608L243.815 153.968C242.578 153.84 241.447 153.488 240.423 152.912C239.42 152.315 238.61 151.472 237.991 150.384C237.394 149.275 237.095 147.909 237.095 146.288C237.095 143.877 237.767 142 239.111 140.656C240.476 139.312 242.3 138.64 244.583 138.64C246.268 138.64 247.634 138.981 248.679 139.664C249.746 140.325 250.279 141.168 250.279 142.192V147.984C250.279 149.136 250.002 150.171 249.447 151.088C248.914 151.984 248.167 152.699 247.207 153.232C246.247 153.744 245.138 154 243.879 154H235.175ZM235.175 154C234.962 154 234.802 153.851 234.695 153.552C234.588 153.232 234.535 152.816 234.535 152.304C234.535 151.792 234.588 151.387 234.695 151.088C234.802 150.768 234.962 150.608 235.175 150.608V154ZM254.023 154V150.608C254.258 150.608 254.418 150.768 254.503 151.088C254.61 151.387 254.663 151.792 254.663 152.304C254.663 152.816 254.61 153.232 254.503 153.552C254.418 153.851 254.258 154 254.023 154ZM247.175 136.4C246.62 136.4 246.13 136.197 245.703 135.792C245.298 135.387 245.095 134.896 245.095 134.32C245.095 133.744 245.298 133.253 245.703 132.848C246.13 132.443 246.62 132.24 247.175 132.24C247.772 132.24 248.263 132.443 248.647 132.848C249.052 133.253 249.255 133.744 249.255 134.32C249.255 134.896 249.052 135.387 248.647 135.792C248.263 136.197 247.772 136.4 247.175 136.4ZM241.991 136.4C241.436 136.4 240.946 136.197 240.519 135.792C240.114 135.387 239.911 134.896 239.911 134.32C239.911 133.744 240.114 133.253 240.519 132.848C240.946 132.443 241.436 132.24 241.991 132.24C242.567 132.24 243.058 132.443 243.463 132.848C243.868 133.253 244.071 133.744 244.071 134.32C244.071 134.896 243.868 135.387 243.463 135.792C243.058 136.197 242.567 136.4 241.991 136.4ZM255.619 154V150.608H257.251C257.741 150.608 258.136 150.469 258.435 150.192C258.755 149.915 258.989 149.563 259.139 149.136C259.288 148.688 259.363 148.251 259.363 147.824V137.584C259.363 136.816 259.267 136.261 259.075 135.92C258.883 135.579 258.669 135.355 258.435 135.248C258.2 135.141 258.019 135.056 257.891 134.992C257.891 134.8 257.965 134.544 258.115 134.224C258.285 133.883 258.552 133.573 258.915 133.296C259.299 133.019 259.8 132.88 260.419 132.88C261.059 132.88 261.603 133.051 262.051 133.392C262.52 133.712 262.883 134.16 263.139 134.736C263.395 135.312 263.523 135.973 263.523 136.72V147.824C263.523 148.997 263.245 150.053 262.691 150.992C262.157 151.931 261.421 152.667 260.483 153.2C259.544 153.733 258.467 154 257.251 154H255.619ZM255.619 154C255.405 154 255.245 153.851 255.139 153.552C255.032 153.232 254.979 152.816 254.979 152.304C254.979 151.792 255.032 151.387 255.139 151.088C255.245 150.768 255.405 150.608 255.619 150.608V154ZM272.121 154C271.331 154 270.787 153.776 270.489 153.328C270.19 152.859 270.041 152.357 270.041 151.824V137.584C270.041 136.816 269.945 136.261 269.753 135.92C269.561 135.579 269.347 135.355 269.113 135.248C268.878 135.141 268.697 135.056 268.569 134.992C268.569 134.821 268.643 134.565 268.793 134.224C268.963 133.883 269.23 133.573 269.593 133.296C269.977 133.019 270.489 132.88 271.129 132.88C271.747 132.88 272.281 133.051 272.729 133.392C273.198 133.712 273.561 134.16 273.817 134.736C274.073 135.312 274.201 135.973 274.201 136.72V151.888C274.201 152.379 274.051 152.859 273.753 153.328C273.454 153.776 272.91 154 272.121 154ZM295.653 154C294.415 154 293.285 153.701 292.261 153.104C291.237 152.485 290.426 151.6 289.829 150.448C289.231 149.296 288.933 147.909 288.933 146.288C288.933 143.877 289.605 142 290.949 140.656C292.314 139.312 294.138 138.64 296.421 138.64C298.106 138.64 299.471 138.981 300.517 139.664C301.583 140.325 302.117 141.168 302.117 142.192V154H297.957V142.192C297.807 142.149 297.594 142.117 297.317 142.096C297.039 142.053 296.741 142.032 296.421 142.032C295.311 142.032 294.479 142.363 293.925 143.024C293.37 143.685 293.093 144.773 293.093 146.288C293.093 147.653 293.338 148.72 293.829 149.488C294.341 150.235 295.087 150.608 296.069 150.608H304.133V154H295.653ZM304.133 154V150.608C304.367 150.608 304.527 150.768 304.613 151.088C304.719 151.387 304.773 151.792 304.773 152.304C304.773 152.816 304.719 153.232 304.613 153.552C304.527 153.851 304.367 154 304.133 154ZM298.181 136.4C297.626 136.4 297.135 136.197 296.709 135.792C296.303 135.387 296.101 134.896 296.101 134.32C296.101 133.744 296.303 133.253 296.709 132.848C297.135 132.443 297.626 132.24 298.181 132.24C298.778 132.24 299.269 132.443 299.653 132.848C300.058 133.253 300.261 133.744 300.261 134.32C300.261 134.896 300.058 135.387 299.653 135.792C299.269 136.197 298.778 136.4 298.181 136.4ZM292.997 136.4C292.442 136.4 291.951 136.197 291.525 135.792C291.119 135.387 290.917 134.896 290.917 134.32C290.917 133.744 291.119 133.253 291.525 132.848C291.951 132.443 292.442 132.24 292.997 132.24C293.573 132.24 294.063 132.443 294.469 132.848C294.874 133.253 295.077 133.744 295.077 134.32C295.077 134.896 294.874 135.387 294.469 135.792C294.063 136.197 293.573 136.4 292.997 136.4ZM315.754 154C314.559 154 313.482 153.733 312.522 153.2C311.583 152.667 310.836 151.931 310.282 150.992C309.748 150.053 309.482 148.997 309.482 147.824H313.642C313.642 148.251 313.716 148.688 313.866 149.136C314.015 149.563 314.25 149.915 314.57 150.192C314.89 150.469 315.284 150.608 315.754 150.608H317.386V154H315.754ZM305.738 154V150.608H307.37C307.86 150.608 308.255 150.469 308.554 150.192C308.874 149.915 309.108 149.563 309.258 149.136C309.407 148.688 309.482 148.251 309.482 147.824V137.584C309.482 136.816 309.386 136.261 309.194 135.92C309.002 135.579 308.788 135.355 308.554 135.248C308.319 135.141 308.138 135.056 308.01 134.992C308.01 134.8 308.084 134.544 308.234 134.224C308.404 133.883 308.671 133.573 309.034 133.296C309.418 133.019 309.919 132.88 310.538 132.88C311.178 132.88 311.722 133.051 312.17 133.392C312.639 133.712 313.002 134.16 313.258 134.736C313.514 135.312 313.642 135.973 313.642 136.72V147.824C313.642 148.997 313.364 150.053 312.81 150.992C312.276 151.931 311.54 152.667 310.602 153.2C309.663 153.733 308.586 154 307.37 154H305.738ZM305.738 154C305.524 154 305.364 153.851 305.258 153.552C305.151 153.232 305.098 152.816 305.098 152.304C305.098 151.792 305.151 151.387 305.258 151.088C305.364 150.768 305.524 150.608 305.738 150.608V154ZM317.386 154V150.608C317.62 150.608 317.78 150.768 317.866 151.088C317.972 151.387 318.026 151.792 318.026 152.304C318.026 152.816 317.972 153.232 317.866 153.552C317.78 153.851 317.62 154 317.386 154ZM318.994 154V150.608H320.626C321.116 150.608 321.511 150.469 321.81 150.192C322.13 149.915 322.364 149.563 322.514 149.136C322.663 148.688 322.738 148.251 322.738 147.824V140.752C322.738 140.261 322.887 139.792 323.186 139.344C323.484 138.875 324.028 138.64 324.818 138.64C325.607 138.64 326.151 138.875 326.45 139.344C326.748 139.792 326.898 140.261 326.898 140.752V147.824C326.898 148.997 326.62 150.053 326.066 150.992C325.532 151.931 324.796 152.667 323.858 153.2C322.919 153.733 321.842 154 320.626 154H318.994ZM329.01 154C327.815 154 326.738 153.733 325.778 153.2C324.839 152.667 324.092 151.931 323.538 150.992C323.004 150.053 322.738 148.997 322.738 147.824H326.898C326.898 148.251 326.972 148.688 327.122 149.136C327.271 149.563 327.506 149.915 327.826 150.192C328.146 150.469 328.54 150.608 329.01 150.608H330.642V154H329.01ZM330.642 154V150.608C330.876 150.608 331.036 150.768 331.122 151.088C331.228 151.387 331.282 151.792 331.282 152.304C331.282 152.816 331.228 153.232 331.122 153.552C331.036 153.851 330.876 154 330.642 154ZM318.994 154C318.78 154 318.62 153.851 318.514 153.552C318.407 153.232 318.354 152.816 318.354 152.304C318.354 151.792 318.407 151.387 318.514 151.088C318.62 150.768 318.78 150.608 318.994 150.608V154ZM327.41 160.88C326.855 160.88 326.364 160.677 325.938 160.272C325.532 159.867 325.33 159.376 325.33 158.8C325.33 158.224 325.532 157.733 325.938 157.328C326.364 156.923 326.855 156.72 327.41 156.72C328.007 156.72 328.498 156.923 328.882 157.328C329.287 157.733 329.49 158.224 329.49 158.8C329.49 159.376 329.287 159.867 328.882 160.272C328.498 160.677 328.007 160.88 327.41 160.88ZM322.226 160.88C321.671 160.88 321.18 160.677 320.754 160.272C320.348 159.867 320.146 159.376 320.146 158.8C320.146 158.224 320.348 157.733 320.754 157.328C321.18 156.923 321.671 156.72 322.226 156.72C322.802 156.72 323.292 156.923 323.698 157.328C324.103 157.733 324.306 158.224 324.306 158.8C324.306 159.376 324.103 159.867 323.698 160.272C323.292 160.677 322.802 160.88 322.226 160.88ZM332.25 154V150.608H333.882C334.373 150.608 334.767 150.469 335.066 150.192C335.386 149.915 335.621 149.563 335.77 149.136C335.919 148.688 335.994 148.251 335.994 147.824V137.584C335.994 136.816 335.898 136.261 335.706 135.92C335.514 135.579 335.301 135.355 335.066 135.248C334.831 135.141 334.65 135.056 334.522 134.992C334.522 134.8 334.597 134.544 334.746 134.224C334.917 133.883 335.183 133.573 335.546 133.296C335.93 133.019 336.431 132.88 337.05 132.88C337.69 132.88 338.234 133.051 338.682 133.392C339.151 133.712 339.514 134.16 339.77 134.736C340.026 135.312 340.154 135.973 340.154 136.72V147.824C340.154 148.997 339.877 150.053 339.322 150.992C338.789 151.931 338.053 152.667 337.114 153.2C336.175 153.733 335.098 154 333.882 154H332.25ZM332.25 154C332.037 154 331.877 153.851 331.77 153.552C331.663 153.232 331.61 152.816 331.61 152.304C331.61 151.792 331.663 151.387 331.77 151.088C331.877 150.768 332.037 150.608 332.25 150.608V154Z" fill="#4F4F4F"/>
<path d="M295.785 109.208C295.582 108.92 295.513 108.669 295.577 108.456C295.641 108.232 295.774 108.061 295.977 107.944C296.19 107.827 296.42 107.784 296.665 107.816C296.91 107.837 297.118 107.96 297.289 108.184L297.113 108.04C296.964 107.955 296.788 107.789 296.585 107.544C296.393 107.288 296.222 106.979 296.073 106.616C295.934 106.243 295.865 105.843 295.865 105.416C295.865 105.032 295.934 104.675 296.073 104.344C296.222 104.013 296.43 103.725 296.697 103.48C296.964 103.235 297.294 103.048 297.689 102.92C298.084 102.781 298.526 102.712 299.017 102.712C299.561 102.712 299.956 102.781 300.201 102.92C300.457 103.059 300.617 103.224 300.681 103.416C300.756 103.597 300.793 103.752 300.793 103.88C300.793 104.2 300.713 104.435 300.553 104.584C300.393 104.723 300.212 104.797 300.009 104.808C299.817 104.819 299.673 104.781 299.577 104.696C299.588 104.408 299.513 104.173 299.353 103.992C299.204 103.8 299.022 103.661 298.809 103.576C298.596 103.48 298.398 103.432 298.217 103.432H298.505C298.345 103.432 298.169 103.496 297.977 103.624C297.796 103.752 297.636 103.949 297.497 104.216C297.358 104.483 297.289 104.84 297.289 105.288C297.289 105.885 297.417 106.344 297.673 106.664C297.94 106.973 298.27 107.181 298.665 107.288C299.06 107.395 299.444 107.448 299.817 107.448C300.062 107.448 300.281 107.437 300.473 107.416C300.665 107.384 300.804 107.357 300.889 107.336C301.113 107.336 301.268 107.389 301.353 107.496C301.449 107.603 301.497 107.725 301.497 107.864C301.508 107.992 301.481 108.109 301.417 108.216C301.364 108.323 301.294 108.376 301.209 108.376C300.846 108.408 300.462 108.445 300.057 108.488C299.662 108.531 299.268 108.579 298.873 108.632C298.489 108.675 298.121 108.723 297.769 108.776C297.417 108.829 297.097 108.883 296.809 108.936C296.521 108.979 296.286 109.021 296.105 109.064C295.934 109.117 295.828 109.165 295.785 109.208ZM307.652 109C307.097 109 306.601 108.872 306.164 108.616C305.737 108.349 305.401 107.992 305.156 107.544C304.911 107.085 304.788 106.568 304.788 105.992V100.808C304.788 100.477 304.74 100.179 304.644 99.912C304.559 99.6453 304.447 99.4213 304.308 99.24C304.169 99.0587 304.036 98.9253 303.908 98.84C303.951 98.7867 304.02 98.728 304.116 98.664C304.223 98.6 304.351 98.5467 304.5 98.504C304.649 98.4613 304.804 98.44 304.964 98.44C305.167 98.44 305.364 98.4933 305.556 98.6C305.748 98.696 305.908 98.872 306.036 99.128C306.164 99.384 306.228 99.7467 306.228 100.216V105.992C306.228 106.291 306.276 106.584 306.372 106.872C306.479 107.16 306.639 107.4 306.852 107.592C307.065 107.784 307.332 107.88 307.652 107.88H308.148V109H307.652ZM308.148 109V107.88C308.276 107.88 308.361 107.928 308.404 108.024C308.447 108.12 308.468 108.259 308.468 108.44C308.468 108.611 308.447 108.749 308.404 108.856C308.361 108.952 308.276 109 308.148 109ZM308.955 109V107.88H310.027C310.368 107.88 310.651 107.8 310.875 107.64C311.099 107.48 311.27 107.277 311.387 107.032C311.515 106.787 311.606 106.531 311.659 106.264C311.723 105.997 311.76 105.757 311.771 105.544C311.782 105.32 311.787 105.16 311.787 105.064C311.787 104.776 311.76 104.435 311.707 104.04C311.654 103.645 311.531 103.235 311.339 102.808C311.158 102.381 310.854 101.992 310.427 101.64C310.48 101.587 310.544 101.539 310.619 101.496C310.704 101.443 310.8 101.4 310.907 101.368C311.014 101.336 311.136 101.32 311.275 101.32C311.648 101.32 311.958 101.443 312.203 101.688C312.459 101.933 312.662 102.253 312.811 102.648C312.96 103.032 313.067 103.443 313.131 103.88C313.195 104.317 313.227 104.723 313.227 105.096C313.227 106.323 312.944 107.283 312.379 107.976C311.814 108.659 311.03 109 310.027 109H308.955ZM308.955 109C308.827 109 308.742 108.952 308.699 108.856C308.656 108.749 308.635 108.611 308.635 108.44C308.635 108.259 308.656 108.12 308.699 108.024C308.742 107.928 308.827 107.88 308.955 107.88V109ZM312.475 100.28C312.23 100.28 312.016 100.189 311.835 100.008C311.654 99.8267 311.563 99.608 311.563 99.352C311.563 99.1067 311.654 98.8933 311.835 98.712C312.016 98.5307 312.23 98.44 312.475 98.44C312.731 98.44 312.944 98.5307 313.115 98.712C313.296 98.8933 313.387 99.1067 313.387 99.352C313.387 99.608 313.296 99.8267 313.115 100.008C312.944 100.189 312.731 100.28 312.475 100.28ZM310.139 100.28C309.894 100.28 309.68 100.189 309.499 100.008C309.318 99.8267 309.227 99.608 309.227 99.352C309.227 99.1067 309.318 98.8933 309.499 98.712C309.68 98.5307 309.894 98.44 310.139 98.44C310.395 98.44 310.608 98.5307 310.779 98.712C310.96 98.8933 311.051 99.1067 311.051 99.352C311.051 99.608 310.96 99.8267 310.779 100.008C310.608 100.189 310.395 100.28 310.139 100.28ZM311.307 98.232C311.072 98.232 310.87 98.152 310.699 97.992C310.539 97.8213 310.459 97.6187 310.459 97.384C310.459 97.1493 310.539 96.952 310.699 96.792C310.87 96.6213 311.072 96.536 311.307 96.536C311.542 96.536 311.739 96.6213 311.899 96.792C312.07 96.952 312.155 97.1493 312.155 97.384C312.155 97.6187 312.07 97.8213 311.899 97.992C311.739 98.152 311.542 98.232 311.307 98.232ZM325.771 109C325.217 109 324.721 108.872 324.283 108.616C323.857 108.349 323.521 107.992 323.275 107.544C323.03 107.085 322.907 106.568 322.907 105.992H324.347C324.347 106.291 324.395 106.584 324.491 106.872C324.598 107.16 324.758 107.4 324.971 107.592C325.185 107.784 325.451 107.88 325.771 107.88H326.347V109H325.771ZM316.315 109C316.145 109 316.027 108.936 315.963 108.808C315.899 108.68 315.867 108.557 315.867 108.44C315.867 108.323 315.899 108.2 315.963 108.072C316.027 107.944 316.145 107.88 316.315 107.88H321.483C321.814 107.88 322.081 107.784 322.283 107.592C322.497 107.4 322.651 107.16 322.747 106.872C322.854 106.584 322.907 106.291 322.907 105.992V100.808C322.907 100.477 322.859 100.179 322.763 99.912C322.678 99.6453 322.566 99.4213 322.427 99.24C322.289 99.0587 322.155 98.9253 322.027 98.84C322.07 98.7867 322.139 98.728 322.235 98.664C322.342 98.6 322.465 98.5467 322.603 98.504C322.753 98.4613 322.907 98.44 323.067 98.44C323.27 98.44 323.467 98.4933 323.659 98.6C323.862 98.696 324.027 98.872 324.155 99.128C324.283 99.384 324.347 99.7467 324.347 100.216V105.992C324.347 106.568 324.225 107.085 323.979 107.544C323.734 107.992 323.398 108.349 322.971 108.616C322.545 108.872 322.049 109 321.483 109H316.315ZM318.507 107.88V103.064C318.507 102.733 318.459 102.435 318.363 102.168C318.278 101.901 318.166 101.677 318.027 101.496C317.889 101.315 317.755 101.181 317.627 101.096C317.67 101.043 317.739 100.984 317.835 100.92C317.942 100.856 318.065 100.803 318.203 100.76C318.353 100.717 318.507 100.696 318.667 100.696C318.87 100.696 319.067 100.749 319.259 100.856C319.462 100.952 319.627 101.128 319.755 101.384C319.883 101.64 319.947 102.003 319.947 102.472V107.88H318.507ZM326.347 109V107.88C326.475 107.88 326.561 107.928 326.603 108.024C326.646 108.12 326.667 108.259 326.667 108.44C326.667 108.611 326.646 108.749 326.603 108.856C326.561 108.952 326.475 109 326.347 109ZM327.149 109V107.88H327.549C327.879 107.88 328.146 107.784 328.349 107.592C328.562 107.4 328.717 107.16 328.813 106.872C328.919 106.584 328.973 106.291 328.973 105.992V102.024C328.973 101.757 329.042 101.576 329.181 101.48C329.319 101.373 329.49 101.32 329.693 101.32C329.895 101.32 330.066 101.373 330.205 101.48C330.343 101.576 330.413 101.757 330.413 102.024V105.992C330.413 106.568 330.29 107.085 330.045 107.544C329.799 107.992 329.463 108.349 329.037 108.616C328.61 108.872 328.114 109 327.549 109H327.149ZM331.837 109C331.282 109 330.786 108.872 330.349 108.616C329.922 108.349 329.586 107.992 329.341 107.544C329.095 107.085 328.973 106.568 328.973 105.992H330.413C330.413 106.291 330.461 106.584 330.557 106.872C330.663 107.16 330.823 107.4 331.037 107.592C331.25 107.784 331.517 107.88 331.837 107.88H332.413V109H331.837ZM332.413 109V107.88C332.541 107.88 332.626 107.928 332.669 108.024C332.711 108.12 332.733 108.259 332.733 108.44C332.733 108.611 332.711 108.749 332.669 108.856C332.626 108.952 332.541 109 332.413 109ZM327.149 109C327.021 109 326.935 108.952 326.893 108.856C326.85 108.749 326.829 108.611 326.829 108.44C326.829 108.259 326.85 108.12 326.893 108.024C326.935 107.928 327.021 107.88 327.149 107.88V109ZM330.861 100.28C330.615 100.28 330.402 100.189 330.221 100.008C330.039 99.8267 329.949 99.608 329.949 99.352C329.949 99.1067 330.039 98.8933 330.221 98.712C330.402 98.5307 330.615 98.44 330.861 98.44C331.117 98.44 331.33 98.5307 331.501 98.712C331.682 98.8933 331.773 99.1067 331.773 99.352C331.773 99.608 331.682 99.8267 331.501 100.008C331.33 100.189 331.117 100.28 330.861 100.28ZM328.525 100.28C328.279 100.28 328.066 100.189 327.885 100.008C327.703 99.8267 327.613 99.608 327.613 99.352C327.613 99.1067 327.703 98.8933 327.885 98.712C328.066 98.5307 328.279 98.44 328.525 98.44C328.781 98.44 328.994 98.5307 329.165 98.712C329.346 98.8933 329.437 99.1067 329.437 99.352C329.437 99.608 329.346 99.8267 329.165 100.008C328.994 100.189 328.781 100.28 328.525 100.28ZM329.693 98.232C329.458 98.232 329.255 98.152 329.085 97.992C328.925 97.8213 328.845 97.6187 328.845 97.384C328.845 97.1493 328.925 96.952 329.085 96.792C329.255 96.6213 329.458 96.536 329.693 96.536C329.927 96.536 330.125 96.6213 330.285 96.792C330.455 96.952 330.541 97.1493 330.541 97.384C330.541 97.6187 330.455 97.8213 330.285 97.992C330.125 98.152 329.927 98.232 329.693 98.232ZM333.214 109V107.88H333.614C333.945 107.88 334.212 107.784 334.414 107.592C334.628 107.4 334.782 107.16 334.878 106.872C334.985 106.584 335.038 106.291 335.038 105.992V100.808C335.038 100.477 334.99 100.179 334.894 99.912C334.809 99.6453 334.697 99.4213 334.558 99.24C334.42 99.0587 334.286 98.9253 334.158 98.84C334.201 98.7867 334.27 98.728 334.366 98.664C334.473 98.6 334.596 98.5467 334.734 98.504C334.884 98.4613 335.038 98.44 335.198 98.44C335.401 98.44 335.598 98.4933 335.79 98.6C335.993 98.696 336.158 98.872 336.286 99.128C336.414 99.384 336.478 99.7467 336.478 100.216V105.992C336.478 106.568 336.356 107.085 336.11 107.544C335.865 107.992 335.529 108.349 335.102 108.616C334.676 108.872 334.18 109 333.614 109H333.214ZM333.214 109C333.086 109 333.001 108.952 332.958 108.856C332.916 108.749 332.894 108.611 332.894 108.44C332.894 108.259 332.916 108.12 332.958 108.024C333.001 107.928 333.086 107.88 333.214 107.88V109ZM340.695 109C340.354 109 340.151 108.899 340.087 108.696C340.023 108.493 339.991 108.253 339.991 107.976V100.808C339.991 100.477 339.943 100.179 339.847 99.912C339.762 99.6453 339.65 99.4213 339.511 99.24C339.373 99.0587 339.239 98.9253 339.111 98.84C339.154 98.7867 339.223 98.728 339.319 98.664C339.426 98.6 339.554 98.5467 339.703 98.504C339.853 98.4613 340.007 98.44 340.167 98.44C340.37 98.44 340.567 98.4933 340.759 98.6C340.951 98.696 341.111 98.872 341.239 99.128C341.367 99.384 341.431 99.7467 341.431 100.216V107.976C341.431 108.253 341.394 108.493 341.319 108.696C341.245 108.899 341.037 109 340.695 109Z" fill="#4F4F4F"/>
<path d="M101.616 256V221.312L96.048 224.896L94.512 222.912L104.368 213.76H109.936V256H101.616ZM133.184 257.28C130.282 257.28 127.616 256.896 125.184 256.128C122.752 255.403 120.81 254.229 119.36 252.608C117.909 250.987 117.184 248.875 117.184 246.272C117.184 244.224 117.674 242.475 118.656 241.024C119.68 239.573 121.002 238.336 122.624 237.312C124.288 236.245 126.037 235.328 127.872 234.56C126.208 233.621 124.693 232.661 123.328 231.68C121.962 230.656 120.853 229.504 120 228.224C119.189 226.901 118.784 225.323 118.784 223.488C118.784 220.672 119.424 218.475 120.704 216.896C122.026 215.275 123.776 214.144 125.952 213.504C128.17 212.821 130.581 212.48 133.184 212.48C135.829 212.48 138.24 212.8 140.416 213.44C142.592 214.08 144.32 215.147 145.6 216.64C146.922 218.133 147.583 220.203 147.583 222.848C147.583 224.469 147.2 225.941 146.432 227.264C145.664 228.544 144.618 229.675 143.296 230.656C142.016 231.595 140.565 232.405 138.944 233.088C140.736 234.027 142.4 235.072 143.936 236.224C145.514 237.333 146.773 238.656 147.712 240.192C148.693 241.685 149.184 243.499 149.184 245.632C149.184 248.448 148.458 250.709 147.007 252.416C145.6 254.123 143.68 255.36 141.248 256.128C138.858 256.896 136.17 257.28 133.184 257.28ZM133.184 254.4C134.634 254.4 135.914 254.123 137.024 253.568C138.133 253.013 138.986 252.181 139.584 251.072C140.224 249.92 140.544 248.533 140.544 246.912C140.544 245.163 140.117 243.648 139.264 242.368C138.41 241.045 137.28 239.893 135.872 238.912C134.464 237.888 132.928 236.949 131.264 236.096C130.197 236.651 129.237 237.355 128.384 238.208C127.573 239.061 126.933 240.128 126.464 241.408C126.037 242.688 125.824 244.309 125.824 246.272C125.824 248.149 126.122 249.685 126.72 250.88C127.36 252.075 128.234 252.971 129.344 253.568C130.453 254.123 131.733 254.4 133.184 254.4ZM135.616 231.424C136.725 230.571 137.557 229.525 138.112 228.288C138.666 227.008 138.944 225.195 138.944 222.848C138.944 220.885 138.624 219.371 137.984 218.304C137.386 217.195 136.64 216.427 135.744 216C134.848 215.573 133.994 215.36 133.184 215.36C132.373 215.36 131.52 215.573 130.624 216C129.728 216.384 128.96 217.067 128.32 218.048C127.722 219.029 127.424 220.416 127.424 222.208C127.424 223.531 127.786 224.768 128.512 225.92C129.28 227.029 130.282 228.053 131.52 228.992C132.8 229.931 134.165 230.741 135.616 231.424Z" fill="#4F4F4F"/>
<path d="M287.624 251V246.84C288.691 245.773 290.056 244.472 291.72 242.936C293.384 241.357 295.112 239.651 296.904 237.816C298.739 235.939 300.445 233.997 302.024 231.992C303.603 229.944 304.883 227.896 305.864 225.848C306.888 223.8 307.4 221.795 307.4 219.832C307.4 217.613 307.059 215.821 306.376 214.456C305.693 213.048 304.819 212.024 303.752 211.384C302.685 210.701 301.555 210.36 300.36 210.36C297.672 210.36 295.411 211.256 293.576 213.048C291.741 214.84 290.504 217.677 289.864 221.56H287.624C287.624 219.939 287.688 218.296 287.816 216.632C287.944 214.925 288.392 213.581 289.16 212.6C290.312 211.192 291.997 209.997 294.216 209.016C296.477 207.992 298.952 207.48 301.64 207.48C303.133 207.48 304.712 207.651 306.376 207.992C308.083 208.291 309.683 208.867 311.176 209.72C312.712 210.573 313.949 211.811 314.888 213.432C315.869 215.053 316.36 217.187 316.36 219.832C316.36 221.837 315.891 223.821 314.952 225.784C314.013 227.747 312.776 229.667 311.24 231.544C309.747 233.421 308.104 235.213 306.312 236.92C304.52 238.627 302.749 240.205 301 241.656C299.251 243.064 297.672 244.323 296.264 245.432C294.899 246.541 293.875 247.437 293.192 248.12H306.44C309 248.12 310.963 247.523 312.328 246.328C313.736 245.091 314.44 243.341 314.44 241.08H316.36V245.88C316.36 246.733 316.211 247.565 315.912 248.376C315.613 249.144 315.08 249.784 314.312 250.296C313.544 250.765 312.413 251 310.92 251H287.624ZM325.644 251L341.644 211.64H330.764C328.204 211.64 326.22 212.259 324.812 213.496C323.447 214.691 322.764 216.419 322.764 218.68H320.844V213.88C320.844 213.027 320.993 212.216 321.292 211.448C321.591 210.637 322.124 209.997 322.892 209.528C323.703 209.016 324.833 208.76 326.284 208.76H349.388V211.64L333.388 251H325.644Z" fill="#4F4F4F"/>
<path d="M72.5693 276V275.3C73.1573 274.731 73.6893 274.217 74.1653 273.76C74.6506 273.303 75.0753 272.883 75.4393 272.5C75.8033 272.117 76.1113 271.749 76.3633 271.394C76.6153 271.039 76.802 270.68 76.9233 270.316C77.054 269.952 77.1193 269.56 77.1193 269.14C77.1193 268.673 77.0353 268.286 76.8673 267.978C76.6993 267.661 76.4753 267.427 76.1953 267.278C75.9246 267.119 75.626 267.04 75.2993 267.04C74.7393 267.04 74.2493 267.245 73.8293 267.656C73.4093 268.057 73.1293 268.645 72.9893 269.42H72.7093C72.7093 269.065 72.7233 268.729 72.7513 268.412C72.7793 268.085 72.8773 267.815 73.0453 267.6C73.2973 267.292 73.666 267.031 74.1513 266.816C74.6366 266.592 75.1593 266.48 75.7193 266.48C75.9993 266.48 76.298 266.517 76.6153 266.592C76.942 266.657 77.25 266.783 77.5393 266.97C77.8286 267.157 78.062 267.427 78.2393 267.782C78.426 268.127 78.5193 268.58 78.5193 269.14C78.5193 269.541 78.454 269.919 78.3233 270.274C78.202 270.619 78.0293 270.955 77.8053 271.282C77.5813 271.609 77.3153 271.935 77.0073 272.262C76.6993 272.579 76.3586 272.906 75.9853 273.242C75.6213 273.569 75.2293 273.914 74.8093 274.278C74.3986 274.642 73.9786 275.029 73.5493 275.44H76.6993C77.2593 275.44 77.6886 275.319 77.9873 275.076C78.2953 274.833 78.4493 274.465 78.4493 273.97H78.7293V274.88C78.7293 275.067 78.6966 275.249 78.6313 275.426C78.566 275.594 78.4493 275.734 78.2813 275.846C78.1133 275.949 77.866 276 77.5393 276H72.5693ZM84.2071 276.28C83.3951 276.28 82.7418 276.079 82.2471 275.678C81.7525 275.267 81.3931 274.693 81.1691 273.956C80.9545 273.219 80.8471 272.36 80.8471 271.38C80.8471 270.391 80.9545 269.532 81.1691 268.804C81.3931 268.067 81.7525 267.497 82.2471 267.096C82.7418 266.685 83.3951 266.48 84.2071 266.48C85.0285 266.48 85.6818 266.685 86.1671 267.096C86.6618 267.497 87.0165 268.067 87.2311 268.804C87.4551 269.532 87.5671 270.391 87.5671 271.38C87.5671 272.36 87.4551 273.219 87.2311 273.956C87.0165 274.693 86.6618 275.267 86.1671 275.678C85.6818 276.079 85.0285 276.28 84.2071 276.28ZM84.2071 275.72C84.9725 275.72 85.4905 275.365 85.7611 274.656C86.0318 273.937 86.1671 272.845 86.1671 271.38C86.1671 269.905 86.0318 268.813 85.7611 268.104C85.4905 267.395 84.9725 267.04 84.2071 267.04C83.4418 267.04 82.9238 267.395 82.6531 268.104C82.3825 268.813 82.2471 269.905 82.2471 271.38C82.2471 272.845 82.3825 273.937 82.6531 274.656C82.9238 275.365 83.4418 275.72 84.2071 275.72ZM89.5689 276V275.3C90.1569 274.731 90.6889 274.217 91.1649 273.76C91.6503 273.303 92.0749 272.883 92.4389 272.5C92.8029 272.117 93.1109 271.749 93.3629 271.394C93.6149 271.039 93.8016 270.68 93.9229 270.316C94.0536 269.952 94.1189 269.56 94.1189 269.14C94.1189 268.673 94.0349 268.286 93.8669 267.978C93.6989 267.661 93.4749 267.427 93.1949 267.278C92.9243 267.119 92.6256 267.04 92.2989 267.04C91.7389 267.04 91.2489 267.245 90.8289 267.656C90.4089 268.057 90.1289 268.645 89.9889 269.42H89.7089C89.7089 269.065 89.7229 268.729 89.7509 268.412C89.7789 268.085 89.8769 267.815 90.0449 267.6C90.2969 267.292 90.6656 267.031 91.1509 266.816C91.6363 266.592 92.1589 266.48 92.7189 266.48C92.9989 266.48 93.2976 266.517 93.6149 266.592C93.9416 266.657 94.2496 266.783 94.5389 266.97C94.8283 267.157 95.0616 267.427 95.2389 267.782C95.4256 268.127 95.5189 268.58 95.5189 269.14C95.5189 269.541 95.4536 269.919 95.3229 270.274C95.2016 270.619 95.0289 270.955 94.8049 271.282C94.5809 271.609 94.3149 271.935 94.0069 272.262C93.6989 272.579 93.3583 272.906 92.9849 273.242C92.6209 273.569 92.2289 273.914 91.8089 274.278C91.3983 274.642 90.9783 275.029 90.5489 275.44H93.6989C94.2589 275.44 94.6883 275.319 94.9869 275.076C95.2949 274.833 95.4489 274.465 95.4489 273.97H95.7289V274.88C95.7289 275.067 95.6963 275.249 95.6309 275.426C95.5656 275.594 95.4489 275.734 95.2809 275.846C95.1129 275.949 94.8656 276 94.5389 276H89.5689ZM100.843 276.28C100.376 276.28 99.9514 276.219 99.5688 276.098C99.1954 275.977 98.8501 275.804 98.5328 275.58C98.2248 275.356 97.9401 275.09 97.6788 274.782L97.9028 274.53C98.2574 274.922 98.6448 275.221 99.0648 275.426C99.4848 275.622 99.9608 275.72 100.493 275.72C100.866 275.72 101.211 275.641 101.529 275.482C101.846 275.314 102.103 275.062 102.299 274.726C102.495 274.39 102.593 273.951 102.593 273.41C102.593 272.915 102.499 272.509 102.313 272.192C102.126 271.875 101.893 271.637 101.613 271.478C101.333 271.319 101.053 271.24 100.773 271.24C100.493 271.24 100.269 271.249 100.101 271.268C99.9328 271.277 99.7741 271.296 99.6248 271.324C99.4848 271.352 99.3074 271.394 99.0928 271.45L98.7288 270.862L102.523 267.32H99.9328C99.3728 267.32 98.9388 267.441 98.6308 267.684C98.3321 267.927 98.1828 268.295 98.1828 268.79H97.9028V267.88C97.9028 267.693 97.9354 267.516 98.0008 267.348C98.0661 267.171 98.1828 267.031 98.3508 266.928C98.5281 266.816 98.7754 266.76 99.0928 266.76H103.545V267.32L99.7928 270.82C100.035 270.755 100.283 270.717 100.535 270.708C100.796 270.689 100.969 270.68 101.053 270.68C101.258 270.68 101.524 270.717 101.851 270.792C102.177 270.857 102.504 270.988 102.831 271.184C103.157 271.38 103.433 271.655 103.657 272.01C103.881 272.365 103.993 272.831 103.993 273.41C103.993 274.026 103.881 274.525 103.657 274.908C103.433 275.281 103.148 275.571 102.803 275.776C102.467 275.972 102.121 276.103 101.767 276.168C101.412 276.243 101.104 276.28 100.843 276.28ZM110.437 278.17L110.297 277.96C110.539 277.801 110.74 277.629 110.899 277.442C111.067 277.255 111.193 277.05 111.277 276.826C111.37 276.602 111.417 276.35 111.417 276.07C111.379 276.098 111.319 276.126 111.235 276.154C111.151 276.191 111.071 276.21 110.997 276.21C110.782 276.21 110.6 276.135 110.451 275.986C110.301 275.837 110.227 275.655 110.227 275.44C110.227 275.197 110.306 274.997 110.465 274.838C110.623 274.679 110.824 274.6 111.067 274.6C111.347 274.6 111.566 274.684 111.725 274.852C111.893 275.02 111.977 275.263 111.977 275.58C111.977 276.177 111.841 276.686 111.571 277.106C111.309 277.535 110.931 277.89 110.437 278.17ZM127.493 276C127.008 276 126.574 275.888 126.191 275.664C125.818 275.431 125.524 275.118 125.309 274.726C125.094 274.325 124.987 273.872 124.987 273.368H126.247C126.247 273.629 126.289 273.886 126.373 274.138C126.466 274.39 126.606 274.6 126.793 274.768C126.98 274.936 127.213 275.02 127.493 275.02H127.997V276H127.493ZM122.663 279.304C121.786 279.304 121.039 279.155 120.423 278.856C119.816 278.557 119.354 278.147 119.037 277.624C118.729 277.111 118.575 276.537 118.575 275.902C118.575 275.669 118.598 275.379 118.645 275.034C118.701 274.679 118.79 274.329 118.911 273.984C119.042 273.629 119.214 273.335 119.429 273.102C119.653 272.859 119.938 272.738 120.283 272.738C120.404 272.738 120.512 272.752 120.605 272.78C120.698 272.808 120.778 272.845 120.843 272.892C120.918 272.929 120.978 272.971 121.025 273.018C120.689 273.298 120.437 273.611 120.269 273.956C120.101 274.301 119.984 274.637 119.919 274.964C119.863 275.281 119.835 275.561 119.835 275.804C119.835 276.691 120.092 277.33 120.605 277.722C121.128 278.123 121.809 278.324 122.649 278.324C123.47 278.324 124.063 278.133 124.427 277.75C124.8 277.377 124.987 276.751 124.987 275.874V268.832C124.987 268.543 124.945 268.281 124.861 268.048C124.786 267.815 124.688 267.619 124.567 267.46C124.446 267.301 124.329 267.185 124.217 267.11C124.254 267.063 124.315 267.012 124.399 266.956C124.492 266.9 124.6 266.853 124.721 266.816C124.852 266.779 124.987 266.76 125.127 266.76C125.304 266.76 125.477 266.807 125.645 266.9C125.822 266.984 125.967 267.138 126.079 267.362C126.191 267.586 126.247 267.903 126.247 268.314V275.874C126.247 276.919 125.962 277.75 125.393 278.366C124.824 278.991 123.914 279.304 122.663 279.304ZM127.997 276V275.02C128.109 275.02 128.184 275.062 128.221 275.146C128.258 275.23 128.277 275.351 128.277 275.51C128.277 275.659 128.258 275.781 128.221 275.874C128.184 275.958 128.109 276 127.997 276ZM128.701 276V275.02H129.639C129.937 275.02 130.185 274.95 130.381 274.81C130.577 274.67 130.726 274.493 130.829 274.278C130.941 274.063 131.02 273.839 131.067 273.606C131.123 273.373 131.155 273.163 131.165 272.976C131.174 272.78 131.179 272.64 131.179 272.556C131.179 272.304 131.155 272.005 131.109 271.66C131.062 271.315 130.955 270.955 130.787 270.582C130.628 270.209 130.362 269.868 129.989 269.56C130.035 269.513 130.091 269.471 130.157 269.434C130.231 269.387 130.315 269.35 130.409 269.322C130.502 269.294 130.609 269.28 130.731 269.28C131.057 269.28 131.328 269.387 131.543 269.602C131.767 269.817 131.944 270.097 132.075 270.442C132.205 270.778 132.299 271.137 132.355 271.52C132.411 271.903 132.439 272.257 132.439 272.584C132.439 273.657 132.191 274.497 131.697 275.104C131.202 275.701 130.516 276 129.639 276H128.701ZM128.701 276C128.589 276 128.514 275.958 128.477 275.874C128.439 275.781 128.421 275.659 128.421 275.51C128.421 275.351 128.439 275.23 128.477 275.146C128.514 275.062 128.589 275.02 128.701 275.02V276ZM131.781 278.73C131.566 278.73 131.379 278.651 131.221 278.492C131.062 278.333 130.983 278.147 130.983 277.932C130.983 277.708 131.062 277.517 131.221 277.358C131.379 277.199 131.566 277.12 131.781 277.12C132.005 277.12 132.191 277.199 132.341 277.358C132.499 277.517 132.579 277.708 132.579 277.932C132.579 278.147 132.499 278.333 132.341 278.492C132.191 278.651 132.005 278.73 131.781 278.73ZM129.737 278.73C129.522 278.73 129.335 278.651 129.177 278.492C129.018 278.333 128.939 278.147 128.939 277.932C128.939 277.708 129.018 277.517 129.177 277.358C129.335 277.199 129.522 277.12 129.737 277.12C129.961 277.12 130.147 277.199 130.297 277.358C130.455 277.517 130.535 277.708 130.535 277.932C130.535 278.147 130.455 278.333 130.297 278.492C130.147 278.651 129.961 278.73 129.737 278.73ZM136.779 276V275.02H138.515V276H136.779ZM135.071 279.206C134.95 279.206 134.843 279.192 134.749 279.164C134.656 279.136 134.572 279.099 134.497 279.052C134.432 279.005 134.376 278.963 134.329 278.926C134.703 278.609 134.969 278.273 135.127 277.918C135.295 277.563 135.403 277.213 135.449 276.868C135.496 276.532 135.519 276.243 135.519 276V269.896C135.519 269.663 135.58 269.504 135.701 269.42C135.823 269.327 135.972 269.28 136.149 269.28C136.327 269.28 136.476 269.327 136.597 269.42C136.719 269.504 136.779 269.663 136.779 269.896V276C136.779 276.327 136.751 276.677 136.695 277.05C136.639 277.423 136.546 277.773 136.415 278.1C136.285 278.427 136.107 278.693 135.883 278.898C135.669 279.103 135.398 279.206 135.071 279.206ZM138.515 276V275.02C138.627 275.02 138.702 275.062 138.739 275.146C138.777 275.23 138.795 275.351 138.795 275.51C138.795 275.659 138.777 275.781 138.739 275.874C138.702 275.958 138.627 276 138.515 276ZM139.22 276V275.02H140.158C140.457 275.02 140.704 274.95 140.9 274.81C141.096 274.67 141.245 274.493 141.348 274.278C141.46 274.063 141.539 273.839 141.586 273.606C141.642 273.373 141.675 273.163 141.684 272.976C141.693 272.78 141.698 272.64 141.698 272.556C141.698 272.304 141.675 272.005 141.628 271.66C141.581 271.315 141.474 270.955 141.306 270.582C141.147 270.209 140.881 269.868 140.508 269.56C140.555 269.513 140.611 269.471 140.676 269.434C140.751 269.387 140.835 269.35 140.928 269.322C141.021 269.294 141.129 269.28 141.25 269.28C141.577 269.28 141.847 269.387 142.062 269.602C142.286 269.817 142.463 270.097 142.594 270.442C142.725 270.778 142.818 271.137 142.874 271.52C142.93 271.903 142.958 272.257 142.958 272.584C142.958 273.657 142.711 274.497 142.216 275.104C141.721 275.701 141.035 276 140.158 276H139.22ZM139.22 276C139.108 276 139.033 275.958 138.996 275.874C138.959 275.781 138.94 275.659 138.94 275.51C138.94 275.351 138.959 275.23 138.996 275.146C139.033 275.062 139.108 275.02 139.22 275.02V276ZM141.292 278.73C141.059 278.73 140.863 278.651 140.704 278.492C140.545 278.333 140.466 278.147 140.466 277.932C140.466 277.708 140.545 277.517 140.704 277.358C140.863 277.199 141.059 277.12 141.292 277.12C141.507 277.12 141.693 277.199 141.852 277.358C142.011 277.517 142.09 277.708 142.09 277.932C142.09 278.147 142.011 278.333 141.852 278.492C141.693 278.651 141.507 278.73 141.292 278.73ZM146.654 276C146.356 276 146.178 275.911 146.122 275.734C146.066 275.557 146.038 275.347 146.038 275.104V268.832C146.038 268.543 145.996 268.281 145.912 268.048C145.838 267.815 145.74 267.619 145.618 267.46C145.497 267.301 145.38 267.185 145.268 267.11C145.306 267.063 145.366 267.012 145.45 266.956C145.544 266.9 145.656 266.853 145.786 266.816C145.917 266.779 146.052 266.76 146.192 266.76C146.37 266.76 146.542 266.807 146.71 266.9C146.878 266.984 147.018 267.138 147.13 267.362C147.242 267.586 147.298 267.903 147.298 268.314V275.104C147.298 275.347 147.266 275.557 147.2 275.734C147.135 275.911 146.953 276 146.654 276Z" fill="#828282"/>
<path d="M256.592 276V268.16L255.234 269.042L254.982 268.72L257.152 266.76H257.852V276H256.592ZM264.484 276V273.62H260.004V273.06L264.624 266.76H265.744V273.06H267.004V273.62H265.744V276H264.484ZM260.844 273.06H264.484V268.104L260.844 273.06ZM272.827 276V273.62H268.347V273.06L272.967 266.76H274.087V273.06H275.347V273.62H274.087V276H272.827ZM269.187 273.06H272.827V268.104L269.187 273.06ZM281.169 276V273.62H276.689V273.06L281.309 266.76H282.429V273.06H283.689V273.62H282.429V276H281.169ZM277.529 273.06H281.169V268.104L277.529 273.06ZM289.974 278.17L289.834 277.96C290.076 277.801 290.277 277.629 290.436 277.442C290.604 277.255 290.73 277.05 290.814 276.826C290.907 276.602 290.954 276.35 290.954 276.07C290.916 276.098 290.856 276.126 290.772 276.154C290.688 276.191 290.608 276.21 290.534 276.21C290.319 276.21 290.137 276.135 289.988 275.986C289.838 275.837 289.764 275.655 289.764 275.44C289.764 275.197 289.843 274.997 290.002 274.838C290.16 274.679 290.361 274.6 290.604 274.6C290.884 274.6 291.103 274.684 291.262 274.852C291.43 275.02 291.514 275.263 291.514 275.58C291.514 276.177 291.378 276.686 291.108 277.106C290.846 277.535 290.468 277.89 289.974 278.17ZM302.2 279.304C301.323 279.304 300.576 279.155 299.96 278.856C299.353 278.557 298.891 278.147 298.574 277.624C298.266 277.111 298.112 276.537 298.112 275.902C298.112 275.669 298.135 275.379 298.182 275.034C298.238 274.679 298.327 274.329 298.448 273.984C298.579 273.629 298.751 273.335 298.966 273.102C299.19 272.859 299.475 272.738 299.82 272.738C299.941 272.738 300.049 272.752 300.142 272.78C300.235 272.808 300.315 272.845 300.38 272.892C300.455 272.929 300.515 272.971 300.562 273.018C300.226 273.298 299.974 273.611 299.806 273.956C299.638 274.301 299.521 274.637 299.456 274.964C299.4 275.281 299.372 275.561 299.372 275.804C299.372 276.691 299.629 277.33 300.142 277.722C300.665 278.123 301.346 278.324 302.186 278.324C303.007 278.324 303.6 278.133 303.964 277.75C304.337 277.377 304.524 276.751 304.524 275.874V269.896C304.524 269.663 304.585 269.504 304.706 269.42C304.827 269.327 304.977 269.28 305.154 269.28C305.331 269.28 305.481 269.327 305.602 269.42C305.723 269.504 305.784 269.663 305.784 269.896V275.874C305.784 276.919 305.499 277.75 304.93 278.366C304.361 278.991 303.451 279.304 302.2 279.304ZM301.962 269.28C301.729 269.28 301.533 269.201 301.374 269.042C301.215 268.883 301.136 268.697 301.136 268.482C301.136 268.258 301.215 268.067 301.374 267.908C301.533 267.749 301.729 267.67 301.962 267.67C302.177 267.67 302.363 267.749 302.522 267.908C302.681 268.067 302.76 268.258 302.76 268.482C302.76 268.697 302.681 268.883 302.522 269.042C302.363 269.201 302.177 269.28 301.962 269.28ZM311.38 276C310.895 276 310.461 275.888 310.078 275.664C309.705 275.431 309.411 275.118 309.196 274.726C308.981 274.325 308.874 273.872 308.874 273.368V268.832C308.874 268.543 308.832 268.281 308.748 268.048C308.673 267.815 308.575 267.619 308.454 267.46C308.333 267.301 308.216 267.185 308.104 267.11C308.141 267.063 308.202 267.012 308.286 266.956C308.379 266.9 308.491 266.853 308.622 266.816C308.753 266.779 308.888 266.76 309.028 266.76C309.205 266.76 309.378 266.807 309.546 266.9C309.714 266.984 309.854 267.138 309.966 267.362C310.078 267.586 310.134 267.903 310.134 268.314V273.368C310.134 273.629 310.176 273.886 310.26 274.138C310.353 274.39 310.493 274.6 310.68 274.768C310.867 274.936 311.1 275.02 311.38 275.02H311.814V276H311.38ZM311.814 276V275.02C311.926 275.02 312.001 275.062 312.038 275.146C312.075 275.23 312.094 275.351 312.094 275.51C312.094 275.659 312.075 275.781 312.038 275.874C312.001 275.958 311.926 276 311.814 276ZM323.58 276C323.095 276 322.661 275.888 322.278 275.664C321.905 275.431 321.611 275.118 321.396 274.726C321.181 274.325 321.074 273.872 321.074 273.368L322.334 273.018V273.368C322.334 273.629 322.376 273.886 322.46 274.138C322.553 274.39 322.693 274.6 322.88 274.768C323.067 274.936 323.3 275.02 323.58 275.02H324.084V276H323.58ZM312.52 276V275.02H319.828C320.211 275.02 320.514 274.866 320.738 274.558C320.962 274.25 321.074 273.741 321.074 273.032C321.074 272.043 320.85 271.333 320.402 270.904C319.963 270.475 319.366 270.26 318.61 270.26C318.013 270.26 317.509 270.372 317.098 270.596C316.687 270.82 316.351 271.109 316.09 271.464C315.829 271.819 315.614 272.201 315.446 272.612C315.287 273.013 315.152 273.396 315.04 273.76L314.466 273.48C314.55 273.2 314.639 272.878 314.732 272.514C314.835 272.141 314.97 271.767 315.138 271.394C315.306 271.021 315.535 270.675 315.824 270.358C316.113 270.031 316.482 269.77 316.93 269.574C317.378 269.378 317.938 269.28 318.61 269.28C319.786 269.28 320.701 269.607 321.354 270.26C322.007 270.913 322.334 271.837 322.334 273.032C322.334 273.975 322.115 274.707 321.676 275.23C321.247 275.743 320.631 276 319.828 276H312.52ZM313.78 276V271.618C313.78 271.357 313.701 271.105 313.542 270.862C313.393 270.619 313.239 270.437 313.08 270.316C313.155 270.251 313.267 270.185 313.416 270.12C313.565 270.045 313.729 270.008 313.906 270.008C314.018 270.008 314.139 270.031 314.27 270.078C314.401 270.125 314.522 270.204 314.634 270.316C314.755 270.428 314.853 270.587 314.928 270.792C315.003 270.997 315.04 271.263 315.04 271.59V276H313.78ZM312.52 276C312.408 276 312.333 275.958 312.296 275.874C312.259 275.781 312.24 275.659 312.24 275.51C312.24 275.351 312.259 275.23 312.296 275.146C312.333 275.062 312.408 275.02 312.52 275.02V276ZM324.084 276V275.02C324.196 275.02 324.271 275.062 324.308 275.146C324.345 275.23 324.364 275.351 324.364 275.51C324.364 275.659 324.345 275.781 324.308 275.874C324.271 275.958 324.196 276 324.084 276ZM318.064 268.37C317.831 268.37 317.635 268.291 317.476 268.132C317.317 267.973 317.238 267.787 317.238 267.572C317.238 267.348 317.317 267.157 317.476 266.998C317.635 266.839 317.831 266.76 318.064 266.76C318.279 266.76 318.465 266.839 318.624 266.998C318.783 267.157 318.862 267.348 318.862 267.572C318.862 267.787 318.783 267.973 318.624 268.132C318.465 268.291 318.279 268.37 318.064 268.37ZM324.786 276V275.02H327.768C328.412 275.02 328.907 274.815 329.252 274.404C329.598 273.993 329.77 273.401 329.77 272.626C329.77 271.842 329.607 271.254 329.28 270.862C328.954 270.461 328.482 270.26 327.866 270.26C327.465 270.26 327.171 270.311 326.984 270.414C326.807 270.517 326.718 270.657 326.718 270.834V276H325.458V270.834C325.458 270.377 325.682 270.003 326.13 269.714C326.578 269.425 327.157 269.28 327.866 269.28C328.837 269.28 329.607 269.574 330.176 270.162C330.746 270.75 331.03 271.571 331.03 272.626C331.03 273.335 330.909 273.942 330.666 274.446C330.424 274.95 330.088 275.337 329.658 275.608C329.229 275.869 328.739 276 328.188 276H324.786ZM324.786 276C324.674 276 324.6 275.958 324.562 275.874C324.525 275.781 324.506 275.659 324.506 275.51C324.506 275.351 324.525 275.23 324.562 275.146C324.6 275.062 324.674 275.02 324.786 275.02V276ZM333.659 279.206C333.537 279.206 333.43 279.192 333.337 279.164C333.243 279.136 333.159 279.099 333.085 279.052C333.019 279.005 332.963 278.963 332.917 278.926C333.29 278.609 333.556 278.273 333.715 277.918C333.883 277.563 333.99 277.213 334.037 276.868C334.083 276.532 334.107 276.243 334.107 276V269.896C334.107 269.663 334.167 269.504 334.289 269.42C334.41 269.327 334.559 269.28 334.737 269.28C334.914 269.28 335.063 269.327 335.185 269.42C335.306 269.504 335.367 269.663 335.367 269.896V276C335.367 276.327 335.339 276.677 335.283 277.05C335.227 277.423 335.133 277.773 335.003 278.1C334.872 278.427 334.695 278.693 334.471 278.898C334.256 279.103 333.985 279.206 333.659 279.206Z" fill="#828282"/>
<defs>
<filter id="filter0_d_668_6198" x="30" y="18" width="350" height="373.948" filterUnits="userSpaceOnUse" color-interpolation-filters="sRGB">
<feFlood flood-opacity="0" result="BackgroundImageFix"/>
<feColorMatrix in="SourceAlpha" type="matrix" values="0 0 0 0 0 0 0 0 0 0 0 0 0 0 0 0 0 0 127 0" result="hardAlpha"/>
<feOffset/>
<feGaussianBlur stdDeviation="6.5"/>
<feComposite in2="hardAlpha" operator="out"/>
<feColorMatrix type="matrix" values="0 0 0 0 0.1375 0 0 0 0 0.1375 0 0 0 0 0.1375 0 0 0 0.25 0"/>
<feBlend mode="normal" in2="BackgroundImageFix" result="effect1_dropShadow_668_6198"/>
<feBlend mode="normal" in="SourceGraphic" in2="effect1_dropShadow_668_6198" result="shape"/>
</filter>
<filter id="filter1_f_668_6198" x="0.488281" y="0" width="407.617" height="234.348" filterUnits="userSpaceOnUse" color-interpolation-filters="sRGB">
<feFlood flood-opacity="0" result="BackgroundImageFix"/>
<feBlend mode="normal" in="SourceGraphic" in2="BackgroundImageFix" result="shape"/>
<feGaussianBlur stdDeviation="44.5" result="effect1_foregroundBlur_668_6198"/>
</filter>
</defs>
</svg>
