<svg width="409" height="392" viewBox="0 0 409 392" fill="none" xmlns="http://www.w3.org/2000/svg">
<g filter="url(#filter0_d_668_6265)">
<rect x="43" y="31" width="324" height="347.948" rx="17" fill="#FBFBFB"/>
</g>
<g filter="url(#filter1_f_668_6265)">
<rect x="89.4883" y="89" width="229.617" height="56.3478" rx="28.1739" fill="#EBEBEB"/>
</g>
<path d="M156.909 161.552C154.456 161.552 152.333 161.211 150.541 160.528C148.77 159.845 147.405 158.843 146.445 157.52C145.485 156.197 145.005 154.576 145.005 152.656C145.005 151.888 145.08 151.109 145.229 150.32C145.4 149.531 145.645 148.805 145.965 148.144C146.285 147.483 146.69 146.949 147.181 146.544C147.672 146.117 148.248 145.904 148.909 145.904C149.442 145.904 149.88 146.021 150.221 146.256C150.584 146.491 150.861 146.757 151.053 147.056C151.245 147.355 151.341 147.621 151.341 147.856C150.701 148.325 150.178 148.901 149.773 149.584C149.368 150.245 149.165 151.237 149.165 152.56C149.165 153.136 149.24 153.744 149.389 154.384C149.538 155.045 149.869 155.653 150.381 156.208C150.893 156.784 151.661 157.253 152.685 157.616C153.73 157.979 155.128 158.16 156.877 158.16C158.37 158.16 159.608 158.021 160.589 157.744C161.57 157.488 162.338 157.136 162.893 156.688C163.469 156.261 163.874 155.781 164.109 155.248C164.344 154.736 164.461 154.224 164.461 153.712C164.461 152.944 164.258 152.379 163.853 152.016C163.469 151.632 162.968 151.397 162.349 151.312C161.752 151.205 161.122 151.184 160.461 151.248C159.8 151.291 159.181 151.355 158.605 151.44C158.029 151.525 157.592 151.568 157.293 151.568C156.824 151.568 156.45 151.429 156.173 151.152C155.917 150.875 155.725 150.544 155.597 150.16C155.49 149.755 155.416 149.371 155.373 149.008C155.352 148.624 155.341 148.336 155.341 148.144C155.341 146.224 155.704 144.549 156.429 143.12C157.154 141.691 158.114 140.592 159.309 139.824C160.504 139.035 161.816 138.64 163.245 138.64C164.418 138.64 165.272 138.875 165.805 139.344C166.36 139.792 166.68 140.336 166.765 140.976C166.872 141.595 166.84 142.171 166.669 142.704C166.328 142.512 165.89 142.352 165.357 142.224C164.845 142.096 164.344 142.032 163.853 142.032C163.042 142.032 162.349 142.213 161.773 142.576C161.197 142.939 160.738 143.429 160.397 144.048C160.056 144.667 159.81 145.381 159.661 146.192C159.618 146.491 159.576 146.811 159.533 147.152C159.512 147.472 159.501 147.803 159.501 148.144L159.053 147.856C159.586 147.749 160.184 147.675 160.845 147.632C161.528 147.589 162.221 147.6 162.925 147.664C163.65 147.728 164.344 147.877 165.005 148.112C165.688 148.325 166.296 148.656 166.829 149.104C167.384 149.531 167.821 150.096 168.141 150.8C168.461 151.504 168.621 152.368 168.621 153.392C168.621 155.163 168.13 156.656 167.149 157.872C166.168 159.088 164.792 160.005 163.021 160.624C161.272 161.243 159.234 161.552 156.909 161.552ZM159.405 167.792C158.85 167.792 158.36 167.589 157.933 167.184C157.528 166.779 157.325 166.288 157.325 165.712C157.325 165.136 157.528 164.645 157.933 164.24C158.36 163.835 158.85 163.632 159.405 163.632C160.002 163.632 160.493 163.835 160.877 164.24C161.282 164.645 161.485 165.136 161.485 165.712C161.485 166.288 161.282 166.779 160.877 167.184C160.493 167.589 160.002 167.792 159.405 167.792ZM154.221 167.792C153.666 167.792 153.176 167.589 152.749 167.184C152.344 166.779 152.141 166.288 152.141 165.712C152.141 165.136 152.344 164.645 152.749 164.24C153.176 163.835 153.666 163.632 154.221 163.632C154.797 163.632 155.288 163.835 155.693 164.24C156.098 164.645 156.301 165.136 156.301 165.712C156.301 166.288 156.098 166.779 155.693 167.184C155.288 167.589 154.797 167.792 154.221 167.792ZM187.41 154V150.608H190.642V154H187.41ZM180.946 154C179.709 154 178.578 153.701 177.554 153.104C176.53 152.485 175.72 151.6 175.122 150.448C174.525 149.296 174.226 147.909 174.226 146.288C174.226 143.877 174.898 142 176.242 140.656C177.608 139.312 179.432 138.64 181.714 138.64C183.4 138.64 184.765 138.981 185.81 139.664C186.877 140.325 187.41 141.168 187.41 142.192V154H183.25V142.192C183.101 142.149 182.888 142.117 182.61 142.096C182.333 142.053 182.034 142.032 181.714 142.032C180.605 142.032 179.773 142.363 179.218 143.024C178.664 143.685 178.386 144.773 178.386 146.288C178.386 147.653 178.632 148.72 179.122 149.488C179.634 150.235 180.381 150.608 181.362 150.608H187.41V154H180.946ZM183.506 161.328C182.973 161.328 182.525 161.211 182.162 160.976C181.8 160.741 181.522 160.464 181.33 160.144C181.16 159.845 181.074 159.589 181.074 159.376C181.522 159.035 181.906 158.651 182.226 158.224C182.546 157.797 182.792 157.243 182.962 156.56C183.154 155.899 183.25 155.045 183.25 154V150.608H187.41V154C187.41 154.939 187.325 155.845 187.154 156.72C187.005 157.595 186.77 158.373 186.45 159.056C186.152 159.76 185.757 160.315 185.266 160.72C184.776 161.125 184.189 161.328 183.506 161.328ZM190.642 154V150.608C190.877 150.608 191.037 150.768 191.122 151.088C191.229 151.387 191.282 151.792 191.282 152.304C191.282 152.816 191.229 153.232 191.122 153.552C191.037 153.851 190.877 154 190.642 154ZM192.25 154V150.608H193.882C194.373 150.608 194.767 150.469 195.066 150.192C195.386 149.915 195.621 149.563 195.77 149.136C195.919 148.688 195.994 148.251 195.994 147.824V140.752C195.994 140.261 196.143 139.792 196.442 139.344C196.741 138.875 197.285 138.64 198.074 138.64C198.863 138.64 199.407 138.875 199.706 139.344C200.005 139.792 200.154 140.261 200.154 140.752V147.824C200.154 148.997 199.877 150.053 199.322 150.992C198.789 151.931 198.053 152.667 197.114 153.2C196.175 153.733 195.098 154 193.882 154H192.25ZM202.266 154C201.071 154 199.994 153.733 199.034 153.2C198.095 152.667 197.349 151.931 196.794 150.992C196.261 150.053 195.994 148.997 195.994 147.824H200.154C200.154 148.251 200.229 148.688 200.378 149.136C200.527 149.563 200.762 149.915 201.082 150.192C201.402 150.469 201.797 150.608 202.266 150.608H203.898V154H202.266ZM203.898 154V150.608C204.133 150.608 204.293 150.768 204.378 151.088C204.485 151.387 204.538 151.792 204.538 152.304C204.538 152.816 204.485 153.232 204.378 153.552C204.293 153.851 204.133 154 203.898 154ZM192.25 154C192.037 154 191.877 153.851 191.77 153.552C191.663 153.232 191.61 152.816 191.61 152.304C191.61 151.792 191.663 151.387 191.77 151.088C191.877 150.768 192.037 150.608 192.25 150.608V154ZM198.106 161.168C197.445 161.168 196.879 160.933 196.41 160.464C195.962 160.016 195.738 159.483 195.738 158.864C195.738 158.224 195.962 157.68 196.41 157.232C196.879 156.784 197.445 156.56 198.106 156.56C198.725 156.56 199.258 156.784 199.706 157.232C200.175 157.68 200.41 158.224 200.41 158.864C200.41 159.483 200.175 160.016 199.706 160.464C199.258 160.933 198.725 161.168 198.106 161.168ZM205.506 154V150.608H207.138C207.629 150.608 208.024 150.469 208.322 150.192C208.642 149.915 208.877 149.563 209.026 149.136C209.176 148.688 209.25 148.251 209.25 147.824V140.752C209.25 140.261 209.4 139.792 209.698 139.344C209.997 138.875 210.541 138.64 211.33 138.64C212.12 138.64 212.664 138.875 212.962 139.344C213.261 139.792 213.41 140.261 213.41 140.752V147.824C213.41 148.997 213.133 150.053 212.578 150.992C212.045 151.931 211.309 152.667 210.37 153.2C209.432 153.733 208.354 154 207.138 154H205.506ZM215.522 154C214.328 154 213.25 153.733 212.29 153.2C211.352 152.667 210.605 151.931 210.05 150.992C209.517 150.053 209.25 148.997 209.25 147.824H213.41C213.41 148.251 213.485 148.688 213.634 149.136C213.784 149.563 214.018 149.915 214.338 150.192C214.658 150.469 215.053 150.608 215.522 150.608H217.154V154H215.522ZM217.154 154V150.608C217.389 150.608 217.549 150.768 217.634 151.088C217.741 151.387 217.794 151.792 217.794 152.304C217.794 152.816 217.741 153.232 217.634 153.552C217.549 153.851 217.389 154 217.154 154ZM205.506 154C205.293 154 205.133 153.851 205.026 153.552C204.92 153.232 204.866 152.816 204.866 152.304C204.866 151.792 204.92 151.387 205.026 151.088C205.133 150.768 205.293 150.608 205.506 150.608V154ZM211.362 136.56C210.701 136.56 210.136 136.336 209.666 135.888C209.218 135.419 208.994 134.875 208.994 134.256C208.994 133.616 209.218 133.072 209.666 132.624C210.136 132.176 210.701 131.952 211.362 131.952C211.981 131.952 212.514 132.176 212.962 132.624C213.432 133.072 213.666 133.616 213.666 134.256C213.666 134.875 213.432 135.419 212.962 135.888C212.514 136.336 211.981 136.56 211.362 136.56ZM218.763 154V150.608H220.395C220.885 150.608 221.28 150.469 221.579 150.192C221.899 149.915 222.133 149.563 222.283 149.136C222.432 148.688 222.507 148.251 222.507 147.824V137.584C222.507 136.816 222.411 136.261 222.219 135.92C222.027 135.579 221.813 135.355 221.579 135.248C221.344 135.141 221.163 135.056 221.035 134.992C221.035 134.8 221.109 134.544 221.259 134.224C221.429 133.883 221.696 133.573 222.059 133.296C222.443 133.019 222.944 132.88 223.563 132.88C224.203 132.88 224.747 133.051 225.195 133.392C225.664 133.712 226.027 134.16 226.283 134.736C226.539 135.312 226.667 135.973 226.667 136.72V147.824C226.667 148.997 226.389 150.053 225.835 150.992C225.301 151.931 224.565 152.667 223.627 153.2C222.688 153.733 221.611 154 220.395 154H218.763ZM218.763 154C218.549 154 218.389 153.851 218.283 153.552C218.176 153.232 218.123 152.816 218.123 152.304C218.123 151.792 218.176 151.387 218.283 151.088C218.389 150.768 218.549 150.608 218.763 150.608V154ZM235.265 154C234.475 154 233.931 153.776 233.633 153.328C233.334 152.859 233.185 152.357 233.185 151.824V137.584C233.185 136.816 233.089 136.261 232.897 135.92C232.705 135.579 232.491 135.355 232.257 135.248C232.022 135.141 231.841 135.056 231.713 134.992C231.713 134.821 231.787 134.565 231.937 134.224C232.107 133.883 232.374 133.573 232.737 133.296C233.121 133.019 233.633 132.88 234.273 132.88C234.891 132.88 235.425 133.051 235.873 133.392C236.342 133.712 236.705 134.16 236.961 134.736C237.217 135.312 237.345 135.973 237.345 136.72V151.888C237.345 152.379 237.195 152.859 236.897 153.328C236.598 153.776 236.054 154 235.265 154ZM266.732 154C265.538 154 264.46 153.733 263.5 153.2C262.562 152.667 261.815 151.931 261.26 150.992C260.727 150.053 260.46 148.997 260.46 147.824V146.416H264.62V147.824C264.62 148.251 264.695 148.688 264.844 149.136C264.994 149.563 265.228 149.915 265.548 150.192C265.868 150.469 266.263 150.608 266.732 150.608H268.364V154H266.732ZM254.028 154C253.602 154 253.196 153.883 252.812 153.648C252.428 153.392 252.236 152.944 252.236 152.304C252.236 151.664 252.428 151.227 252.812 150.992C253.196 150.736 253.602 150.608 254.028 150.608H257.1C258.188 150.608 259.02 150.235 259.596 149.488C260.172 148.72 260.46 147.664 260.46 146.32C260.46 145.317 260.322 144.496 260.044 143.856C259.788 143.216 259.468 142.715 259.084 142.352C258.722 141.989 258.38 141.733 258.06 141.584L258.636 141.712C258.423 141.627 258.146 141.648 257.804 141.776C257.484 141.904 257.186 142.16 256.908 142.544C256.652 142.928 256.524 143.472 256.524 144.176C256.29 144.261 255.97 144.357 255.564 144.464C255.18 144.571 254.828 144.624 254.508 144.624C253.954 144.624 253.431 144.432 252.94 144.048C252.471 143.664 252.236 143.067 252.236 142.256C252.236 141.509 252.45 140.901 252.876 140.432C253.303 139.941 253.815 139.568 254.412 139.312C255.031 139.056 255.628 138.885 256.204 138.8C256.78 138.693 257.218 138.64 257.516 138.64C258.092 138.64 258.775 138.779 259.564 139.056C260.354 139.333 261.132 139.781 261.9 140.4C262.69 140.997 263.34 141.797 263.852 142.8C264.364 143.781 264.62 144.997 264.62 146.448C264.62 148.112 264.258 149.509 263.532 150.64C262.828 151.749 261.9 152.592 260.748 153.168C259.618 153.723 258.402 154 257.1 154H254.028ZM268.364 154V150.608C268.599 150.608 268.759 150.768 268.844 151.088C268.951 151.387 269.004 151.792 269.004 152.304C269.004 152.816 268.951 153.232 268.844 153.552C268.759 153.851 268.599 154 268.364 154ZM269.975 154V150.608H271.607C272.098 150.608 272.492 150.469 272.791 150.192C273.111 149.915 273.346 149.563 273.495 149.136C273.644 148.688 273.719 148.251 273.719 147.824V137.584C273.719 136.816 273.623 136.261 273.431 135.92C273.239 135.579 273.026 135.355 272.791 135.248C272.556 135.141 272.375 135.056 272.247 134.992C272.247 134.8 272.322 134.544 272.471 134.224C272.642 133.883 272.908 133.573 273.271 133.296C273.655 133.019 274.156 132.88 274.775 132.88C275.415 132.88 275.959 133.051 276.407 133.392C276.876 133.712 277.239 134.16 277.495 134.736C277.751 135.312 277.879 135.973 277.879 136.72V147.824C277.879 148.997 277.602 150.053 277.047 150.992C276.514 151.931 275.778 152.667 274.839 153.2C273.9 153.733 272.823 154 271.607 154H269.975ZM269.975 154C269.762 154 269.602 153.851 269.495 153.552C269.388 153.232 269.335 152.816 269.335 152.304C269.335 151.792 269.388 151.387 269.495 151.088C269.602 150.768 269.762 150.608 269.975 150.608V154ZM296.429 154V150.608H299.661V154H296.429ZM289.965 154C288.728 154 287.597 153.701 286.573 153.104C285.549 152.485 284.738 151.6 284.141 150.448C283.544 149.296 283.245 147.909 283.245 146.288C283.245 143.877 283.917 142 285.261 140.656C286.626 139.312 288.45 138.64 290.733 138.64C292.418 138.64 293.784 138.981 294.829 139.664C295.896 140.325 296.429 141.168 296.429 142.192V154H292.269V142.192C292.12 142.149 291.906 142.117 291.629 142.096C291.352 142.053 291.053 142.032 290.733 142.032C289.624 142.032 288.792 142.363 288.237 143.024C287.682 143.685 287.405 144.773 287.405 146.288C287.405 147.653 287.65 148.72 288.141 149.488C288.653 150.235 289.4 150.608 290.381 150.608H296.429V154H289.965ZM292.525 161.328C291.992 161.328 291.544 161.211 291.181 160.976C290.818 160.741 290.541 160.464 290.349 160.144C290.178 159.845 290.093 159.589 290.093 159.376C290.541 159.035 290.925 158.651 291.245 158.224C291.565 157.797 291.81 157.243 291.981 156.56C292.173 155.899 292.269 155.045 292.269 154V150.608H296.429V154C296.429 154.939 296.344 155.845 296.173 156.72C296.024 157.595 295.789 158.373 295.469 159.056C295.17 159.76 294.776 160.315 294.285 160.72C293.794 161.125 293.208 161.328 292.525 161.328ZM299.661 154V150.608C299.896 150.608 300.056 150.768 300.141 151.088C300.248 151.387 300.301 151.792 300.301 152.304C300.301 152.816 300.248 153.232 300.141 153.552C300.056 153.851 299.896 154 299.661 154ZM318.581 154C317.386 154 316.309 153.733 315.349 153.2C314.41 152.667 313.663 151.931 313.109 150.992C312.575 150.053 312.309 148.997 312.309 147.824V146.416H316.469V147.824C316.469 148.251 316.543 148.688 316.693 149.136C316.842 149.563 317.077 149.915 317.397 150.192C317.717 150.469 318.111 150.608 318.581 150.608H320.213V154H318.581ZM301.269 154V150.608H309.333C310.314 150.608 311.05 150.235 311.541 149.488C312.053 148.72 312.309 147.653 312.309 146.288C312.309 144.773 312.031 143.685 311.477 143.024C310.922 142.363 310.09 142.032 308.981 142.032C308.661 142.032 308.362 142.053 308.085 142.096C307.807 142.117 307.594 142.149 307.445 142.192V154H303.285V142.192C303.285 141.168 303.807 140.325 304.853 139.664C305.919 138.981 307.295 138.64 308.981 138.64C311.263 138.64 313.077 139.312 314.421 140.656C315.786 142 316.469 143.877 316.469 146.288C316.469 147.909 316.17 149.296 315.573 150.448C314.975 151.6 314.165 152.485 313.141 153.104C312.138 153.701 311.007 154 309.749 154H301.269ZM301.269 154C301.055 154 300.895 153.851 300.789 153.552C300.682 153.232 300.629 152.816 300.629 152.304C300.629 151.792 300.682 151.387 300.789 151.088C300.895 150.768 301.055 150.608 301.269 150.608V154ZM320.213 154V150.608C320.447 150.608 320.607 150.768 320.693 151.088C320.799 151.387 320.853 151.792 320.853 152.304C320.853 152.816 320.799 153.232 320.693 153.552C320.607 153.851 320.447 154 320.213 154ZM321.806 154V150.608H323.438C323.929 150.608 324.324 150.469 324.622 150.192C324.942 149.915 325.177 149.563 325.326 149.136C325.476 148.688 325.55 148.251 325.55 147.824V137.584C325.55 136.816 325.454 136.261 325.262 135.92C325.07 135.579 324.857 135.355 324.622 135.248C324.388 135.141 324.206 135.056 324.078 134.992C324.078 134.8 324.153 134.544 324.302 134.224C324.473 133.883 324.74 133.573 325.102 133.296C325.486 133.019 325.988 132.88 326.606 132.88C327.246 132.88 327.79 133.051 328.238 133.392C328.708 133.712 329.07 134.16 329.326 134.736C329.582 135.312 329.71 135.973 329.71 136.72V147.824C329.71 148.997 329.433 150.053 328.878 150.992C328.345 151.931 327.609 152.667 326.67 153.2C325.732 153.733 324.654 154 323.438 154H321.806ZM321.806 154C321.593 154 321.433 153.851 321.326 153.552C321.22 153.232 321.166 152.816 321.166 152.304C321.166 151.792 321.22 151.387 321.326 151.088C321.433 150.768 321.593 150.608 321.806 150.608V154ZM338.308 154C337.519 154 336.975 153.776 336.676 153.328C336.378 152.859 336.228 152.357 336.228 151.824V139.536C336.228 138.768 336.132 138.213 335.94 137.872C335.748 137.531 335.535 137.307 335.3 137.2C335.066 137.093 334.884 137.008 334.756 136.944C334.756 136.773 334.831 136.517 334.98 136.176C335.151 135.835 335.418 135.525 335.78 135.248C336.164 134.971 336.676 134.832 337.316 134.832C337.935 134.832 338.468 135.003 338.916 135.344C339.386 135.664 339.748 136.112 340.004 136.688C340.26 137.264 340.388 137.925 340.388 138.672V151.888C340.388 152.379 340.239 152.859 339.94 153.328C339.642 153.776 339.098 154 338.308 154ZM334.82 133.808C334.564 133.744 334.351 133.595 334.18 133.36C334.031 133.125 333.967 132.869 333.988 132.592C334.01 132.315 334.148 132.08 334.404 131.888C334.66 131.675 335.076 131.568 335.652 131.568C335.375 131.44 335.087 131.195 334.788 130.832C334.49 130.448 334.34 129.989 334.34 129.456C334.34 129.008 334.458 128.549 334.692 128.08C334.927 127.589 335.29 127.184 335.78 126.864C336.292 126.523 336.954 126.352 337.764 126.352C338.191 126.352 338.564 126.416 338.884 126.544C339.204 126.651 339.45 126.821 339.62 127.056C339.812 127.291 339.908 127.6 339.908 127.984C339.908 128.389 339.802 128.677 339.588 128.848C339.396 128.997 339.162 129.072 338.884 129.072C338.607 129.051 338.33 128.987 338.052 128.88C338.074 128.624 338.02 128.357 337.892 128.08C337.786 127.803 337.562 127.664 337.22 127.664C337.092 127.813 336.954 128.027 336.804 128.304C336.676 128.56 336.612 128.837 336.612 129.136C336.612 129.456 336.698 129.765 336.868 130.064C337.039 130.363 337.284 130.619 337.604 130.832C337.924 131.024 338.298 131.12 338.724 131.12C338.98 131.12 339.215 131.099 339.428 131.056C339.642 130.992 339.823 130.96 339.972 130.96C340.292 130.96 340.506 131.109 340.612 131.408C340.719 131.685 340.719 131.973 340.612 132.272C340.527 132.549 340.356 132.699 340.1 132.72C340.015 132.72 339.78 132.731 339.396 132.752C339.012 132.773 338.564 132.805 338.052 132.848C337.54 132.891 337.039 132.955 336.548 133.04C336.058 133.125 335.642 133.232 335.3 133.36C334.98 133.488 334.82 133.637 334.82 133.808Z" fill="#4F4F4F"/>
<path d="M292.394 109.208C292.192 108.92 292.122 108.669 292.186 108.456C292.25 108.232 292.384 108.061 292.586 107.944C292.8 107.827 293.029 107.784 293.274 107.816C293.52 107.837 293.728 107.96 293.898 108.184L293.722 108.04C293.573 107.955 293.397 107.789 293.194 107.544C293.002 107.288 292.832 106.979 292.682 106.616C292.544 106.243 292.474 105.843 292.474 105.416C292.474 105.032 292.544 104.675 292.682 104.344C292.832 104.013 293.04 103.725 293.306 103.48C293.573 103.235 293.904 103.048 294.298 102.92C294.693 102.781 295.136 102.712 295.626 102.712C296.17 102.712 296.565 102.781 296.81 102.92C297.066 103.059 297.226 103.224 297.29 103.416C297.365 103.597 297.402 103.752 297.402 103.88C297.402 104.2 297.322 104.435 297.162 104.584C297.002 104.723 296.821 104.797 296.618 104.808C296.426 104.819 296.282 104.781 296.186 104.696C296.197 104.408 296.122 104.173 295.962 103.992C295.813 103.8 295.632 103.661 295.418 103.576C295.205 103.48 295.008 103.432 294.826 103.432H295.114C294.954 103.432 294.778 103.496 294.586 103.624C294.405 103.752 294.245 103.949 294.106 104.216C293.968 104.483 293.898 104.84 293.898 105.288C293.898 105.885 294.026 106.344 294.282 106.664C294.549 106.973 294.88 107.181 295.274 107.288C295.669 107.395 296.053 107.448 296.426 107.448C296.672 107.448 296.89 107.437 297.082 107.416C297.274 107.384 297.413 107.357 297.498 107.336C297.722 107.336 297.877 107.389 297.962 107.496C298.058 107.603 298.106 107.725 298.106 107.864C298.117 107.992 298.09 108.109 298.026 108.216C297.973 108.323 297.904 108.376 297.818 108.376C297.456 108.408 297.072 108.445 296.666 108.488C296.272 108.531 295.877 108.579 295.482 108.632C295.098 108.675 294.73 108.723 294.378 108.776C294.026 108.829 293.706 108.883 293.418 108.936C293.13 108.979 292.896 109.021 292.714 109.064C292.544 109.117 292.437 109.165 292.394 109.208ZM304.261 109C303.707 109 303.211 108.872 302.773 108.616C302.347 108.349 302.011 107.992 301.765 107.544C301.52 107.085 301.397 106.568 301.397 105.992V100.808C301.397 100.477 301.349 100.179 301.253 99.912C301.168 99.6453 301.056 99.4213 300.917 99.24C300.779 99.0587 300.645 98.9253 300.517 98.84C300.56 98.7867 300.629 98.728 300.725 98.664C300.832 98.6 300.96 98.5467 301.109 98.504C301.259 98.4613 301.413 98.44 301.573 98.44C301.776 98.44 301.973 98.4933 302.165 98.6C302.357 98.696 302.517 98.872 302.645 99.128C302.773 99.384 302.837 99.7467 302.837 100.216V105.992C302.837 106.291 302.885 106.584 302.981 106.872C303.088 107.16 303.248 107.4 303.461 107.592C303.675 107.784 303.941 107.88 304.261 107.88H304.757V109H304.261ZM304.757 109V107.88C304.885 107.88 304.971 107.928 305.013 108.024C305.056 108.12 305.077 108.259 305.077 108.44C305.077 108.611 305.056 108.749 305.013 108.856C304.971 108.952 304.885 109 304.757 109ZM305.564 109V107.88H308.316C308.967 107.88 309.586 107.784 310.172 107.592C310.77 107.389 311.303 107.123 311.772 106.792C312.242 106.451 312.61 106.067 312.876 105.64C313.154 105.213 313.292 104.771 313.292 104.312C313.292 103.715 313.058 103.256 312.588 102.936C312.119 102.605 311.452 102.44 310.588 102.44C309.724 102.44 309.058 102.605 308.588 102.936C308.119 103.256 307.884 103.715 307.884 104.312C307.884 104.771 308.018 105.213 308.284 105.64C308.562 106.067 308.935 106.451 309.404 106.792C309.874 107.123 310.407 107.389 311.004 107.592C311.602 107.784 312.22 107.88 312.86 107.88H315.612V109H312.86C312.124 109 311.378 108.883 310.62 108.648C309.863 108.413 309.17 108.088 308.54 107.672C307.911 107.245 307.404 106.749 307.02 106.184C306.636 105.608 306.444 104.984 306.444 104.312C306.444 103.779 306.567 103.325 306.812 102.952C307.058 102.568 307.383 102.259 307.788 102.024C308.204 101.779 308.652 101.603 309.132 101.496C309.623 101.379 310.108 101.32 310.588 101.32C311.068 101.32 311.548 101.379 312.028 101.496C312.519 101.603 312.967 101.773 313.372 102.008C313.778 102.243 314.103 102.552 314.348 102.936C314.604 103.309 314.732 103.768 314.732 104.312C314.732 104.984 314.54 105.608 314.156 106.184C313.783 106.749 313.282 107.245 312.652 107.672C312.023 108.088 311.33 108.413 310.572 108.648C309.815 108.883 309.063 109 308.316 109H305.564ZM305.564 109C305.436 109 305.351 108.952 305.308 108.856C305.266 108.749 305.244 108.611 305.244 108.44C305.244 108.259 305.266 108.12 305.308 108.024C305.351 107.928 305.436 107.88 305.564 107.88V109ZM315.612 109V107.88C315.74 107.88 315.826 107.928 315.868 108.024C315.911 108.12 315.932 108.259 315.932 108.44C315.932 108.611 315.911 108.749 315.868 108.856C315.826 108.952 315.74 109 315.612 109ZM316.411 109V107.88H317.483C317.825 107.88 318.107 107.8 318.331 107.64C318.555 107.48 318.726 107.277 318.843 107.032C318.971 106.787 319.062 106.531 319.115 106.264C319.179 105.997 319.217 105.757 319.227 105.544C319.238 105.32 319.243 105.16 319.243 105.064C319.243 104.776 319.217 104.435 319.163 104.04C319.11 103.645 318.987 103.235 318.795 102.808C318.614 102.381 318.31 101.992 317.883 101.64C317.937 101.587 318.001 101.539 318.075 101.496C318.161 101.443 318.257 101.4 318.363 101.368C318.47 101.336 318.593 101.32 318.731 101.32C319.105 101.32 319.414 101.443 319.659 101.688C319.915 101.933 320.118 102.253 320.267 102.648C320.417 103.032 320.523 103.443 320.587 103.88C320.651 104.317 320.683 104.723 320.683 105.096C320.683 106.323 320.401 107.283 319.835 107.976C319.27 108.659 318.486 109 317.483 109H316.411ZM316.411 109C316.283 109 316.198 108.952 316.155 108.856C316.113 108.749 316.091 108.611 316.091 108.44C316.091 108.259 316.113 108.12 316.155 108.024C316.198 107.928 316.283 107.88 316.411 107.88V109ZM318.779 112.12C318.513 112.12 318.289 112.029 318.107 111.848C317.926 111.667 317.835 111.453 317.835 111.208C317.835 110.952 317.926 110.733 318.107 110.552C318.289 110.371 318.513 110.28 318.779 110.28C319.025 110.28 319.238 110.371 319.419 110.552C319.601 110.733 319.691 110.952 319.691 111.208C319.691 111.453 319.601 111.667 319.419 111.848C319.238 112.029 319.025 112.12 318.779 112.12ZM323.692 112.664C323.553 112.664 323.43 112.648 323.324 112.616C323.217 112.584 323.121 112.541 323.036 112.488C322.961 112.435 322.897 112.387 322.844 112.344C323.27 111.981 323.574 111.597 323.756 111.192C323.948 110.787 324.07 110.387 324.124 109.992C324.177 109.608 324.204 109.277 324.204 109V102.024C324.204 101.757 324.273 101.576 324.412 101.48C324.55 101.373 324.721 101.32 324.924 101.32C325.126 101.32 325.297 101.373 325.436 101.48C325.574 101.576 325.644 101.757 325.644 102.024V109C325.644 109.373 325.612 109.773 325.548 110.2C325.484 110.627 325.377 111.027 325.228 111.4C325.078 111.773 324.876 112.077 324.62 112.312C324.374 112.547 324.065 112.664 323.692 112.664ZM328.415 109C328.245 109 328.127 108.936 328.063 108.808C327.999 108.68 327.967 108.557 327.967 108.44C327.967 108.323 327.999 108.2 328.063 108.072C328.127 107.944 328.245 107.88 328.415 107.88H333.583C333.914 107.88 334.181 107.784 334.383 107.592C334.597 107.4 334.751 107.16 334.847 106.872C334.954 106.584 335.007 106.291 335.007 105.992V100.808C335.007 100.477 334.959 100.179 334.863 99.912C334.778 99.6453 334.666 99.4213 334.527 99.24C334.389 99.0587 334.255 98.9253 334.127 98.84C334.17 98.7867 334.239 98.728 334.335 98.664C334.442 98.6 334.565 98.5467 334.703 98.504C334.853 98.4613 335.007 98.44 335.167 98.44C335.37 98.44 335.567 98.4933 335.759 98.6C335.962 98.696 336.127 98.872 336.255 99.128C336.383 99.384 336.447 99.7467 336.447 100.216V105.992C336.447 106.568 336.325 107.085 336.079 107.544C335.834 107.992 335.498 108.349 335.071 108.616C334.645 108.872 334.149 109 333.583 109H328.415ZM330.607 107.88V103.064C330.607 102.733 330.559 102.435 330.463 102.168C330.378 101.901 330.266 101.677 330.127 101.496C329.989 101.315 329.855 101.181 329.727 101.096C329.77 101.043 329.839 100.984 329.935 100.92C330.042 100.856 330.165 100.803 330.303 100.76C330.453 100.717 330.607 100.696 330.767 100.696C330.97 100.696 331.167 100.749 331.359 100.856C331.562 100.952 331.727 101.128 331.855 101.384C331.983 101.64 332.047 102.003 332.047 102.472V107.88H330.607ZM329.263 99.88C329.167 99.752 329.125 99.6347 329.135 99.528C329.146 99.4107 329.183 99.32 329.247 99.256C329.322 99.1813 329.413 99.1387 329.519 99.128C329.626 99.1067 329.733 99.1173 329.839 99.16C329.733 99.0427 329.615 98.8613 329.487 98.616C329.37 98.36 329.311 98.088 329.311 97.8C329.311 97.512 329.375 97.256 329.503 97.032C329.642 96.7973 329.839 96.616 330.095 96.488C330.362 96.36 330.677 96.296 331.039 96.296C331.349 96.296 331.573 96.3387 331.711 96.424C331.85 96.4987 331.935 96.584 331.967 96.68C332.01 96.776 332.031 96.8613 332.031 96.936C332.031 97.1067 331.983 97.2347 331.887 97.32C331.802 97.3947 331.706 97.4373 331.599 97.448C331.493 97.448 331.413 97.4267 331.359 97.384C331.37 97.1707 331.301 97.0107 331.151 96.904C331.013 96.7867 330.869 96.7173 330.719 96.696C330.613 96.7173 330.501 96.808 330.383 96.968C330.277 97.128 330.223 97.3627 330.223 97.672C330.223 98.0347 330.298 98.3067 330.447 98.488C330.597 98.6587 330.773 98.7707 330.975 98.824C331.189 98.8773 331.375 98.904 331.535 98.904C331.663 98.904 331.775 98.8987 331.871 98.888C331.967 98.8667 332.037 98.8507 332.079 98.84C332.25 98.84 332.351 98.888 332.383 98.984C332.426 99.08 332.431 99.176 332.399 99.272C332.367 99.368 332.319 99.416 332.255 99.416C332.01 99.4373 331.754 99.464 331.487 99.496C331.221 99.528 330.959 99.56 330.703 99.592C330.458 99.624 330.229 99.656 330.015 99.688C329.813 99.72 329.642 99.752 329.503 99.784C329.365 99.816 329.285 99.848 329.263 99.88ZM340.695 109C340.354 109 340.151 108.899 340.087 108.696C340.023 108.493 339.991 108.253 339.991 107.976V100.808C339.991 100.477 339.943 100.179 339.847 99.912C339.762 99.6453 339.65 99.4213 339.511 99.24C339.373 99.0587 339.239 98.9253 339.111 98.84C339.154 98.7867 339.223 98.728 339.319 98.664C339.426 98.6 339.554 98.5467 339.703 98.504C339.853 98.4613 340.007 98.44 340.167 98.44C340.37 98.44 340.567 98.4933 340.759 98.6C340.951 98.696 341.111 98.872 341.239 99.128C341.367 99.384 341.431 99.7467 341.431 100.216V107.976C341.431 108.253 341.394 108.493 341.319 108.696C341.245 108.899 341.037 109 340.695 109Z" fill="#4F4F4F"/>
<path d="M98.624 256V251.84C99.6907 250.773 101.056 249.472 102.72 247.936C104.384 246.357 106.112 244.651 107.904 242.816C109.739 240.939 111.445 238.997 113.024 236.992C114.603 234.944 115.883 232.896 116.864 230.848C117.888 228.8 118.4 226.795 118.4 224.832C118.4 222.613 118.059 220.821 117.376 219.456C116.693 218.048 115.819 217.024 114.752 216.384C113.685 215.701 112.555 215.36 111.36 215.36C108.672 215.36 106.411 216.256 104.576 218.048C102.741 219.84 101.504 222.677 100.864 226.56H98.624C98.624 224.939 98.688 223.296 98.816 221.632C98.944 219.925 99.392 218.581 100.16 217.6C101.312 216.192 102.997 214.997 105.216 214.016C107.477 212.992 109.952 212.48 112.64 212.48C114.133 212.48 115.712 212.651 117.376 212.992C119.083 213.291 120.683 213.867 122.176 214.72C123.712 215.573 124.949 216.811 125.888 218.432C126.869 220.053 127.36 222.187 127.36 224.832C127.36 226.837 126.891 228.821 125.952 230.784C125.013 232.747 123.776 234.667 122.24 236.544C120.747 238.421 119.104 240.213 117.312 241.92C115.52 243.627 113.749 245.205 112 246.656C110.251 248.064 108.672 249.323 107.264 250.432C105.899 251.541 104.875 252.437 104.192 253.12H117.44C120 253.12 121.963 252.523 123.328 251.328C124.736 250.091 125.44 248.341 125.44 246.08H127.36V250.88C127.36 251.733 127.211 252.565 126.912 253.376C126.613 254.144 126.08 254.784 125.312 255.296C124.544 255.765 123.413 256 121.92 256H98.624ZM136.644 256L152.644 216.64H141.764C139.204 216.64 137.22 217.259 135.812 218.496C134.447 219.691 133.764 221.419 133.764 223.68H131.844V218.88C131.844 218.027 131.993 217.216 132.292 216.448C132.591 215.637 133.124 214.997 133.892 214.528C134.703 214.016 135.833 213.76 137.284 213.76H160.388V216.64L144.388 256H136.644Z" fill="#4F4F4F"/>
<path d="M298.616 251V216.312L293.048 219.896L291.512 217.912L301.368 208.76H306.936V251H298.616ZM314.312 251V246.84C315.378 245.773 316.744 244.472 318.408 242.936C320.072 241.357 321.8 239.651 323.592 237.816C325.426 235.939 327.133 233.997 328.712 231.992C330.29 229.944 331.57 227.896 332.552 225.848C333.576 223.8 334.088 221.795 334.088 219.832C334.088 217.613 333.746 215.821 333.064 214.456C332.381 213.048 331.506 212.024 330.44 211.384C329.373 210.701 328.242 210.36 327.048 210.36C324.36 210.36 322.098 211.256 320.264 213.048C318.429 214.84 317.192 217.677 316.552 221.56H314.312C314.312 219.939 314.376 218.296 314.504 216.632C314.632 214.925 315.08 213.581 315.848 212.6C317 211.192 318.685 209.997 320.904 209.016C323.165 207.992 325.64 207.48 328.328 207.48C329.821 207.48 331.4 207.651 333.064 207.992C334.77 208.291 336.37 208.867 337.864 209.72C339.4 210.573 340.637 211.811 341.576 213.432C342.557 215.053 343.048 217.187 343.048 219.832C343.048 221.837 342.578 223.821 341.64 225.784C340.701 227.747 339.464 229.667 337.928 231.544C336.434 233.421 334.792 235.213 333 236.92C331.208 238.627 329.437 240.205 327.688 241.656C325.938 243.064 324.36 244.323 322.952 245.432C321.586 246.541 320.562 247.437 319.88 248.12H333.128C335.688 248.12 337.65 247.523 339.016 246.328C340.424 245.091 341.128 243.341 341.128 241.08H343.048V245.88C343.048 246.733 342.898 247.565 342.6 248.376C342.301 249.144 341.768 249.784 341 250.296C340.232 250.765 339.101 251 337.608 251H314.312Z" fill="#4F4F4F"/>
<path d="M60.2892 276V275.3C60.8772 274.731 61.4092 274.217 61.8852 273.76C62.3706 273.303 62.7952 272.883 63.1592 272.5C63.5232 272.117 63.8312 271.749 64.0832 271.394C64.3352 271.039 64.5219 270.68 64.6432 270.316C64.7739 269.952 64.8392 269.56 64.8392 269.14C64.8392 268.673 64.7552 268.286 64.5872 267.978C64.4192 267.661 64.1952 267.427 63.9152 267.278C63.6446 267.119 63.3459 267.04 63.0192 267.04C62.4592 267.04 61.9692 267.245 61.5492 267.656C61.1292 268.057 60.8492 268.645 60.7092 269.42H60.4292C60.4292 269.065 60.4432 268.729 60.4712 268.412C60.4992 268.085 60.5972 267.815 60.7652 267.6C61.0172 267.292 61.3859 267.031 61.8712 266.816C62.3566 266.592 62.8792 266.48 63.4392 266.48C63.7192 266.48 64.0179 266.517 64.3352 266.592C64.6619 266.657 64.9699 266.783 65.2592 266.97C65.5486 267.157 65.7819 267.427 65.9592 267.782C66.1459 268.127 66.2392 268.58 66.2392 269.14C66.2392 269.541 66.1739 269.919 66.0432 270.274C65.9219 270.619 65.7492 270.955 65.5252 271.282C65.3012 271.609 65.0352 271.935 64.7272 272.262C64.4192 272.579 64.0786 272.906 63.7052 273.242C63.3412 273.569 62.9492 273.914 62.5292 274.278C62.1186 274.642 61.6986 275.029 61.2692 275.44H64.4192C64.9792 275.44 65.4086 275.319 65.7072 275.076C66.0152 274.833 66.1692 274.465 66.1692 273.97H66.4492V274.88C66.4492 275.067 66.4166 275.249 66.3512 275.426C66.2859 275.594 66.1692 275.734 66.0012 275.846C65.8332 275.949 65.5859 276 65.2592 276H60.2892ZM71.9271 276.28C71.1151 276.28 70.4617 276.079 69.9671 275.678C69.4724 275.267 69.1131 274.693 68.8891 273.956C68.6744 273.219 68.5671 272.36 68.5671 271.38C68.5671 270.391 68.6744 269.532 68.8891 268.804C69.1131 268.067 69.4724 267.497 69.9671 267.096C70.4617 266.685 71.1151 266.48 71.9271 266.48C72.7484 266.48 73.4017 266.685 73.8871 267.096C74.3817 267.497 74.7364 268.067 74.9511 268.804C75.1751 269.532 75.2871 270.391 75.2871 271.38C75.2871 272.36 75.1751 273.219 74.9511 273.956C74.7364 274.693 74.3817 275.267 73.8871 275.678C73.4017 276.079 72.7484 276.28 71.9271 276.28ZM71.9271 275.72C72.6924 275.72 73.2104 275.365 73.4811 274.656C73.7517 273.937 73.8871 272.845 73.8871 271.38C73.8871 269.905 73.7517 268.813 73.4811 268.104C73.2104 267.395 72.6924 267.04 71.9271 267.04C71.1617 267.04 70.6437 267.395 70.3731 268.104C70.1024 268.813 69.9671 269.905 69.9671 271.38C69.9671 272.845 70.1024 273.937 70.3731 274.656C70.6437 275.365 71.1617 275.72 71.9271 275.72ZM77.2888 276V275.3C77.8768 274.731 78.4088 274.217 78.8848 273.76C79.3702 273.303 79.7948 272.883 80.1588 272.5C80.5228 272.117 80.8308 271.749 81.0828 271.394C81.3348 271.039 81.5215 270.68 81.6428 270.316C81.7735 269.952 81.8388 269.56 81.8388 269.14C81.8388 268.673 81.7548 268.286 81.5868 267.978C81.4188 267.661 81.1948 267.427 80.9148 267.278C80.6442 267.119 80.3455 267.04 80.0188 267.04C79.4588 267.04 78.9688 267.245 78.5488 267.656C78.1288 268.057 77.8488 268.645 77.7088 269.42H77.4288C77.4288 269.065 77.4428 268.729 77.4708 268.412C77.4988 268.085 77.5968 267.815 77.7648 267.6C78.0168 267.292 78.3855 267.031 78.8708 266.816C79.3562 266.592 79.8788 266.48 80.4388 266.48C80.7188 266.48 81.0175 266.517 81.3348 266.592C81.6615 266.657 81.9695 266.783 82.2588 266.97C82.5482 267.157 82.7815 267.427 82.9588 267.782C83.1455 268.127 83.2388 268.58 83.2388 269.14C83.2388 269.541 83.1735 269.919 83.0428 270.274C82.9215 270.619 82.7488 270.955 82.5248 271.282C82.3008 271.609 82.0348 271.935 81.7268 272.262C81.4188 272.579 81.0782 272.906 80.7048 273.242C80.3408 273.569 79.9488 273.914 79.5288 274.278C79.1182 274.642 78.6982 275.029 78.2688 275.44H81.4188C81.9788 275.44 82.4082 275.319 82.7068 275.076C83.0148 274.833 83.1688 274.465 83.1688 273.97H83.4488V274.88C83.4488 275.067 83.4162 275.249 83.3508 275.426C83.2855 275.594 83.1688 275.734 83.0008 275.846C82.8328 275.949 82.5855 276 82.2588 276H77.2888ZM88.5627 276.28C88.096 276.28 87.6713 276.219 87.2887 276.098C86.9153 275.977 86.57 275.804 86.2527 275.58C85.9447 275.356 85.66 275.09 85.3987 274.782L85.6227 274.53C85.9773 274.922 86.3647 275.221 86.7847 275.426C87.2047 275.622 87.6807 275.72 88.2127 275.72C88.586 275.72 88.9313 275.641 89.2487 275.482C89.566 275.314 89.8227 275.062 90.0187 274.726C90.2147 274.39 90.3127 273.951 90.3127 273.41C90.3127 272.915 90.2193 272.509 90.0327 272.192C89.846 271.875 89.6127 271.637 89.3327 271.478C89.0527 271.319 88.7727 271.24 88.4927 271.24C88.2127 271.24 87.9887 271.249 87.8207 271.268C87.6527 271.277 87.494 271.296 87.3447 271.324C87.2047 271.352 87.0273 271.394 86.8127 271.45L86.4487 270.862L90.2427 267.32H87.6527C87.0927 267.32 86.6587 267.441 86.3507 267.684C86.052 267.927 85.9027 268.295 85.9027 268.79H85.6227V267.88C85.6227 267.693 85.6553 267.516 85.7207 267.348C85.786 267.171 85.9027 267.031 86.0707 266.928C86.248 266.816 86.4953 266.76 86.8127 266.76H91.2647V267.32L87.5127 270.82C87.7553 270.755 88.0027 270.717 88.2547 270.708C88.516 270.689 88.6887 270.68 88.7727 270.68C88.978 270.68 89.244 270.717 89.5707 270.792C89.8973 270.857 90.224 270.988 90.5507 271.184C90.8773 271.38 91.1527 271.655 91.3767 272.01C91.6007 272.365 91.7127 272.831 91.7127 273.41C91.7127 274.026 91.6007 274.525 91.3767 274.908C91.1527 275.281 90.868 275.571 90.5227 275.776C90.1867 275.972 89.8413 276.103 89.4867 276.168C89.132 276.243 88.824 276.28 88.5627 276.28ZM98.1565 278.17L98.0165 277.96C98.2592 277.801 98.4598 277.629 98.6185 277.442C98.7865 277.255 98.9125 277.05 98.9965 276.826C99.0898 276.602 99.1365 276.35 99.1365 276.07C99.0992 276.098 99.0385 276.126 98.9545 276.154C98.8705 276.191 98.7912 276.21 98.7165 276.21C98.5018 276.21 98.3198 276.135 98.1705 275.986C98.0212 275.837 97.9465 275.655 97.9465 275.44C97.9465 275.197 98.0258 274.997 98.1845 274.838C98.3432 274.679 98.5438 274.6 98.7865 274.6C99.0665 274.6 99.2858 274.684 99.4445 274.852C99.6125 275.02 99.6965 275.263 99.6965 275.58C99.6965 276.177 99.5612 276.686 99.2905 277.106C99.0292 277.535 98.6512 277.89 98.1565 278.17ZM108.115 276V275.02H109.851V276H108.115ZM106.407 279.206C106.285 279.206 106.178 279.192 106.085 279.164C105.991 279.136 105.907 279.099 105.833 279.052C105.767 279.005 105.711 278.963 105.665 278.926C106.038 278.609 106.304 278.273 106.463 277.918C106.631 277.563 106.738 277.213 106.785 276.868C106.831 276.532 106.855 276.243 106.855 276V269.896C106.855 269.663 106.915 269.504 107.037 269.42C107.158 269.327 107.307 269.28 107.485 269.28C107.662 269.28 107.811 269.327 107.933 269.42C108.054 269.504 108.115 269.663 108.115 269.896V276C108.115 276.327 108.087 276.677 108.031 277.05C107.975 277.423 107.881 277.773 107.751 278.1C107.62 278.427 107.443 278.693 107.219 278.898C107.004 279.103 106.733 279.206 106.407 279.206ZM109.851 276V275.02C109.963 275.02 110.037 275.062 110.075 275.146C110.112 275.23 110.131 275.351 110.131 275.51C110.131 275.659 110.112 275.781 110.075 275.874C110.037 275.958 109.963 276 109.851 276ZM110.555 276V275.02H110.905C111.195 275.02 111.428 274.936 111.605 274.768C111.792 274.6 111.927 274.39 112.011 274.138C112.105 273.886 112.151 273.629 112.151 273.368V269.896C112.151 269.663 112.212 269.504 112.333 269.42C112.455 269.327 112.604 269.28 112.781 269.28C112.959 269.28 113.108 269.327 113.229 269.42C113.351 269.504 113.411 269.663 113.411 269.896V273.368C113.411 273.872 113.304 274.325 113.089 274.726C112.875 275.118 112.581 275.431 112.207 275.664C111.834 275.888 111.4 276 110.905 276H110.555ZM114.657 276C114.172 276 113.738 275.888 113.355 275.664C112.982 275.431 112.688 275.118 112.473 274.726C112.259 274.325 112.151 273.872 112.151 273.368H113.411C113.411 273.629 113.453 273.886 113.537 274.138C113.631 274.39 113.771 274.6 113.957 274.768C114.144 274.936 114.377 275.02 114.657 275.02H115.161V276H114.657ZM115.161 276V275.02C115.273 275.02 115.348 275.062 115.385 275.146C115.423 275.23 115.441 275.351 115.441 275.51C115.441 275.659 115.423 275.781 115.385 275.874C115.348 275.958 115.273 276 115.161 276ZM110.555 276C110.443 276 110.369 275.958 110.331 275.874C110.294 275.781 110.275 275.659 110.275 275.51C110.275 275.351 110.294 275.23 110.331 275.146C110.369 275.062 110.443 275.02 110.555 275.02V276ZM112.795 278.73C112.562 278.73 112.366 278.651 112.207 278.492C112.049 278.333 111.969 278.147 111.969 277.932C111.969 277.708 112.049 277.517 112.207 277.358C112.366 277.199 112.562 277.12 112.795 277.12C113.01 277.12 113.197 277.199 113.355 277.358C113.514 277.517 113.593 277.708 113.593 277.932C113.593 278.147 113.514 278.333 113.355 278.492C113.197 278.651 113.01 278.73 112.795 278.73ZM123.353 276C122.868 276 122.434 275.888 122.051 275.664C121.678 275.431 121.384 275.118 121.169 274.726C120.954 274.325 120.847 273.872 120.847 273.368V272.654H122.107V273.368C122.107 273.629 122.149 273.886 122.233 274.138C122.326 274.39 122.462 274.6 122.639 274.768C122.826 274.936 123.064 275.02 123.353 275.02H123.857V276H123.353ZM115.863 276V275.02H118.845C119.489 275.02 119.984 274.815 120.329 274.404C120.674 273.993 120.847 273.401 120.847 272.626C120.847 271.842 120.684 271.254 120.357 270.862C120.03 270.461 119.559 270.26 118.943 270.26C118.542 270.26 118.248 270.311 118.061 270.414C117.884 270.517 117.795 270.657 117.795 270.834V276H116.535V270.834C116.535 270.377 116.759 270.003 117.207 269.714C117.655 269.425 118.234 269.28 118.943 269.28C119.914 269.28 120.684 269.574 121.253 270.162C121.822 270.75 122.107 271.571 122.107 272.626C122.107 273.335 121.986 273.942 121.743 274.446C121.5 274.95 121.164 275.337 120.735 275.608C120.306 275.869 119.816 276 119.265 276H115.863ZM115.863 276C115.751 276 115.676 275.958 115.639 275.874C115.602 275.781 115.583 275.659 115.583 275.51C115.583 275.351 115.602 275.23 115.639 275.146C115.676 275.062 115.751 275.02 115.863 275.02V276ZM123.857 276V275.02C123.969 275.02 124.044 275.062 124.081 275.146C124.118 275.23 124.137 275.351 124.137 275.51C124.137 275.659 124.118 275.781 124.081 275.874C124.044 275.958 123.969 276 123.857 276ZM124.561 276V275.02H124.911C125.2 275.02 125.434 274.936 125.611 274.768C125.798 274.6 125.933 274.39 126.017 274.138C126.11 273.886 126.157 273.629 126.157 273.368V269.896C126.157 269.663 126.218 269.504 126.339 269.42C126.46 269.327 126.61 269.28 126.787 269.28C126.964 269.28 127.114 269.327 127.235 269.42C127.356 269.504 127.417 269.663 127.417 269.896V273.368C127.417 273.872 127.31 274.325 127.095 274.726C126.88 275.118 126.586 275.431 126.213 275.664C125.84 275.888 125.406 276 124.911 276H124.561ZM128.663 276C128.178 276 127.744 275.888 127.361 275.664C126.988 275.431 126.694 275.118 126.479 274.726C126.264 274.325 126.157 273.872 126.157 273.368H127.417C127.417 273.629 127.459 273.886 127.543 274.138C127.636 274.39 127.776 274.6 127.963 274.768C128.15 274.936 128.383 275.02 128.663 275.02H129.167V276H128.663ZM129.167 276V275.02C129.279 275.02 129.354 275.062 129.391 275.146C129.428 275.23 129.447 275.351 129.447 275.51C129.447 275.659 129.428 275.781 129.391 275.874C129.354 275.958 129.279 276 129.167 276ZM124.561 276C124.449 276 124.374 275.958 124.337 275.874C124.3 275.781 124.281 275.659 124.281 275.51C124.281 275.351 124.3 275.23 124.337 275.146C124.374 275.062 124.449 275.02 124.561 275.02V276ZM127.823 268.37C127.608 268.37 127.422 268.291 127.263 268.132C127.104 267.973 127.025 267.787 127.025 267.572C127.025 267.348 127.104 267.157 127.263 266.998C127.422 266.839 127.608 266.76 127.823 266.76C128.047 266.76 128.234 266.839 128.383 266.998C128.542 267.157 128.621 267.348 128.621 267.572C128.621 267.787 128.542 267.973 128.383 268.132C128.234 268.291 128.047 268.37 127.823 268.37ZM125.779 268.37C125.564 268.37 125.378 268.291 125.219 268.132C125.06 267.973 124.981 267.787 124.981 267.572C124.981 267.348 125.06 267.157 125.219 266.998C125.378 266.839 125.564 266.76 125.779 266.76C126.003 266.76 126.19 266.839 126.339 266.998C126.498 267.157 126.577 267.348 126.577 267.572C126.577 267.787 126.498 267.973 126.339 268.132C126.19 268.291 126.003 268.37 125.779 268.37ZM129.868 276V275.02H130.218C130.508 275.02 130.741 274.936 130.918 274.768C131.105 274.6 131.24 274.39 131.324 274.138C131.418 273.886 131.464 273.629 131.464 273.368V269.896C131.464 269.663 131.525 269.504 131.646 269.42C131.768 269.327 131.917 269.28 132.094 269.28C132.272 269.28 132.421 269.327 132.542 269.42C132.664 269.504 132.724 269.663 132.724 269.896V273.368C132.724 273.872 132.617 274.325 132.402 274.726C132.188 275.118 131.894 275.431 131.52 275.664C131.147 275.888 130.713 276 130.218 276H129.868ZM133.97 276C133.485 276 133.051 275.888 132.668 275.664C132.295 275.431 132.001 275.118 131.786 274.726C131.572 274.325 131.464 273.872 131.464 273.368H132.724C132.724 273.629 132.766 273.886 132.85 274.138C132.944 274.39 133.084 274.6 133.27 274.768C133.457 274.936 133.69 275.02 133.97 275.02H134.474V276H133.97ZM134.474 276V275.02C134.586 275.02 134.661 275.062 134.698 275.146C134.736 275.23 134.754 275.351 134.754 275.51C134.754 275.659 134.736 275.781 134.698 275.874C134.661 275.958 134.586 276 134.474 276ZM129.868 276C129.756 276 129.682 275.958 129.644 275.874C129.607 275.781 129.588 275.659 129.588 275.51C129.588 275.351 129.607 275.23 129.644 275.146C129.682 275.062 129.756 275.02 129.868 275.02V276ZM132.108 278.73C131.875 278.73 131.679 278.651 131.52 278.492C131.362 278.333 131.282 278.147 131.282 277.932C131.282 277.708 131.362 277.517 131.52 277.358C131.679 277.199 131.875 277.12 132.108 277.12C132.323 277.12 132.51 277.199 132.668 277.358C132.827 277.517 132.906 277.708 132.906 277.932C132.906 278.147 132.827 278.333 132.668 278.492C132.51 278.651 132.323 278.73 132.108 278.73ZM143.926 276V275.02H144.29C144.588 275.02 144.836 274.95 145.032 274.81C145.228 274.67 145.377 274.493 145.48 274.278C145.592 274.063 145.671 273.839 145.718 273.606C145.774 273.373 145.806 273.163 145.816 272.976C145.825 272.78 145.83 272.64 145.83 272.556C145.83 272.304 145.806 272.005 145.76 271.66C145.713 271.315 145.606 270.955 145.438 270.582C145.279 270.209 145.013 269.868 144.64 269.56C144.686 269.513 144.742 269.471 144.808 269.434C144.882 269.387 144.966 269.35 145.06 269.322C145.153 269.294 145.26 269.28 145.382 269.28C145.708 269.28 145.979 269.387 146.194 269.602C146.418 269.817 146.595 270.097 146.726 270.442C146.856 270.778 146.95 271.137 147.006 271.52C147.062 271.903 147.09 272.257 147.09 272.584C147.09 273.657 146.842 274.497 146.348 275.104C145.853 275.701 145.167 276 144.29 276H143.926ZM139.474 276C138.988 276 138.554 275.888 138.172 275.664C137.798 275.431 137.504 275.118 137.29 274.726C137.075 274.325 136.968 273.872 136.968 273.368H138.228C138.228 273.629 138.27 273.886 138.354 274.138C138.447 274.39 138.587 274.6 138.774 274.768C138.96 274.936 139.194 275.02 139.474 275.02H139.67V276H139.474ZM135.176 276V275.02H135.722C136.011 275.02 136.244 274.936 136.422 274.768C136.608 274.6 136.744 274.39 136.828 274.138C136.921 273.886 136.968 273.629 136.968 273.368V270.666C136.968 270.433 137.028 270.274 137.15 270.19C137.271 270.097 137.42 270.05 137.598 270.05C137.775 270.05 137.924 270.097 138.046 270.19C138.167 270.274 138.228 270.433 138.228 270.666V273.368C138.228 273.872 138.12 274.325 137.906 274.726C137.691 275.118 137.397 275.431 137.024 275.664C136.65 275.888 136.216 276 135.722 276H135.176ZM143.646 276C143.16 276 142.726 275.888 142.344 275.664C141.97 275.431 141.676 275.118 141.462 274.726C141.247 274.325 141.14 273.872 141.14 273.368H142.4C142.4 273.629 142.442 273.886 142.526 274.138C142.619 274.39 142.759 274.6 142.946 274.768C143.132 274.936 143.366 275.02 143.646 275.02H143.926V276H143.646ZM139.67 276V275.02H139.894C140.183 275.02 140.416 274.936 140.594 274.768C140.78 274.6 140.916 274.39 141 274.138C141.093 273.886 141.14 273.629 141.14 273.368V270.33C141.14 270.097 141.2 269.938 141.322 269.854C141.443 269.761 141.592 269.714 141.77 269.714C141.947 269.714 142.096 269.761 142.218 269.854C142.339 269.938 142.4 270.097 142.4 270.33V273.368C142.4 273.872 142.292 274.325 142.078 274.726C141.863 275.118 141.569 275.431 141.196 275.664C140.822 275.888 140.388 276 139.894 276H139.67ZM135.176 276C135.064 276 134.989 275.958 134.952 275.874C134.914 275.781 134.896 275.659 134.896 275.51C134.896 275.351 134.914 275.23 134.952 275.146C134.989 275.062 135.064 275.02 135.176 275.02V276Z" fill="#828282"/>
<path d="M245.212 276V268.16L243.854 269.042L243.602 268.72L245.772 266.76H246.472V276H245.212ZM253.104 276V273.62H248.624V273.06L253.244 266.76H254.364V273.06H255.624V273.62H254.364V276H253.104ZM249.464 273.06H253.104V268.104L249.464 273.06ZM261.446 276V273.62H256.966V273.06L261.586 266.76H262.706V273.06H263.966V273.62H262.706V276H261.446ZM257.806 273.06H261.446V268.104L257.806 273.06ZM269.789 276V273.62H265.309V273.06L269.929 266.76H271.049V273.06H272.309V273.62H271.049V276H269.789ZM266.149 273.06H269.789V268.104L266.149 273.06ZM278.594 278.17L278.454 277.96C278.696 277.801 278.897 277.629 279.056 277.442C279.224 277.255 279.35 277.05 279.434 276.826C279.527 276.602 279.574 276.35 279.574 276.07C279.536 276.098 279.476 276.126 279.392 276.154C279.308 276.191 279.228 276.21 279.154 276.21C278.939 276.21 278.757 276.135 278.608 275.986C278.458 275.837 278.384 275.655 278.384 275.44C278.384 275.197 278.463 274.997 278.622 274.838C278.78 274.679 278.981 274.6 279.224 274.6C279.504 274.6 279.723 274.684 279.882 274.852C280.05 275.02 280.134 275.263 280.134 275.58C280.134 276.177 279.998 276.686 279.728 277.106C279.466 277.535 279.088 277.89 278.594 278.17ZM290.834 279.304C289.957 279.304 289.21 279.155 288.594 278.856C287.987 278.557 287.525 278.147 287.208 277.624C286.9 277.111 286.746 276.537 286.746 275.902C286.746 275.669 286.769 275.379 286.816 275.034C286.872 274.679 286.961 274.329 287.082 273.984C287.213 273.629 287.385 273.335 287.6 273.102C287.824 272.859 288.109 272.738 288.454 272.738C288.575 272.738 288.683 272.752 288.776 272.78C288.869 272.808 288.949 272.845 289.014 272.892C289.089 272.929 289.149 272.971 289.196 273.018C288.86 273.298 288.608 273.611 288.44 273.956C288.272 274.301 288.155 274.637 288.09 274.964C288.034 275.281 288.006 275.561 288.006 275.804C288.006 276.691 288.263 277.33 288.776 277.722C289.299 278.123 289.98 278.324 290.82 278.324C291.641 278.324 292.234 278.133 292.598 277.75C292.971 277.377 293.158 276.751 293.158 275.874V268.832C293.158 268.543 293.116 268.281 293.032 268.048C292.957 267.815 292.859 267.619 292.738 267.46C292.617 267.301 292.5 267.185 292.388 267.11C292.425 267.063 292.486 267.012 292.57 266.956C292.663 266.9 292.771 266.853 292.892 266.816C293.023 266.779 293.158 266.76 293.298 266.76C293.475 266.76 293.648 266.807 293.816 266.9C293.993 266.984 294.138 267.138 294.25 267.362C294.362 267.586 294.418 267.903 294.418 268.314V275.874C294.418 276.919 294.133 277.75 293.564 278.366C292.995 278.991 292.085 279.304 290.834 279.304ZM299.776 276C299.225 276 298.735 275.869 298.306 275.608C297.876 275.337 297.54 274.95 297.298 274.446C297.055 273.942 296.934 273.335 296.934 272.626C296.934 271.571 297.218 270.75 297.788 270.162C298.366 269.574 299.136 269.28 300.098 269.28C300.807 269.28 301.386 269.425 301.834 269.714C302.282 270.003 302.506 270.377 302.506 270.834V276H301.246V270.834C301.246 270.657 301.152 270.517 300.966 270.414C300.788 270.311 300.499 270.26 300.098 270.26C299.482 270.26 299.01 270.461 298.684 270.862C298.357 271.254 298.194 271.842 298.194 272.626C298.194 273.401 298.366 273.993 298.712 274.404C299.057 274.815 299.552 275.02 300.196 275.02H302.506V276H299.776ZM300.798 279.206C300.676 279.206 300.569 279.192 300.476 279.164C300.382 279.136 300.298 279.099 300.224 279.052C300.158 279.005 300.102 278.963 300.056 278.926C300.429 278.609 300.695 278.273 300.854 277.918C301.022 277.563 301.129 277.213 301.176 276.868C301.222 276.532 301.246 276.243 301.246 276V275.02H302.506V276C302.506 276.327 302.478 276.677 302.422 277.05C302.366 277.423 302.272 277.773 302.142 278.1C302.011 278.427 301.834 278.693 301.61 278.898C301.395 279.103 301.124 279.206 300.798 279.206ZM305.212 276C305.063 276 304.96 275.944 304.904 275.832C304.848 275.72 304.82 275.613 304.82 275.51C304.82 275.407 304.848 275.3 304.904 275.188C304.96 275.076 305.063 275.02 305.212 275.02H309.734C310.024 275.02 310.257 274.936 310.434 274.768C310.621 274.6 310.756 274.39 310.84 274.138C310.934 273.886 310.98 273.629 310.98 273.368V268.832C310.98 268.543 310.938 268.281 310.854 268.048C310.78 267.815 310.682 267.619 310.56 267.46C310.439 267.301 310.322 267.185 310.21 267.11C310.248 267.063 310.308 267.012 310.392 266.956C310.486 266.9 310.593 266.853 310.714 266.816C310.845 266.779 310.98 266.76 311.12 266.76C311.298 266.76 311.47 266.807 311.638 266.9C311.816 266.984 311.96 267.138 312.072 267.362C312.184 267.586 312.24 267.903 312.24 268.314V273.368C312.24 273.872 312.133 274.325 311.918 274.726C311.704 275.118 311.41 275.431 311.036 275.664C310.663 275.888 310.229 276 309.734 276H305.212ZM307.13 275.02V270.806C307.13 270.517 307.088 270.255 307.004 270.022C306.93 269.789 306.832 269.593 306.71 269.434C306.589 269.275 306.472 269.159 306.36 269.084C306.398 269.037 306.458 268.986 306.542 268.93C306.636 268.874 306.743 268.827 306.864 268.79C306.995 268.753 307.13 268.734 307.27 268.734C307.448 268.734 307.62 268.781 307.788 268.874C307.966 268.958 308.11 269.112 308.222 269.336C308.334 269.56 308.39 269.877 308.39 270.288V275.02H307.13ZM305.954 268.02C305.87 267.908 305.833 267.805 305.842 267.712C305.852 267.609 305.884 267.53 305.94 267.474C306.006 267.409 306.085 267.371 306.178 267.362C306.272 267.343 306.365 267.353 306.458 267.39C306.365 267.287 306.262 267.129 306.15 266.914C306.048 266.69 305.996 266.452 305.996 266.2C305.996 265.948 306.052 265.724 306.164 265.528C306.286 265.323 306.458 265.164 306.682 265.052C306.916 264.94 307.191 264.884 307.508 264.884C307.779 264.884 307.975 264.921 308.096 264.996C308.218 265.061 308.292 265.136 308.32 265.22C308.358 265.304 308.376 265.379 308.376 265.444C308.376 265.593 308.334 265.705 308.25 265.78C308.176 265.845 308.092 265.883 307.998 265.892C307.905 265.892 307.835 265.873 307.788 265.836C307.798 265.649 307.737 265.509 307.606 265.416C307.485 265.313 307.359 265.253 307.228 265.234C307.135 265.253 307.037 265.332 306.934 265.472C306.841 265.612 306.794 265.817 306.794 266.088C306.794 266.405 306.86 266.643 306.99 266.802C307.121 266.951 307.275 267.049 307.452 267.096C307.639 267.143 307.802 267.166 307.942 267.166C308.054 267.166 308.152 267.161 308.236 267.152C308.32 267.133 308.381 267.119 308.418 267.11C308.568 267.11 308.656 267.152 308.684 267.236C308.722 267.32 308.726 267.404 308.698 267.488C308.67 267.572 308.628 267.614 308.572 267.614C308.358 267.633 308.134 267.656 307.9 267.684C307.667 267.712 307.438 267.74 307.214 267.768C307 267.796 306.799 267.824 306.612 267.852C306.435 267.88 306.286 267.908 306.164 267.936C306.043 267.964 305.973 267.992 305.954 268.02ZM315.957 276C315.658 276 315.481 275.911 315.425 275.734C315.369 275.557 315.341 275.347 315.341 275.104V268.832C315.341 268.543 315.299 268.281 315.215 268.048C315.14 267.815 315.042 267.619 314.921 267.46C314.8 267.301 314.683 267.185 314.571 267.11C314.608 267.063 314.669 267.012 314.753 266.956C314.846 266.9 314.958 266.853 315.089 266.816C315.22 266.779 315.355 266.76 315.495 266.76C315.672 266.76 315.845 266.807 316.013 266.9C316.181 266.984 316.321 267.138 316.433 267.362C316.545 267.586 316.601 267.903 316.601 268.314V275.104C316.601 275.347 316.568 275.557 316.503 275.734C316.438 275.911 316.256 276 315.957 276ZM324.779 279.766C324.489 279.766 324.242 279.668 324.037 279.472C323.841 279.285 323.687 279.038 323.575 278.73C323.463 278.422 323.379 278.095 323.323 277.75C323.276 277.414 323.253 277.101 323.253 276.812C323.253 276.187 323.397 275.734 323.687 275.454C323.976 275.165 324.377 275.02 324.891 275.02C325.46 275.02 326.001 274.936 326.515 274.768C327.037 274.591 327.504 274.357 327.915 274.068C328.325 273.769 328.647 273.433 328.881 273.06C329.123 272.687 329.245 272.299 329.245 271.898C329.245 271.375 329.039 270.974 328.629 270.694C328.218 270.405 327.635 270.26 326.879 270.26C326.123 270.26 325.539 270.405 325.129 270.694C324.718 270.974 324.513 271.375 324.513 271.898C324.513 272.299 324.629 272.687 324.863 273.06C325.105 273.433 325.432 273.769 325.843 274.068C326.253 274.357 326.72 274.591 327.243 274.768C327.765 274.936 328.307 275.02 328.867 275.02H331.275V276H328.867C328.223 276 327.569 275.897 326.907 275.692C326.244 275.487 325.637 275.202 325.087 274.838C324.536 274.465 324.093 274.031 323.757 273.536C323.421 273.032 323.253 272.486 323.253 271.898C323.253 271.431 323.36 271.035 323.575 270.708C323.789 270.372 324.074 270.101 324.429 269.896C324.793 269.681 325.185 269.527 325.605 269.434C326.034 269.331 326.459 269.28 326.879 269.28C327.299 269.28 327.719 269.331 328.139 269.434C328.568 269.527 328.96 269.677 329.315 269.882C329.669 270.087 329.954 270.358 330.169 270.694C330.393 271.021 330.505 271.422 330.505 271.898C330.505 272.486 330.337 273.032 330.001 273.536C329.674 274.031 329.235 274.465 328.685 274.838C328.134 275.202 327.527 275.487 326.865 275.692C326.202 275.897 325.544 276 324.891 276H323.869L324.597 275.594C324.559 275.799 324.536 275.986 324.527 276.154C324.517 276.322 324.513 276.443 324.513 276.518C324.513 276.761 324.536 277.055 324.583 277.4C324.629 277.755 324.737 278.114 324.905 278.478C325.073 278.851 325.339 279.197 325.703 279.514C325.665 279.551 325.591 279.589 325.479 279.626C325.376 279.663 325.259 279.696 325.129 279.724C325.007 279.752 324.891 279.766 324.779 279.766ZM331.275 276V275.02C331.387 275.02 331.461 275.062 331.499 275.146C331.536 275.23 331.555 275.351 331.555 275.51C331.555 275.659 331.536 275.781 331.499 275.874C331.461 275.958 331.387 276 331.275 276ZM331.981 276V275.02H332.331C332.62 275.02 332.854 274.936 333.031 274.768C333.218 274.6 333.353 274.39 333.437 274.138C333.53 273.886 333.577 273.629 333.577 273.368V269.896C333.577 269.663 333.638 269.504 333.759 269.42C333.88 269.327 334.03 269.28 334.207 269.28C334.384 269.28 334.534 269.327 334.655 269.42C334.776 269.504 334.837 269.663 334.837 269.896V273.368C334.837 273.872 334.73 274.325 334.515 274.726C334.3 275.118 334.006 275.431 333.633 275.664C333.26 275.888 332.826 276 332.331 276H331.981ZM336.083 276C335.598 276 335.164 275.888 334.781 275.664C334.408 275.431 334.114 275.118 333.899 274.726C333.684 274.325 333.577 273.872 333.577 273.368H334.837C334.837 273.629 334.879 273.886 334.963 274.138C335.056 274.39 335.196 274.6 335.383 274.768C335.57 274.936 335.803 275.02 336.083 275.02H336.587V276H336.083ZM336.587 276V275.02C336.699 275.02 336.774 275.062 336.811 275.146C336.848 275.23 336.867 275.351 336.867 275.51C336.867 275.659 336.848 275.781 336.811 275.874C336.774 275.958 336.699 276 336.587 276ZM331.981 276C331.869 276 331.794 275.958 331.757 275.874C331.72 275.781 331.701 275.659 331.701 275.51C331.701 275.351 331.72 275.23 331.757 275.146C331.794 275.062 331.869 275.02 331.981 275.02V276ZM335.229 278.73C335.014 278.73 334.828 278.651 334.669 278.492C334.51 278.333 334.431 278.147 334.431 277.932C334.431 277.708 334.51 277.517 334.669 277.358C334.828 277.199 335.014 277.12 335.229 277.12C335.453 277.12 335.64 277.199 335.789 277.358C335.948 277.517 336.027 277.708 336.027 277.932C336.027 278.147 335.948 278.333 335.789 278.492C335.64 278.651 335.453 278.73 335.229 278.73ZM333.185 278.73C332.97 278.73 332.784 278.651 332.625 278.492C332.466 278.333 332.387 278.147 332.387 277.932C332.387 277.708 332.466 277.517 332.625 277.358C332.784 277.199 332.97 277.12 333.185 277.12C333.409 277.12 333.596 277.199 333.745 277.358C333.904 277.517 333.983 277.708 333.983 277.932C333.983 278.147 333.904 278.333 333.745 278.492C333.596 278.651 333.409 278.73 333.185 278.73ZM337.288 276V275.02H338.226C338.525 275.02 338.772 274.95 338.968 274.81C339.164 274.67 339.314 274.493 339.416 274.278C339.528 274.063 339.608 273.839 339.654 273.606C339.71 273.373 339.743 273.163 339.752 272.976C339.762 272.78 339.766 272.64 339.766 272.556C339.766 272.304 339.743 272.005 339.696 271.66C339.65 271.315 339.542 270.955 339.374 270.582C339.216 270.209 338.95 269.868 338.576 269.56C338.623 269.513 338.679 269.471 338.744 269.434C338.819 269.387 338.903 269.35 338.996 269.322C339.09 269.294 339.197 269.28 339.318 269.28C339.645 269.28 339.916 269.387 340.13 269.602C340.354 269.817 340.532 270.097 340.662 270.442C340.793 270.778 340.886 271.137 340.942 271.52C340.998 271.903 341.026 272.257 341.026 272.584C341.026 273.657 340.779 274.497 340.284 275.104C339.79 275.701 339.104 276 338.226 276H337.288ZM337.288 276C337.176 276 337.102 275.958 337.064 275.874C337.027 275.781 337.008 275.659 337.008 275.51C337.008 275.351 337.027 275.23 337.064 275.146C337.102 275.062 337.176 275.02 337.288 275.02V276ZM339.36 278.73C339.127 278.73 338.931 278.651 338.772 278.492C338.614 278.333 338.534 278.147 338.534 277.932C338.534 277.708 338.614 277.517 338.772 277.358C338.931 277.199 339.127 277.12 339.36 277.12C339.575 277.12 339.762 277.199 339.92 277.358C340.079 277.517 340.158 277.708 340.158 277.932C340.158 278.147 340.079 278.333 339.92 278.492C339.762 278.651 339.575 278.73 339.36 278.73ZM343.659 279.206C343.537 279.206 343.43 279.192 343.337 279.164C343.243 279.136 343.159 279.099 343.085 279.052C343.019 279.005 342.963 278.963 342.917 278.926C343.29 278.609 343.556 278.273 343.715 277.918C343.883 277.563 343.99 277.213 344.037 276.868C344.083 276.532 344.107 276.243 344.107 276V269.896C344.107 269.663 344.167 269.504 344.289 269.42C344.41 269.327 344.559 269.28 344.737 269.28C344.914 269.28 345.063 269.327 345.185 269.42C345.306 269.504 345.367 269.663 345.367 269.896V276C345.367 276.327 345.339 276.677 345.283 277.05C345.227 277.423 345.133 277.773 345.003 278.1C344.872 278.427 344.695 278.693 344.471 278.898C344.256 279.103 343.985 279.206 343.659 279.206Z" fill="#828282"/>
<defs>
<filter id="filter0_d_668_6265" x="30" y="18" width="350" height="373.948" filterUnits="userSpaceOnUse" color-interpolation-filters="sRGB">
<feFlood flood-opacity="0" result="BackgroundImageFix"/>
<feColorMatrix in="SourceAlpha" type="matrix" values="0 0 0 0 0 0 0 0 0 0 0 0 0 0 0 0 0 0 127 0" result="hardAlpha"/>
<feOffset/>
<feGaussianBlur stdDeviation="6.5"/>
<feComposite in2="hardAlpha" operator="out"/>
<feColorMatrix type="matrix" values="0 0 0 0 0.1375 0 0 0 0 0.1375 0 0 0 0 0.1375 0 0 0 0.25 0"/>
<feBlend mode="normal" in2="BackgroundImageFix" result="effect1_dropShadow_668_6265"/>
<feBlend mode="normal" in="SourceGraphic" in2="effect1_dropShadow_668_6265" result="shape"/>
</filter>
<filter id="filter1_f_668_6265" x="0.488281" y="0" width="407.617" height="234.348" filterUnits="userSpaceOnUse" color-interpolation-filters="sRGB">
<feFlood flood-opacity="0" result="BackgroundImageFix"/>
<feBlend mode="normal" in="SourceGraphic" in2="BackgroundImageFix" result="shape"/>
<feGaussianBlur stdDeviation="44.5" result="effect1_foregroundBlur_668_6265"/>
</filter>
</defs>
</svg>
