<svg width="409" height="392" viewBox="0 0 409 392" fill="none" xmlns="http://www.w3.org/2000/svg">
<g filter="url(#filter0_d_668_6232)">
<rect x="43" y="31" width="324" height="347.948" rx="17" fill="#FBFBFB"/>
</g>
<g filter="url(#filter1_f_668_6232)">
<rect x="89.4883" y="89" width="229.617" height="56.3478" rx="28.1739" fill="#EBEBEB"/>
</g>
<path d="M183.403 161.552C180.949 161.552 178.827 161.211 177.035 160.528C175.264 159.845 173.899 158.843 172.939 157.52C171.979 156.197 171.499 154.576 171.499 152.656C171.499 151.888 171.573 151.109 171.723 150.32C171.893 149.531 172.139 148.805 172.459 148.144C172.779 147.483 173.184 146.949 173.675 146.544C174.165 146.117 174.741 145.904 175.403 145.904C175.936 145.904 176.373 146.021 176.715 146.256C177.077 146.491 177.355 146.757 177.547 147.056C177.739 147.355 177.835 147.621 177.835 147.856C177.195 148.325 176.672 148.901 176.267 149.584C175.861 150.245 175.659 151.237 175.659 152.56C175.659 153.136 175.733 153.744 175.883 154.384C176.032 155.045 176.363 155.653 176.875 156.208C177.387 156.784 178.155 157.253 179.179 157.616C180.224 157.979 181.621 158.16 183.371 158.16C184.864 158.16 186.101 158.021 187.083 157.744C188.064 157.488 188.832 157.136 189.387 156.688C189.963 156.261 190.368 155.781 190.603 155.248C190.837 154.736 190.955 154.224 190.955 153.712L195.115 153.392C195.115 155.163 194.624 156.656 193.643 157.872C192.661 159.088 191.285 160.005 189.515 160.624C187.765 161.243 185.728 161.552 183.403 161.552ZM190.507 154C189.547 154 188.8 153.851 188.267 153.552C187.755 153.253 187.392 152.88 187.179 152.432C186.987 151.963 186.923 151.472 186.987 150.96C187.051 150.427 187.189 149.936 187.403 149.488C187.637 149.723 188.021 149.968 188.555 150.224C189.088 150.48 189.728 150.608 190.475 150.608H198.955V154H190.507ZM198.955 154V150.608C199.189 150.608 199.349 150.768 199.435 151.088C199.541 151.387 199.595 151.792 199.595 152.304C199.595 152.816 199.541 153.232 199.435 153.552C199.349 153.851 199.189 154 198.955 154ZM185.899 167.792C185.344 167.792 184.853 167.589 184.427 167.184C184.021 166.779 183.819 166.288 183.819 165.712C183.819 165.136 184.021 164.645 184.427 164.24C184.853 163.835 185.344 163.632 185.899 163.632C186.496 163.632 186.987 163.835 187.371 164.24C187.776 164.645 187.979 165.136 187.979 165.712C187.979 166.288 187.776 166.779 187.371 167.184C186.987 167.589 186.496 167.792 185.899 167.792ZM180.715 167.792C180.16 167.792 179.669 167.589 179.243 167.184C178.837 166.779 178.635 166.288 178.635 165.712C178.635 165.136 178.837 164.645 179.243 164.24C179.669 163.835 180.16 163.632 180.715 163.632C181.291 163.632 181.781 163.835 182.187 164.24C182.592 164.645 182.795 165.136 182.795 165.712C182.795 166.288 182.592 166.779 182.187 167.184C181.781 167.589 181.291 167.792 180.715 167.792ZM219.014 154C217.819 154 216.742 153.733 215.782 153.2C214.843 152.667 214.097 151.931 213.542 150.992C213.009 150.053 212.742 148.997 212.742 147.824V147.312H216.902V147.824C216.902 148.251 216.977 148.688 217.126 149.136C217.275 149.563 217.51 149.915 217.83 150.192C218.15 150.469 218.545 150.608 219.014 150.608H220.646V154H219.014ZM200.55 154V150.608H210.63C211.313 150.608 211.835 150.363 212.198 149.872C212.561 149.381 212.742 148.539 212.742 147.344C212.742 145.573 212.315 144.251 211.462 143.376C210.609 142.48 209.318 142.032 207.59 142.032C207.334 142.032 207.003 142.032 206.598 142.032C206.193 142.032 205.787 142.043 205.382 142.064C204.977 142.064 204.635 142.064 204.358 142.064C203.654 142.064 203.078 141.904 202.63 141.584C202.182 141.243 201.841 140.805 201.606 140.272C201.393 139.739 201.286 139.195 201.286 138.64C201.286 138.192 201.371 137.883 201.542 137.712C201.734 137.52 201.915 137.435 202.086 137.456C202.193 137.797 202.459 138.096 202.886 138.352C203.313 138.587 203.953 138.704 204.806 138.704C205.019 138.704 205.318 138.704 205.702 138.704C206.086 138.683 206.459 138.672 206.822 138.672C207.206 138.651 207.462 138.64 207.59 138.64C209.254 138.64 210.673 138.885 211.846 139.376C213.019 139.845 213.979 140.496 214.726 141.328C215.473 142.16 216.017 143.099 216.358 144.144C216.721 145.168 216.902 146.235 216.902 147.344C216.902 148.944 216.593 150.235 215.974 151.216C215.355 152.197 214.566 152.912 213.606 153.36C212.646 153.787 211.654 154 210.63 154H200.55ZM200.55 154C200.337 154 200.177 153.851 200.07 153.552C199.963 153.232 199.91 152.816 199.91 152.304C199.91 151.792 199.963 151.387 200.07 151.088C200.177 150.768 200.337 150.608 200.55 150.608V154ZM220.646 154V150.608C220.881 150.608 221.041 150.768 221.126 151.088C221.233 151.387 221.286 151.792 221.286 152.304C221.286 152.816 221.233 153.232 221.126 153.552C221.041 153.851 220.881 154 220.646 154ZM222.244 154V150.608H239.108C239.79 150.608 240.334 150.331 240.74 149.776C241.166 149.221 241.38 148.315 241.38 147.056C241.38 145.285 240.953 144.005 240.1 143.216C239.268 142.427 238.084 142.032 236.548 142.032C235.353 142.032 234.329 142.235 233.476 142.64C232.644 143.024 231.94 143.536 231.364 144.176C230.809 144.795 230.361 145.477 230.02 146.224C229.678 146.949 229.401 147.653 229.188 148.336H227.14C227.481 146.949 227.854 145.733 228.26 144.688C228.665 143.621 229.113 142.704 229.604 141.936C230.116 141.168 230.692 140.549 231.332 140.08C231.993 139.589 232.74 139.227 233.572 138.992C234.404 138.757 235.353 138.64 236.42 138.64C239.278 138.64 241.508 139.387 243.108 140.88C244.729 142.373 245.54 144.411 245.54 146.992C245.54 149.168 244.964 150.885 243.812 152.144C242.681 153.381 241.113 154 239.108 154H222.244ZM225.028 154V143.952C225.028 143.333 224.868 142.853 224.548 142.512C224.249 142.149 223.95 141.925 223.652 141.84C223.758 141.477 224.025 141.104 224.452 140.72C224.9 140.336 225.561 140.144 226.436 140.144C227.097 140.144 227.609 140.261 227.972 140.496C228.356 140.731 228.633 141.029 228.804 141.392C228.974 141.733 229.081 142.075 229.124 142.416C229.166 142.736 229.188 142.992 229.188 143.184V154H225.028ZM222.244 154C222.03 154 221.87 153.851 221.764 153.552C221.657 153.232 221.604 152.816 221.604 152.304C221.604 151.792 221.657 151.387 221.764 151.088C221.87 150.768 222.03 150.608 222.244 150.608V154ZM235.172 136.464C234.51 136.464 233.945 136.24 233.476 135.792C233.028 135.323 232.804 134.779 232.804 134.16C232.804 133.52 233.028 132.976 233.476 132.528C233.945 132.08 234.51 131.856 235.172 131.856C235.79 131.856 236.324 132.08 236.772 132.528C237.241 132.976 237.476 133.52 237.476 134.16C237.476 134.779 237.241 135.323 236.772 135.792C236.324 136.24 235.79 136.464 235.172 136.464ZM252.355 154C251.992 154 251.64 153.861 251.299 153.584C250.979 153.307 250.819 152.88 250.819 152.304C250.819 151.728 250.979 151.301 251.299 151.024C251.64 150.747 252.013 150.608 252.419 150.608H262.659C263.149 150.608 263.544 150.469 263.843 150.192C264.163 149.915 264.397 149.563 264.547 149.136C264.696 148.688 264.771 148.251 264.771 147.824V137.584C264.771 136.816 264.675 136.261 264.483 135.92C264.291 135.579 264.077 135.355 263.843 135.248C263.608 135.141 263.427 135.056 263.299 134.992C263.299 134.8 263.373 134.544 263.523 134.224C263.693 133.883 263.96 133.573 264.323 133.296C264.707 133.019 265.208 132.88 265.827 132.88C266.467 132.88 267.011 133.051 267.459 133.392C267.928 133.712 268.291 134.16 268.547 134.736C268.803 135.312 268.931 135.973 268.931 136.72V147.824C268.931 148.997 268.653 150.053 268.099 150.992C267.565 151.931 266.829 152.667 265.891 153.2C264.952 153.733 263.875 154 262.659 154H252.355ZM255.939 150.608V142.096C255.939 141.328 255.843 140.773 255.651 140.432C255.459 140.091 255.245 139.867 255.011 139.76C254.776 139.653 254.595 139.568 254.467 139.504C254.467 139.312 254.541 139.056 254.691 138.736C254.861 138.395 255.128 138.085 255.491 137.808C255.875 137.531 256.376 137.392 256.995 137.392C257.635 137.392 258.179 137.563 258.627 137.904C259.096 138.224 259.459 138.672 259.715 139.248C259.971 139.824 260.099 140.485 260.099 141.232V150.608H255.939ZM254.531 136.048C254.275 135.984 254.061 135.835 253.891 135.6C253.741 135.365 253.677 135.109 253.699 134.832C253.72 134.555 253.859 134.32 254.115 134.128C254.371 133.915 254.787 133.808 255.363 133.808C255.085 133.68 254.797 133.435 254.499 133.072C254.2 132.688 254.051 132.229 254.051 131.696C254.051 131.248 254.168 130.789 254.403 130.32C254.637 129.829 255 129.424 255.491 129.104C256.003 128.763 256.664 128.592 257.475 128.592C257.901 128.592 258.275 128.656 258.595 128.784C258.915 128.891 259.16 129.061 259.331 129.296C259.523 129.531 259.619 129.84 259.619 130.224C259.619 130.629 259.512 130.917 259.299 131.088C259.107 131.237 258.872 131.312 258.595 131.312C258.317 131.291 258.04 131.227 257.763 131.12C257.784 130.864 257.731 130.597 257.603 130.32C257.496 130.043 257.272 129.904 256.931 129.904C256.803 130.053 256.664 130.267 256.515 130.544C256.387 130.8 256.323 131.077 256.323 131.376C256.323 131.696 256.408 132.005 256.579 132.304C256.749 132.603 256.995 132.859 257.315 133.072C257.635 133.264 258.008 133.36 258.435 133.36C258.691 133.36 258.925 133.339 259.139 133.296C259.352 133.232 259.533 133.2 259.683 133.2C260.003 133.2 260.216 133.349 260.323 133.648C260.429 133.925 260.429 134.213 260.323 134.512C260.237 134.789 260.067 134.939 259.811 134.96C259.725 134.96 259.491 134.971 259.107 134.992C258.723 135.013 258.275 135.045 257.763 135.088C257.251 135.131 256.749 135.195 256.259 135.28C255.768 135.365 255.352 135.472 255.011 135.6C254.691 135.728 254.531 135.877 254.531 136.048ZM277.752 154C276.963 154 276.419 153.776 276.12 153.328C275.821 152.859 275.672 152.357 275.672 151.824V137.584C275.672 136.816 275.576 136.261 275.384 135.92C275.192 135.579 274.979 135.355 274.744 135.248C274.509 135.141 274.328 135.056 274.2 134.992C274.2 134.821 274.275 134.565 274.424 134.224C274.595 133.883 274.861 133.573 275.224 133.296C275.608 133.019 276.12 132.88 276.76 132.88C277.379 132.88 277.912 133.051 278.36 133.392C278.829 133.712 279.192 134.16 279.448 134.736C279.704 135.312 279.832 135.973 279.832 136.72V151.888C279.832 152.379 279.683 152.859 279.384 153.328C279.085 153.776 278.541 154 277.752 154ZM309.22 154C308.025 154 306.948 153.733 305.988 153.2C305.049 152.667 304.302 151.931 303.748 150.992C303.214 150.053 302.948 148.997 302.948 147.824V146.416H307.108V147.824C307.108 148.251 307.182 148.688 307.332 149.136C307.481 149.563 307.716 149.915 308.036 150.192C308.356 150.469 308.75 150.608 309.22 150.608H310.852V154H309.22ZM296.516 154C296.089 154 295.684 153.883 295.3 153.648C294.916 153.392 294.724 152.944 294.724 152.304C294.724 151.664 294.916 151.227 295.3 150.992C295.684 150.736 296.089 150.608 296.516 150.608H299.588C300.676 150.608 301.508 150.235 302.084 149.488C302.66 148.72 302.948 147.664 302.948 146.32C302.948 145.317 302.809 144.496 302.532 143.856C302.276 143.216 301.956 142.715 301.572 142.352C301.209 141.989 300.868 141.733 300.548 141.584L301.124 141.712C300.91 141.627 300.633 141.648 300.292 141.776C299.972 141.904 299.673 142.16 299.396 142.544C299.14 142.928 299.012 143.472 299.012 144.176C298.777 144.261 298.457 144.357 298.052 144.464C297.668 144.571 297.316 144.624 296.996 144.624C296.441 144.624 295.918 144.432 295.428 144.048C294.958 143.664 294.724 143.067 294.724 142.256C294.724 141.509 294.937 140.901 295.364 140.432C295.79 139.941 296.302 139.568 296.9 139.312C297.518 139.056 298.116 138.885 298.692 138.8C299.268 138.693 299.705 138.64 300.004 138.64C300.58 138.64 301.262 138.779 302.052 139.056C302.841 139.333 303.62 139.781 304.388 140.4C305.177 140.997 305.828 141.797 306.34 142.8C306.852 143.781 307.108 144.997 307.108 146.448C307.108 148.112 306.745 149.509 306.02 150.64C305.316 151.749 304.388 152.592 303.236 153.168C302.105 153.723 300.889 154 299.588 154H296.516ZM310.852 154V150.608C311.086 150.608 311.246 150.768 311.332 151.088C311.438 151.387 311.492 151.792 311.492 152.304C311.492 152.816 311.438 153.232 311.332 153.552C311.246 153.851 311.086 154 310.852 154ZM312.462 154V150.608H314.094C314.585 150.608 314.98 150.469 315.278 150.192C315.598 149.915 315.833 149.563 315.982 149.136C316.132 148.688 316.206 148.251 316.206 147.824V140.752C316.206 140.261 316.356 139.792 316.654 139.344C316.953 138.875 317.497 138.64 318.286 138.64C319.076 138.64 319.62 138.875 319.918 139.344C320.217 139.792 320.366 140.261 320.366 140.752V147.824C320.366 148.997 320.089 150.053 319.534 150.992C319.001 151.931 318.265 152.667 317.326 153.2C316.388 153.733 315.31 154 314.094 154H312.462ZM322.478 154C321.284 154 320.206 153.733 319.246 153.2C318.308 152.667 317.561 151.931 317.006 150.992C316.473 150.053 316.206 148.997 316.206 147.824H320.366C320.366 148.251 320.441 148.688 320.59 149.136C320.74 149.563 320.974 149.915 321.294 150.192C321.614 150.469 322.009 150.608 322.478 150.608H324.11V154H322.478ZM324.11 154V150.608C324.345 150.608 324.505 150.768 324.59 151.088C324.697 151.387 324.75 151.792 324.75 152.304C324.75 152.816 324.697 153.232 324.59 153.552C324.505 153.851 324.345 154 324.11 154ZM312.462 154C312.249 154 312.089 153.851 311.982 153.552C311.876 153.232 311.822 152.816 311.822 152.304C311.822 151.792 311.876 151.387 311.982 151.088C312.089 150.768 312.249 150.608 312.462 150.608V154ZM320.878 160.88C320.324 160.88 319.833 160.677 319.406 160.272C319.001 159.867 318.798 159.376 318.798 158.8C318.798 158.224 319.001 157.733 319.406 157.328C319.833 156.923 320.324 156.72 320.878 156.72C321.476 156.72 321.966 156.923 322.35 157.328C322.756 157.733 322.958 158.224 322.958 158.8C322.958 159.376 322.756 159.867 322.35 160.272C321.966 160.677 321.476 160.88 320.878 160.88ZM315.694 160.88C315.14 160.88 314.649 160.677 314.222 160.272C313.817 159.867 313.614 159.376 313.614 158.8C313.614 158.224 313.817 157.733 314.222 157.328C314.649 156.923 315.14 156.72 315.694 156.72C316.27 156.72 316.761 156.923 317.166 157.328C317.572 157.733 317.774 158.224 317.774 158.8C317.774 159.376 317.572 159.867 317.166 160.272C316.761 160.677 316.27 160.88 315.694 160.88ZM325.719 154V150.608H330.775L329.463 151.696C328.865 151.077 328.396 150.331 328.055 149.456C327.713 148.56 327.543 147.557 327.543 146.448C327.543 144.997 327.799 143.781 328.311 142.8C328.823 141.797 329.463 140.997 330.231 140.4C331.02 139.781 331.809 139.333 332.599 139.056C333.388 138.779 334.071 138.64 334.647 138.64C334.945 138.64 335.383 138.693 335.959 138.8C336.535 138.885 337.121 139.056 337.719 139.312C338.337 139.568 338.86 139.941 339.287 140.432C339.713 140.901 339.927 141.509 339.927 142.256C339.927 143.067 339.681 143.664 339.191 144.048C338.721 144.432 338.209 144.624 337.655 144.624C337.335 144.624 336.972 144.571 336.567 144.464C336.183 144.357 335.873 144.261 335.639 144.176C335.639 143.472 335.5 142.928 335.223 142.544C334.967 142.16 334.668 141.904 334.327 141.776C334.007 141.648 333.74 141.627 333.527 141.712L334.103 141.584C333.804 141.733 333.463 141.989 333.079 142.352C332.695 142.715 332.364 143.216 332.087 143.856C331.831 144.496 331.703 145.317 331.703 146.32C331.703 147.664 331.991 148.72 332.567 149.488C333.143 150.235 333.975 150.608 335.063 150.608H338.135C338.561 150.608 338.967 150.736 339.351 150.992C339.735 151.227 339.927 151.664 339.927 152.304C339.927 152.944 339.735 153.392 339.351 153.648C338.967 153.883 338.561 154 338.135 154H325.719ZM325.719 154C325.505 154 325.345 153.851 325.239 153.552C325.132 153.232 325.079 152.816 325.079 152.304C325.079 151.792 325.132 151.387 325.239 151.088C325.345 150.768 325.505 150.608 325.719 150.608V154Z" fill="#4F4F4F"/>
<path d="M292.394 109.208C292.192 108.92 292.122 108.669 292.186 108.456C292.25 108.232 292.384 108.061 292.586 107.944C292.8 107.827 293.029 107.784 293.274 107.816C293.52 107.837 293.728 107.96 293.898 108.184L293.722 108.04C293.573 107.955 293.397 107.789 293.194 107.544C293.002 107.288 292.832 106.979 292.682 106.616C292.544 106.243 292.474 105.843 292.474 105.416C292.474 105.032 292.544 104.675 292.682 104.344C292.832 104.013 293.04 103.725 293.306 103.48C293.573 103.235 293.904 103.048 294.298 102.92C294.693 102.781 295.136 102.712 295.626 102.712C296.17 102.712 296.565 102.781 296.81 102.92C297.066 103.059 297.226 103.224 297.29 103.416C297.365 103.597 297.402 103.752 297.402 103.88C297.402 104.2 297.322 104.435 297.162 104.584C297.002 104.723 296.821 104.797 296.618 104.808C296.426 104.819 296.282 104.781 296.186 104.696C296.197 104.408 296.122 104.173 295.962 103.992C295.813 103.8 295.632 103.661 295.418 103.576C295.205 103.48 295.008 103.432 294.826 103.432H295.114C294.954 103.432 294.778 103.496 294.586 103.624C294.405 103.752 294.245 103.949 294.106 104.216C293.968 104.483 293.898 104.84 293.898 105.288C293.898 105.885 294.026 106.344 294.282 106.664C294.549 106.973 294.88 107.181 295.274 107.288C295.669 107.395 296.053 107.448 296.426 107.448C296.672 107.448 296.89 107.437 297.082 107.416C297.274 107.384 297.413 107.357 297.498 107.336C297.722 107.336 297.877 107.389 297.962 107.496C298.058 107.603 298.106 107.725 298.106 107.864C298.117 107.992 298.09 108.109 298.026 108.216C297.973 108.323 297.904 108.376 297.818 108.376C297.456 108.408 297.072 108.445 296.666 108.488C296.272 108.531 295.877 108.579 295.482 108.632C295.098 108.675 294.73 108.723 294.378 108.776C294.026 108.829 293.706 108.883 293.418 108.936C293.13 108.979 292.896 109.021 292.714 109.064C292.544 109.117 292.437 109.165 292.394 109.208ZM304.261 109C303.707 109 303.211 108.872 302.773 108.616C302.347 108.349 302.011 107.992 301.765 107.544C301.52 107.085 301.397 106.568 301.397 105.992V100.808C301.397 100.477 301.349 100.179 301.253 99.912C301.168 99.6453 301.056 99.4213 300.917 99.24C300.779 99.0587 300.645 98.9253 300.517 98.84C300.56 98.7867 300.629 98.728 300.725 98.664C300.832 98.6 300.96 98.5467 301.109 98.504C301.259 98.4613 301.413 98.44 301.573 98.44C301.776 98.44 301.973 98.4933 302.165 98.6C302.357 98.696 302.517 98.872 302.645 99.128C302.773 99.384 302.837 99.7467 302.837 100.216V105.992C302.837 106.291 302.885 106.584 302.981 106.872C303.088 107.16 303.248 107.4 303.461 107.592C303.675 107.784 303.941 107.88 304.261 107.88H304.757V109H304.261ZM304.757 109V107.88C304.885 107.88 304.971 107.928 305.013 108.024C305.056 108.12 305.077 108.259 305.077 108.44C305.077 108.611 305.056 108.749 305.013 108.856C304.971 108.952 304.885 109 304.757 109ZM305.564 109V107.88H308.316C308.967 107.88 309.586 107.784 310.172 107.592C310.77 107.389 311.303 107.123 311.772 106.792C312.242 106.451 312.61 106.067 312.876 105.64C313.154 105.213 313.292 104.771 313.292 104.312C313.292 103.715 313.058 103.256 312.588 102.936C312.119 102.605 311.452 102.44 310.588 102.44C309.724 102.44 309.058 102.605 308.588 102.936C308.119 103.256 307.884 103.715 307.884 104.312C307.884 104.771 308.018 105.213 308.284 105.64C308.562 106.067 308.935 106.451 309.404 106.792C309.874 107.123 310.407 107.389 311.004 107.592C311.602 107.784 312.22 107.88 312.86 107.88H315.612V109H312.86C312.124 109 311.378 108.883 310.62 108.648C309.863 108.413 309.17 108.088 308.54 107.672C307.911 107.245 307.404 106.749 307.02 106.184C306.636 105.608 306.444 104.984 306.444 104.312C306.444 103.779 306.567 103.325 306.812 102.952C307.058 102.568 307.383 102.259 307.788 102.024C308.204 101.779 308.652 101.603 309.132 101.496C309.623 101.379 310.108 101.32 310.588 101.32C311.068 101.32 311.548 101.379 312.028 101.496C312.519 101.603 312.967 101.773 313.372 102.008C313.778 102.243 314.103 102.552 314.348 102.936C314.604 103.309 314.732 103.768 314.732 104.312C314.732 104.984 314.54 105.608 314.156 106.184C313.783 106.749 313.282 107.245 312.652 107.672C312.023 108.088 311.33 108.413 310.572 108.648C309.815 108.883 309.063 109 308.316 109H305.564ZM305.564 109C305.436 109 305.351 108.952 305.308 108.856C305.266 108.749 305.244 108.611 305.244 108.44C305.244 108.259 305.266 108.12 305.308 108.024C305.351 107.928 305.436 107.88 305.564 107.88V109ZM315.612 109V107.88C315.74 107.88 315.826 107.928 315.868 108.024C315.911 108.12 315.932 108.259 315.932 108.44C315.932 108.611 315.911 108.749 315.868 108.856C315.826 108.952 315.74 109 315.612 109ZM316.411 109V107.88H317.483C317.825 107.88 318.107 107.8 318.331 107.64C318.555 107.48 318.726 107.277 318.843 107.032C318.971 106.787 319.062 106.531 319.115 106.264C319.179 105.997 319.217 105.757 319.227 105.544C319.238 105.32 319.243 105.16 319.243 105.064C319.243 104.776 319.217 104.435 319.163 104.04C319.11 103.645 318.987 103.235 318.795 102.808C318.614 102.381 318.31 101.992 317.883 101.64C317.937 101.587 318.001 101.539 318.075 101.496C318.161 101.443 318.257 101.4 318.363 101.368C318.47 101.336 318.593 101.32 318.731 101.32C319.105 101.32 319.414 101.443 319.659 101.688C319.915 101.933 320.118 102.253 320.267 102.648C320.417 103.032 320.523 103.443 320.587 103.88C320.651 104.317 320.683 104.723 320.683 105.096C320.683 106.323 320.401 107.283 319.835 107.976C319.27 108.659 318.486 109 317.483 109H316.411ZM316.411 109C316.283 109 316.198 108.952 316.155 108.856C316.113 108.749 316.091 108.611 316.091 108.44C316.091 108.259 316.113 108.12 316.155 108.024C316.198 107.928 316.283 107.88 316.411 107.88V109ZM318.779 112.12C318.513 112.12 318.289 112.029 318.107 111.848C317.926 111.667 317.835 111.453 317.835 111.208C317.835 110.952 317.926 110.733 318.107 110.552C318.289 110.371 318.513 110.28 318.779 110.28C319.025 110.28 319.238 110.371 319.419 110.552C319.601 110.733 319.691 110.952 319.691 111.208C319.691 111.453 319.601 111.667 319.419 111.848C319.238 112.029 319.025 112.12 318.779 112.12ZM323.692 112.664C323.553 112.664 323.43 112.648 323.324 112.616C323.217 112.584 323.121 112.541 323.036 112.488C322.961 112.435 322.897 112.387 322.844 112.344C323.27 111.981 323.574 111.597 323.756 111.192C323.948 110.787 324.07 110.387 324.124 109.992C324.177 109.608 324.204 109.277 324.204 109V102.024C324.204 101.757 324.273 101.576 324.412 101.48C324.55 101.373 324.721 101.32 324.924 101.32C325.126 101.32 325.297 101.373 325.436 101.48C325.574 101.576 325.644 101.757 325.644 102.024V109C325.644 109.373 325.612 109.773 325.548 110.2C325.484 110.627 325.377 111.027 325.228 111.4C325.078 111.773 324.876 112.077 324.62 112.312C324.374 112.547 324.065 112.664 323.692 112.664ZM328.415 109C328.245 109 328.127 108.936 328.063 108.808C327.999 108.68 327.967 108.557 327.967 108.44C327.967 108.323 327.999 108.2 328.063 108.072C328.127 107.944 328.245 107.88 328.415 107.88H333.583C333.914 107.88 334.181 107.784 334.383 107.592C334.597 107.4 334.751 107.16 334.847 106.872C334.954 106.584 335.007 106.291 335.007 105.992V100.808C335.007 100.477 334.959 100.179 334.863 99.912C334.778 99.6453 334.666 99.4213 334.527 99.24C334.389 99.0587 334.255 98.9253 334.127 98.84C334.17 98.7867 334.239 98.728 334.335 98.664C334.442 98.6 334.565 98.5467 334.703 98.504C334.853 98.4613 335.007 98.44 335.167 98.44C335.37 98.44 335.567 98.4933 335.759 98.6C335.962 98.696 336.127 98.872 336.255 99.128C336.383 99.384 336.447 99.7467 336.447 100.216V105.992C336.447 106.568 336.325 107.085 336.079 107.544C335.834 107.992 335.498 108.349 335.071 108.616C334.645 108.872 334.149 109 333.583 109H328.415ZM330.607 107.88V103.064C330.607 102.733 330.559 102.435 330.463 102.168C330.378 101.901 330.266 101.677 330.127 101.496C329.989 101.315 329.855 101.181 329.727 101.096C329.77 101.043 329.839 100.984 329.935 100.92C330.042 100.856 330.165 100.803 330.303 100.76C330.453 100.717 330.607 100.696 330.767 100.696C330.97 100.696 331.167 100.749 331.359 100.856C331.562 100.952 331.727 101.128 331.855 101.384C331.983 101.64 332.047 102.003 332.047 102.472V107.88H330.607ZM340.695 109C340.354 109 340.151 108.899 340.087 108.696C340.023 108.493 339.991 108.253 339.991 107.976V100.808C339.991 100.477 339.943 100.179 339.847 99.912C339.762 99.6453 339.65 99.4213 339.511 99.24C339.373 99.0587 339.239 98.9253 339.111 98.84C339.154 98.7867 339.223 98.728 339.319 98.664C339.426 98.6 339.554 98.5467 339.703 98.504C339.853 98.4613 340.007 98.44 340.167 98.44C340.37 98.44 340.567 98.4933 340.759 98.6C340.951 98.696 341.111 98.872 341.239 99.128C341.367 99.384 341.431 99.7467 341.431 100.216V107.976C341.431 108.253 341.394 108.493 341.319 108.696C341.245 108.899 341.037 109 340.695 109Z" fill="#4F4F4F"/>
<path d="M96.624 256V251.84C97.6907 250.773 99.056 249.472 100.72 247.936C102.384 246.357 104.112 244.651 105.904 242.816C107.739 240.939 109.445 238.997 111.024 236.992C112.603 234.944 113.883 232.896 114.864 230.848C115.888 228.8 116.4 226.795 116.4 224.832C116.4 222.613 116.059 220.821 115.376 219.456C114.693 218.048 113.819 217.024 112.752 216.384C111.685 215.701 110.555 215.36 109.36 215.36C106.672 215.36 104.411 216.256 102.576 218.048C100.741 219.84 99.504 222.677 98.864 226.56H96.624C96.624 224.939 96.688 223.296 96.816 221.632C96.944 219.925 97.392 218.581 98.16 217.6C99.312 216.192 100.997 214.997 103.216 214.016C105.477 212.992 107.952 212.48 110.64 212.48C112.133 212.48 113.712 212.651 115.376 212.992C117.083 213.291 118.683 213.867 120.176 214.72C121.712 215.573 122.949 216.811 123.888 218.432C124.869 220.053 125.36 222.187 125.36 224.832C125.36 226.837 124.891 228.821 123.952 230.784C123.013 232.747 121.776 234.667 120.24 236.544C118.747 238.421 117.104 240.213 115.312 241.92C113.52 243.627 111.749 245.205 110 246.656C108.251 248.064 106.672 249.323 105.264 250.432C103.899 251.541 102.875 252.437 102.192 253.12H115.44C118 253.12 119.963 252.523 121.328 251.328C122.736 250.091 123.44 248.341 123.44 246.08H125.36V250.88C125.36 251.733 125.211 252.565 124.912 253.376C124.613 254.144 124.08 254.784 123.312 255.296C122.544 255.765 121.413 256 119.92 256H96.624ZM146.996 257.28C144.095 257.28 141.428 256.896 138.996 256.128C136.564 255.403 134.623 254.229 133.172 252.608C131.721 250.987 130.996 248.875 130.996 246.272C130.996 244.224 131.487 242.475 132.468 241.024C133.492 239.573 134.815 238.336 136.436 237.312C138.1 236.245 139.849 235.328 141.684 234.56C140.02 233.621 138.505 232.661 137.14 231.68C135.775 230.656 134.665 229.504 133.812 228.224C133.001 226.901 132.596 225.323 132.596 223.488C132.596 220.672 133.236 218.475 134.516 216.896C135.839 215.275 137.588 214.144 139.764 213.504C141.983 212.821 144.393 212.48 146.996 212.48C149.641 212.48 152.052 212.8 154.228 213.44C156.404 214.08 158.132 215.147 159.412 216.64C160.735 218.133 161.396 220.203 161.396 222.848C161.396 224.469 161.012 225.941 160.244 227.264C159.476 228.544 158.431 229.675 157.108 230.656C155.828 231.595 154.377 232.405 152.756 233.088C154.548 234.027 156.212 235.072 157.748 236.224C159.327 237.333 160.585 238.656 161.524 240.192C162.505 241.685 162.996 243.499 162.996 245.632C162.996 248.448 162.271 250.709 160.82 252.416C159.412 254.123 157.492 255.36 155.06 256.128C152.671 256.896 149.983 257.28 146.996 257.28ZM146.996 254.4C148.447 254.4 149.727 254.123 150.836 253.568C151.945 253.013 152.799 252.181 153.396 251.072C154.036 249.92 154.356 248.533 154.356 246.912C154.356 245.163 153.929 243.648 153.076 242.368C152.223 241.045 151.092 239.893 149.684 238.912C148.276 237.888 146.74 236.949 145.076 236.096C144.009 236.651 143.049 237.355 142.196 238.208C141.385 239.061 140.745 240.128 140.276 241.408C139.849 242.688 139.636 244.309 139.636 246.272C139.636 248.149 139.935 249.685 140.532 250.88C141.172 252.075 142.047 252.971 143.156 253.568C144.265 254.123 145.545 254.4 146.996 254.4ZM149.428 231.424C150.537 230.571 151.369 229.525 151.924 228.288C152.479 227.008 152.756 225.195 152.756 222.848C152.756 220.885 152.436 219.371 151.796 218.304C151.199 217.195 150.452 216.427 149.556 216C148.66 215.573 147.807 215.36 146.996 215.36C146.185 215.36 145.332 215.573 144.436 216C143.54 216.384 142.772 217.067 142.132 218.048C141.535 219.029 141.236 220.416 141.236 222.208C141.236 223.531 141.599 224.768 142.324 225.92C143.092 227.029 144.095 228.053 145.332 228.992C146.612 229.931 147.977 230.741 149.428 231.424Z" fill="#4F4F4F"/>
<path d="M289.616 251V216.312L284.048 219.896L282.512 217.912L292.368 208.76H297.936V251H289.616ZM322.08 252.28C318.026 252.28 314.762 251.341 312.288 249.464C309.856 247.587 308.106 244.963 307.04 241.592C305.973 238.221 305.44 234.317 305.44 229.88C305.44 225.443 305.973 221.539 307.04 218.168C308.106 214.797 309.856 212.173 312.288 210.296C314.762 208.419 318.026 207.48 322.08 207.48C326.176 207.48 329.44 208.419 331.872 210.296C334.304 212.173 336.053 214.797 337.12 218.168C338.186 221.539 338.72 225.443 338.72 229.88C338.72 234.317 338.186 238.221 337.12 241.592C336.053 244.963 334.304 247.587 331.872 249.464C329.44 251.341 326.176 252.28 322.08 252.28ZM322.08 249.4C324.768 249.4 326.709 247.843 327.904 244.728C329.141 241.571 329.76 236.621 329.76 229.88C329.76 223.139 329.141 218.211 327.904 215.096C326.709 211.939 324.768 210.36 322.08 210.36C319.392 210.36 317.429 211.939 316.192 215.096C314.997 218.211 314.4 223.139 314.4 229.88C314.4 236.621 314.997 241.571 316.192 244.728C317.429 247.843 319.392 249.4 322.08 249.4Z" fill="#4F4F4F"/>
<path d="M71.4072 276V275.3C71.9952 274.731 72.5272 274.217 73.0032 273.76C73.4885 273.303 73.9132 272.883 74.2772 272.5C74.6412 272.117 74.9492 271.749 75.2012 271.394C75.4532 271.039 75.6399 270.68 75.7612 270.316C75.8919 269.952 75.9572 269.56 75.9572 269.14C75.9572 268.673 75.8732 268.286 75.7052 267.978C75.5372 267.661 75.3132 267.427 75.0332 267.278C74.7625 267.119 74.4639 267.04 74.1372 267.04C73.5772 267.04 73.0872 267.245 72.6672 267.656C72.2472 268.057 71.9672 268.645 71.8272 269.42H71.5472C71.5472 269.065 71.5612 268.729 71.5892 268.412C71.6172 268.085 71.7152 267.815 71.8832 267.6C72.1352 267.292 72.5039 267.031 72.9892 266.816C73.4745 266.592 73.9972 266.48 74.5572 266.48C74.8372 266.48 75.1359 266.517 75.4532 266.592C75.7799 266.657 76.0879 266.783 76.3772 266.97C76.6665 267.157 76.8999 267.427 77.0772 267.782C77.2639 268.127 77.3572 268.58 77.3572 269.14C77.3572 269.541 77.2919 269.919 77.1612 270.274C77.0399 270.619 76.8672 270.955 76.6432 271.282C76.4192 271.609 76.1532 271.935 75.8452 272.262C75.5372 272.579 75.1965 272.906 74.8232 273.242C74.4592 273.569 74.0672 273.914 73.6472 274.278C73.2365 274.642 72.8165 275.029 72.3872 275.44H75.5372C76.0972 275.44 76.5265 275.319 76.8252 275.076C77.1332 274.833 77.2872 274.465 77.2872 273.97H77.5672V274.88C77.5672 275.067 77.5345 275.249 77.4692 275.426C77.4039 275.594 77.2872 275.734 77.1192 275.846C76.9512 275.949 76.7039 276 76.3772 276H71.4072ZM83.045 276.28C82.233 276.28 81.5797 276.079 81.085 275.678C80.5904 275.267 80.231 274.693 80.007 273.956C79.7924 273.219 79.685 272.36 79.685 271.38C79.685 270.391 79.7924 269.532 80.007 268.804C80.231 268.067 80.5904 267.497 81.085 267.096C81.5797 266.685 82.233 266.48 83.045 266.48C83.8664 266.48 84.5197 266.685 85.005 267.096C85.4997 267.497 85.8544 268.067 86.069 268.804C86.293 269.532 86.405 270.391 86.405 271.38C86.405 272.36 86.293 273.219 86.069 273.956C85.8544 274.693 85.4997 275.267 85.005 275.678C84.5197 276.079 83.8664 276.28 83.045 276.28ZM83.045 275.72C83.8104 275.72 84.3284 275.365 84.599 274.656C84.8697 273.937 85.005 272.845 85.005 271.38C85.005 269.905 84.8697 268.813 84.599 268.104C84.3284 267.395 83.8104 267.04 83.045 267.04C82.2797 267.04 81.7617 267.395 81.491 268.104C81.2204 268.813 81.085 269.905 81.085 271.38C81.085 272.845 81.2204 273.937 81.491 274.656C81.7617 275.365 82.2797 275.72 83.045 275.72ZM88.4068 276V275.3C88.9948 274.731 89.5268 274.217 90.0028 273.76C90.4881 273.303 90.9128 272.883 91.2768 272.5C91.6408 272.117 91.9488 271.749 92.2008 271.394C92.4528 271.039 92.6395 270.68 92.7608 270.316C92.8915 269.952 92.9568 269.56 92.9568 269.14C92.9568 268.673 92.8728 268.286 92.7048 267.978C92.5368 267.661 92.3128 267.427 92.0328 267.278C91.7621 267.119 91.4635 267.04 91.1368 267.04C90.5768 267.04 90.0868 267.245 89.6668 267.656C89.2468 268.057 88.9668 268.645 88.8268 269.42H88.5468C88.5468 269.065 88.5608 268.729 88.5888 268.412C88.6168 268.085 88.7148 267.815 88.8828 267.6C89.1348 267.292 89.5035 267.031 89.9888 266.816C90.4741 266.592 90.9968 266.48 91.5568 266.48C91.8368 266.48 92.1355 266.517 92.4528 266.592C92.7795 266.657 93.0875 266.783 93.3768 266.97C93.6661 267.157 93.8995 267.427 94.0768 267.782C94.2635 268.127 94.3568 268.58 94.3568 269.14C94.3568 269.541 94.2915 269.919 94.1608 270.274C94.0395 270.619 93.8668 270.955 93.6428 271.282C93.4188 271.609 93.1528 271.935 92.8448 272.262C92.5368 272.579 92.1961 272.906 91.8228 273.242C91.4588 273.569 91.0668 273.914 90.6468 274.278C90.2361 274.642 89.8161 275.029 89.3868 275.44H92.5368C93.0968 275.44 93.5261 275.319 93.8248 275.076C94.1328 274.833 94.2868 274.465 94.2868 273.97H94.5668V274.88C94.5668 275.067 94.5341 275.249 94.4688 275.426C94.4035 275.594 94.2868 275.734 94.1188 275.846C93.9508 275.949 93.7035 276 93.3768 276H88.4068ZM99.6806 276.28C99.214 276.28 98.7893 276.219 98.4066 276.098C98.0333 275.977 97.688 275.804 97.3706 275.58C97.0626 275.356 96.778 275.09 96.5166 274.782L96.7406 274.53C97.0953 274.922 97.4826 275.221 97.9026 275.426C98.3226 275.622 98.7986 275.72 99.3306 275.72C99.704 275.72 100.049 275.641 100.367 275.482C100.684 275.314 100.941 275.062 101.137 274.726C101.333 274.39 101.431 273.951 101.431 273.41C101.431 272.915 101.337 272.509 101.151 272.192C100.964 271.875 100.731 271.637 100.451 271.478C100.171 271.319 99.8906 271.24 99.6106 271.24C99.3306 271.24 99.1066 271.249 98.9386 271.268C98.7706 271.277 98.612 271.296 98.4626 271.324C98.3226 271.352 98.1453 271.394 97.9306 271.45L97.5666 270.862L101.361 267.32H98.7706C98.2106 267.32 97.7766 267.441 97.4686 267.684C97.17 267.927 97.0206 268.295 97.0206 268.79H96.7406V267.88C96.7406 267.693 96.7733 267.516 96.8386 267.348C96.904 267.171 97.0206 267.031 97.1886 266.928C97.366 266.816 97.6133 266.76 97.9306 266.76H102.383V267.32L98.6306 270.82C98.8733 270.755 99.1206 270.717 99.3726 270.708C99.634 270.689 99.8066 270.68 99.8906 270.68C100.096 270.68 100.362 270.717 100.689 270.792C101.015 270.857 101.342 270.988 101.669 271.184C101.995 271.38 102.271 271.655 102.495 272.01C102.719 272.365 102.831 272.831 102.831 273.41C102.831 274.026 102.719 274.525 102.495 274.908C102.271 275.281 101.986 275.571 101.641 275.776C101.305 275.972 100.959 276.103 100.605 276.168C100.25 276.243 99.942 276.28 99.6806 276.28ZM109.274 278.17L109.134 277.96C109.377 277.801 109.578 277.629 109.736 277.442C109.904 277.255 110.03 277.05 110.114 276.826C110.208 276.602 110.254 276.35 110.254 276.07C110.217 276.098 110.156 276.126 110.072 276.154C109.988 276.191 109.909 276.21 109.834 276.21C109.62 276.21 109.438 276.135 109.288 275.986C109.139 275.837 109.064 275.655 109.064 275.44C109.064 275.197 109.144 274.997 109.302 274.838C109.461 274.679 109.662 274.6 109.904 274.6C110.184 274.6 110.404 274.684 110.562 274.852C110.73 275.02 110.814 275.263 110.814 275.58C110.814 276.177 110.679 276.686 110.408 277.106C110.147 277.535 109.769 277.89 109.274 278.17ZM122.985 276V275.02H123.895V276H122.985ZM120.255 276C119.704 276 119.214 275.869 118.785 275.608C118.355 275.337 118.019 274.95 117.777 274.446C117.534 273.942 117.413 273.335 117.413 272.626C117.413 271.571 117.697 270.75 118.267 270.162C118.845 269.574 119.615 269.28 120.577 269.28C121.286 269.28 121.865 269.425 122.313 269.714C122.761 270.003 122.985 270.377 122.985 270.834V276H121.725V270.834C121.725 270.657 121.631 270.517 121.445 270.414C121.267 270.311 120.978 270.26 120.577 270.26C119.961 270.26 119.489 270.461 119.163 270.862C118.836 271.254 118.673 271.842 118.673 272.626C118.673 273.401 118.845 273.993 119.191 274.404C119.536 274.815 120.031 275.02 120.675 275.02H122.985V276H120.255ZM121.277 279.206C121.155 279.206 121.048 279.192 120.955 279.164C120.861 279.136 120.777 279.099 120.703 279.052C120.637 279.005 120.581 278.963 120.535 278.926C120.908 278.609 121.174 278.273 121.333 277.918C121.501 277.563 121.608 277.213 121.655 276.868C121.701 276.532 121.725 276.243 121.725 276V275.02H122.985V276C122.985 276.327 122.957 276.677 122.901 277.05C122.845 277.423 122.751 277.773 122.621 278.1C122.49 278.427 122.313 278.693 122.089 278.898C121.874 279.103 121.603 279.206 121.277 279.206ZM123.895 276V275.02C124.007 275.02 124.081 275.062 124.119 275.146C124.156 275.23 124.175 275.351 124.175 275.51C124.175 275.659 124.156 275.781 124.119 275.874C124.081 275.958 124.007 276 123.895 276ZM124.599 276V275.02H124.949C125.239 275.02 125.472 274.936 125.649 274.768C125.836 274.6 125.971 274.39 126.055 274.138C126.149 273.886 126.195 273.629 126.195 273.368V269.896C126.195 269.663 126.256 269.504 126.377 269.42C126.499 269.327 126.648 269.28 126.825 269.28C127.003 269.28 127.152 269.327 127.273 269.42C127.395 269.504 127.455 269.663 127.455 269.896V273.368C127.455 273.872 127.348 274.325 127.133 274.726C126.919 275.118 126.625 275.431 126.251 275.664C125.878 275.888 125.444 276 124.949 276H124.599ZM128.701 276C128.216 276 127.782 275.888 127.399 275.664C127.026 275.431 126.732 275.118 126.517 274.726C126.303 274.325 126.195 273.872 126.195 273.368H127.455C127.455 273.629 127.497 273.886 127.581 274.138C127.675 274.39 127.815 274.6 128.001 274.768C128.188 274.936 128.421 275.02 128.701 275.02H129.205V276H128.701ZM129.205 276V275.02C129.317 275.02 129.392 275.062 129.429 275.146C129.467 275.23 129.485 275.351 129.485 275.51C129.485 275.659 129.467 275.781 129.429 275.874C129.392 275.958 129.317 276 129.205 276ZM124.599 276C124.487 276 124.413 275.958 124.375 275.874C124.338 275.781 124.319 275.659 124.319 275.51C124.319 275.351 124.338 275.23 124.375 275.146C124.413 275.062 124.487 275.02 124.599 275.02V276ZM127.847 278.73C127.633 278.73 127.446 278.651 127.287 278.492C127.129 278.333 127.049 278.147 127.049 277.932C127.049 277.708 127.129 277.517 127.287 277.358C127.446 277.199 127.633 277.12 127.847 277.12C128.071 277.12 128.258 277.199 128.407 277.358C128.566 277.517 128.645 277.708 128.645 277.932C128.645 278.147 128.566 278.333 128.407 278.492C128.258 278.651 128.071 278.73 127.847 278.73ZM125.803 278.73C125.589 278.73 125.402 278.651 125.243 278.492C125.085 278.333 125.005 278.147 125.005 277.932C125.005 277.708 125.085 277.517 125.243 277.358C125.402 277.199 125.589 277.12 125.803 277.12C126.027 277.12 126.214 277.199 126.363 277.358C126.522 277.517 126.601 277.708 126.601 277.932C126.601 278.147 126.522 278.333 126.363 278.492C126.214 278.651 126.027 278.73 125.803 278.73ZM129.907 276V275.02H130.845C131.143 275.02 131.391 274.95 131.587 274.81C131.783 274.67 131.932 274.493 132.035 274.278C132.147 274.063 132.226 273.839 132.273 273.606C132.329 273.373 132.361 273.163 132.371 272.976C132.38 272.78 132.385 272.64 132.385 272.556C132.385 272.304 132.361 272.005 132.315 271.66C132.268 271.315 132.161 270.955 131.993 270.582C131.834 270.209 131.568 269.868 131.195 269.56C131.241 269.513 131.297 269.471 131.363 269.434C131.437 269.387 131.521 269.35 131.615 269.322C131.708 269.294 131.815 269.28 131.937 269.28C132.263 269.28 132.534 269.387 132.749 269.602C132.973 269.817 133.15 270.097 133.281 270.442C133.411 270.778 133.505 271.137 133.561 271.52C133.617 271.903 133.645 272.257 133.645 272.584C133.645 273.657 133.397 274.497 132.903 275.104C132.408 275.701 131.722 276 130.845 276H129.907ZM129.907 276C129.795 276 129.72 275.958 129.683 275.874C129.645 275.781 129.627 275.659 129.627 275.51C129.627 275.351 129.645 275.23 129.683 275.146C129.72 275.062 129.795 275.02 129.907 275.02V276ZM131.979 268.37C131.745 268.37 131.549 268.291 131.391 268.132C131.232 267.973 131.153 267.787 131.153 267.572C131.153 267.348 131.232 267.157 131.391 266.998C131.549 266.839 131.745 266.76 131.979 266.76C132.193 266.76 132.38 266.839 132.539 266.998C132.697 267.157 132.777 267.348 132.777 267.572C132.777 267.787 132.697 267.973 132.539 268.132C132.38 268.291 132.193 268.37 131.979 268.37ZM141.737 276V275.02H142.647V276H141.737ZM139.007 276C138.456 276 137.966 275.869 137.537 275.608C137.108 275.337 136.772 274.95 136.529 274.446C136.286 273.942 136.165 273.335 136.165 272.626C136.165 271.571 136.45 270.75 137.019 270.162C137.598 269.574 138.368 269.28 139.329 269.28C140.038 269.28 140.617 269.425 141.065 269.714C141.513 270.003 141.737 270.377 141.737 270.834V276H140.477V270.834C140.477 270.657 140.384 270.517 140.197 270.414C140.02 270.311 139.73 270.26 139.329 270.26C138.713 270.26 138.242 270.461 137.915 270.862C137.588 271.254 137.425 271.842 137.425 272.626C137.425 273.401 137.598 273.993 137.943 274.404C138.288 274.815 138.783 275.02 139.427 275.02H141.737V276H139.007ZM140.029 279.206C139.908 279.206 139.8 279.192 139.707 279.164C139.614 279.136 139.53 279.099 139.455 279.052C139.39 279.005 139.334 278.963 139.287 278.926C139.66 278.609 139.926 278.273 140.085 277.918C140.253 277.563 140.36 277.213 140.407 276.868C140.454 276.532 140.477 276.243 140.477 276V275.02H141.737V276C141.737 276.327 141.709 276.677 141.653 277.05C141.597 277.423 141.504 277.773 141.373 278.1C141.242 278.427 141.065 278.693 140.841 278.898C140.626 279.103 140.356 279.206 140.029 279.206ZM142.647 276V275.02C142.759 275.02 142.834 275.062 142.871 275.146C142.908 275.23 142.927 275.351 142.927 275.51C142.927 275.659 142.908 275.781 142.871 275.874C142.834 275.958 142.759 276 142.647 276ZM143.352 276V275.02H144.29C144.588 275.02 144.836 274.95 145.032 274.81C145.228 274.67 145.377 274.493 145.48 274.278C145.592 274.063 145.671 273.839 145.718 273.606C145.774 273.373 145.806 273.163 145.816 272.976C145.825 272.78 145.83 272.64 145.83 272.556C145.83 272.304 145.806 272.005 145.76 271.66C145.713 271.315 145.606 270.955 145.438 270.582C145.279 270.209 145.013 269.868 144.64 269.56C144.686 269.513 144.742 269.471 144.808 269.434C144.882 269.387 144.966 269.35 145.06 269.322C145.153 269.294 145.26 269.28 145.382 269.28C145.708 269.28 145.979 269.387 146.194 269.602C146.418 269.817 146.595 270.097 146.726 270.442C146.856 270.778 146.95 271.137 147.006 271.52C147.062 271.903 147.09 272.257 147.09 272.584C147.09 273.657 146.842 274.497 146.348 275.104C145.853 275.701 145.167 276 144.29 276H143.352ZM143.352 276C143.24 276 143.165 275.958 143.128 275.874C143.09 275.781 143.072 275.659 143.072 275.51C143.072 275.351 143.09 275.23 143.128 275.146C143.165 275.062 143.24 275.02 143.352 275.02V276ZM146.432 278.73C146.217 278.73 146.03 278.651 145.872 278.492C145.713 278.333 145.634 278.147 145.634 277.932C145.634 277.708 145.713 277.517 145.872 277.358C146.03 277.199 146.217 277.12 146.432 277.12C146.656 277.12 146.842 277.199 146.992 277.358C147.15 277.517 147.23 277.708 147.23 277.932C147.23 278.147 147.15 278.333 146.992 278.492C146.842 278.651 146.656 278.73 146.432 278.73ZM144.388 278.73C144.173 278.73 143.986 278.651 143.828 278.492C143.669 278.333 143.59 278.147 143.59 277.932C143.59 277.708 143.669 277.517 143.828 277.358C143.986 277.199 144.173 277.12 144.388 277.12C144.612 277.12 144.798 277.199 144.948 277.358C145.106 277.517 145.186 277.708 145.186 277.932C145.186 278.147 145.106 278.333 144.948 278.492C144.798 278.651 144.612 278.73 144.388 278.73Z" fill="#828282"/>
<path d="M241.408 276V268.16L240.05 269.042L239.798 268.72L241.968 266.76H242.668V276H241.408ZM249.3 276V273.62H244.82V273.06L249.44 266.76H250.56V273.06H251.82V273.62H250.56V276H249.3ZM245.66 273.06H249.3V268.104L245.66 273.06ZM257.643 276V273.62H253.163V273.06L257.783 266.76H258.903V273.06H260.163V273.62H258.903V276H257.643ZM254.003 273.06H257.643V268.104L254.003 273.06ZM265.985 276V273.62H261.505V273.06L266.125 266.76H267.245V273.06H268.505V273.62H267.245V276H265.985ZM262.345 273.06H265.985V268.104L262.345 273.06ZM274.79 278.17L274.65 277.96C274.892 277.801 275.093 277.629 275.252 277.442C275.42 277.255 275.546 277.05 275.63 276.826C275.723 276.602 275.77 276.35 275.77 276.07C275.732 276.098 275.672 276.126 275.588 276.154C275.504 276.191 275.424 276.21 275.35 276.21C275.135 276.21 274.953 276.135 274.804 275.986C274.654 275.837 274.58 275.655 274.58 275.44C274.58 275.197 274.659 274.997 274.818 274.838C274.976 274.679 275.177 274.6 275.42 274.6C275.7 274.6 275.919 274.684 276.078 274.852C276.246 275.02 276.33 275.263 276.33 275.58C276.33 276.177 276.194 276.686 275.924 277.106C275.662 277.535 275.284 277.89 274.79 278.17ZM285.77 276C285.219 276 284.729 275.869 284.3 275.608C283.871 275.337 283.535 274.95 283.292 274.446C283.049 273.942 282.928 273.335 282.928 272.626C282.928 271.571 283.213 270.75 283.782 270.162C284.361 269.574 285.131 269.28 286.092 269.28C286.801 269.28 287.38 269.425 287.828 269.714C288.276 270.003 288.5 270.377 288.5 270.834V276H287.24V270.834C287.24 270.657 287.147 270.517 286.96 270.414C286.783 270.311 286.493 270.26 286.092 270.26C285.476 270.26 285.005 270.461 284.678 270.862C284.351 271.254 284.188 271.842 284.188 272.626C284.188 273.401 284.361 273.993 284.706 274.404C285.051 274.815 285.546 275.02 286.19 275.02H289.172V276H285.77ZM289.172 276V275.02C289.284 275.02 289.359 275.062 289.396 275.146C289.433 275.23 289.452 275.351 289.452 275.51C289.452 275.659 289.433 275.781 289.396 275.874C289.359 275.958 289.284 276 289.172 276ZM297.89 276C297.405 276 296.971 275.888 296.588 275.664C296.215 275.431 295.921 275.118 295.706 274.726C295.492 274.325 295.384 273.872 295.384 273.368V272.976H296.644V273.368C296.644 273.629 296.686 273.886 296.77 274.138C296.864 274.39 297.004 274.6 297.19 274.768C297.377 274.936 297.61 275.02 297.89 275.02H298.394V276H297.89ZM289.868 276V275.02H294.138C294.521 275.02 294.824 274.871 295.048 274.572C295.272 274.264 295.384 273.741 295.384 273.004C295.384 271.977 295.146 271.263 294.67 270.862C294.204 270.461 293.527 270.26 292.64 270.26C292.454 270.26 292.286 270.265 292.136 270.274C291.987 270.283 291.852 270.297 291.73 270.316C291.609 270.325 291.492 270.33 291.38 270.33C291.156 270.33 290.974 270.297 290.834 270.232C290.694 270.167 290.587 270.073 290.512 269.952C290.447 269.821 290.396 269.677 290.358 269.518C290.34 269.415 290.321 269.313 290.302 269.21C290.293 269.098 290.293 269.023 290.302 268.986C290.396 269.051 290.522 269.126 290.68 269.21C290.839 269.294 291.054 269.336 291.324 269.336C291.418 269.336 291.525 269.331 291.646 269.322C291.777 269.313 291.922 269.303 292.08 269.294C292.239 269.285 292.412 269.28 292.598 269.28C293.317 269.28 293.933 269.369 294.446 269.546C294.96 269.714 295.375 269.961 295.692 270.288C296.019 270.615 296.257 271.007 296.406 271.464C296.565 271.921 296.644 272.43 296.644 272.99C296.644 273.737 296.528 274.334 296.294 274.782C296.061 275.221 295.753 275.533 295.37 275.72C294.997 275.907 294.586 276 294.138 276H289.868ZM289.868 276C289.756 276 289.682 275.958 289.644 275.874C289.607 275.781 289.588 275.659 289.588 275.51C289.588 275.351 289.607 275.23 289.644 275.146C289.682 275.062 289.756 275.02 289.868 275.02V276ZM298.394 276V275.02C298.506 275.02 298.581 275.062 298.618 275.146C298.656 275.23 298.674 275.351 298.674 275.51C298.674 275.659 298.656 275.781 298.618 275.874C298.581 275.958 298.506 276 298.394 276ZM292.836 278.73C292.603 278.73 292.407 278.651 292.248 278.492C292.09 278.333 292.01 278.147 292.01 277.932C292.01 277.708 292.09 277.517 292.248 277.358C292.407 277.199 292.603 277.12 292.836 277.12C293.051 277.12 293.238 277.199 293.396 277.358C293.555 277.517 293.634 277.708 293.634 277.932C293.634 278.147 293.555 278.333 293.396 278.492C293.238 278.651 293.051 278.73 292.836 278.73ZM307.122 276C306.636 276 306.202 275.888 305.82 275.664C305.446 275.431 305.152 275.118 304.938 274.726C304.723 274.325 304.616 273.872 304.616 273.368V272.976H305.876V273.368C305.876 273.629 305.918 273.886 306.002 274.138C306.095 274.39 306.235 274.6 306.422 274.768C306.608 274.936 306.842 275.02 307.122 275.02H307.626V276H307.122ZM299.1 276V275.02H303.37C303.752 275.02 304.056 274.871 304.28 274.572C304.504 274.264 304.616 273.741 304.616 273.004C304.616 271.977 304.378 271.263 303.902 270.862C303.435 270.461 302.758 270.26 301.872 270.26C301.685 270.26 301.517 270.265 301.368 270.274C301.218 270.283 301.083 270.297 300.962 270.316C300.84 270.325 300.724 270.33 300.612 270.33C300.388 270.33 300.206 270.297 300.066 270.232C299.926 270.167 299.818 270.073 299.744 269.952C299.678 269.821 299.627 269.677 299.59 269.518C299.571 269.415 299.552 269.313 299.534 269.21C299.524 269.098 299.524 269.023 299.534 268.986C299.627 269.051 299.753 269.126 299.912 269.21C300.07 269.294 300.285 269.336 300.556 269.336C300.649 269.336 300.756 269.331 300.878 269.322C301.008 269.313 301.153 269.303 301.312 269.294C301.47 269.285 301.643 269.28 301.83 269.28C302.548 269.28 303.164 269.369 303.678 269.546C304.191 269.714 304.606 269.961 304.924 270.288C305.25 270.615 305.488 271.007 305.638 271.464C305.796 271.921 305.876 272.43 305.876 272.99C305.876 273.737 305.759 274.334 305.526 274.782C305.292 275.221 304.984 275.533 304.602 275.72C304.228 275.907 303.818 276 303.37 276H299.1ZM299.1 276C298.988 276 298.913 275.958 298.876 275.874C298.838 275.781 298.82 275.659 298.82 275.51C298.82 275.351 298.838 275.23 298.876 275.146C298.913 275.062 298.988 275.02 299.1 275.02V276ZM307.626 276V275.02C307.738 275.02 307.812 275.062 307.85 275.146C307.887 275.23 307.906 275.351 307.906 275.51C307.906 275.659 307.887 275.781 307.85 275.874C307.812 275.958 307.738 276 307.626 276ZM308.331 276V275.02H308.681C308.97 275.02 309.204 274.936 309.381 274.768C309.568 274.6 309.703 274.39 309.787 274.138C309.88 273.886 309.927 273.629 309.927 273.368V268.832C309.927 268.543 309.885 268.281 309.801 268.048C309.726 267.815 309.628 267.619 309.507 267.46C309.386 267.301 309.269 267.185 309.157 267.11C309.194 267.063 309.255 267.012 309.339 266.956C309.432 266.9 309.54 266.853 309.661 266.816C309.792 266.779 309.927 266.76 310.067 266.76C310.244 266.76 310.417 266.807 310.585 266.9C310.762 266.984 310.907 267.138 311.019 267.362C311.131 267.586 311.187 267.903 311.187 268.314V273.368C311.187 273.872 311.08 274.325 310.865 274.726C310.65 275.118 310.356 275.431 309.983 275.664C309.61 275.888 309.176 276 308.681 276H308.331ZM308.331 276C308.219 276 308.144 275.958 308.107 275.874C308.07 275.781 308.051 275.659 308.051 275.51C308.051 275.351 308.07 275.23 308.107 275.146C308.144 275.062 308.219 275.02 308.331 275.02V276ZM314.877 276C314.578 276 314.401 275.911 314.345 275.734C314.289 275.557 314.261 275.347 314.261 275.104V268.832C314.261 268.543 314.219 268.281 314.135 268.048C314.06 267.815 313.962 267.619 313.841 267.46C313.719 267.301 313.603 267.185 313.491 267.11C313.528 267.063 313.589 267.012 313.673 266.956C313.766 266.9 313.878 266.853 314.009 266.816C314.139 266.779 314.275 266.76 314.415 266.76C314.592 266.76 314.765 266.807 314.933 266.9C315.101 266.984 315.241 267.138 315.353 267.362C315.465 267.586 315.521 267.903 315.521 268.314V275.104C315.521 275.347 315.488 275.557 315.423 275.734C315.357 275.911 315.175 276 314.877 276ZM324.874 276C324.324 276 323.834 275.869 323.404 275.608C322.975 275.337 322.639 274.95 322.396 274.446C322.154 273.942 322.032 273.335 322.032 272.626C322.032 271.571 322.317 270.75 322.886 270.162C323.465 269.574 324.235 269.28 325.196 269.28C325.906 269.28 326.484 269.425 326.932 269.714C327.38 270.003 327.604 270.377 327.604 270.834V276H326.344V270.834C326.344 270.657 326.251 270.517 326.064 270.414C325.887 270.311 325.598 270.26 325.196 270.26C324.58 270.26 324.109 270.461 323.782 270.862C323.456 271.254 323.292 271.842 323.292 272.626C323.292 273.401 323.465 273.993 323.81 274.404C324.156 274.815 324.65 275.02 325.294 275.02H327.604V276H324.874ZM325.896 279.206C325.775 279.206 325.668 279.192 325.574 279.164C325.481 279.136 325.397 279.099 325.322 279.052C325.257 279.005 325.201 278.963 325.154 278.926C325.528 278.609 325.794 278.273 325.952 277.918C326.12 277.563 326.228 277.213 326.274 276.868C326.321 276.532 326.344 276.243 326.344 276V275.02H327.604V276C327.604 276.327 327.576 276.677 327.52 277.05C327.464 277.423 327.371 277.773 327.24 278.1C327.11 278.427 326.932 278.693 326.708 278.898C326.494 279.103 326.223 279.206 325.896 279.206ZM330.395 276C330.217 276 330.091 275.953 330.017 275.86C329.951 275.757 329.919 275.641 329.919 275.51C329.919 275.379 329.951 275.267 330.017 275.174C330.091 275.071 330.217 275.02 330.395 275.02H332.271C332.849 275.02 333.288 274.805 333.587 274.376C333.885 273.937 334.035 273.34 334.035 272.584C334.035 272.024 333.955 271.562 333.797 271.198C333.638 270.834 333.4 270.577 333.083 270.428C332.775 270.269 332.397 270.227 331.949 270.302L332.761 270.148C332.471 270.204 332.21 270.288 331.977 270.4C331.743 270.512 331.561 270.671 331.431 270.876C331.3 271.081 331.235 271.357 331.235 271.702C331.16 271.711 331.057 271.711 330.927 271.702C330.805 271.683 330.693 271.651 330.591 271.604C330.469 271.548 330.362 271.459 330.269 271.338C330.175 271.217 330.129 271.049 330.129 270.834C330.129 270.61 330.18 270.405 330.283 270.218C330.395 270.022 330.549 269.859 330.745 269.728C330.95 269.588 331.188 269.481 331.459 269.406C331.729 269.322 332.028 269.28 332.355 269.28C332.803 269.28 333.204 269.355 333.559 269.504C333.923 269.653 334.235 269.873 334.497 270.162C334.758 270.451 334.954 270.801 335.085 271.212C335.225 271.623 335.295 272.094 335.295 272.626C335.295 273.401 335.155 274.04 334.875 274.544C334.595 275.039 334.226 275.407 333.769 275.65C333.311 275.883 332.812 276 332.271 276H330.395ZM332.397 268.37C332.163 268.37 331.967 268.291 331.809 268.132C331.65 267.973 331.571 267.787 331.571 267.572C331.571 267.348 331.65 267.157 331.809 266.998C331.967 266.839 332.163 266.76 332.397 266.76C332.611 266.76 332.798 266.839 332.957 266.998C333.115 267.157 333.195 267.348 333.195 267.572C333.195 267.787 333.115 267.973 332.957 268.132C332.798 268.291 332.611 268.37 332.397 268.37Z" fill="#828282"/>
<defs>
<filter id="filter0_d_668_6232" x="30" y="18" width="350" height="373.948" filterUnits="userSpaceOnUse" color-interpolation-filters="sRGB">
<feFlood flood-opacity="0" result="BackgroundImageFix"/>
<feColorMatrix in="SourceAlpha" type="matrix" values="0 0 0 0 0 0 0 0 0 0 0 0 0 0 0 0 0 0 127 0" result="hardAlpha"/>
<feOffset/>
<feGaussianBlur stdDeviation="6.5"/>
<feComposite in2="hardAlpha" operator="out"/>
<feColorMatrix type="matrix" values="0 0 0 0 0.1375 0 0 0 0 0.1375 0 0 0 0 0.1375 0 0 0 0.25 0"/>
<feBlend mode="normal" in2="BackgroundImageFix" result="effect1_dropShadow_668_6232"/>
<feBlend mode="normal" in="SourceGraphic" in2="effect1_dropShadow_668_6232" result="shape"/>
</filter>
<filter id="filter1_f_668_6232" x="0.488281" y="0" width="407.617" height="234.348" filterUnits="userSpaceOnUse" color-interpolation-filters="sRGB">
<feFlood flood-opacity="0" result="BackgroundImageFix"/>
<feBlend mode="normal" in="SourceGraphic" in2="BackgroundImageFix" result="shape"/>
<feGaussianBlur stdDeviation="44.5" result="effect1_foregroundBlur_668_6232"/>
</filter>
</defs>
</svg>
