<svg width="409" height="392" viewBox="0 0 409 392" fill="none" xmlns="http://www.w3.org/2000/svg">
<g filter="url(#filter0_d_663_6159)">
<rect x="43" y="31" width="324" height="347.948" rx="17" fill="#FBFBFB"/>
</g>
<g filter="url(#filter1_f_663_6159)">
<rect x="89.4883" y="89" width="229.617" height="56.3478" rx="28.1739" fill="#EBEBEB"/>
</g>
<path d="M106.269 162.512C105.608 162.512 105.032 162.32 104.541 161.936C104.051 161.552 103.645 161.029 103.325 160.368C103.027 159.728 102.792 158.981 102.621 158.128C102.472 157.275 102.397 156.389 102.397 155.472C102.397 153.765 102.781 152.528 103.549 151.76C104.317 150.992 105.416 150.608 106.845 150.608H113.437C114.12 150.608 114.643 150.363 115.005 149.872C115.368 149.381 115.549 148.539 115.549 147.344C115.549 145.573 115.123 144.251 114.269 143.376C113.416 142.48 112.125 142.032 110.397 142.032C110.141 142.032 109.811 142.032 109.405 142.032C109 142.032 108.595 142.043 108.189 142.064C107.784 142.064 107.443 142.064 107.165 142.064C106.461 142.064 105.885 141.904 105.437 141.584C104.989 141.243 104.648 140.805 104.413 140.272C104.2 139.739 104.093 139.195 104.093 138.64C104.093 138.192 104.179 137.883 104.349 137.712C104.541 137.52 104.723 137.435 104.893 137.456C105 137.797 105.267 138.096 105.693 138.352C106.12 138.587 106.76 138.704 107.613 138.704C107.827 138.704 108.125 138.704 108.509 138.704C108.893 138.683 109.267 138.672 109.629 138.672C110.013 138.651 110.269 138.64 110.397 138.64C112.061 138.64 113.48 138.885 114.653 139.376C115.827 139.845 116.787 140.496 117.533 141.328C118.28 142.16 118.824 143.099 119.165 144.144C119.528 145.168 119.709 146.235 119.709 147.344C119.709 148.944 119.4 150.235 118.781 151.216C118.163 152.197 117.373 152.912 116.413 153.36C115.453 153.787 114.461 154 113.437 154H105.277L106.845 152.816C106.76 153.157 106.685 153.552 106.621 154C106.579 154.448 106.557 154.949 106.557 155.504C106.557 156.549 106.643 157.381 106.813 158C107.005 158.619 107.261 159.109 107.581 159.472C107.923 159.856 108.307 160.219 108.733 160.56C108.733 160.773 108.637 161.029 108.445 161.328C108.275 161.648 108.008 161.925 107.645 162.16C107.283 162.395 106.824 162.512 106.269 162.512ZM112.509 160.144C111.848 160.144 111.283 159.909 110.813 159.44C110.365 158.992 110.141 158.459 110.141 157.84C110.141 157.2 110.365 156.656 110.813 156.208C111.283 155.76 111.848 155.536 112.509 155.536C113.128 155.536 113.661 155.76 114.109 156.208C114.579 156.656 114.813 157.2 114.813 157.84C114.813 158.459 114.579 158.992 114.109 159.44C113.661 159.909 113.128 160.144 112.509 160.144ZM128.54 154C127.75 154 127.206 153.776 126.908 153.328C126.609 152.859 126.46 152.357 126.46 151.824V137.584C126.46 136.816 126.364 136.261 126.172 135.92C125.98 135.579 125.766 135.355 125.532 135.248C125.297 135.141 125.116 135.056 124.988 134.992C124.988 134.821 125.062 134.565 125.212 134.224C125.382 133.883 125.649 133.573 126.012 133.296C126.396 133.019 126.908 132.88 127.548 132.88C128.166 132.88 128.7 133.051 129.148 133.392C129.617 133.712 129.98 134.16 130.236 134.736C130.492 135.312 130.62 135.973 130.62 136.72V151.888C130.62 152.379 130.47 152.859 130.172 153.328C129.873 153.776 129.329 154 128.54 154ZM140.807 154V150.608H144.103V154H140.807ZM136.903 161.328C136.37 161.328 135.922 161.211 135.559 160.976C135.197 160.741 134.919 160.464 134.727 160.144C134.557 159.845 134.471 159.589 134.471 159.376C134.919 159.035 135.303 158.651 135.623 158.224C135.943 157.797 136.189 157.243 136.359 156.56C136.551 155.899 136.647 155.045 136.647 154V140.624C136.647 140.005 136.839 139.525 137.223 139.184C137.629 138.821 138.13 138.64 138.727 138.64C139.346 138.64 139.847 138.821 140.231 139.184C140.615 139.525 140.807 140.005 140.807 140.624V154C140.807 154.939 140.722 155.845 140.551 156.72C140.402 157.595 140.167 158.373 139.847 159.056C139.549 159.76 139.154 160.315 138.663 160.72C138.173 161.125 137.586 161.328 136.903 161.328ZM144.103 154V150.608C144.338 150.608 144.498 150.768 144.583 151.088C144.69 151.387 144.743 151.792 144.743 152.304C144.743 152.816 144.69 153.232 144.583 153.552C144.498 153.851 144.338 154 144.103 154ZM145.713 154V150.608H151.217C152.347 150.608 153.425 150.437 154.449 150.096C155.494 149.755 156.422 149.307 157.233 148.752C158.065 148.176 158.715 147.536 159.185 146.832C159.654 146.107 159.889 145.371 159.889 144.624C159.889 143.792 159.558 143.152 158.897 142.704C158.235 142.256 157.19 142.032 155.761 142.032C154.353 142.032 153.307 142.256 152.625 142.704C151.963 143.131 151.633 143.771 151.633 144.624C151.633 145.371 151.867 146.107 152.337 146.832C152.827 147.536 153.478 148.176 154.289 148.752C155.099 149.307 156.027 149.755 157.073 150.096C158.118 150.437 159.195 150.608 160.305 150.608H165.809V154H160.305C158.833 154 157.339 153.765 155.825 153.296C154.31 152.827 152.923 152.176 151.665 151.344C150.406 150.491 149.393 149.499 148.625 148.368C147.857 147.216 147.473 145.968 147.473 144.624C147.473 143.557 147.718 142.651 148.209 141.904C148.699 141.136 149.35 140.517 150.161 140.048C150.993 139.557 151.889 139.205 152.849 138.992C153.83 138.757 154.801 138.64 155.761 138.64C156.721 138.64 157.681 138.757 158.641 138.992C159.622 139.205 160.518 139.547 161.329 140.016C162.139 140.485 162.79 141.104 163.281 141.872C163.793 142.619 164.049 143.536 164.049 144.624C164.049 145.968 163.665 147.216 162.897 148.368C162.15 149.499 161.147 150.491 159.889 151.344C158.63 152.176 157.243 152.827 155.729 153.296C154.214 153.765 152.71 154 151.217 154H145.713ZM145.713 154C145.499 154 145.339 153.851 145.233 153.552C145.126 153.232 145.073 152.816 145.073 152.304C145.073 151.792 145.126 151.387 145.233 151.088C145.339 150.768 145.499 150.608 145.713 150.608V154ZM165.809 154V150.608C166.043 150.608 166.203 150.768 166.289 151.088C166.395 151.387 166.449 151.792 166.449 152.304C166.449 152.816 166.395 153.232 166.289 153.552C166.203 153.851 166.043 154 165.809 154ZM184.718 154C183.524 154 182.446 153.733 181.486 153.2C180.548 152.667 179.801 151.931 179.246 150.992C178.713 150.053 178.446 148.997 178.446 147.824V146.416H182.606V147.824C182.606 148.251 182.681 148.688 182.83 149.136C182.98 149.563 183.214 149.915 183.534 150.192C183.854 150.469 184.249 150.608 184.718 150.608H186.35V154H184.718ZM167.406 154V150.608H175.47C176.452 150.608 177.188 150.235 177.678 149.488C178.19 148.72 178.446 147.653 178.446 146.288C178.446 144.773 178.169 143.685 177.614 143.024C177.06 142.363 176.228 142.032 175.118 142.032C174.798 142.032 174.5 142.053 174.222 142.096C173.945 142.117 173.732 142.149 173.582 142.192V154H169.422V142.192C169.422 141.168 169.945 140.325 170.99 139.664C172.057 138.981 173.433 138.64 175.118 138.64C177.401 138.64 179.214 139.312 180.558 140.656C181.924 142 182.606 143.877 182.606 146.288C182.606 147.909 182.308 149.296 181.71 150.448C181.113 151.6 180.302 152.485 179.278 153.104C178.276 153.701 177.145 154 175.886 154H167.406ZM167.406 154C167.193 154 167.033 153.851 166.926 153.552C166.82 153.232 166.766 152.816 166.766 152.304C166.766 151.792 166.82 151.387 166.926 151.088C167.033 150.768 167.193 150.608 167.406 150.608V154ZM186.35 154V150.608C186.585 150.608 186.745 150.768 186.83 151.088C186.937 151.387 186.99 151.792 186.99 152.304C186.99 152.816 186.937 153.232 186.83 153.552C186.745 153.851 186.585 154 186.35 154ZM187.944 154V150.608H189.576C190.066 150.608 190.461 150.469 190.76 150.192C191.08 149.915 191.314 149.563 191.464 149.136C191.613 148.688 191.688 148.251 191.688 147.824V137.584C191.688 136.816 191.592 136.261 191.4 135.92C191.208 135.579 190.994 135.355 190.76 135.248C190.525 135.141 190.344 135.056 190.216 134.992C190.216 134.8 190.29 134.544 190.44 134.224C190.61 133.883 190.877 133.573 191.24 133.296C191.624 133.019 192.125 132.88 192.744 132.88C193.384 132.88 193.928 133.051 194.376 133.392C194.845 133.712 195.208 134.16 195.464 134.736C195.72 135.312 195.848 135.973 195.848 136.72V147.824C195.848 148.997 195.57 150.053 195.016 150.992C194.482 151.931 193.746 152.667 192.808 153.2C191.869 153.733 190.792 154 189.576 154H187.944ZM187.944 154C187.73 154 187.57 153.851 187.464 153.552C187.357 153.232 187.304 152.816 187.304 152.304C187.304 151.792 187.357 151.387 187.464 151.088C187.57 150.768 187.73 150.608 187.944 150.608V154ZM204.446 154C203.656 154 203.112 153.776 202.814 153.328C202.515 152.859 202.366 152.357 202.366 151.824V137.584C202.366 136.816 202.27 136.261 202.078 135.92C201.886 135.579 201.672 135.355 201.438 135.248C201.203 135.141 201.022 135.056 200.894 134.992C200.894 134.821 200.968 134.565 201.118 134.224C201.288 133.883 201.555 133.573 201.918 133.296C202.302 133.019 202.814 132.88 203.454 132.88C204.072 132.88 204.606 133.051 205.054 133.392C205.523 133.712 205.886 134.16 206.142 134.736C206.398 135.312 206.526 135.973 206.526 136.72V151.888C206.526 152.379 206.376 152.859 206.078 153.328C205.779 153.776 205.235 154 204.446 154ZM218.378 154C217.14 154 216.01 153.701 214.986 153.104C213.962 152.485 213.151 151.6 212.554 150.448C211.956 149.296 211.658 147.909 211.658 146.288C211.658 143.877 212.33 142 213.674 140.656C215.039 139.312 216.863 138.64 219.146 138.64C220.831 138.64 222.196 138.981 223.242 139.664C224.308 140.325 224.842 141.168 224.842 142.192V154H220.682V142.192C220.532 142.149 220.319 142.117 220.042 142.096C219.764 142.053 219.466 142.032 219.146 142.032C218.036 142.032 217.204 142.363 216.65 143.024C216.095 143.685 215.818 144.773 215.818 146.288C215.818 147.653 216.063 148.72 216.554 149.488C217.066 150.235 217.812 150.608 218.794 150.608H224.842V154H218.378ZM220.938 161.328C220.404 161.328 219.956 161.211 219.594 160.976C219.231 160.741 218.954 160.464 218.762 160.144C218.591 159.845 218.506 159.589 218.506 159.376C218.954 159.035 219.338 158.651 219.658 158.224C219.978 157.797 220.223 157.243 220.394 156.56C220.586 155.899 220.682 155.045 220.682 154V150.608H224.842V154C224.842 154.939 224.756 155.845 224.586 156.72C224.436 157.595 224.202 158.373 223.882 159.056C223.583 159.76 223.188 160.315 222.698 160.72C222.207 161.125 221.62 161.328 220.938 161.328ZM240.585 154.48C240.244 154.16 240.02 153.755 239.913 153.264C239.828 152.773 239.924 152.315 240.201 151.888C240.479 151.44 241.001 151.131 241.769 150.96C242.537 150.768 243.604 150.811 244.969 151.088L243.497 151.056C243.177 150.992 242.783 150.8 242.313 150.48C241.844 150.139 241.428 149.68 241.065 149.104C240.724 148.507 240.553 147.803 240.553 146.992C240.553 146.416 240.671 145.808 240.905 145.168C241.14 144.507 241.503 143.899 241.993 143.344C242.484 142.768 243.124 142.309 243.913 141.968C244.703 141.605 245.641 141.424 246.729 141.424C247.497 141.424 248.169 141.531 248.745 141.744C249.343 141.936 249.801 142.245 250.121 142.672C250.463 143.099 250.633 143.664 250.633 144.368C250.633 145.093 250.452 145.605 250.089 145.904C249.727 146.203 249.289 146.341 248.777 146.32C248.265 146.299 247.764 146.192 247.273 146C247.295 145.659 247.252 145.307 247.145 144.944C247.06 144.581 246.889 144.283 246.633 144.048C246.377 143.813 246.004 143.728 245.513 143.792L245.993 143.6C245.844 143.707 245.663 143.909 245.449 144.208C245.236 144.507 245.044 144.859 244.873 145.264C244.724 145.648 244.649 146.053 244.649 146.48C244.649 147.035 244.799 147.589 245.097 148.144C245.417 148.699 245.865 149.157 246.441 149.52C247.017 149.861 247.7 150.032 248.489 150.032C248.959 150.032 249.385 149.989 249.769 149.904C250.153 149.797 250.484 149.744 250.761 149.744C251.188 149.744 251.508 149.904 251.721 150.224C251.935 150.544 252.041 150.917 252.041 151.344C252.041 151.749 251.945 152.112 251.753 152.432C251.583 152.752 251.327 152.923 250.985 152.944C250.9 152.944 250.612 152.965 250.121 153.008C249.631 153.051 249.012 153.115 248.265 153.2C247.54 153.264 246.761 153.349 245.929 153.456C245.119 153.541 244.329 153.648 243.561 153.776C242.815 153.883 242.164 153.989 241.609 154.096C241.076 154.224 240.735 154.352 240.585 154.48ZM260.408 154C259.619 154 259.075 153.776 258.776 153.328C258.478 152.859 258.328 152.357 258.328 151.824V137.584C258.328 136.816 258.232 136.261 258.04 135.92C257.848 135.579 257.635 135.355 257.4 135.248C257.166 135.141 256.984 135.056 256.856 134.992C256.856 134.821 256.931 134.565 257.08 134.224C257.251 133.883 257.518 133.573 257.88 133.296C258.264 133.019 258.776 132.88 259.416 132.88C260.035 132.88 260.568 133.051 261.016 133.392C261.486 133.712 261.848 134.16 262.104 134.736C262.36 135.312 262.488 135.973 262.488 136.72V151.888C262.488 152.379 262.339 152.859 262.04 153.328C261.742 153.776 261.198 154 260.408 154ZM272.676 154V150.608H275.972V154H272.676ZM268.772 161.328C268.239 161.328 267.791 161.211 267.428 160.976C267.065 160.741 266.788 160.464 266.596 160.144C266.425 159.845 266.34 159.589 266.34 159.376C266.788 159.035 267.172 158.651 267.492 158.224C267.812 157.797 268.057 157.243 268.228 156.56C268.42 155.899 268.516 155.045 268.516 154V140.624C268.516 140.005 268.708 139.525 269.092 139.184C269.497 138.821 269.999 138.64 270.596 138.64C271.215 138.64 271.716 138.821 272.1 139.184C272.484 139.525 272.676 140.005 272.676 140.624V154C272.676 154.939 272.591 155.845 272.42 156.72C272.271 157.595 272.036 158.373 271.716 159.056C271.417 159.76 271.023 160.315 270.532 160.72C270.041 161.125 269.455 161.328 268.772 161.328ZM275.972 154V150.608C276.207 150.608 276.367 150.768 276.452 151.088C276.559 151.387 276.612 151.792 276.612 152.304C276.612 152.816 276.559 153.232 276.452 153.552C276.367 153.851 276.207 154 275.972 154ZM298.829 154V150.608H299.725C299.96 150.608 300.184 150.544 300.397 150.416C300.611 150.288 300.813 150.107 301.005 149.872C301.197 149.616 301.357 149.296 301.485 148.912C301.635 148.507 301.741 148.037 301.805 147.504C301.891 146.949 301.933 146.331 301.933 145.648C301.933 144.603 301.837 143.771 301.645 143.152C301.475 142.533 301.229 142.032 300.909 141.648C300.589 141.264 300.205 140.912 299.757 140.592C299.757 140.357 299.843 140.091 300.013 139.792C300.205 139.493 300.483 139.227 300.845 138.992C301.229 138.757 301.688 138.64 302.221 138.64C302.883 138.64 303.459 138.832 303.949 139.216C304.44 139.6 304.835 140.123 305.133 140.784C305.453 141.424 305.688 142.171 305.837 143.024C306.008 143.856 306.093 144.741 306.093 145.68C306.093 148.261 305.539 150.299 304.429 151.792C303.32 153.264 301.752 154 299.725 154H298.829ZM287.181 154C285.965 154 284.888 153.733 283.949 153.2C283.011 152.667 282.264 151.931 281.709 150.992C281.176 150.053 280.909 148.997 280.909 147.824H285.069C285.069 148.251 285.144 148.688 285.293 149.136C285.443 149.563 285.677 149.915 285.997 150.192C286.317 150.469 286.712 150.608 287.181 150.608H287.885V154H287.181ZM277.581 154V150.608H278.797C279.288 150.608 279.683 150.469 279.981 150.192C280.301 149.915 280.536 149.563 280.685 149.136C280.835 148.688 280.909 148.251 280.909 147.824V142.512C280.909 142.021 281.059 141.552 281.357 141.104C281.656 140.635 282.2 140.4 282.989 140.4C283.779 140.4 284.323 140.635 284.621 141.104C284.92 141.552 285.069 142.021 285.069 142.512V147.824C285.069 148.997 284.792 150.053 284.237 150.992C283.704 151.931 282.968 152.667 282.029 153.2C281.091 153.733 280.013 154 278.797 154H277.581ZM297.485 154C296.291 154 295.213 153.733 294.253 153.2C293.315 152.667 292.568 151.931 292.013 150.992C291.48 150.053 291.213 148.997 291.213 147.824H295.373C295.373 148.251 295.448 148.688 295.597 149.136C295.747 149.563 295.981 149.915 296.301 150.192C296.621 150.469 297.016 150.608 297.485 150.608H298.829V154H297.485ZM287.885 154V150.608H289.101C289.592 150.608 289.987 150.469 290.285 150.192C290.605 149.915 290.84 149.563 290.989 149.136C291.139 148.688 291.213 148.251 291.213 147.824V141.744C291.213 141.253 291.363 140.784 291.661 140.336C291.96 139.867 292.504 139.632 293.293 139.632C294.083 139.632 294.627 139.867 294.925 140.336C295.224 140.784 295.373 141.253 295.373 141.744V147.824C295.373 148.997 295.096 150.053 294.541 150.992C294.008 151.931 293.272 152.667 292.333 153.2C291.395 153.733 290.317 154 289.101 154H287.885ZM277.581 154C277.368 154 277.208 153.851 277.101 153.552C276.995 153.232 276.941 152.816 276.941 152.304C276.941 151.792 276.995 151.387 277.101 151.088C277.208 150.768 277.368 150.608 277.581 150.608V154ZM312.911 154C312.548 154 312.196 153.861 311.855 153.584C311.535 153.307 311.375 152.88 311.375 152.304C311.375 151.728 311.535 151.301 311.855 151.024C312.196 150.747 312.57 150.608 312.975 150.608H323.215C323.706 150.608 324.1 150.469 324.399 150.192C324.719 149.915 324.954 149.563 325.103 149.136C325.252 148.688 325.327 148.251 325.327 147.824V137.584C325.327 136.816 325.231 136.261 325.039 135.92C324.847 135.579 324.634 135.355 324.399 135.248C324.164 135.141 323.983 135.056 323.855 134.992C323.855 134.8 323.93 134.544 324.079 134.224C324.25 133.883 324.516 133.573 324.879 133.296C325.263 133.019 325.764 132.88 326.383 132.88C327.023 132.88 327.567 133.051 328.015 133.392C328.484 133.712 328.847 134.16 329.103 134.736C329.359 135.312 329.487 135.973 329.487 136.72V147.824C329.487 148.997 329.21 150.053 328.655 150.992C328.122 151.931 327.386 152.667 326.447 153.2C325.508 153.733 324.431 154 323.215 154H312.911ZM316.495 150.608V142.096C316.495 141.328 316.399 140.773 316.207 140.432C316.015 140.091 315.802 139.867 315.567 139.76C315.332 139.653 315.151 139.568 315.023 139.504C315.023 139.312 315.098 139.056 315.247 138.736C315.418 138.395 315.684 138.085 316.047 137.808C316.431 137.531 316.932 137.392 317.551 137.392C318.191 137.392 318.735 137.563 319.183 137.904C319.652 138.224 320.015 138.672 320.271 139.248C320.527 139.824 320.655 140.485 320.655 141.232V150.608H316.495ZM338.308 154C337.519 154 336.975 153.776 336.676 153.328C336.378 152.859 336.228 152.357 336.228 151.824V137.584C336.228 136.816 336.132 136.261 335.94 135.92C335.748 135.579 335.535 135.355 335.3 135.248C335.066 135.141 334.884 135.056 334.756 134.992C334.756 134.821 334.831 134.565 334.98 134.224C335.151 133.883 335.418 133.573 335.78 133.296C336.164 133.019 336.676 132.88 337.316 132.88C337.935 132.88 338.468 133.051 338.916 133.392C339.386 133.712 339.748 134.16 340.004 134.736C340.26 135.312 340.388 135.973 340.388 136.72V151.888C340.388 152.379 340.239 152.859 339.94 153.328C339.642 153.776 339.098 154 338.308 154Z" fill="#4F4F4F"/>
<path d="M310.18 109C309.626 109 309.13 108.872 308.692 108.616C308.266 108.349 307.93 107.992 307.684 107.544C307.439 107.085 307.316 106.568 307.316 105.992H308.756C308.756 106.291 308.804 106.584 308.9 106.872C309.007 107.16 309.167 107.4 309.38 107.592C309.594 107.784 309.86 107.88 310.18 107.88H310.58V109H310.18ZM302.132 109C301.13 109 300.346 108.659 299.78 107.976C299.215 107.283 298.932 106.323 298.932 105.096C298.932 104.723 298.964 104.317 299.028 103.88C299.092 103.443 299.199 103.032 299.348 102.648C299.498 102.253 299.695 101.933 299.94 101.688C300.196 101.443 300.511 101.32 300.884 101.32C301.023 101.32 301.146 101.336 301.252 101.368C301.359 101.4 301.45 101.443 301.524 101.496C301.61 101.539 301.679 101.587 301.732 101.64C301.316 101.992 301.012 102.381 300.82 102.808C300.628 103.235 300.506 103.645 300.452 104.04C300.399 104.435 300.372 104.776 300.372 105.064C300.372 105.16 300.378 105.32 300.388 105.544C300.399 105.757 300.431 105.997 300.484 106.264C300.548 106.531 300.639 106.787 300.756 107.032C300.884 107.277 301.06 107.48 301.284 107.64C301.508 107.8 301.791 107.88 302.132 107.88H305.892C306.223 107.88 306.49 107.784 306.692 107.592C306.906 107.4 307.06 107.16 307.156 106.872C307.263 106.584 307.316 106.291 307.316 105.992V102.872C307.316 102.605 307.386 102.424 307.524 102.328C307.663 102.221 307.834 102.168 308.036 102.168C308.239 102.168 308.41 102.221 308.548 102.328C308.687 102.424 308.756 102.605 308.756 102.872V105.992C308.756 106.568 308.634 107.085 308.388 107.544C308.143 107.992 307.807 108.349 307.38 108.616C306.954 108.872 306.458 109 305.892 109H302.132ZM310.58 109V107.88C310.708 107.88 310.794 107.928 310.836 108.024C310.879 108.12 310.9 108.259 310.9 108.44C310.9 108.611 310.879 108.749 310.836 108.856C310.794 108.952 310.708 109 310.58 109ZM305.028 101C304.783 101 304.57 100.909 304.388 100.728C304.207 100.547 304.116 100.333 304.116 100.088C304.116 99.832 304.207 99.6133 304.388 99.432C304.57 99.2507 304.783 99.16 305.028 99.16C305.284 99.16 305.498 99.2507 305.668 99.432C305.85 99.6133 305.94 99.832 305.94 100.088C305.94 100.333 305.85 100.547 305.668 100.728C305.498 100.909 305.284 101 305.028 101ZM302.692 101C302.447 101 302.234 100.909 302.052 100.728C301.871 100.547 301.78 100.333 301.78 100.088C301.78 99.832 301.871 99.6133 302.052 99.432C302.234 99.2507 302.447 99.16 302.692 99.16C302.948 99.16 303.162 99.2507 303.332 99.432C303.514 99.6133 303.604 99.832 303.604 100.088C303.604 100.333 303.514 100.547 303.332 100.728C303.162 100.909 302.948 101 302.692 101ZM311.38 109V107.88H311.78C312.111 107.88 312.377 107.784 312.58 107.592C312.793 107.4 312.948 107.16 313.044 106.872C313.151 106.584 313.204 106.291 313.204 105.992V102.024C313.204 101.757 313.273 101.576 313.412 101.48C313.551 101.373 313.721 101.32 313.924 101.32C314.127 101.32 314.297 101.373 314.436 101.48C314.575 101.576 314.644 101.757 314.644 102.024V105.992C314.644 106.568 314.521 107.085 314.276 107.544C314.031 107.992 313.695 108.349 313.268 108.616C312.841 108.872 312.345 109 311.78 109H311.38ZM316.068 109C315.513 109 315.017 108.872 314.58 108.616C314.153 108.349 313.817 107.992 313.572 107.544C313.327 107.085 313.204 106.568 313.204 105.992H314.644C314.644 106.291 314.692 106.584 314.788 106.872C314.895 107.16 315.055 107.4 315.268 107.592C315.481 107.784 315.748 107.88 316.068 107.88H316.644V109H316.068ZM316.644 109V107.88C316.772 107.88 316.857 107.928 316.9 108.024C316.943 108.12 316.964 108.259 316.964 108.44C316.964 108.611 316.943 108.749 316.9 108.856C316.857 108.952 316.772 109 316.644 109ZM311.38 109C311.252 109 311.167 108.952 311.124 108.856C311.081 108.749 311.06 108.611 311.06 108.44C311.06 108.259 311.081 108.12 311.124 108.024C311.167 107.928 311.252 107.88 311.38 107.88V109ZM313.94 112.12C313.673 112.12 313.449 112.029 313.268 111.848C313.087 111.667 312.996 111.453 312.996 111.208C312.996 110.952 313.087 110.733 313.268 110.552C313.449 110.371 313.673 110.28 313.94 110.28C314.185 110.28 314.399 110.371 314.58 110.552C314.761 110.733 314.852 110.952 314.852 111.208C314.852 111.453 314.761 111.667 314.58 111.848C314.399 112.029 314.185 112.12 313.94 112.12ZM317.446 109V107.88H318.022C318.352 107.88 318.619 107.784 318.822 107.592C319.035 107.4 319.19 107.16 319.286 106.872C319.392 106.584 319.446 106.291 319.446 105.992V102.904C319.446 102.637 319.515 102.456 319.654 102.36C319.792 102.253 319.963 102.2 320.166 102.2C320.368 102.2 320.539 102.253 320.678 102.36C320.816 102.456 320.886 102.637 320.886 102.904V105.992C320.886 106.568 320.763 107.085 320.518 107.544C320.272 107.992 319.936 108.349 319.51 108.616C319.083 108.872 318.587 109 318.022 109H317.446ZM322.31 109C321.755 109 321.259 108.872 320.822 108.616C320.395 108.349 320.059 107.992 319.814 107.544C319.568 107.085 319.446 106.568 319.446 105.992H320.886C320.886 106.291 320.934 106.584 321.03 106.872C321.136 107.16 321.296 107.4 321.51 107.592C321.723 107.784 321.99 107.88 322.31 107.88H322.534V109H322.31ZM327.462 109V107.88H327.558C327.888 107.88 328.155 107.784 328.358 107.592C328.571 107.4 328.726 107.16 328.822 106.872C328.928 106.584 328.982 106.291 328.982 105.992V102.024C328.982 101.757 329.051 101.576 329.19 101.48C329.328 101.373 329.499 101.32 329.702 101.32C329.904 101.32 330.075 101.373 330.214 101.48C330.352 101.576 330.422 101.757 330.422 102.024V105.992C330.422 106.568 330.299 107.085 330.054 107.544C329.808 107.992 329.472 108.349 329.046 108.616C328.619 108.872 328.123 109 327.558 109H327.462ZM327.078 109C326.523 109 326.027 108.872 325.59 108.616C325.163 108.349 324.827 107.992 324.582 107.544C324.336 107.085 324.214 106.568 324.214 105.992H325.654C325.654 106.291 325.702 106.584 325.798 106.872C325.904 107.16 326.064 107.4 326.278 107.592C326.491 107.784 326.758 107.88 327.078 107.88H327.462V109H327.078ZM322.534 109V107.88H322.79C323.12 107.88 323.387 107.784 323.59 107.592C323.803 107.4 323.958 107.16 324.054 106.872C324.16 106.584 324.214 106.291 324.214 105.992V102.52C324.214 102.253 324.283 102.072 324.422 101.976C324.56 101.869 324.731 101.816 324.934 101.816C325.136 101.816 325.307 101.869 325.446 101.976C325.584 102.072 325.654 102.253 325.654 102.52V105.992C325.654 106.568 325.531 107.085 325.286 107.544C325.04 107.992 324.704 108.349 324.278 108.616C323.851 108.872 323.355 109 322.79 109H322.534ZM331.846 109C331.291 109 330.795 108.872 330.358 108.616C329.931 108.349 329.595 107.992 329.35 107.544C329.104 107.085 328.982 106.568 328.982 105.992H330.422C330.422 106.291 330.47 106.584 330.566 106.872C330.672 107.16 330.832 107.4 331.046 107.592C331.259 107.784 331.526 107.88 331.846 107.88H332.422V109H331.846ZM332.422 109V107.88C332.55 107.88 332.635 107.928 332.678 108.024C332.72 108.12 332.742 108.259 332.742 108.44C332.742 108.611 332.72 108.749 332.678 108.856C332.635 108.952 332.55 109 332.422 109ZM317.446 109C317.318 109 317.232 108.952 317.19 108.856C317.147 108.749 317.126 108.611 317.126 108.44C317.126 108.259 317.147 108.12 317.19 108.024C317.232 107.928 317.318 107.88 317.446 107.88V109ZM333.214 109V107.88H333.614C333.945 107.88 334.212 107.784 334.414 107.592C334.628 107.4 334.782 107.16 334.878 106.872C334.985 106.584 335.038 106.291 335.038 105.992V100.808C335.038 100.477 334.99 100.179 334.894 99.912C334.809 99.6453 334.697 99.4213 334.558 99.24C334.42 99.0587 334.286 98.9253 334.158 98.84C334.201 98.7867 334.27 98.728 334.366 98.664C334.473 98.6 334.596 98.5467 334.734 98.504C334.884 98.4613 335.038 98.44 335.198 98.44C335.401 98.44 335.598 98.4933 335.79 98.6C335.993 98.696 336.158 98.872 336.286 99.128C336.414 99.384 336.478 99.7467 336.478 100.216V105.992C336.478 106.568 336.356 107.085 336.11 107.544C335.865 107.992 335.529 108.349 335.102 108.616C334.676 108.872 334.18 109 333.614 109H333.214ZM333.214 109C333.086 109 333.001 108.952 332.958 108.856C332.916 108.749 332.894 108.611 332.894 108.44C332.894 108.259 332.916 108.12 332.958 108.024C333.001 107.928 333.086 107.88 333.214 107.88V109ZM340.695 109C340.354 109 340.151 108.899 340.087 108.696C340.023 108.493 339.991 108.253 339.991 107.976V100.808C339.991 100.477 339.943 100.179 339.847 99.912C339.762 99.6453 339.65 99.4213 339.511 99.24C339.373 99.0587 339.239 98.9253 339.111 98.84C339.154 98.7867 339.223 98.728 339.319 98.664C339.426 98.6 339.554 98.5467 339.703 98.504C339.853 98.4613 340.007 98.44 340.167 98.44C340.37 98.44 340.567 98.4933 340.759 98.6C340.951 98.696 341.111 98.872 341.239 99.128C341.367 99.384 341.431 99.7467 341.431 100.216V107.976C341.431 108.253 341.394 108.493 341.319 108.696C341.245 108.899 341.037 109 340.695 109Z" fill="#4F4F4F"/>
<path d="M97.1004 256V221.312L91.5324 224.896L89.9964 222.912L99.8524 213.76H105.42V256H97.1004ZM128.668 257.28C125.767 257.28 123.1 256.896 120.668 256.128C118.236 255.403 116.295 254.229 114.844 252.608C113.393 250.987 112.668 248.875 112.668 246.272C112.668 244.224 113.159 242.475 114.14 241.024C115.164 239.573 116.487 238.336 118.108 237.312C119.772 236.245 121.521 235.328 123.356 234.56C121.692 233.621 120.177 232.661 118.812 231.68C117.447 230.656 116.337 229.504 115.484 228.224C114.673 226.901 114.268 225.323 114.268 223.488C114.268 220.672 114.908 218.475 116.188 216.896C117.511 215.275 119.26 214.144 121.436 213.504C123.655 212.821 126.065 212.48 128.668 212.48C131.313 212.48 133.724 212.8 135.9 213.44C138.076 214.08 139.804 215.147 141.084 216.64C142.407 218.133 143.068 220.203 143.068 222.848C143.068 224.469 142.684 225.941 141.916 227.264C141.148 228.544 140.103 229.675 138.78 230.656C137.5 231.595 136.049 232.405 134.428 233.088C136.22 234.027 137.884 235.072 139.42 236.224C140.999 237.333 142.257 238.656 143.196 240.192C144.177 241.685 144.668 243.499 144.668 245.632C144.668 248.448 143.943 250.709 142.492 252.416C141.084 254.123 139.164 255.36 136.732 256.128C134.343 256.896 131.655 257.28 128.668 257.28ZM128.668 254.4C130.119 254.4 131.399 254.123 132.508 253.568C133.617 253.013 134.471 252.181 135.068 251.072C135.708 249.92 136.028 248.533 136.028 246.912C136.028 245.163 135.601 243.648 134.748 242.368C133.895 241.045 132.764 239.893 131.356 238.912C129.948 237.888 128.412 236.949 126.748 236.096C125.681 236.651 124.721 237.355 123.868 238.208C123.057 239.061 122.417 240.128 121.948 241.408C121.521 242.688 121.308 244.309 121.308 246.272C121.308 248.149 121.607 249.685 122.204 250.88C122.844 252.075 123.719 252.971 124.828 253.568C125.937 254.123 127.217 254.4 128.668 254.4ZM131.1 231.424C132.209 230.571 133.041 229.525 133.596 228.288C134.151 227.008 134.428 225.195 134.428 222.848C134.428 220.885 134.108 219.371 133.468 218.304C132.871 217.195 132.124 216.427 131.228 216C130.332 215.573 129.479 215.36 128.668 215.36C127.857 215.36 127.004 215.573 126.108 216C125.212 216.384 124.444 217.067 123.804 218.048C123.207 219.029 122.908 220.416 122.908 222.208C122.908 223.531 123.271 224.768 123.996 225.92C124.764 227.029 125.767 228.053 127.004 228.992C128.284 229.931 129.649 230.741 131.1 231.424Z" fill="#4F4F4F"/>
<path d="M277.624 258V253.84C278.691 252.773 280.056 251.472 281.72 249.936C283.384 248.357 285.112 246.651 286.904 244.816C288.739 242.939 290.445 240.997 292.024 238.992C293.603 236.944 294.883 234.896 295.864 232.848C296.888 230.8 297.4 228.795 297.4 226.832C297.4 224.613 297.059 222.821 296.376 221.456C295.693 220.048 294.819 219.024 293.752 218.384C292.685 217.701 291.555 217.36 290.36 217.36C287.672 217.36 285.411 218.256 283.576 220.048C281.741 221.84 280.504 224.677 279.864 228.56H277.624C277.624 226.939 277.688 225.296 277.816 223.632C277.944 221.925 278.392 220.581 279.16 219.6C280.312 218.192 281.997 216.997 284.216 216.016C286.477 214.992 288.952 214.48 291.64 214.48C293.133 214.48 294.712 214.651 296.376 214.992C298.083 215.291 299.683 215.867 301.176 216.72C302.712 217.573 303.949 218.811 304.888 220.432C305.869 222.053 306.36 224.187 306.36 226.832C306.36 228.837 305.891 230.821 304.952 232.784C304.013 234.747 302.776 236.667 301.24 238.544C299.747 240.421 298.104 242.213 296.312 243.92C294.52 245.627 292.749 247.205 291 248.656C289.251 250.064 287.672 251.323 286.264 252.432C284.899 253.541 283.875 254.437 283.192 255.12H296.44C299 255.12 300.963 254.523 302.328 253.328C303.736 252.091 304.44 250.341 304.44 248.08H306.36V252.88C306.36 253.733 306.211 254.565 305.912 255.376C305.613 256.144 305.08 256.784 304.312 257.296C303.544 257.765 302.413 258 300.92 258H277.624ZM315.644 258L331.644 218.64H320.764C318.204 218.64 316.22 219.259 314.812 220.496C313.447 221.691 312.764 223.419 312.764 225.68H310.844V220.88C310.844 220.027 310.993 219.216 311.292 218.448C311.591 217.637 312.124 216.997 312.892 216.528C313.703 216.016 314.833 215.76 316.284 215.76H339.388V218.64L323.388 258H315.644Z" fill="#4F4F4F"/>
<path d="M70.2013 276V275.3C70.7893 274.731 71.3213 274.217 71.7973 273.76C72.2827 273.303 72.7073 272.883 73.0713 272.5C73.4353 272.117 73.7433 271.749 73.9953 271.394C74.2473 271.039 74.434 270.68 74.5553 270.316C74.686 269.952 74.7513 269.56 74.7513 269.14C74.7513 268.673 74.6673 268.286 74.4993 267.978C74.3313 267.661 74.1073 267.427 73.8273 267.278C73.5567 267.119 73.258 267.04 72.9313 267.04C72.3713 267.04 71.8813 267.245 71.4613 267.656C71.0413 268.057 70.7613 268.645 70.6213 269.42H70.3413C70.3413 269.065 70.3553 268.729 70.3833 268.412C70.4113 268.085 70.5093 267.815 70.6773 267.6C70.9293 267.292 71.298 267.031 71.7833 266.816C72.2687 266.592 72.7913 266.48 73.3513 266.48C73.6313 266.48 73.93 266.517 74.2473 266.592C74.574 266.657 74.882 266.783 75.1713 266.97C75.4607 267.157 75.694 267.427 75.8713 267.782C76.058 268.127 76.1513 268.58 76.1513 269.14C76.1513 269.541 76.086 269.919 75.9553 270.274C75.834 270.619 75.6613 270.955 75.4373 271.282C75.2133 271.609 74.9473 271.935 74.6393 272.262C74.3313 272.579 73.9907 272.906 73.6173 273.242C73.2533 273.569 72.8613 273.914 72.4413 274.278C72.0307 274.642 71.6107 275.029 71.1813 275.44H74.3313C74.8913 275.44 75.3207 275.319 75.6193 275.076C75.9273 274.833 76.0813 274.465 76.0813 273.97H76.3613V274.88C76.3613 275.067 76.3287 275.249 76.2633 275.426C76.198 275.594 76.0813 275.734 75.9133 275.846C75.7453 275.949 75.498 276 75.1713 276H70.2013ZM81.8392 276.28C81.0272 276.28 80.3738 276.079 79.8792 275.678C79.3845 275.267 79.0252 274.693 78.8012 273.956C78.5865 273.219 78.4792 272.36 78.4792 271.38C78.4792 270.391 78.5865 269.532 78.8012 268.804C79.0252 268.067 79.3845 267.497 79.8792 267.096C80.3738 266.685 81.0272 266.48 81.8392 266.48C82.6605 266.48 83.3138 266.685 83.7992 267.096C84.2938 267.497 84.6485 268.067 84.8632 268.804C85.0872 269.532 85.1992 270.391 85.1992 271.38C85.1992 272.36 85.0872 273.219 84.8632 273.956C84.6485 274.693 84.2938 275.267 83.7992 275.678C83.3138 276.079 82.6605 276.28 81.8392 276.28ZM81.8392 275.72C82.6045 275.72 83.1225 275.365 83.3932 274.656C83.6638 273.937 83.7992 272.845 83.7992 271.38C83.7992 269.905 83.6638 268.813 83.3932 268.104C83.1225 267.395 82.6045 267.04 81.8392 267.04C81.0738 267.04 80.5558 267.395 80.2852 268.104C80.0145 268.813 79.8792 269.905 79.8792 271.38C79.8792 272.845 80.0145 273.937 80.2852 274.656C80.5558 275.365 81.0738 275.72 81.8392 275.72ZM87.201 276V275.3C87.789 274.731 88.321 274.217 88.797 273.76C89.2823 273.303 89.707 272.883 90.071 272.5C90.435 272.117 90.743 271.749 90.995 271.394C91.247 271.039 91.4336 270.68 91.555 270.316C91.6856 269.952 91.751 269.56 91.751 269.14C91.751 268.673 91.667 268.286 91.499 267.978C91.331 267.661 91.107 267.427 90.827 267.278C90.5563 267.119 90.2576 267.04 89.931 267.04C89.371 267.04 88.881 267.245 88.461 267.656C88.041 268.057 87.761 268.645 87.621 269.42H87.341C87.341 269.065 87.355 268.729 87.383 268.412C87.411 268.085 87.509 267.815 87.677 267.6C87.929 267.292 88.2976 267.031 88.783 266.816C89.2683 266.592 89.791 266.48 90.351 266.48C90.631 266.48 90.9296 266.517 91.247 266.592C91.5736 266.657 91.8816 266.783 92.171 266.97C92.4603 267.157 92.6936 267.427 92.871 267.782C93.0576 268.127 93.151 268.58 93.151 269.14C93.151 269.541 93.0856 269.919 92.955 270.274C92.8336 270.619 92.661 270.955 92.437 271.282C92.213 271.609 91.947 271.935 91.639 272.262C91.331 272.579 90.9903 272.906 90.617 273.242C90.253 273.569 89.861 273.914 89.441 274.278C89.0303 274.642 88.6103 275.029 88.181 275.44H91.331C91.891 275.44 92.3203 275.319 92.619 275.076C92.927 274.833 93.081 274.465 93.081 273.97H93.361V274.88C93.361 275.067 93.3283 275.249 93.263 275.426C93.1976 275.594 93.081 275.734 92.913 275.846C92.745 275.949 92.4976 276 92.171 276H87.201ZM98.4748 276.28C98.0081 276.28 97.5834 276.219 97.2008 276.098C96.8274 275.977 96.4821 275.804 96.1648 275.58C95.8568 275.356 95.5721 275.09 95.3108 274.782L95.5348 274.53C95.8894 274.922 96.2768 275.221 96.6968 275.426C97.1168 275.622 97.5928 275.72 98.1248 275.72C98.4981 275.72 98.8434 275.641 99.1608 275.482C99.4781 275.314 99.7348 275.062 99.9308 274.726C100.127 274.39 100.225 273.951 100.225 273.41C100.225 272.915 100.131 272.509 99.9448 272.192C99.7581 271.875 99.5248 271.637 99.2448 271.478C98.9648 271.319 98.6848 271.24 98.4048 271.24C98.1248 271.24 97.9008 271.249 97.7328 271.268C97.5648 271.277 97.4061 271.296 97.2568 271.324C97.1168 271.352 96.9394 271.394 96.7248 271.45L96.3608 270.862L100.155 267.32H97.5648C97.0048 267.32 96.5708 267.441 96.2628 267.684C95.9641 267.927 95.8148 268.295 95.8148 268.79H95.5348V267.88C95.5348 267.693 95.5674 267.516 95.6328 267.348C95.6981 267.171 95.8148 267.031 95.9828 266.928C96.1601 266.816 96.4074 266.76 96.7248 266.76H101.177V267.32L97.4248 270.82C97.6674 270.755 97.9148 270.717 98.1668 270.708C98.4281 270.689 98.6008 270.68 98.6848 270.68C98.8901 270.68 99.1561 270.717 99.4828 270.792C99.8094 270.857 100.136 270.988 100.463 271.184C100.789 271.38 101.065 271.655 101.289 272.01C101.513 272.365 101.625 272.831 101.625 273.41C101.625 274.026 101.513 274.525 101.289 274.908C101.065 275.281 100.78 275.571 100.435 275.776C100.099 275.972 99.7534 276.103 99.3988 276.168C99.0441 276.243 98.7361 276.28 98.4748 276.28ZM108.069 278.17L107.929 277.96C108.171 277.801 108.372 277.629 108.531 277.442C108.699 277.255 108.825 277.05 108.909 276.826C109.002 276.602 109.049 276.35 109.049 276.07C109.011 276.098 108.951 276.126 108.867 276.154C108.783 276.191 108.703 276.21 108.629 276.21C108.414 276.21 108.232 276.135 108.083 275.986C107.933 275.837 107.859 275.655 107.859 275.44C107.859 275.197 107.938 274.997 108.097 274.838C108.255 274.679 108.456 274.6 108.699 274.6C108.979 274.6 109.198 274.684 109.357 274.852C109.525 275.02 109.609 275.263 109.609 275.58C109.609 276.177 109.473 276.686 109.203 277.106C108.941 277.535 108.563 277.89 108.069 278.17ZM118.027 276V275.02H119.763V276H118.027ZM116.319 279.206C116.198 279.206 116.09 279.192 115.997 279.164C115.904 279.136 115.82 279.099 115.745 279.052C115.68 279.005 115.624 278.963 115.577 278.926C115.95 278.609 116.216 278.273 116.375 277.918C116.543 277.563 116.65 277.213 116.697 276.868C116.744 276.532 116.767 276.243 116.767 276V269.896C116.767 269.663 116.828 269.504 116.949 269.42C117.07 269.327 117.22 269.28 117.397 269.28C117.574 269.28 117.724 269.327 117.845 269.42C117.966 269.504 118.027 269.663 118.027 269.896V276C118.027 276.327 117.999 276.677 117.943 277.05C117.887 277.423 117.794 277.773 117.663 278.1C117.532 278.427 117.355 278.693 117.131 278.898C116.916 279.103 116.646 279.206 116.319 279.206ZM119.763 276V275.02C119.875 275.02 119.95 275.062 119.987 275.146C120.024 275.23 120.043 275.351 120.043 275.51C120.043 275.659 120.024 275.781 119.987 275.874C119.95 275.958 119.875 276 119.763 276ZM120.468 276V275.02H121.406C121.704 275.02 121.952 274.95 122.148 274.81C122.344 274.67 122.493 274.493 122.596 274.278C122.708 274.063 122.787 273.839 122.834 273.606C122.89 273.373 122.922 273.163 122.932 272.976C122.941 272.78 122.946 272.64 122.946 272.556C122.946 272.304 122.922 272.005 122.876 271.66C122.829 271.315 122.722 270.955 122.554 270.582C122.395 270.209 122.129 269.868 121.756 269.56C121.802 269.513 121.858 269.471 121.924 269.434C121.998 269.387 122.082 269.35 122.176 269.322C122.269 269.294 122.376 269.28 122.498 269.28C122.824 269.28 123.095 269.387 123.31 269.602C123.534 269.817 123.711 270.097 123.842 270.442C123.972 270.778 124.066 271.137 124.122 271.52C124.178 271.903 124.206 272.257 124.206 272.584C124.206 273.657 123.958 274.497 123.464 275.104C122.969 275.701 122.283 276 121.406 276H120.468ZM120.468 276C120.356 276 120.281 275.958 120.244 275.874C120.206 275.781 120.188 275.659 120.188 275.51C120.188 275.351 120.206 275.23 120.244 275.146C120.281 275.062 120.356 275.02 120.468 275.02V276ZM123.548 278.73C123.333 278.73 123.146 278.651 122.988 278.492C122.829 278.333 122.75 278.147 122.75 277.932C122.75 277.708 122.829 277.517 122.988 277.358C123.146 277.199 123.333 277.12 123.548 277.12C123.772 277.12 123.958 277.199 124.108 277.358C124.266 277.517 124.346 277.708 124.346 277.932C124.346 278.147 124.266 278.333 124.108 278.492C123.958 278.651 123.772 278.73 123.548 278.73ZM121.504 278.73C121.289 278.73 121.102 278.651 120.944 278.492C120.785 278.333 120.706 278.147 120.706 277.932C120.706 277.708 120.785 277.517 120.944 277.358C121.102 277.199 121.289 277.12 121.504 277.12C121.728 277.12 121.914 277.199 122.064 277.358C122.222 277.517 122.302 277.708 122.302 277.932C122.302 278.147 122.222 278.333 122.064 278.492C121.914 278.651 121.728 278.73 121.504 278.73ZM127.902 276C127.603 276 127.426 275.911 127.37 275.734C127.314 275.557 127.286 275.347 127.286 275.104V268.832C127.286 268.543 127.244 268.281 127.16 268.048C127.085 267.815 126.987 267.619 126.866 267.46C126.745 267.301 126.628 267.185 126.516 267.11C126.553 267.063 126.614 267.012 126.698 266.956C126.791 266.9 126.903 266.853 127.034 266.816C127.165 266.779 127.3 266.76 127.44 266.76C127.617 266.76 127.79 266.807 127.958 266.9C128.126 266.984 128.266 267.138 128.378 267.362C128.49 267.586 128.546 267.903 128.546 268.314V275.104C128.546 275.347 128.513 275.557 128.448 275.734C128.383 275.911 128.201 276 127.902 276ZM132.678 276V275.02H134.414V276H132.678ZM130.97 279.206C130.848 279.206 130.741 279.192 130.648 279.164C130.554 279.136 130.47 279.099 130.396 279.052C130.33 279.005 130.274 278.963 130.228 278.926C130.601 278.609 130.867 278.273 131.026 277.918C131.194 277.563 131.301 277.213 131.348 276.868C131.394 276.532 131.418 276.243 131.418 276V269.896C131.418 269.663 131.478 269.504 131.6 269.42C131.721 269.327 131.87 269.28 132.048 269.28C132.225 269.28 132.374 269.327 132.496 269.42C132.617 269.504 132.678 269.663 132.678 269.896V276C132.678 276.327 132.65 276.677 132.594 277.05C132.538 277.423 132.444 277.773 132.314 278.1C132.183 278.427 132.006 278.693 131.782 278.898C131.567 279.103 131.296 279.206 130.97 279.206ZM134.414 276V275.02C134.526 275.02 134.6 275.062 134.638 275.146C134.675 275.23 134.694 275.351 134.694 275.51C134.694 275.659 134.675 275.781 134.638 275.874C134.6 275.958 134.526 276 134.414 276ZM135.118 276V275.02H135.468C135.758 275.02 135.991 274.936 136.168 274.768C136.355 274.6 136.49 274.39 136.574 274.138C136.668 273.886 136.714 273.629 136.714 273.368V269.896C136.714 269.663 136.775 269.504 136.896 269.42C137.018 269.327 137.167 269.28 137.344 269.28C137.522 269.28 137.671 269.327 137.792 269.42C137.914 269.504 137.974 269.663 137.974 269.896V273.368C137.974 273.872 137.867 274.325 137.652 274.726C137.438 275.118 137.144 275.431 136.77 275.664C136.397 275.888 135.963 276 135.468 276H135.118ZM139.22 276C138.735 276 138.301 275.888 137.918 275.664C137.545 275.431 137.251 275.118 137.036 274.726C136.822 274.325 136.714 273.872 136.714 273.368H137.974C137.974 273.629 138.016 273.886 138.1 274.138C138.194 274.39 138.334 274.6 138.52 274.768C138.707 274.936 138.94 275.02 139.22 275.02H139.724V276H139.22ZM139.724 276V275.02C139.836 275.02 139.911 275.062 139.948 275.146C139.986 275.23 140.004 275.351 140.004 275.51C140.004 275.659 139.986 275.781 139.948 275.874C139.911 275.958 139.836 276 139.724 276ZM135.118 276C135.006 276 134.932 275.958 134.894 275.874C134.857 275.781 134.838 275.659 134.838 275.51C134.838 275.351 134.857 275.23 134.894 275.146C134.932 275.062 135.006 275.02 135.118 275.02V276ZM137.358 278.73C137.125 278.73 136.929 278.651 136.77 278.492C136.612 278.333 136.532 278.147 136.532 277.932C136.532 277.708 136.612 277.517 136.77 277.358C136.929 277.199 137.125 277.12 137.358 277.12C137.573 277.12 137.76 277.199 137.918 277.358C138.077 277.517 138.156 277.708 138.156 277.932C138.156 278.147 138.077 278.333 137.918 278.492C137.76 278.651 137.573 278.73 137.358 278.73ZM140.426 276V275.02H144.388C144.826 275.02 145.176 274.871 145.438 274.572C145.699 274.273 145.83 273.872 145.83 273.368V270.834C145.83 270.657 145.736 270.517 145.55 270.414C145.372 270.311 145.083 270.26 144.682 270.26C144.066 270.26 143.594 270.461 143.268 270.862C142.941 271.254 142.778 271.842 142.778 272.626C142.778 273.401 142.95 273.993 143.296 274.404C143.641 274.815 144.136 275.02 144.78 275.02L144.36 275.986C143.837 275.93 143.361 275.776 142.932 275.524C142.502 275.263 142.157 274.894 141.896 274.418C141.644 273.933 141.518 273.335 141.518 272.626C141.518 271.571 141.802 270.75 142.372 270.162C142.95 269.574 143.72 269.28 144.682 269.28C145.391 269.28 145.97 269.429 146.418 269.728C146.866 270.017 147.09 270.386 147.09 270.834V273.368C147.09 273.872 146.973 274.325 146.74 274.726C146.516 275.118 146.198 275.431 145.788 275.664C145.386 275.888 144.92 276 144.388 276H140.426ZM140.426 276C140.314 276 140.239 275.958 140.202 275.874C140.164 275.781 140.146 275.659 140.146 275.51C140.146 275.351 140.164 275.23 140.202 275.146C140.239 275.062 140.314 275.02 140.426 275.02V276ZM144.738 268.37C144.504 268.37 144.308 268.291 144.15 268.132C143.991 267.973 143.912 267.787 143.912 267.572C143.912 267.348 143.991 267.157 144.15 266.998C144.308 266.839 144.504 266.76 144.738 266.76C144.952 266.76 145.139 266.839 145.298 266.998C145.456 267.157 145.536 267.348 145.536 267.572C145.536 267.787 145.456 267.973 145.298 268.132C145.139 268.291 144.952 268.37 144.738 268.37Z" fill="#828282"/>
<path d="M272.047 283V275.16L270.689 276.042L270.437 275.72L272.607 273.76H273.307V283H272.047ZM279.939 283V280.62H275.459V280.06L280.079 273.76H281.199V280.06H282.459V280.62H281.199V283H279.939ZM276.299 280.06H279.939V275.104L276.299 280.06ZM288.281 283V280.62H283.801V280.06L288.421 273.76H289.541V280.06H290.801V280.62H289.541V283H288.281ZM284.641 280.06H288.281V275.104L284.641 280.06ZM296.624 283V280.62H292.144V280.06L296.764 273.76H297.884V280.06H299.144V280.62H297.884V283H296.624ZM292.984 280.06H296.624V275.104L292.984 280.06ZM305.428 285.17L305.288 284.96C305.531 284.801 305.732 284.629 305.89 284.442C306.058 284.255 306.184 284.05 306.268 283.826C306.362 283.602 306.408 283.35 306.408 283.07C306.371 283.098 306.31 283.126 306.226 283.154C306.142 283.191 306.063 283.21 305.988 283.21C305.774 283.21 305.592 283.135 305.442 282.986C305.293 282.837 305.218 282.655 305.218 282.44C305.218 282.197 305.298 281.997 305.456 281.838C305.615 281.679 305.816 281.6 306.058 281.6C306.338 281.6 306.558 281.684 306.716 281.852C306.884 282.02 306.968 282.263 306.968 282.58C306.968 283.177 306.833 283.686 306.562 284.106C306.301 284.535 305.923 284.89 305.428 285.17ZM323.409 283C322.923 283 322.489 282.888 322.107 282.664C321.733 282.431 321.439 282.118 321.225 281.726C321.01 281.325 320.903 280.872 320.903 280.368H322.163C322.163 280.629 322.205 280.886 322.289 281.138C322.382 281.39 322.522 281.6 322.709 281.768C322.895 281.936 323.129 282.02 323.409 282.02H323.759V283H323.409ZM316.367 283C315.489 283 314.803 282.701 314.309 282.104C313.814 281.497 313.567 280.657 313.567 279.584C313.567 279.257 313.595 278.903 313.651 278.52C313.707 278.137 313.8 277.778 313.931 277.442C314.061 277.097 314.234 276.817 314.449 276.602C314.673 276.387 314.948 276.28 315.275 276.28C315.396 276.28 315.503 276.294 315.597 276.322C315.69 276.35 315.769 276.387 315.835 276.434C315.909 276.471 315.97 276.513 316.017 276.56C315.653 276.868 315.387 277.209 315.219 277.582C315.051 277.955 314.943 278.315 314.897 278.66C314.85 279.005 314.827 279.304 314.827 279.556C314.827 279.64 314.831 279.78 314.841 279.976C314.85 280.163 314.878 280.373 314.925 280.606C314.981 280.839 315.06 281.063 315.163 281.278C315.275 281.493 315.429 281.67 315.625 281.81C315.821 281.95 316.068 282.02 316.367 282.02H319.657C319.946 282.02 320.179 281.936 320.357 281.768C320.543 281.6 320.679 281.39 320.763 281.138C320.856 280.886 320.903 280.629 320.903 280.368V277.638C320.903 277.405 320.963 277.246 321.085 277.162C321.206 277.069 321.355 277.022 321.533 277.022C321.71 277.022 321.859 277.069 321.981 277.162C322.102 277.246 322.163 277.405 322.163 277.638V280.368C322.163 280.872 322.055 281.325 321.841 281.726C321.626 282.118 321.332 282.431 320.959 282.664C320.585 282.888 320.151 283 319.657 283H316.367ZM323.759 283V282.02C323.871 282.02 323.945 282.062 323.983 282.146C324.02 282.23 324.039 282.351 324.039 282.51C324.039 282.659 324.02 282.781 323.983 282.874C323.945 282.958 323.871 283 323.759 283ZM317.879 285.73C317.645 285.73 317.449 285.651 317.291 285.492C317.132 285.333 317.053 285.147 317.053 284.932C317.053 284.708 317.132 284.517 317.291 284.358C317.449 284.199 317.645 284.12 317.879 284.12C318.093 284.12 318.28 284.199 318.439 284.358C318.597 284.517 318.677 284.708 318.677 284.932C318.677 285.147 318.597 285.333 318.439 285.492C318.28 285.651 318.093 285.73 317.879 285.73ZM324.458 283V282.02H328.728C329.111 282.02 329.414 281.871 329.638 281.572C329.862 281.264 329.974 280.741 329.974 280.004C329.974 278.977 329.736 278.263 329.26 277.862C328.794 277.461 328.117 277.26 327.23 277.26C327.044 277.26 326.876 277.265 326.726 277.274C326.577 277.283 326.442 277.297 326.32 277.316C326.199 277.325 326.082 277.33 325.97 277.33C325.746 277.33 325.564 277.297 325.424 277.232C325.284 277.167 325.177 277.073 325.102 276.952C325.037 276.821 324.986 276.677 324.948 276.518C324.93 276.415 324.911 276.313 324.892 276.21C324.883 276.098 324.883 276.023 324.892 275.986C324.986 276.051 325.112 276.126 325.27 276.21C325.429 276.294 325.644 276.336 325.914 276.336C326.008 276.336 326.115 276.331 326.236 276.322C326.367 276.313 326.512 276.303 326.67 276.294C326.829 276.285 327.002 276.28 327.188 276.28C327.907 276.28 328.523 276.369 329.036 276.546C329.55 276.714 329.965 276.961 330.282 277.288C330.609 277.615 330.847 278.007 330.996 278.464C331.155 278.921 331.234 279.43 331.234 279.99C331.234 280.737 331.118 281.334 330.884 281.782C330.651 282.221 330.343 282.533 329.96 282.72C329.587 282.907 329.176 283 328.728 283H324.458ZM324.458 283C324.346 283 324.272 282.958 324.234 282.874C324.197 282.781 324.178 282.659 324.178 282.51C324.178 282.351 324.197 282.23 324.234 282.146C324.272 282.062 324.346 282.02 324.458 282.02V283ZM327.426 285.73C327.193 285.73 326.997 285.651 326.838 285.492C326.68 285.333 326.6 285.147 326.6 284.932C326.6 284.708 326.68 284.517 326.838 284.358C326.997 284.199 327.193 284.12 327.426 284.12C327.641 284.12 327.828 284.199 327.986 284.358C328.145 284.517 328.224 284.708 328.224 284.932C328.224 285.147 328.145 285.333 327.986 285.492C327.828 285.651 327.641 285.73 327.426 285.73ZM333.659 286.206C333.537 286.206 333.43 286.192 333.337 286.164C333.243 286.136 333.159 286.099 333.085 286.052C333.019 286.005 332.963 285.963 332.917 285.926C333.29 285.609 333.556 285.273 333.715 284.918C333.883 284.563 333.99 284.213 334.037 283.868C334.083 283.532 334.107 283.243 334.107 283V276.896C334.107 276.663 334.167 276.504 334.289 276.42C334.41 276.327 334.559 276.28 334.737 276.28C334.914 276.28 335.063 276.327 335.185 276.42C335.306 276.504 335.367 276.663 335.367 276.896V283C335.367 283.327 335.339 283.677 335.283 284.05C335.227 284.423 335.133 284.773 335.003 285.1C334.872 285.427 334.695 285.693 334.471 285.898C334.256 286.103 333.985 286.206 333.659 286.206Z" fill="#828282"/>
<defs>
<filter id="filter0_d_663_6159" x="30" y="18" width="350" height="373.948" filterUnits="userSpaceOnUse" color-interpolation-filters="sRGB">
<feFlood flood-opacity="0" result="BackgroundImageFix"/>
<feColorMatrix in="SourceAlpha" type="matrix" values="0 0 0 0 0 0 0 0 0 0 0 0 0 0 0 0 0 0 127 0" result="hardAlpha"/>
<feOffset/>
<feGaussianBlur stdDeviation="6.5"/>
<feComposite in2="hardAlpha" operator="out"/>
<feColorMatrix type="matrix" values="0 0 0 0 0.1375 0 0 0 0 0.1375 0 0 0 0 0.1375 0 0 0 0.25 0"/>
<feBlend mode="normal" in2="BackgroundImageFix" result="effect1_dropShadow_663_6159"/>
<feBlend mode="normal" in="SourceGraphic" in2="effect1_dropShadow_663_6159" result="shape"/>
</filter>
<filter id="filter1_f_663_6159" x="0.488281" y="0" width="407.617" height="234.348" filterUnits="userSpaceOnUse" color-interpolation-filters="sRGB">
<feFlood flood-opacity="0" result="BackgroundImageFix"/>
<feBlend mode="normal" in="SourceGraphic" in2="BackgroundImageFix" result="shape"/>
<feGaussianBlur stdDeviation="44.5" result="effect1_foregroundBlur_663_6159"/>
</filter>
</defs>
</svg>
