<svg width="409" height="392" viewBox="0 0 409 392" fill="none" xmlns="http://www.w3.org/2000/svg">
<g filter="url(#filter0_d_668_6243)">
<rect x="43" y="31" width="324" height="347.948" rx="17" fill="#FBFBFB"/>
</g>
<g filter="url(#filter1_f_668_6243)">
<rect x="89.4883" y="89" width="229.617" height="56.3478" rx="28.1739" fill="#EBEBEB"/>
</g>
<path d="M65.54 154C64.3027 154 63.172 153.701 62.148 153.104C61.124 152.485 60.3133 151.6 59.716 150.448C59.1187 149.296 58.82 147.909 58.82 146.288C58.82 143.877 59.492 142 60.836 140.656C62.2013 139.312 64.0253 138.64 66.308 138.64C67.9933 138.64 69.3587 138.981 70.404 139.664C71.4707 140.325 72.004 141.168 72.004 142.192V154H67.844V142.192C67.6947 142.149 67.4813 142.117 67.204 142.096C66.9267 142.053 66.628 142.032 66.308 142.032C65.1987 142.032 64.3667 142.363 63.812 143.024C63.2573 143.685 62.98 144.773 62.98 146.288C62.98 147.653 63.2253 148.72 63.716 149.488C64.228 150.235 64.9747 150.608 65.956 150.608H74.02V154H65.54ZM74.02 154V150.608C74.2547 150.608 74.4147 150.768 74.5 151.088C74.6067 151.387 74.66 151.792 74.66 152.304C74.66 152.816 74.6067 153.232 74.5 153.552C74.4147 153.851 74.2547 154 74.02 154ZM68.068 136.4C67.5133 136.4 67.0227 136.197 66.596 135.792C66.1907 135.387 65.988 134.896 65.988 134.32C65.988 133.744 66.1907 133.253 66.596 132.848C67.0227 132.443 67.5133 132.24 68.068 132.24C68.6653 132.24 69.156 132.443 69.54 132.848C69.9453 133.253 70.148 133.744 70.148 134.32C70.148 134.896 69.9453 135.387 69.54 135.792C69.156 136.197 68.6653 136.4 68.068 136.4ZM62.884 136.4C62.3293 136.4 61.8387 136.197 61.412 135.792C61.0067 135.387 60.804 134.896 60.804 134.32C60.804 133.744 61.0067 133.253 61.412 132.848C61.8387 132.443 62.3293 132.24 62.884 132.24C63.46 132.24 63.9507 132.443 64.356 132.848C64.7613 133.253 64.964 133.744 64.964 134.32C64.964 134.896 64.7613 135.387 64.356 135.792C63.9507 136.197 63.46 136.4 62.884 136.4ZM75.625 154V150.608H78.569C78.8037 150.608 79.0277 150.544 79.241 150.416C79.4543 150.288 79.657 150.107 79.849 149.872C80.041 149.616 80.201 149.296 80.329 148.912C80.4783 148.507 80.585 148.037 80.649 147.504C80.7343 146.949 80.777 146.331 80.777 145.648C80.777 144.603 80.681 143.771 80.489 143.152C80.3183 142.533 80.073 142.032 79.753 141.648C79.433 141.264 79.049 140.912 78.601 140.592C78.601 140.357 78.6863 140.091 78.857 139.792C79.049 139.493 79.3263 139.227 79.689 138.992C80.073 138.757 80.5317 138.64 81.065 138.64C81.7263 138.64 82.3023 138.832 82.793 139.216C83.2837 139.6 83.6783 140.123 83.977 140.784C84.297 141.424 84.5317 142.171 84.681 143.024C84.8517 143.856 84.937 144.741 84.937 145.68C84.937 148.261 84.3823 150.299 83.273 151.792C82.1637 153.264 80.5957 154 78.569 154H75.625ZM75.625 154C75.4117 154 75.2517 153.851 75.145 153.552C75.0383 153.232 74.985 152.816 74.985 152.304C74.985 151.792 75.0383 151.387 75.145 151.088C75.2517 150.768 75.4117 150.608 75.625 150.608V154ZM83.657 160.88C83.1023 160.88 82.6117 160.677 82.185 160.272C81.7797 159.867 81.577 159.376 81.577 158.8C81.577 158.224 81.7797 157.733 82.185 157.328C82.6117 156.923 83.1023 156.72 83.657 156.72C84.2543 156.72 84.745 156.923 85.129 157.328C85.5343 157.733 85.737 158.224 85.737 158.8C85.737 159.376 85.5343 159.867 85.129 160.272C84.745 160.677 84.2543 160.88 83.657 160.88ZM78.473 160.88C77.9183 160.88 77.4277 160.677 77.001 160.272C76.5957 159.867 76.393 159.376 76.393 158.8C76.393 158.224 76.5957 157.733 77.001 157.328C77.4277 156.923 77.9183 156.72 78.473 156.72C79.049 156.72 79.5397 156.923 79.945 157.328C80.3503 157.733 80.553 158.224 80.553 158.8C80.553 159.376 80.3503 159.867 79.945 160.272C79.5397 160.677 79.049 160.88 78.473 160.88ZM95.6072 154V150.608H98.9032V154H95.6072ZM91.7032 161.328C91.1699 161.328 90.7219 161.211 90.3592 160.976C89.9966 160.741 89.7192 160.464 89.5272 160.144C89.3566 159.845 89.2712 159.589 89.2712 159.376C89.7192 159.035 90.1032 158.651 90.4232 158.224C90.7432 157.797 90.9886 157.243 91.1592 156.56C91.3512 155.899 91.4472 155.045 91.4472 154V140.624C91.4472 140.005 91.6392 139.525 92.0232 139.184C92.4286 138.821 92.9299 138.64 93.5272 138.64C94.1459 138.64 94.6472 138.821 95.0312 139.184C95.4152 139.525 95.6072 140.005 95.6072 140.624V154C95.6072 154.939 95.5219 155.845 95.3512 156.72C95.2019 157.595 94.9672 158.373 94.6472 159.056C94.3486 159.76 93.9539 160.315 93.4632 160.72C92.9726 161.125 92.3859 161.328 91.7032 161.328ZM98.9032 154V150.608C99.1379 150.608 99.2979 150.768 99.3832 151.088C99.4899 151.387 99.5432 151.792 99.5432 152.304C99.5432 152.816 99.4899 153.232 99.3832 153.552C99.2979 153.851 99.1379 154 98.9032 154ZM118.976 154C117.782 154 116.704 153.733 115.744 153.2C114.806 152.667 114.059 151.931 113.504 150.992C112.971 150.053 112.704 148.997 112.704 147.824V147.312H116.864V147.824C116.864 148.251 116.939 148.688 117.088 149.136C117.238 149.563 117.472 149.915 117.792 150.192C118.112 150.469 118.507 150.608 118.976 150.608H120.608V154H118.976ZM100.512 154V150.608H110.592C111.275 150.608 111.798 150.363 112.16 149.872C112.523 149.381 112.704 148.539 112.704 147.344C112.704 145.573 112.278 144.251 111.424 143.376C110.571 142.48 109.28 142.032 107.552 142.032C107.296 142.032 106.966 142.032 106.56 142.032C106.155 142.032 105.75 142.043 105.344 142.064C104.939 142.064 104.598 142.064 104.32 142.064C103.616 142.064 103.04 141.904 102.592 141.584C102.144 141.243 101.803 140.805 101.568 140.272C101.355 139.739 101.248 139.195 101.248 138.64C101.248 138.192 101.334 137.883 101.504 137.712C101.696 137.52 101.878 137.435 102.048 137.456C102.155 137.797 102.422 138.096 102.848 138.352C103.275 138.587 103.915 138.704 104.768 138.704C104.982 138.704 105.28 138.704 105.664 138.704C106.048 138.683 106.422 138.672 106.784 138.672C107.168 138.651 107.424 138.64 107.552 138.64C109.216 138.64 110.635 138.885 111.808 139.376C112.982 139.845 113.942 140.496 114.688 141.328C115.435 142.16 115.979 143.099 116.32 144.144C116.683 145.168 116.864 146.235 116.864 147.344C116.864 148.944 116.555 150.235 115.936 151.216C115.318 152.197 114.528 152.912 113.568 153.36C112.608 153.787 111.616 154 110.592 154H100.512ZM100.512 154C100.299 154 100.139 153.851 100.032 153.552C99.9258 153.232 99.8725 152.816 99.8725 152.304C99.8725 151.792 99.9258 151.387 100.032 151.088C100.139 150.768 100.299 150.608 100.512 150.608V154ZM120.608 154V150.608C120.843 150.608 121.003 150.768 121.088 151.088C121.195 151.387 121.248 151.792 121.248 152.304C121.248 152.816 121.195 153.232 121.088 153.552C121.003 153.851 120.843 154 120.608 154ZM108.128 161.168C107.467 161.168 106.902 160.933 106.432 160.464C105.984 160.016 105.76 159.483 105.76 158.864C105.76 158.224 105.984 157.68 106.432 157.232C106.902 156.784 107.467 156.56 108.128 156.56C108.747 156.56 109.28 156.784 109.728 157.232C110.198 157.68 110.432 158.224 110.432 158.864C110.432 159.483 110.198 160.016 109.728 160.464C109.28 160.933 108.747 161.168 108.128 161.168ZM145.342 154C144.148 154 143.07 153.733 142.11 153.2C141.172 152.667 140.425 151.931 139.87 150.992C139.337 150.053 139.07 148.997 139.07 147.824V146.416L143.23 145.008V147.824C143.23 148.251 143.305 148.688 143.454 149.136C143.604 149.563 143.838 149.915 144.158 150.192C144.478 150.469 144.873 150.608 145.342 150.608H146.974V154H145.342ZM122.206 154V150.608H125.182C127.337 150.608 128.82 150.256 129.63 149.552C130.462 148.827 130.878 147.643 130.878 146C130.878 145.061 130.761 144.464 130.526 144.208C130.313 143.952 129.972 143.824 129.502 143.824C129.033 143.824 128.681 143.952 128.446 144.208C128.233 144.464 128.126 145.061 128.126 146C128.126 147.643 128.532 148.827 129.342 149.552C130.174 150.256 131.668 150.608 133.822 150.608H135.454C136.542 150.608 137.417 150.117 138.078 149.136C138.74 148.133 139.07 146.683 139.07 144.784C139.07 143.333 138.825 142.181 138.334 141.328C137.844 140.475 136.99 139.867 135.774 139.504C134.58 139.12 132.905 138.928 130.75 138.928C130.281 138.928 129.844 138.939 129.438 138.96C129.054 138.96 128.777 138.96 128.606 138.96C127.796 138.96 127.145 138.8 126.654 138.48C126.164 138.139 125.812 137.712 125.598 137.2C125.385 136.688 125.278 136.176 125.278 135.664C125.278 135.131 125.353 134.779 125.502 134.608C125.673 134.437 125.865 134.352 126.078 134.352C126.185 134.693 126.452 134.992 126.878 135.248C127.305 135.483 127.977 135.6 128.894 135.6C129.193 135.6 129.47 135.589 129.726 135.568C129.982 135.547 130.409 135.536 131.006 135.536C135.294 135.536 138.398 136.336 140.318 137.936C142.26 139.515 143.23 141.829 143.23 144.88C143.23 146.907 142.868 148.603 142.142 149.968C141.417 151.312 140.468 152.325 139.294 153.008C138.121 153.669 136.841 154 135.454 154H133.822C132.009 154 130.356 153.744 128.862 153.232C127.369 152.72 126.174 151.899 125.278 150.768C124.404 149.616 123.966 148.123 123.966 146.288C123.966 145.179 124.148 144.187 124.51 143.312C124.894 142.437 125.492 141.744 126.302 141.232C127.113 140.699 128.18 140.432 129.502 140.432C130.825 140.432 131.892 140.699 132.702 141.232C133.513 141.744 134.1 142.437 134.462 143.312C134.846 144.187 135.038 145.179 135.038 146.288C135.038 148.123 134.59 149.616 133.694 150.768C132.82 151.899 131.636 152.72 130.142 153.232C128.649 153.744 126.996 154 125.182 154H122.206ZM122.206 154C121.993 154 121.833 153.851 121.726 153.552C121.62 153.232 121.566 152.816 121.566 152.304C121.566 151.792 121.62 151.387 121.726 151.088C121.833 150.768 121.993 150.608 122.206 150.608V154ZM146.974 154V150.608C147.209 150.608 147.369 150.768 147.454 151.088C147.561 151.387 147.614 151.792 147.614 152.304C147.614 152.816 147.561 153.232 147.454 153.552C147.369 153.851 147.209 154 146.974 154ZM148.587 154V150.608H150.219C150.71 150.608 151.105 150.469 151.403 150.192C151.723 149.915 151.958 149.563 152.107 149.136C152.257 148.688 152.331 148.251 152.331 147.824V137.584C152.331 136.816 152.235 136.261 152.043 135.92C151.851 135.579 151.638 135.355 151.403 135.248C151.169 135.141 150.987 135.056 150.859 134.992C150.859 134.8 150.934 134.544 151.083 134.224C151.254 133.883 151.521 133.573 151.883 133.296C152.267 133.019 152.769 132.88 153.387 132.88C154.027 132.88 154.571 133.051 155.019 133.392C155.489 133.712 155.851 134.16 156.107 134.736C156.363 135.312 156.491 135.973 156.491 136.72V147.824C156.491 148.997 156.214 150.053 155.659 150.992C155.126 151.931 154.39 152.667 153.451 153.2C152.513 153.733 151.435 154 150.219 154H148.587ZM148.587 154C148.374 154 148.214 153.851 148.107 153.552C148.001 153.232 147.947 152.816 147.947 152.304C147.947 151.792 148.001 151.387 148.107 151.088C148.214 150.768 148.374 150.608 148.587 150.608V154ZM165.089 154C164.3 154 163.756 153.776 163.457 153.328C163.159 152.859 163.009 152.357 163.009 151.824V137.584C163.009 136.816 162.913 136.261 162.721 135.92C162.529 135.579 162.316 135.355 162.081 135.248C161.847 135.141 161.665 135.056 161.537 134.992C161.537 134.821 161.612 134.565 161.761 134.224C161.932 133.883 162.199 133.573 162.561 133.296C162.945 133.019 163.457 132.88 164.097 132.88C164.716 132.88 165.249 133.051 165.697 133.392C166.167 133.712 166.529 134.16 166.785 134.736C167.041 135.312 167.169 135.973 167.169 136.72V151.888C167.169 152.379 167.02 152.859 166.721 153.328C166.423 153.776 165.879 154 165.089 154ZM188.621 154C187.384 154 186.253 153.701 185.229 153.104C184.205 152.485 183.395 151.6 182.797 150.448C182.2 149.296 181.901 147.909 181.901 146.288C181.901 143.877 182.573 142 183.917 140.656C185.283 139.312 187.107 138.64 189.389 138.64C191.075 138.64 192.44 138.981 193.485 139.664C194.552 140.325 195.085 141.168 195.085 142.192V154H190.925V142.192C190.776 142.149 190.563 142.117 190.285 142.096C190.008 142.053 189.709 142.032 189.389 142.032C188.28 142.032 187.448 142.363 186.893 143.024C186.339 143.685 186.061 144.773 186.061 146.288C186.061 147.653 186.307 148.72 186.797 149.488C187.309 150.235 188.056 150.608 189.037 150.608H197.101V154H188.621ZM197.101 154V150.608C197.336 150.608 197.496 150.768 197.581 151.088C197.688 151.387 197.741 151.792 197.741 152.304C197.741 152.816 197.688 153.232 197.581 153.552C197.496 153.851 197.336 154 197.101 154ZM191.149 136.4C190.595 136.4 190.104 136.197 189.677 135.792C189.272 135.387 189.069 134.896 189.069 134.32C189.069 133.744 189.272 133.253 189.677 132.848C190.104 132.443 190.595 132.24 191.149 132.24C191.747 132.24 192.237 132.443 192.621 132.848C193.027 133.253 193.229 133.744 193.229 134.32C193.229 134.896 193.027 135.387 192.621 135.792C192.237 136.197 191.747 136.4 191.149 136.4ZM185.965 136.4C185.411 136.4 184.92 136.197 184.493 135.792C184.088 135.387 183.885 134.896 183.885 134.32C183.885 133.744 184.088 133.253 184.493 132.848C184.92 132.443 185.411 132.24 185.965 132.24C186.541 132.24 187.032 132.443 187.437 132.848C187.843 133.253 188.045 133.744 188.045 134.32C188.045 134.896 187.843 135.387 187.437 135.792C187.032 136.197 186.541 136.4 185.965 136.4ZM198.706 154V150.608H200.338C200.829 150.608 201.224 150.469 201.522 150.192C201.842 149.915 202.077 149.563 202.226 149.136C202.376 148.688 202.45 148.251 202.45 147.824V140.752C202.45 140.261 202.6 139.792 202.898 139.344C203.197 138.875 203.741 138.64 204.53 138.64C205.32 138.64 205.864 138.875 206.162 139.344C206.461 139.792 206.61 140.261 206.61 140.752V147.824C206.61 148.997 206.333 150.053 205.778 150.992C205.245 151.931 204.509 152.667 203.57 153.2C202.632 153.733 201.554 154 200.338 154H198.706ZM208.722 154C207.528 154 206.45 153.733 205.49 153.2C204.552 152.667 203.805 151.931 203.25 150.992C202.717 150.053 202.45 148.997 202.45 147.824H206.61C206.61 148.251 206.685 148.688 206.834 149.136C206.984 149.563 207.218 149.915 207.538 150.192C207.858 150.469 208.253 150.608 208.722 150.608H210.354V154H208.722ZM210.354 154V150.608C210.589 150.608 210.749 150.768 210.834 151.088C210.941 151.387 210.994 151.792 210.994 152.304C210.994 152.816 210.941 153.232 210.834 153.552C210.749 153.851 210.589 154 210.354 154ZM198.706 154C198.493 154 198.333 153.851 198.226 153.552C198.12 153.232 198.066 152.816 198.066 152.304C198.066 151.792 198.12 151.387 198.226 151.088C198.333 150.768 198.493 150.608 198.706 150.608V154ZM204.562 136.56C203.901 136.56 203.336 136.336 202.866 135.888C202.418 135.419 202.194 134.875 202.194 134.256C202.194 133.616 202.418 133.072 202.866 132.624C203.336 132.176 203.901 131.952 204.562 131.952C205.181 131.952 205.714 132.176 206.162 132.624C206.632 133.072 206.866 133.616 206.866 134.256C206.866 134.875 206.632 135.419 206.162 135.888C205.714 136.336 205.181 136.56 204.562 136.56ZM211.962 154V150.608H213.594C214.085 150.608 214.48 150.469 214.778 150.192C215.098 149.915 215.333 149.563 215.482 149.136C215.632 148.688 215.706 148.251 215.706 147.824V142.512C215.706 142.021 215.856 141.552 216.154 141.104C216.453 140.635 216.997 140.4 217.786 140.4C218.576 140.4 219.12 140.635 219.418 141.104C219.717 141.552 219.866 142.021 219.866 142.512V147.824C219.866 148.997 219.589 150.053 219.034 150.992C218.501 151.931 217.765 152.667 216.826 153.2C215.888 153.733 214.81 154 213.594 154H211.962ZM221.978 154C220.784 154 219.706 153.733 218.746 153.2C217.808 152.667 217.061 151.931 216.506 150.992C215.973 150.053 215.706 148.997 215.706 147.824H219.866C219.866 148.251 219.941 148.677 220.09 149.104C220.24 149.531 220.474 149.893 220.794 150.192C221.114 150.469 221.509 150.608 221.978 150.608H222.682V154H221.978ZM232.986 154V150.608H234.202C234.693 150.608 235.088 150.469 235.386 150.192C235.706 149.915 235.941 149.563 236.09 149.136C236.24 148.688 236.314 148.251 236.314 147.824V140.752C236.314 140.261 236.464 139.792 236.762 139.344C237.061 138.875 237.605 138.64 238.394 138.64C239.184 138.64 239.728 138.875 240.026 139.344C240.325 139.792 240.474 140.261 240.474 140.752V147.824C240.474 148.997 240.197 150.053 239.642 150.992C239.109 151.931 238.373 152.667 237.434 153.2C236.496 153.733 235.418 154 234.202 154H232.986ZM232.282 154C231.088 154 230.01 153.733 229.05 153.2C228.112 152.667 227.365 151.931 226.81 150.992C226.277 150.053 226.01 148.997 226.01 147.824H230.17C230.17 148.272 230.245 148.709 230.394 149.136C230.544 149.563 230.778 149.915 231.098 150.192C231.418 150.469 231.813 150.608 232.282 150.608H232.986V154H232.282ZM222.682 154V150.608H223.898C224.389 150.608 224.784 150.469 225.082 150.192C225.402 149.915 225.637 149.563 225.786 149.136C225.936 148.688 226.01 148.251 226.01 147.824V141.744C226.01 141.253 226.16 140.784 226.458 140.336C226.757 139.867 227.301 139.632 228.09 139.632C228.88 139.632 229.424 139.867 229.722 140.336C230.021 140.784 230.17 141.253 230.17 141.744V147.824C230.17 148.997 229.893 150.053 229.338 150.992C228.805 151.931 228.069 152.667 227.13 153.2C226.192 153.733 225.114 154 223.898 154H222.682ZM242.586 154C241.392 154 240.314 153.733 239.354 153.2C238.416 152.667 237.669 151.931 237.114 150.992C236.581 150.053 236.314 148.997 236.314 147.824H240.474C240.474 148.251 240.549 148.688 240.698 149.136C240.848 149.563 241.082 149.915 241.402 150.192C241.722 150.469 242.117 150.608 242.586 150.608H244.218V154H242.586ZM244.218 154V150.608C244.453 150.608 244.613 150.768 244.698 151.088C244.805 151.387 244.858 151.792 244.858 152.304C244.858 152.816 244.805 153.232 244.698 153.552C244.613 153.851 244.453 154 244.218 154ZM211.962 154C211.749 154 211.589 153.851 211.482 153.552C211.376 153.232 211.322 152.816 211.322 152.304C211.322 151.792 211.376 151.387 211.482 151.088C211.589 150.768 211.749 150.608 211.962 150.608V154ZM245.812 154V150.608H247.445C247.935 150.608 248.33 150.469 248.629 150.192C248.949 149.915 249.183 149.563 249.333 149.136C249.482 148.688 249.557 148.251 249.557 147.824V137.584C249.557 136.816 249.461 136.261 249.269 135.92C249.077 135.579 248.863 135.355 248.629 135.248C248.394 135.141 248.213 135.056 248.085 134.992C248.085 134.8 248.159 134.544 248.309 134.224C248.479 133.883 248.746 133.573 249.109 133.296C249.493 133.019 249.994 132.88 250.613 132.88C251.253 132.88 251.797 133.051 252.245 133.392C252.714 133.712 253.077 134.16 253.333 134.736C253.589 135.312 253.717 135.973 253.717 136.72V147.824C253.717 148.997 253.439 150.053 252.885 150.992C252.351 151.931 251.615 152.667 250.677 153.2C249.738 153.733 248.661 154 247.445 154H245.812ZM245.812 154C245.599 154 245.439 153.851 245.332 153.552C245.226 153.232 245.172 152.816 245.172 152.304C245.172 151.792 245.226 151.387 245.332 151.088C245.439 150.768 245.599 150.608 245.812 150.608V154ZM262.314 154C261.525 154 260.981 153.776 260.682 153.328C260.384 152.859 260.234 152.357 260.234 151.824V137.584C260.234 136.816 260.138 136.261 259.946 135.92C259.754 135.579 259.541 135.355 259.306 135.248C259.072 135.141 258.89 135.056 258.762 134.992C258.762 134.821 258.837 134.565 258.986 134.224C259.157 133.883 259.424 133.573 259.786 133.296C260.17 133.019 260.682 132.88 261.322 132.88C261.941 132.88 262.474 133.051 262.922 133.392C263.392 133.712 263.754 134.16 264.01 134.736C264.266 135.312 264.394 135.973 264.394 136.72V151.888C264.394 152.379 264.245 152.859 263.946 153.328C263.648 153.776 263.104 154 262.314 154ZM289.11 161.552C287.105 161.552 285.366 161.211 283.894 160.528C282.422 159.867 281.281 158.896 280.47 157.616C279.681 156.357 279.286 154.832 279.286 153.04C279.286 152.272 279.361 151.504 279.51 150.736C279.681 149.968 279.926 149.264 280.246 148.624C280.566 147.984 280.961 147.472 281.43 147.088C281.921 146.704 282.497 146.512 283.158 146.512C283.713 146.512 284.172 146.629 284.534 146.864C284.897 147.099 285.164 147.365 285.334 147.664C285.526 147.963 285.622 148.229 285.622 148.464C285.281 148.72 284.94 149.029 284.598 149.392C284.257 149.755 283.98 150.235 283.766 150.832C283.553 151.408 283.446 152.155 283.446 153.072C283.446 154.779 283.905 156.048 284.822 156.88C285.74 157.733 287.169 158.16 289.11 158.16C290.753 158.16 291.916 157.808 292.598 157.104C293.281 156.4 293.622 155.131 293.622 153.296V142.576C293.622 142.043 293.772 141.552 294.07 141.104C294.369 140.635 294.913 140.4 295.702 140.4C296.492 140.4 297.036 140.635 297.334 141.104C297.633 141.552 297.782 142.043 297.782 142.576V153.296C297.782 155.813 297.1 157.819 295.734 159.312C294.369 160.805 292.161 161.552 289.11 161.552ZM299.894 154C298.7 154 297.622 153.733 296.662 153.2C295.724 152.667 294.977 151.931 294.422 150.992C293.889 150.053 293.622 148.997 293.622 147.824H297.782C297.782 148.251 297.857 148.688 298.006 149.136C298.156 149.563 298.39 149.915 298.71 150.192C299.03 150.469 299.425 150.608 299.894 150.608H300.598V154H299.894ZM310.198 154C309.004 154 307.926 153.733 306.966 153.2C306.028 152.667 305.281 151.931 304.726 150.992C304.193 150.053 303.926 148.997 303.926 147.824H308.086C308.086 148.251 308.161 148.688 308.31 149.136C308.46 149.563 308.694 149.915 309.014 150.192C309.334 150.469 309.729 150.608 310.198 150.608H311.542V154H310.198ZM300.598 154V150.608H301.814C302.305 150.608 302.7 150.469 302.998 150.192C303.318 149.915 303.553 149.563 303.702 149.136C303.852 148.688 303.926 148.251 303.926 147.824V141.744C303.926 141.253 304.076 140.784 304.374 140.336C304.673 139.867 305.217 139.632 306.006 139.632C306.796 139.632 307.34 139.867 307.638 140.336C307.937 140.784 308.086 141.253 308.086 141.744V147.824C308.086 148.997 307.809 150.053 307.254 150.992C306.721 151.931 305.985 152.667 305.046 153.2C304.108 153.733 303.03 154 301.814 154H300.598ZM311.542 154V150.608H312.438C312.673 150.608 312.897 150.544 313.11 150.416C313.324 150.288 313.526 150.107 313.718 149.872C313.91 149.616 314.07 149.296 314.198 148.912C314.348 148.507 314.454 148.037 314.518 147.504C314.604 146.949 314.646 146.331 314.646 145.648C314.646 144.603 314.55 143.771 314.358 143.152C314.188 142.533 313.942 142.032 313.622 141.648C313.302 141.264 312.918 140.912 312.47 140.592C312.47 140.357 312.556 140.091 312.726 139.792C312.918 139.493 313.196 139.227 313.558 138.992C313.942 138.757 314.401 138.64 314.934 138.64C315.596 138.64 316.172 138.832 316.662 139.216C317.153 139.6 317.548 140.123 317.846 140.784C318.166 141.424 318.401 142.171 318.55 143.024C318.721 143.856 318.806 144.741 318.806 145.68C318.806 148.261 318.252 150.299 317.142 151.792C316.033 153.264 314.465 154 312.438 154H311.542ZM327.646 154C326.856 154 326.312 153.776 326.014 153.328C325.715 152.859 325.566 152.357 325.566 151.824V139.536C325.566 138.768 325.47 138.213 325.278 137.872C325.086 137.531 324.872 137.307 324.638 137.2C324.403 137.093 324.222 137.008 324.094 136.944C324.094 136.773 324.168 136.517 324.318 136.176C324.488 135.835 324.755 135.525 325.118 135.248C325.502 134.971 326.014 134.832 326.654 134.832C327.272 134.832 327.806 135.003 328.254 135.344C328.723 135.664 329.086 136.112 329.342 136.688C329.598 137.264 329.726 137.925 329.726 138.672V151.888C329.726 152.379 329.576 152.859 329.278 153.328C328.979 153.776 328.435 154 327.646 154ZM324.158 133.808C323.902 133.744 323.688 133.595 323.518 133.36C323.368 133.125 323.304 132.869 323.326 132.592C323.347 132.315 323.486 132.08 323.742 131.888C323.998 131.675 324.414 131.568 324.99 131.568C324.712 131.44 324.424 131.195 324.126 130.832C323.827 130.448 323.678 129.989 323.678 129.456C323.678 129.008 323.795 128.549 324.03 128.08C324.264 127.589 324.627 127.184 325.118 126.864C325.63 126.523 326.291 126.352 327.102 126.352C327.528 126.352 327.902 126.416 328.222 126.544C328.542 126.651 328.787 126.821 328.958 127.056C329.15 127.291 329.246 127.6 329.246 127.984C329.246 128.389 329.139 128.677 328.926 128.848C328.734 128.997 328.499 129.072 328.222 129.072C327.944 129.051 327.667 128.987 327.39 128.88C327.411 128.624 327.358 128.357 327.23 128.08C327.123 127.803 326.899 127.664 326.558 127.664C326.43 127.813 326.291 128.027 326.142 128.304C326.014 128.56 325.95 128.837 325.95 129.136C325.95 129.456 326.035 129.765 326.206 130.064C326.376 130.363 326.622 130.619 326.942 130.832C327.262 131.024 327.635 131.12 328.062 131.12C328.318 131.12 328.552 131.099 328.766 131.056C328.979 130.992 329.16 130.96 329.31 130.96C329.63 130.96 329.843 131.109 329.95 131.408C330.056 131.685 330.056 131.973 329.95 132.272C329.864 132.549 329.694 132.699 329.438 132.72C329.352 132.72 329.118 132.731 328.734 132.752C328.35 132.773 327.902 132.805 327.39 132.848C326.878 132.891 326.376 132.955 325.886 133.04C325.395 133.125 324.979 133.232 324.638 133.36C324.318 133.488 324.158 133.637 324.158 133.808ZM336.01 161.328C335.476 161.328 335.028 161.211 334.666 160.976C334.303 160.741 334.026 160.464 333.834 160.144C333.663 159.845 333.578 159.589 333.578 159.376C334.026 159.035 334.41 158.651 334.73 158.224C335.05 157.797 335.295 157.243 335.466 156.56C335.658 155.899 335.754 155.045 335.754 154V140.624C335.754 140.005 335.946 139.525 336.33 139.184C336.735 138.821 337.236 138.64 337.834 138.64C338.452 138.64 338.954 138.821 339.338 139.184C339.722 139.525 339.914 140.005 339.914 140.624V154C339.914 154.939 339.828 155.845 339.658 156.72C339.508 157.595 339.274 158.373 338.954 159.056C338.655 159.76 338.26 160.315 337.77 160.72C337.279 161.125 336.692 161.328 336.01 161.328Z" fill="#4F4F4F"/>
<path d="M292.394 109.208C292.192 108.92 292.122 108.669 292.186 108.456C292.25 108.232 292.384 108.061 292.586 107.944C292.8 107.827 293.029 107.784 293.274 107.816C293.52 107.837 293.728 107.96 293.898 108.184L293.722 108.04C293.573 107.955 293.397 107.789 293.194 107.544C293.002 107.288 292.832 106.979 292.682 106.616C292.544 106.243 292.474 105.843 292.474 105.416C292.474 105.032 292.544 104.675 292.682 104.344C292.832 104.013 293.04 103.725 293.306 103.48C293.573 103.235 293.904 103.048 294.298 102.92C294.693 102.781 295.136 102.712 295.626 102.712C296.17 102.712 296.565 102.781 296.81 102.92C297.066 103.059 297.226 103.224 297.29 103.416C297.365 103.597 297.402 103.752 297.402 103.88C297.402 104.2 297.322 104.435 297.162 104.584C297.002 104.723 296.821 104.797 296.618 104.808C296.426 104.819 296.282 104.781 296.186 104.696C296.197 104.408 296.122 104.173 295.962 103.992C295.813 103.8 295.632 103.661 295.418 103.576C295.205 103.48 295.008 103.432 294.826 103.432H295.114C294.954 103.432 294.778 103.496 294.586 103.624C294.405 103.752 294.245 103.949 294.106 104.216C293.968 104.483 293.898 104.84 293.898 105.288C293.898 105.885 294.026 106.344 294.282 106.664C294.549 106.973 294.88 107.181 295.274 107.288C295.669 107.395 296.053 107.448 296.426 107.448C296.672 107.448 296.89 107.437 297.082 107.416C297.274 107.384 297.413 107.357 297.498 107.336C297.722 107.336 297.877 107.389 297.962 107.496C298.058 107.603 298.106 107.725 298.106 107.864C298.117 107.992 298.09 108.109 298.026 108.216C297.973 108.323 297.904 108.376 297.818 108.376C297.456 108.408 297.072 108.445 296.666 108.488C296.272 108.531 295.877 108.579 295.482 108.632C295.098 108.675 294.73 108.723 294.378 108.776C294.026 108.829 293.706 108.883 293.418 108.936C293.13 108.979 292.896 109.021 292.714 109.064C292.544 109.117 292.437 109.165 292.394 109.208ZM304.261 109C303.707 109 303.211 108.872 302.773 108.616C302.347 108.349 302.011 107.992 301.765 107.544C301.52 107.085 301.397 106.568 301.397 105.992V100.808C301.397 100.477 301.349 100.179 301.253 99.912C301.168 99.6453 301.056 99.4213 300.917 99.24C300.779 99.0587 300.645 98.9253 300.517 98.84C300.56 98.7867 300.629 98.728 300.725 98.664C300.832 98.6 300.96 98.5467 301.109 98.504C301.259 98.4613 301.413 98.44 301.573 98.44C301.776 98.44 301.973 98.4933 302.165 98.6C302.357 98.696 302.517 98.872 302.645 99.128C302.773 99.384 302.837 99.7467 302.837 100.216V105.992C302.837 106.291 302.885 106.584 302.981 106.872C303.088 107.16 303.248 107.4 303.461 107.592C303.675 107.784 303.941 107.88 304.261 107.88H304.757V109H304.261ZM304.757 109V107.88C304.885 107.88 304.971 107.928 305.013 108.024C305.056 108.12 305.077 108.259 305.077 108.44C305.077 108.611 305.056 108.749 305.013 108.856C304.971 108.952 304.885 109 304.757 109ZM305.564 109V107.88H308.316C308.967 107.88 309.586 107.784 310.172 107.592C310.77 107.389 311.303 107.123 311.772 106.792C312.242 106.451 312.61 106.067 312.876 105.64C313.154 105.213 313.292 104.771 313.292 104.312C313.292 103.715 313.058 103.256 312.588 102.936C312.119 102.605 311.452 102.44 310.588 102.44C309.724 102.44 309.058 102.605 308.588 102.936C308.119 103.256 307.884 103.715 307.884 104.312C307.884 104.771 308.018 105.213 308.284 105.64C308.562 106.067 308.935 106.451 309.404 106.792C309.874 107.123 310.407 107.389 311.004 107.592C311.602 107.784 312.22 107.88 312.86 107.88H315.612V109H312.86C312.124 109 311.378 108.883 310.62 108.648C309.863 108.413 309.17 108.088 308.54 107.672C307.911 107.245 307.404 106.749 307.02 106.184C306.636 105.608 306.444 104.984 306.444 104.312C306.444 103.779 306.567 103.325 306.812 102.952C307.058 102.568 307.383 102.259 307.788 102.024C308.204 101.779 308.652 101.603 309.132 101.496C309.623 101.379 310.108 101.32 310.588 101.32C311.068 101.32 311.548 101.379 312.028 101.496C312.519 101.603 312.967 101.773 313.372 102.008C313.778 102.243 314.103 102.552 314.348 102.936C314.604 103.309 314.732 103.768 314.732 104.312C314.732 104.984 314.54 105.608 314.156 106.184C313.783 106.749 313.282 107.245 312.652 107.672C312.023 108.088 311.33 108.413 310.572 108.648C309.815 108.883 309.063 109 308.316 109H305.564ZM305.564 109C305.436 109 305.351 108.952 305.308 108.856C305.266 108.749 305.244 108.611 305.244 108.44C305.244 108.259 305.266 108.12 305.308 108.024C305.351 107.928 305.436 107.88 305.564 107.88V109ZM315.612 109V107.88C315.74 107.88 315.826 107.928 315.868 108.024C315.911 108.12 315.932 108.259 315.932 108.44C315.932 108.611 315.911 108.749 315.868 108.856C315.826 108.952 315.74 109 315.612 109ZM316.411 109V107.88H317.483C317.825 107.88 318.107 107.8 318.331 107.64C318.555 107.48 318.726 107.277 318.843 107.032C318.971 106.787 319.062 106.531 319.115 106.264C319.179 105.997 319.217 105.757 319.227 105.544C319.238 105.32 319.243 105.16 319.243 105.064C319.243 104.776 319.217 104.435 319.163 104.04C319.11 103.645 318.987 103.235 318.795 102.808C318.614 102.381 318.31 101.992 317.883 101.64C317.937 101.587 318.001 101.539 318.075 101.496C318.161 101.443 318.257 101.4 318.363 101.368C318.47 101.336 318.593 101.32 318.731 101.32C319.105 101.32 319.414 101.443 319.659 101.688C319.915 101.933 320.118 102.253 320.267 102.648C320.417 103.032 320.523 103.443 320.587 103.88C320.651 104.317 320.683 104.723 320.683 105.096C320.683 106.323 320.401 107.283 319.835 107.976C319.27 108.659 318.486 109 317.483 109H316.411ZM316.411 109C316.283 109 316.198 108.952 316.155 108.856C316.113 108.749 316.091 108.611 316.091 108.44C316.091 108.259 316.113 108.12 316.155 108.024C316.198 107.928 316.283 107.88 316.411 107.88V109ZM318.779 112.12C318.513 112.12 318.289 112.029 318.107 111.848C317.926 111.667 317.835 111.453 317.835 111.208C317.835 110.952 317.926 110.733 318.107 110.552C318.289 110.371 318.513 110.28 318.779 110.28C319.025 110.28 319.238 110.371 319.419 110.552C319.601 110.733 319.691 110.952 319.691 111.208C319.691 111.453 319.601 111.667 319.419 111.848C319.238 112.029 319.025 112.12 318.779 112.12ZM323.692 112.664C323.553 112.664 323.43 112.648 323.324 112.616C323.217 112.584 323.121 112.541 323.036 112.488C322.961 112.435 322.897 112.387 322.844 112.344C323.27 111.981 323.574 111.597 323.756 111.192C323.948 110.787 324.07 110.387 324.124 109.992C324.177 109.608 324.204 109.277 324.204 109V102.024C324.204 101.757 324.273 101.576 324.412 101.48C324.55 101.373 324.721 101.32 324.924 101.32C325.126 101.32 325.297 101.373 325.436 101.48C325.574 101.576 325.644 101.757 325.644 102.024V109C325.644 109.373 325.612 109.773 325.548 110.2C325.484 110.627 325.377 111.027 325.228 111.4C325.078 111.773 324.876 112.077 324.62 112.312C324.374 112.547 324.065 112.664 323.692 112.664ZM328.415 109C328.245 109 328.127 108.936 328.063 108.808C327.999 108.68 327.967 108.557 327.967 108.44C327.967 108.323 327.999 108.2 328.063 108.072C328.127 107.944 328.245 107.88 328.415 107.88H333.583C333.914 107.88 334.181 107.784 334.383 107.592C334.597 107.4 334.751 107.16 334.847 106.872C334.954 106.584 335.007 106.291 335.007 105.992V100.808C335.007 100.477 334.959 100.179 334.863 99.912C334.778 99.6453 334.666 99.4213 334.527 99.24C334.389 99.0587 334.255 98.9253 334.127 98.84C334.17 98.7867 334.239 98.728 334.335 98.664C334.442 98.6 334.565 98.5467 334.703 98.504C334.853 98.4613 335.007 98.44 335.167 98.44C335.37 98.44 335.567 98.4933 335.759 98.6C335.962 98.696 336.127 98.872 336.255 99.128C336.383 99.384 336.447 99.7467 336.447 100.216V105.992C336.447 106.568 336.325 107.085 336.079 107.544C335.834 107.992 335.498 108.349 335.071 108.616C334.645 108.872 334.149 109 333.583 109H328.415ZM330.607 107.88V103.064C330.607 102.733 330.559 102.435 330.463 102.168C330.378 101.901 330.266 101.677 330.127 101.496C329.989 101.315 329.855 101.181 329.727 101.096C329.77 101.043 329.839 100.984 329.935 100.92C330.042 100.856 330.165 100.803 330.303 100.76C330.453 100.717 330.607 100.696 330.767 100.696C330.97 100.696 331.167 100.749 331.359 100.856C331.562 100.952 331.727 101.128 331.855 101.384C331.983 101.64 332.047 102.003 332.047 102.472V107.88H330.607ZM340.695 109C340.354 109 340.151 108.899 340.087 108.696C340.023 108.493 339.991 108.253 339.991 107.976V100.808C339.991 100.477 339.943 100.179 339.847 99.912C339.762 99.6453 339.65 99.4213 339.511 99.24C339.373 99.0587 339.239 98.9253 339.111 98.84C339.154 98.7867 339.223 98.728 339.319 98.664C339.426 98.6 339.554 98.5467 339.703 98.504C339.853 98.4613 340.007 98.44 340.167 98.44C340.37 98.44 340.567 98.4933 340.759 98.6C340.951 98.696 341.111 98.872 341.239 99.128C341.367 99.384 341.431 99.7467 341.431 100.216V107.976C341.431 108.253 341.394 108.493 341.319 108.696C341.245 108.899 341.037 109 340.695 109Z" fill="#4F4F4F"/>
<path d="M104.616 256V221.312L99.048 224.896L97.512 222.912L107.368 213.76H112.936V256H104.616ZM132.792 257.28C131.426 257.28 130.061 257.152 128.696 256.896C127.33 256.683 126.093 256.405 124.984 256.064C123.917 255.723 123.106 255.403 122.552 255.104L122.936 253.312C124.685 253.611 126.008 253.845 126.904 254.016C127.8 254.187 128.568 254.293 129.208 254.336C129.848 254.379 130.616 254.4 131.512 254.4C134.712 254.4 137.272 253.099 139.192 250.496C141.112 247.893 142.072 243.861 142.072 238.4C141.176 239.125 139.917 239.829 138.296 240.512C136.717 241.152 134.989 241.472 133.112 241.472C129.784 241.472 127.138 240.875 125.176 239.68C123.213 238.443 121.805 236.736 120.952 234.56C120.098 232.341 119.672 229.781 119.672 226.88C119.672 224.363 120.226 222.016 121.336 219.84C122.488 217.664 124.173 215.893 126.392 214.528C128.653 213.163 131.426 212.48 134.712 212.48C140.045 212.48 144.034 214.357 146.68 218.112C149.368 221.867 150.712 227.456 150.712 234.88C150.712 242.645 149.197 248.32 146.168 251.904C143.181 255.488 138.722 257.28 132.792 257.28ZM135.032 238.592C136.312 238.592 137.485 238.336 138.552 237.824C139.618 237.312 140.472 236.779 141.112 236.224C141.752 235.669 142.072 235.371 142.072 235.328C142.072 230.592 141.773 226.752 141.176 223.808C140.578 220.864 139.725 218.731 138.616 217.408C137.506 216.043 136.205 215.36 134.712 215.36C133.346 215.36 132.173 215.893 131.192 216.96C130.253 217.984 129.528 219.371 129.016 221.12C128.546 222.869 128.312 224.789 128.312 226.88C128.312 230.677 128.824 233.579 129.848 235.584C130.872 237.589 132.6 238.592 135.032 238.592Z" fill="#4F4F4F"/>
<path d="M313.616 251V216.312L308.048 219.896L306.512 217.912L316.368 208.76H321.936V251H313.616Z" fill="#4F4F4F"/>
<path d="M72.2959 276V275.3C72.8839 274.731 73.4159 274.217 73.8919 273.76C74.3772 273.303 74.8019 272.883 75.1659 272.5C75.5299 272.117 75.8379 271.749 76.0899 271.394C76.3419 271.039 76.5285 270.68 76.6499 270.316C76.7805 269.952 76.8459 269.56 76.8459 269.14C76.8459 268.673 76.7619 268.286 76.5939 267.978C76.4259 267.661 76.2019 267.427 75.9219 267.278C75.6512 267.119 75.3525 267.04 75.0259 267.04C74.4659 267.04 73.9759 267.245 73.5559 267.656C73.1359 268.057 72.8559 268.645 72.7159 269.42H72.4359C72.4359 269.065 72.4499 268.729 72.4779 268.412C72.5059 268.085 72.6039 267.815 72.7719 267.6C73.0239 267.292 73.3925 267.031 73.8779 266.816C74.3632 266.592 74.8859 266.48 75.4459 266.48C75.7259 266.48 76.0245 266.517 76.3419 266.592C76.6685 266.657 76.9765 266.783 77.2659 266.97C77.5552 267.157 77.7885 267.427 77.9659 267.782C78.1525 268.127 78.2459 268.58 78.2459 269.14C78.2459 269.541 78.1805 269.919 78.0499 270.274C77.9285 270.619 77.7559 270.955 77.5319 271.282C77.3079 271.609 77.0419 271.935 76.7339 272.262C76.4259 272.579 76.0852 272.906 75.7119 273.242C75.3479 273.569 74.9559 273.914 74.5359 274.278C74.1252 274.642 73.7052 275.029 73.2759 275.44H76.4259C76.9859 275.44 77.4152 275.319 77.7139 275.076C78.0219 274.833 78.1759 274.465 78.1759 273.97H78.4559V274.88C78.4559 275.067 78.4232 275.249 78.3579 275.426C78.2925 275.594 78.1759 275.734 78.0079 275.846C77.8399 275.949 77.5925 276 77.2659 276H72.2959ZM83.9337 276.28C83.1217 276.28 82.4684 276.079 81.9737 275.678C81.479 275.267 81.1197 274.693 80.8957 273.956C80.681 273.219 80.5737 272.36 80.5737 271.38C80.5737 270.391 80.681 269.532 80.8957 268.804C81.1197 268.067 81.479 267.497 81.9737 267.096C82.4684 266.685 83.1217 266.48 83.9337 266.48C84.755 266.48 85.4084 266.685 85.8937 267.096C86.3884 267.497 86.743 268.067 86.9577 268.804C87.1817 269.532 87.2937 270.391 87.2937 271.38C87.2937 272.36 87.1817 273.219 86.9577 273.956C86.743 274.693 86.3884 275.267 85.8937 275.678C85.4084 276.079 84.755 276.28 83.9337 276.28ZM83.9337 275.72C84.699 275.72 85.217 275.365 85.4877 274.656C85.7584 273.937 85.8937 272.845 85.8937 271.38C85.8937 269.905 85.7584 268.813 85.4877 268.104C85.217 267.395 84.699 267.04 83.9337 267.04C83.1684 267.04 82.6504 267.395 82.3797 268.104C82.109 268.813 81.9737 269.905 81.9737 271.38C81.9737 272.845 82.109 273.937 82.3797 274.656C82.6504 275.365 83.1684 275.72 83.9337 275.72ZM89.2955 276V275.3C89.8835 274.731 90.4155 274.217 90.8915 273.76C91.3768 273.303 91.8015 272.883 92.1655 272.5C92.5295 272.117 92.8375 271.749 93.0895 271.394C93.3415 271.039 93.5282 270.68 93.6495 270.316C93.7802 269.952 93.8455 269.56 93.8455 269.14C93.8455 268.673 93.7615 268.286 93.5935 267.978C93.4255 267.661 93.2015 267.427 92.9215 267.278C92.6508 267.119 92.3522 267.04 92.0255 267.04C91.4655 267.04 90.9755 267.245 90.5555 267.656C90.1355 268.057 89.8555 268.645 89.7155 269.42H89.4355C89.4355 269.065 89.4495 268.729 89.4775 268.412C89.5055 268.085 89.6035 267.815 89.7715 267.6C90.0235 267.292 90.3922 267.031 90.8775 266.816C91.3628 266.592 91.8855 266.48 92.4455 266.48C92.7255 266.48 93.0242 266.517 93.3415 266.592C93.6682 266.657 93.9762 266.783 94.2655 266.97C94.5548 267.157 94.7882 267.427 94.9655 267.782C95.1522 268.127 95.2455 268.58 95.2455 269.14C95.2455 269.541 95.1802 269.919 95.0495 270.274C94.9282 270.619 94.7555 270.955 94.5315 271.282C94.3075 271.609 94.0415 271.935 93.7335 272.262C93.4255 272.579 93.0848 272.906 92.7115 273.242C92.3475 273.569 91.9555 273.914 91.5355 274.278C91.1248 274.642 90.7048 275.029 90.2755 275.44H93.4255C93.9855 275.44 94.4148 275.319 94.7135 275.076C95.0215 274.833 95.1755 274.465 95.1755 273.97H95.4555V274.88C95.4555 275.067 95.4228 275.249 95.3575 275.426C95.2922 275.594 95.1755 275.734 95.0075 275.846C94.8395 275.949 94.5922 276 94.2655 276H89.2955ZM100.569 276.28C100.103 276.28 99.678 276.219 99.2953 276.098C98.922 275.977 98.5766 275.804 98.2593 275.58C97.9513 275.356 97.6666 275.09 97.4053 274.782L97.6293 274.53C97.984 274.922 98.3713 275.221 98.7913 275.426C99.2113 275.622 99.6873 275.72 100.219 275.72C100.593 275.72 100.938 275.641 101.255 275.482C101.573 275.314 101.829 275.062 102.025 274.726C102.221 274.39 102.319 273.951 102.319 273.41C102.319 272.915 102.226 272.509 102.039 272.192C101.853 271.875 101.619 271.637 101.339 271.478C101.059 271.319 100.779 271.24 100.499 271.24C100.219 271.24 99.9953 271.249 99.8273 271.268C99.6593 271.277 99.5006 271.296 99.3513 271.324C99.2113 271.352 99.034 271.394 98.8193 271.45L98.4553 270.862L102.249 267.32H99.6593C99.0993 267.32 98.6653 267.441 98.3573 267.684C98.0586 267.927 97.9093 268.295 97.9093 268.79H97.6293V267.88C97.6293 267.693 97.662 267.516 97.7273 267.348C97.7926 267.171 97.9093 267.031 98.0773 266.928C98.2546 266.816 98.502 266.76 98.8193 266.76H103.271V267.32L99.5193 270.82C99.762 270.755 100.009 270.717 100.261 270.708C100.523 270.689 100.695 270.68 100.779 270.68C100.985 270.68 101.251 270.717 101.577 270.792C101.904 270.857 102.231 270.988 102.557 271.184C102.884 271.38 103.159 271.655 103.383 272.01C103.607 272.365 103.719 272.831 103.719 273.41C103.719 274.026 103.607 274.525 103.383 274.908C103.159 275.281 102.875 275.571 102.529 275.776C102.193 275.972 101.848 276.103 101.493 276.168C101.139 276.243 100.831 276.28 100.569 276.28ZM110.163 278.17L110.023 277.96C110.266 277.801 110.466 277.629 110.625 277.442C110.793 277.255 110.919 277.05 111.003 276.826C111.096 276.602 111.143 276.35 111.143 276.07C111.106 276.098 111.045 276.126 110.961 276.154C110.877 276.191 110.798 276.21 110.723 276.21C110.508 276.21 110.326 276.135 110.177 275.986C110.028 275.837 109.953 275.655 109.953 275.44C109.953 275.197 110.032 274.997 110.191 274.838C110.35 274.679 110.55 274.6 110.793 274.6C111.073 274.6 111.292 274.684 111.451 274.852C111.619 275.02 111.703 275.263 111.703 275.58C111.703 276.177 111.568 276.686 111.297 277.106C111.036 277.535 110.658 277.89 110.163 278.17ZM123.873 276V275.02H124.783V276H123.873ZM121.143 276C120.593 276 120.103 275.869 119.673 275.608C119.244 275.337 118.908 274.95 118.665 274.446C118.423 273.942 118.301 273.335 118.301 272.626C118.301 271.571 118.586 270.75 119.155 270.162C119.734 269.574 120.504 269.28 121.465 269.28C122.175 269.28 122.753 269.425 123.201 269.714C123.649 270.003 123.873 270.377 123.873 270.834V276H122.613V270.834C122.613 270.657 122.52 270.517 122.333 270.414C122.156 270.311 121.867 270.26 121.465 270.26C120.849 270.26 120.378 270.461 120.051 270.862C119.725 271.254 119.561 271.842 119.561 272.626C119.561 273.401 119.734 273.993 120.079 274.404C120.425 274.815 120.919 275.02 121.563 275.02H123.873V276H121.143ZM122.165 279.206C122.044 279.206 121.937 279.192 121.843 279.164C121.75 279.136 121.666 279.099 121.591 279.052C121.526 279.005 121.47 278.963 121.423 278.926C121.797 278.609 122.063 278.273 122.221 277.918C122.389 277.563 122.497 277.213 122.543 276.868C122.59 276.532 122.613 276.243 122.613 276V275.02H123.873V276C123.873 276.327 123.845 276.677 123.789 277.05C123.733 277.423 123.64 277.773 123.509 278.1C123.379 278.427 123.201 278.693 122.977 278.898C122.763 279.103 122.492 279.206 122.165 279.206ZM124.783 276V275.02C124.895 275.02 124.97 275.062 125.007 275.146C125.045 275.23 125.063 275.351 125.063 275.51C125.063 275.659 125.045 275.781 125.007 275.874C124.97 275.958 124.895 276 124.783 276ZM125.488 276V275.02H125.838C126.127 275.02 126.361 274.936 126.538 274.768C126.725 274.6 126.86 274.39 126.944 274.138C127.037 273.886 127.084 273.629 127.084 273.368V269.896C127.084 269.663 127.145 269.504 127.266 269.42C127.387 269.327 127.537 269.28 127.714 269.28C127.891 269.28 128.041 269.327 128.162 269.42C128.283 269.504 128.344 269.663 128.344 269.896V273.368C128.344 273.872 128.237 274.325 128.022 274.726C127.807 275.118 127.513 275.431 127.14 275.664C126.767 275.888 126.333 276 125.838 276H125.488ZM129.59 276C129.105 276 128.671 275.888 128.288 275.664C127.915 275.431 127.621 275.118 127.406 274.726C127.191 274.325 127.084 273.872 127.084 273.368H128.344C128.344 273.629 128.386 273.886 128.47 274.138C128.563 274.39 128.703 274.6 128.89 274.768C129.077 274.936 129.31 275.02 129.59 275.02H130.094V276H129.59ZM130.094 276V275.02C130.206 275.02 130.281 275.062 130.318 275.146C130.355 275.23 130.374 275.351 130.374 275.51C130.374 275.659 130.355 275.781 130.318 275.874C130.281 275.958 130.206 276 130.094 276ZM125.488 276C125.376 276 125.301 275.958 125.264 275.874C125.227 275.781 125.208 275.659 125.208 275.51C125.208 275.351 125.227 275.23 125.264 275.146C125.301 275.062 125.376 275.02 125.488 275.02V276ZM128.736 278.73C128.521 278.73 128.335 278.651 128.176 278.492C128.017 278.333 127.938 278.147 127.938 277.932C127.938 277.708 128.017 277.517 128.176 277.358C128.335 277.199 128.521 277.12 128.736 277.12C128.96 277.12 129.147 277.199 129.296 277.358C129.455 277.517 129.534 277.708 129.534 277.932C129.534 278.147 129.455 278.333 129.296 278.492C129.147 278.651 128.96 278.73 128.736 278.73ZM126.692 278.73C126.477 278.73 126.291 278.651 126.132 278.492C125.973 278.333 125.894 278.147 125.894 277.932C125.894 277.708 125.973 277.517 126.132 277.358C126.291 277.199 126.477 277.12 126.692 277.12C126.916 277.12 127.103 277.199 127.252 277.358C127.411 277.517 127.49 277.708 127.49 277.932C127.49 278.147 127.411 278.333 127.252 278.492C127.103 278.651 126.916 278.73 126.692 278.73ZM130.795 276V275.02H131.145C131.435 275.02 131.668 274.936 131.845 274.768C132.032 274.6 132.167 274.39 132.251 274.138C132.345 273.886 132.391 273.629 132.391 273.368V268.832C132.391 268.543 132.349 268.281 132.265 268.048C132.191 267.815 132.093 267.619 131.971 267.46C131.85 267.301 131.733 267.185 131.621 267.11C131.659 267.063 131.719 267.012 131.803 266.956C131.897 266.9 132.004 266.853 132.125 266.816C132.256 266.779 132.391 266.76 132.531 266.76C132.709 266.76 132.881 266.807 133.049 266.9C133.227 266.984 133.371 267.138 133.483 267.362C133.595 267.586 133.651 267.903 133.651 268.314V273.368C133.651 273.872 133.544 274.325 133.329 274.726C133.115 275.118 132.821 275.431 132.447 275.664C132.074 275.888 131.64 276 131.145 276H130.795ZM130.795 276C130.683 276 130.609 275.958 130.571 275.874C130.534 275.781 130.515 275.659 130.515 275.51C130.515 275.351 130.534 275.23 130.571 275.146C130.609 275.062 130.683 275.02 130.795 275.02V276ZM141.737 276V275.02H142.647V276H141.737ZM139.007 276C138.456 276 137.966 275.869 137.537 275.608C137.108 275.337 136.772 274.95 136.529 274.446C136.286 273.942 136.165 273.335 136.165 272.626C136.165 271.571 136.45 270.75 137.019 270.162C137.598 269.574 138.368 269.28 139.329 269.28C140.038 269.28 140.617 269.425 141.065 269.714C141.513 270.003 141.737 270.377 141.737 270.834V276H140.477V270.834C140.477 270.657 140.384 270.517 140.197 270.414C140.02 270.311 139.73 270.26 139.329 270.26C138.713 270.26 138.242 270.461 137.915 270.862C137.588 271.254 137.425 271.842 137.425 272.626C137.425 273.401 137.598 273.993 137.943 274.404C138.288 274.815 138.783 275.02 139.427 275.02H141.737V276H139.007ZM140.029 279.206C139.908 279.206 139.8 279.192 139.707 279.164C139.614 279.136 139.53 279.099 139.455 279.052C139.39 279.005 139.334 278.963 139.287 278.926C139.66 278.609 139.926 278.273 140.085 277.918C140.253 277.563 140.36 277.213 140.407 276.868C140.454 276.532 140.477 276.243 140.477 276V275.02H141.737V276C141.737 276.327 141.709 276.677 141.653 277.05C141.597 277.423 141.504 277.773 141.373 278.1C141.242 278.427 141.065 278.693 140.841 278.898C140.626 279.103 140.356 279.206 140.029 279.206ZM142.647 276V275.02C142.759 275.02 142.834 275.062 142.871 275.146C142.908 275.23 142.927 275.351 142.927 275.51C142.927 275.659 142.908 275.781 142.871 275.874C142.834 275.958 142.759 276 142.647 276ZM143.352 276V275.02H144.29C144.588 275.02 144.836 274.95 145.032 274.81C145.228 274.67 145.377 274.493 145.48 274.278C145.592 274.063 145.671 273.839 145.718 273.606C145.774 273.373 145.806 273.163 145.816 272.976C145.825 272.78 145.83 272.64 145.83 272.556C145.83 272.304 145.806 272.005 145.76 271.66C145.713 271.315 145.606 270.955 145.438 270.582C145.279 270.209 145.013 269.868 144.64 269.56C144.686 269.513 144.742 269.471 144.808 269.434C144.882 269.387 144.966 269.35 145.06 269.322C145.153 269.294 145.26 269.28 145.382 269.28C145.708 269.28 145.979 269.387 146.194 269.602C146.418 269.817 146.595 270.097 146.726 270.442C146.856 270.778 146.95 271.137 147.006 271.52C147.062 271.903 147.09 272.257 147.09 272.584C147.09 273.657 146.842 274.497 146.348 275.104C145.853 275.701 145.167 276 144.29 276H143.352ZM143.352 276C143.24 276 143.165 275.958 143.128 275.874C143.09 275.781 143.072 275.659 143.072 275.51C143.072 275.351 143.09 275.23 143.128 275.146C143.165 275.062 143.24 275.02 143.352 275.02V276ZM146.432 278.73C146.217 278.73 146.03 278.651 145.872 278.492C145.713 278.333 145.634 278.147 145.634 277.932C145.634 277.708 145.713 277.517 145.872 277.358C146.03 277.199 146.217 277.12 146.432 277.12C146.656 277.12 146.842 277.199 146.992 277.358C147.15 277.517 147.23 277.708 147.23 277.932C147.23 278.147 147.15 278.333 146.992 278.492C146.842 278.651 146.656 278.73 146.432 278.73ZM144.388 278.73C144.173 278.73 143.986 278.651 143.828 278.492C143.669 278.333 143.59 278.147 143.59 277.932C143.59 277.708 143.669 277.517 143.828 277.358C143.986 277.199 144.173 277.12 144.388 277.12C144.612 277.12 144.798 277.199 144.948 277.358C145.106 277.517 145.186 277.708 145.186 277.932C145.186 278.147 145.106 278.333 144.948 278.492C144.798 278.651 144.612 278.73 144.388 278.73Z" fill="#828282"/>
<path d="M264.32 276V268.16L262.962 269.042L262.71 268.72L264.88 266.76H265.58V276H264.32ZM272.211 276V273.62H267.731V273.06L272.351 266.76H273.471V273.06H274.731V273.62H273.471V276H272.211ZM268.571 273.06H272.211V268.104L268.571 273.06ZM280.554 276V273.62H276.074V273.06L280.694 266.76H281.814V273.06H283.074V273.62H281.814V276H280.554ZM276.914 273.06H280.554V268.104L276.914 273.06ZM288.896 276V273.62H284.416V273.06L289.036 266.76H290.156V273.06H291.416V273.62H290.156V276H288.896ZM285.256 273.06H288.896V268.104L285.256 273.06ZM297.701 278.17L297.561 277.96C297.804 277.801 298.004 277.629 298.163 277.442C298.331 277.255 298.457 277.05 298.541 276.826C298.634 276.602 298.681 276.35 298.681 276.07C298.644 276.098 298.583 276.126 298.499 276.154C298.415 276.191 298.336 276.21 298.261 276.21C298.046 276.21 297.864 276.135 297.715 275.986C297.566 275.837 297.491 275.655 297.491 275.44C297.491 275.197 297.57 274.997 297.729 274.838C297.888 274.679 298.088 274.6 298.331 274.6C298.611 274.6 298.83 274.684 298.989 274.852C299.157 275.02 299.241 275.263 299.241 275.58C299.241 276.177 299.106 276.686 298.835 277.106C298.574 277.535 298.196 277.89 297.701 278.17ZM306.189 279.892C306.105 279.892 306.021 279.883 305.937 279.864C305.853 279.845 305.774 279.822 305.699 279.794C305.625 279.766 305.555 279.738 305.489 279.71C305.583 279.626 305.667 279.519 305.741 279.388C305.825 279.267 305.895 279.117 305.951 278.94C306.007 278.763 306.035 278.562 306.035 278.338V277.442C306.035 276.957 306.157 276.532 306.399 276.168C306.642 275.804 306.978 275.524 307.407 275.328C307.846 275.123 308.35 275.02 308.919 275.02H309.577C310.221 275.02 310.716 274.815 311.061 274.404C311.407 273.993 311.579 273.401 311.579 272.626C311.579 271.842 311.416 271.254 311.089 270.862C310.763 270.461 310.291 270.26 309.675 270.26C309.274 270.26 308.98 270.311 308.793 270.414C308.616 270.517 308.527 270.657 308.527 270.834V275.538H307.267V270.834C307.267 270.386 307.491 270.017 307.939 269.728C308.387 269.429 308.966 269.28 309.675 269.28C310.646 269.28 311.416 269.574 311.985 270.162C312.555 270.75 312.839 271.571 312.839 272.626C312.839 273.335 312.718 273.942 312.475 274.446C312.233 274.95 311.897 275.337 311.467 275.608C311.038 275.869 310.548 276 309.997 276H308.919C308.499 276 308.173 276.07 307.939 276.21C307.706 276.359 307.538 276.541 307.435 276.756C307.342 276.98 307.295 277.209 307.295 277.442V278.338C307.295 278.739 307.239 279.052 307.127 279.276C307.015 279.509 306.875 279.668 306.707 279.752C306.539 279.845 306.367 279.892 306.189 279.892ZM317.178 276V275.02H318.914V276H317.178ZM315.47 279.206C315.348 279.206 315.241 279.192 315.148 279.164C315.054 279.136 314.97 279.099 314.896 279.052C314.83 279.005 314.774 278.963 314.728 278.926C315.101 278.609 315.367 278.273 315.526 277.918C315.694 277.563 315.801 277.213 315.848 276.868C315.894 276.532 315.918 276.243 315.918 276V269.896C315.918 269.663 315.978 269.504 316.1 269.42C316.221 269.327 316.37 269.28 316.548 269.28C316.725 269.28 316.874 269.327 316.996 269.42C317.117 269.504 317.178 269.663 317.178 269.896V276C317.178 276.327 317.15 276.677 317.094 277.05C317.038 277.423 316.944 277.773 316.814 278.1C316.683 278.427 316.506 278.693 316.282 278.898C316.067 279.103 315.796 279.206 315.47 279.206ZM318.914 276V275.02C319.026 275.02 319.1 275.062 319.138 275.146C319.175 275.23 319.194 275.351 319.194 275.51C319.194 275.659 319.175 275.781 319.138 275.874C319.1 275.958 319.026 276 318.914 276ZM327.64 276C327.155 276 326.721 275.888 326.338 275.664C325.965 275.431 325.671 275.118 325.456 274.726C325.242 274.325 325.134 273.872 325.134 273.368V272.976H326.394V273.368C326.394 273.629 326.436 273.886 326.52 274.138C326.614 274.39 326.754 274.6 326.94 274.768C327.127 274.936 327.36 275.02 327.64 275.02H328.144V276H327.64ZM319.618 276V275.02H323.888C324.271 275.02 324.574 274.871 324.798 274.572C325.022 274.264 325.134 273.741 325.134 273.004C325.134 271.977 324.896 271.263 324.42 270.862C323.954 270.461 323.277 270.26 322.39 270.26C322.204 270.26 322.036 270.265 321.886 270.274C321.737 270.283 321.602 270.297 321.48 270.316C321.359 270.325 321.242 270.33 321.13 270.33C320.906 270.33 320.724 270.297 320.584 270.232C320.444 270.167 320.337 270.073 320.262 269.952C320.197 269.821 320.146 269.677 320.108 269.518C320.09 269.415 320.071 269.313 320.052 269.21C320.043 269.098 320.043 269.023 320.052 268.986C320.146 269.051 320.272 269.126 320.43 269.21C320.589 269.294 320.804 269.336 321.074 269.336C321.168 269.336 321.275 269.331 321.396 269.322C321.527 269.313 321.672 269.303 321.83 269.294C321.989 269.285 322.162 269.28 322.348 269.28C323.067 269.28 323.683 269.369 324.196 269.546C324.71 269.714 325.125 269.961 325.442 270.288C325.769 270.615 326.007 271.007 326.156 271.464C326.315 271.921 326.394 272.43 326.394 272.99C326.394 273.737 326.278 274.334 326.044 274.782C325.811 275.221 325.503 275.533 325.12 275.72C324.747 275.907 324.336 276 323.888 276H319.618ZM319.618 276C319.506 276 319.432 275.958 319.394 275.874C319.357 275.781 319.338 275.659 319.338 275.51C319.338 275.351 319.357 275.23 319.394 275.146C319.432 275.062 319.506 275.02 319.618 275.02V276ZM328.144 276V275.02C328.256 275.02 328.331 275.062 328.368 275.146C328.406 275.23 328.424 275.351 328.424 275.51C328.424 275.659 328.406 275.781 328.368 275.874C328.331 275.958 328.256 276 328.144 276ZM328.85 276V275.02H331.832C332.476 275.02 332.97 274.815 333.316 274.404C333.661 273.993 333.834 273.401 333.834 272.626C333.834 271.842 333.67 271.254 333.344 270.862C333.017 270.461 332.546 270.26 331.93 270.26C331.528 270.26 331.234 270.311 331.048 270.414C330.87 270.517 330.782 270.657 330.782 270.834V276H329.522V270.834C329.522 270.377 329.746 270.003 330.194 269.714C330.642 269.425 331.22 269.28 331.93 269.28C332.9 269.28 333.67 269.574 334.24 270.162C334.809 270.75 335.094 271.571 335.094 272.626C335.094 273.335 334.972 273.942 334.73 274.446C334.487 274.95 334.151 275.337 333.722 275.608C333.292 275.869 332.802 276 332.252 276H328.85ZM328.85 276C328.738 276 328.663 275.958 328.626 275.874C328.588 275.781 328.57 275.659 328.57 275.51C328.57 275.351 328.588 275.23 328.626 275.146C328.663 275.062 328.738 275.02 328.85 275.02V276Z" fill="#828282"/>
<defs>
<filter id="filter0_d_668_6243" x="30" y="18" width="350" height="373.948" filterUnits="userSpaceOnUse" color-interpolation-filters="sRGB">
<feFlood flood-opacity="0" result="BackgroundImageFix"/>
<feColorMatrix in="SourceAlpha" type="matrix" values="0 0 0 0 0 0 0 0 0 0 0 0 0 0 0 0 0 0 127 0" result="hardAlpha"/>
<feOffset/>
<feGaussianBlur stdDeviation="6.5"/>
<feComposite in2="hardAlpha" operator="out"/>
<feColorMatrix type="matrix" values="0 0 0 0 0.1375 0 0 0 0 0.1375 0 0 0 0 0.1375 0 0 0 0.25 0"/>
<feBlend mode="normal" in2="BackgroundImageFix" result="effect1_dropShadow_668_6243"/>
<feBlend mode="normal" in="SourceGraphic" in2="effect1_dropShadow_668_6243" result="shape"/>
</filter>
<filter id="filter1_f_668_6243" x="0.488281" y="0" width="407.617" height="234.348" filterUnits="userSpaceOnUse" color-interpolation-filters="sRGB">
<feFlood flood-opacity="0" result="BackgroundImageFix"/>
<feBlend mode="normal" in="SourceGraphic" in2="BackgroundImageFix" result="shape"/>
<feGaussianBlur stdDeviation="44.5" result="effect1_foregroundBlur_668_6243"/>
</filter>
</defs>
</svg>
