<svg width="409" height="392" viewBox="0 0 409 392" fill="none" xmlns="http://www.w3.org/2000/svg">
<g filter="url(#filter0_d_663_6176)">
<rect x="43" y="31" width="324" height="347.948" rx="17" fill="#FBFBFB"/>
</g>
<g filter="url(#filter1_f_663_6176)">
<rect x="89.4883" y="89" width="229.617" height="56.3478" rx="28.1739" fill="#EBEBEB"/>
</g>
<path d="M89.9478 161.552C87.9424 161.552 86.2038 161.211 84.7318 160.528C83.2598 159.867 82.1184 158.896 81.3078 157.616C80.5184 156.357 80.1238 154.832 80.1238 153.04C80.1238 152.272 80.1984 151.504 80.3478 150.736C80.5184 149.968 80.7638 149.264 81.0838 148.624C81.4038 147.984 81.7984 147.472 82.2678 147.088C82.7584 146.704 83.3344 146.512 83.9958 146.512C84.5504 146.512 85.0091 146.629 85.3718 146.864C85.7344 147.099 86.0011 147.365 86.1718 147.664C86.3638 147.963 86.4598 148.229 86.4598 148.464C86.0331 148.784 85.6491 149.136 85.3078 149.52C84.9878 149.883 84.7318 150.373 84.5398 150.992C84.3691 151.589 84.2838 152.4 84.2838 153.424C84.2838 154.96 84.7638 156.133 85.7238 156.944C86.7051 157.755 88.1344 158.16 90.0118 158.16C91.6331 158.16 92.7744 157.797 93.4358 157.072C94.1184 156.368 94.4598 155.109 94.4598 153.296V140.816C94.4598 140.283 94.6091 139.792 94.9078 139.344C95.2064 138.875 95.7504 138.64 96.5398 138.64C97.3291 138.64 97.8731 138.875 98.1718 139.344C98.4704 139.792 98.6198 140.283 98.6198 140.816V153.296C98.6198 155.813 97.9371 157.819 96.5718 159.312C95.2064 160.805 92.9984 161.552 89.9478 161.552ZM89.4038 138.64C88.7424 138.64 88.1771 138.416 87.7078 137.968C87.2598 137.499 87.0358 136.955 87.0358 136.336C87.0358 135.696 87.2598 135.152 87.7078 134.704C88.1771 134.256 88.7424 134.032 89.4038 134.032C90.0224 134.032 90.5558 134.256 91.0038 134.704C91.4731 135.152 91.7078 135.696 91.7078 136.336C91.7078 136.955 91.4731 137.499 91.0038 137.968C90.5558 138.416 90.0224 138.64 89.4038 138.64ZM111.644 154C110.449 154 109.372 153.733 108.412 153.2C107.473 152.667 106.727 151.931 106.172 150.992C105.639 150.053 105.372 148.997 105.372 147.824V137.584C105.372 136.816 105.276 136.261 105.084 135.92C104.892 135.579 104.679 135.355 104.444 135.248C104.209 135.141 104.028 135.056 103.9 134.992C103.9 134.821 103.975 134.565 104.124 134.224C104.295 133.883 104.561 133.573 104.924 133.296C105.308 133.019 105.82 132.88 106.46 132.88C107.079 132.88 107.612 133.051 108.06 133.392C108.529 133.712 108.892 134.16 109.148 134.736C109.404 135.312 109.532 135.973 109.532 136.72V147.824C109.532 148.251 109.607 148.688 109.756 149.136C109.905 149.563 110.14 149.915 110.46 150.192C110.78 150.469 111.175 150.608 111.644 150.608H112.508V154H111.644ZM112.508 154V150.608C112.743 150.608 112.903 150.768 112.988 151.088C113.095 151.387 113.148 151.792 113.148 152.304C113.148 152.816 113.095 153.232 112.988 153.552C112.903 153.851 112.743 154 112.508 154ZM114.119 154V150.608H115.751C116.241 150.608 116.636 150.469 116.935 150.192C117.255 149.915 117.489 149.563 117.639 149.136C117.788 148.688 117.863 148.251 117.863 147.824V140.752C117.863 140.261 118.012 139.792 118.311 139.344C118.609 138.875 119.153 138.64 119.943 138.64C120.732 138.64 121.276 138.875 121.575 139.344C121.873 139.792 122.023 140.261 122.023 140.752V147.824C122.023 148.997 121.745 150.053 121.191 150.992C120.657 151.931 119.921 152.667 118.983 153.2C118.044 153.733 116.967 154 115.751 154H114.119ZM124.135 154C122.94 154 121.863 153.733 120.903 153.2C119.964 152.667 119.217 151.931 118.663 150.992C118.129 150.053 117.863 148.997 117.863 147.824H122.023C122.023 148.251 122.097 148.688 122.247 149.136C122.396 149.563 122.631 149.915 122.951 150.192C123.271 150.469 123.665 150.608 124.135 150.608H125.767V154H124.135ZM125.767 154V150.608C126.001 150.608 126.161 150.768 126.247 151.088C126.353 151.387 126.407 151.792 126.407 152.304C126.407 152.816 126.353 153.232 126.247 153.552C126.161 153.851 126.001 154 125.767 154ZM114.119 154C113.905 154 113.745 153.851 113.639 153.552C113.532 153.232 113.479 152.816 113.479 152.304C113.479 151.792 113.532 151.387 113.639 151.088C113.745 150.768 113.905 150.608 114.119 150.608V154ZM119.975 161.168C119.313 161.168 118.748 160.933 118.279 160.464C117.831 160.016 117.607 159.483 117.607 158.864C117.607 158.224 117.831 157.68 118.279 157.232C118.748 156.784 119.313 156.56 119.975 156.56C120.593 156.56 121.127 156.784 121.575 157.232C122.044 157.68 122.279 158.224 122.279 158.864C122.279 159.483 122.044 160.016 121.575 160.464C121.127 160.933 120.593 161.168 119.975 161.168ZM127.375 154V150.608H132.879C134.01 150.608 135.087 150.437 136.111 150.096C137.156 149.755 138.084 149.307 138.895 148.752C139.727 148.176 140.378 147.536 140.847 146.832C141.316 146.107 141.551 145.371 141.551 144.624C141.551 143.792 141.22 143.152 140.559 142.704C139.898 142.256 138.852 142.032 137.423 142.032C136.015 142.032 134.97 142.256 134.287 142.704C133.626 143.131 133.295 143.771 133.295 144.624C133.295 145.371 133.53 146.107 133.999 146.832C134.49 147.536 135.14 148.176 135.951 148.752C136.762 149.307 137.69 149.755 138.735 150.096C139.78 150.437 140.858 150.608 141.967 150.608H147.471V154H141.967C140.495 154 139.002 153.765 137.487 153.296C135.972 152.827 134.586 152.176 133.327 151.344C132.068 150.491 131.055 149.499 130.287 148.368C129.519 147.216 129.135 145.968 129.135 144.624C129.135 143.557 129.38 142.651 129.871 141.904C130.362 141.136 131.012 140.517 131.823 140.048C132.655 139.557 133.551 139.205 134.511 138.992C135.492 138.757 136.463 138.64 137.423 138.64C138.383 138.64 139.343 138.757 140.303 138.992C141.284 139.205 142.18 139.547 142.991 140.016C143.802 140.485 144.452 141.104 144.943 141.872C145.455 142.619 145.711 143.536 145.711 144.624C145.711 145.968 145.327 147.216 144.559 148.368C143.812 149.499 142.81 150.491 141.551 151.344C140.292 152.176 138.906 152.827 137.391 153.296C135.876 153.765 134.372 154 132.879 154H127.375ZM127.375 154C127.162 154 127.002 153.851 126.895 153.552C126.788 153.232 126.735 152.816 126.735 152.304C126.735 151.792 126.788 151.387 126.895 151.088C127.002 150.768 127.162 150.608 127.375 150.608V154ZM147.471 154V150.608C147.706 150.608 147.866 150.768 147.951 151.088C148.058 151.387 148.111 151.792 148.111 152.304C148.111 152.816 148.058 153.232 147.951 153.552C147.866 153.851 147.706 154 147.471 154ZM170.317 154V150.608H171.213C171.447 150.608 171.671 150.544 171.885 150.416C172.098 150.288 172.301 150.107 172.493 149.872C172.685 149.616 172.845 149.296 172.973 148.912C173.122 148.507 173.229 148.037 173.293 147.504C173.378 146.949 173.421 146.331 173.421 145.648C173.421 144.603 173.325 143.771 173.133 143.152C172.962 142.533 172.717 142.032 172.397 141.648C172.077 141.264 171.693 140.912 171.245 140.592C171.245 140.357 171.33 140.091 171.501 139.792C171.693 139.493 171.97 139.227 172.333 138.992C172.717 138.757 173.175 138.64 173.709 138.64C174.37 138.64 174.946 138.832 175.437 139.216C175.927 139.6 176.322 140.123 176.621 140.784C176.941 141.424 177.175 142.171 177.325 143.024C177.495 143.856 177.581 144.741 177.581 145.68C177.581 148.261 177.026 150.299 175.917 151.792C174.807 153.264 173.239 154 171.213 154H170.317ZM158.669 154C157.453 154 156.375 153.733 155.437 153.2C154.498 152.667 153.751 151.931 153.197 150.992C152.663 150.053 152.397 148.997 152.397 147.824H156.557C156.557 148.251 156.631 148.688 156.781 149.136C156.93 149.563 157.165 149.915 157.485 150.192C157.805 150.469 158.199 150.608 158.669 150.608H159.373V154H158.669ZM149.069 154V150.608H150.285C150.775 150.608 151.17 150.469 151.469 150.192C151.789 149.915 152.023 149.563 152.173 149.136C152.322 148.688 152.397 148.251 152.397 147.824V142.512C152.397 142.021 152.546 141.552 152.845 141.104C153.143 140.635 153.687 140.4 154.477 140.4C155.266 140.4 155.81 140.635 156.109 141.104C156.407 141.552 156.557 142.021 156.557 142.512V147.824C156.557 148.997 156.279 150.053 155.725 150.992C155.191 151.931 154.455 152.667 153.517 153.2C152.578 153.733 151.501 154 150.285 154H149.069ZM168.973 154C167.778 154 166.701 153.733 165.741 153.2C164.802 152.667 164.055 151.931 163.501 150.992C162.967 150.053 162.701 148.997 162.701 147.824H166.861C166.861 148.251 166.935 148.688 167.085 149.136C167.234 149.563 167.469 149.915 167.789 150.192C168.109 150.469 168.503 150.608 168.973 150.608H170.317V154H168.973ZM159.373 154V150.608H160.589C161.079 150.608 161.474 150.469 161.773 150.192C162.093 149.915 162.327 149.563 162.477 149.136C162.626 148.688 162.701 148.251 162.701 147.824V141.744C162.701 141.253 162.85 140.784 163.149 140.336C163.447 139.867 163.991 139.632 164.781 139.632C165.57 139.632 166.114 139.867 166.413 140.336C166.711 140.784 166.861 141.253 166.861 141.744V147.824C166.861 148.997 166.583 150.053 166.029 150.992C165.495 151.931 164.759 152.667 163.821 153.2C162.882 153.733 161.805 154 160.589 154H159.373ZM149.069 154C148.855 154 148.695 153.851 148.589 153.552C148.482 153.232 148.429 152.816 148.429 152.304C148.429 151.792 148.482 151.387 148.589 151.088C148.695 150.768 148.855 150.608 149.069 150.608V154ZM167.373 136.56C166.818 136.56 166.327 136.357 165.901 135.952C165.495 135.547 165.293 135.056 165.293 134.48C165.293 133.904 165.495 133.413 165.901 133.008C166.327 132.603 166.818 132.4 167.373 132.4C167.97 132.4 168.461 132.603 168.845 133.008C169.25 133.413 169.453 133.904 169.453 134.48C169.453 135.056 169.25 135.547 168.845 135.952C168.461 136.357 167.97 136.56 167.373 136.56ZM162.189 136.56C161.634 136.56 161.143 136.357 160.717 135.952C160.311 135.547 160.109 135.056 160.109 134.48C160.109 133.904 160.311 133.413 160.717 133.008C161.143 132.603 161.634 132.4 162.189 132.4C162.765 132.4 163.255 132.603 163.661 133.008C164.066 133.413 164.269 133.904 164.269 134.48C164.269 135.056 164.066 135.547 163.661 135.952C163.255 136.357 162.765 136.56 162.189 136.56ZM164.781 131.792C164.226 131.792 163.767 131.611 163.405 131.248C163.042 130.864 162.861 130.405 162.861 129.872C162.861 129.317 163.042 128.859 163.405 128.496C163.767 128.133 164.215 127.952 164.749 127.952C165.303 127.952 165.762 128.133 166.125 128.496C166.509 128.859 166.701 129.317 166.701 129.872C166.701 130.405 166.509 130.864 166.125 131.248C165.762 131.611 165.314 131.792 164.781 131.792ZM213.551 154C212.356 154 211.279 153.733 210.319 153.2C209.38 152.667 208.633 151.931 208.079 150.992C207.545 150.053 207.279 148.997 207.279 147.824H211.439C211.439 148.251 211.513 148.688 211.663 149.136C211.812 149.563 212.047 149.915 212.367 150.192C212.687 150.469 213.081 150.608 213.551 150.608H215.183V154H213.551ZM202.767 161.552C200.761 161.552 199.023 161.211 197.551 160.528C196.079 159.867 194.937 158.896 194.127 157.616C193.337 156.357 192.943 154.832 192.943 153.04C192.943 152.272 193.017 151.504 193.167 150.736C193.337 149.968 193.583 149.264 193.903 148.624C194.223 147.984 194.617 147.472 195.087 147.088C195.577 146.704 196.153 146.512 196.815 146.512C197.369 146.512 197.828 146.629 198.191 146.864C198.553 147.099 198.82 147.365 198.991 147.664C199.183 147.963 199.279 148.229 199.279 148.464C198.852 148.784 198.468 149.136 198.127 149.52C197.807 149.883 197.551 150.373 197.359 150.992C197.188 151.589 197.103 152.4 197.103 153.424C197.103 154.96 197.583 156.133 198.543 156.944C199.524 157.755 200.953 158.16 202.831 158.16C204.452 158.16 205.593 157.797 206.255 157.072C206.937 156.368 207.279 155.109 207.279 153.296V140.816C207.279 140.283 207.428 139.792 207.727 139.344C208.025 138.875 208.569 138.64 209.359 138.64C210.148 138.64 210.692 138.875 210.991 139.344C211.289 139.792 211.439 140.283 211.439 140.816V153.296C211.439 155.813 210.756 157.819 209.391 159.312C208.025 160.805 205.817 161.552 202.767 161.552ZM215.183 154V150.608C215.417 150.608 215.577 150.768 215.663 151.088C215.769 151.387 215.823 151.792 215.823 152.304C215.823 152.816 215.769 153.232 215.663 153.552C215.577 153.851 215.417 154 215.183 154ZM202.223 138.64C201.561 138.64 200.996 138.416 200.527 137.968C200.079 137.499 199.855 136.955 199.855 136.336C199.855 135.696 200.079 135.152 200.527 134.704C200.996 134.256 201.561 134.032 202.223 134.032C202.841 134.032 203.375 134.256 203.823 134.704C204.292 135.152 204.527 135.696 204.527 136.336C204.527 136.955 204.292 137.499 203.823 137.968C203.375 138.416 202.841 138.64 202.223 138.64ZM216.775 154V150.608H224.839C225.82 150.608 226.556 150.235 227.047 149.488C227.559 148.72 227.815 147.653 227.815 146.288C227.815 144.773 227.538 143.685 226.983 143.024C226.428 142.363 225.596 142.032 224.487 142.032C224.167 142.032 223.868 142.053 223.591 142.096C223.314 142.117 223.1 142.149 222.951 142.192V154H218.791V142.192C218.791 141.168 219.314 140.325 220.359 139.664C221.426 138.981 222.802 138.64 224.487 138.64C226.77 138.64 228.583 139.312 229.927 140.656C231.292 142 231.975 143.877 231.975 146.288C231.975 147.909 231.676 149.296 231.079 150.448C230.482 151.6 229.671 152.485 228.647 153.104C227.644 153.701 226.514 154 225.255 154H216.775ZM216.775 154C216.562 154 216.402 153.851 216.295 153.552C216.188 153.232 216.135 152.816 216.135 152.304C216.135 151.792 216.188 151.387 216.295 151.088C216.402 150.768 216.562 150.608 216.775 150.608V154ZM276.684 154C275.489 154 274.412 153.733 273.452 153.2C272.513 152.667 271.767 151.931 271.212 150.992C270.679 150.053 270.412 148.997 270.412 147.824H274.572C274.572 148.251 274.647 148.688 274.796 149.136C274.945 149.563 275.18 149.915 275.5 150.192C275.82 150.469 276.215 150.608 276.684 150.608H278.316V154H276.684ZM253.644 154C252.193 154 250.988 153.733 250.028 153.2C249.068 152.667 248.353 151.888 247.884 150.864C247.415 149.819 247.18 148.549 247.18 147.056C247.18 145.563 247.372 144.389 247.756 143.536C248.161 142.683 248.663 142.085 249.26 141.744C249.879 141.381 250.508 141.2 251.148 141.2C251.98 141.2 252.588 141.413 252.972 141.84C253.356 142.245 253.559 142.651 253.58 143.056C253.281 143.205 252.951 143.483 252.588 143.888C252.247 144.272 251.948 144.784 251.692 145.424C251.457 146.064 251.34 146.843 251.34 147.76C251.34 148.315 251.404 148.773 251.532 149.136C251.681 149.499 251.863 149.787 252.076 150C252.311 150.213 252.567 150.373 252.844 150.48C253.121 150.565 253.409 150.608 253.708 150.608H268.172C268.897 150.608 269.452 150.384 269.836 149.936C270.22 149.488 270.412 148.837 270.412 147.984V142.192C270.263 142.149 270.049 142.117 269.772 142.096C269.495 142.053 269.196 142.032 268.876 142.032C267.767 142.032 266.935 142.363 266.38 143.024C265.825 143.685 265.548 144.773 265.548 146.288C265.548 147.653 265.793 148.688 266.284 149.392C266.796 150.096 267.543 150.501 268.524 150.608L268.108 153.968C266.871 153.84 265.74 153.488 264.716 152.912C263.713 152.315 262.903 151.472 262.284 150.384C261.687 149.275 261.388 147.909 261.388 146.288C261.388 143.877 262.06 142 263.404 140.656C264.769 139.312 266.593 138.64 268.876 138.64C270.561 138.64 271.927 138.981 272.972 139.664C274.039 140.325 274.572 141.168 274.572 142.192V147.984C274.572 149.136 274.295 150.171 273.74 151.088C273.207 151.984 272.46 152.699 271.5 153.232C270.54 153.744 269.431 154 268.172 154H253.644ZM278.316 154V150.608C278.551 150.608 278.711 150.768 278.796 151.088C278.903 151.387 278.956 151.792 278.956 152.304C278.956 152.816 278.903 153.232 278.796 153.552C278.711 153.851 278.551 154 278.316 154ZM268.908 136.56C268.247 136.56 267.681 136.336 267.212 135.888C266.764 135.419 266.54 134.875 266.54 134.256C266.54 133.616 266.764 133.072 267.212 132.624C267.681 132.176 268.247 131.952 268.908 131.952C269.527 131.952 270.06 132.176 270.508 132.624C270.977 133.072 271.212 133.616 271.212 134.256C271.212 134.875 270.977 135.419 270.508 135.888C270.06 136.336 269.527 136.56 268.908 136.56ZM305.327 154C304.132 154 303.055 153.733 302.095 153.2C301.156 152.667 300.409 151.931 299.855 150.992C299.321 150.053 299.055 148.997 299.055 147.824L303.215 147.024V147.824C303.215 148.251 303.289 148.688 303.439 149.136C303.588 149.563 303.823 149.915 304.143 150.192C304.463 150.469 304.857 150.608 305.327 150.608H306.959V154H305.327ZM279.919 154V150.608H296.783C297.465 150.608 298.009 150.331 298.415 149.776C298.841 149.221 299.055 148.315 299.055 147.056C299.055 145.285 298.628 144.005 297.775 143.216C296.943 142.427 295.759 142.032 294.223 142.032C293.028 142.032 292.004 142.235 291.151 142.64C290.319 143.024 289.615 143.536 289.039 144.176C288.484 144.795 288.036 145.477 287.695 146.224C287.353 146.949 287.076 147.653 286.863 148.336H284.815C285.156 146.949 285.529 145.733 285.935 144.688C286.34 143.621 286.788 142.704 287.279 141.936C287.791 141.168 288.367 140.549 289.007 140.08C289.668 139.589 290.415 139.227 291.247 138.992C292.079 138.757 293.028 138.64 294.095 138.64C296.953 138.64 299.183 139.387 300.783 140.88C302.404 142.373 303.215 144.411 303.215 146.992C303.215 149.168 302.639 150.885 301.487 152.144C300.356 153.381 298.788 154 296.783 154H279.919ZM282.703 154V143.952C282.703 143.333 282.543 142.853 282.223 142.512C281.924 142.149 281.625 141.925 281.327 141.84C281.433 141.477 281.7 141.104 282.127 140.72C282.575 140.336 283.236 140.144 284.111 140.144C284.772 140.144 285.284 140.261 285.647 140.496C286.031 140.731 286.308 141.029 286.479 141.392C286.649 141.733 286.756 142.075 286.799 142.416C286.841 142.736 286.863 142.992 286.863 143.184V154H282.703ZM279.919 154C279.705 154 279.545 153.851 279.439 153.552C279.332 153.232 279.279 152.816 279.279 152.304C279.279 151.792 279.332 151.387 279.439 151.088C279.545 150.768 279.705 150.608 279.919 150.608V154ZM306.959 154V150.608C307.193 150.608 307.353 150.768 307.439 151.088C307.545 151.387 307.599 151.792 307.599 152.304C307.599 152.816 307.545 153.232 307.439 153.552C307.353 153.851 307.193 154 306.959 154ZM308.55 154V150.608H310.182C310.673 150.608 311.067 150.469 311.366 150.192C311.686 149.915 311.921 149.563 312.07 149.136C312.219 148.688 312.294 148.251 312.294 147.824V140.752C312.294 140.261 312.443 139.792 312.742 139.344C313.041 138.875 313.585 138.64 314.374 138.64C315.163 138.64 315.707 138.875 316.006 139.344C316.305 139.792 316.454 140.261 316.454 140.752V147.824C316.454 148.997 316.177 150.053 315.622 150.992C315.089 151.931 314.353 152.667 313.414 153.2C312.475 153.733 311.398 154 310.182 154H308.55ZM318.566 154C317.371 154 316.294 153.733 315.334 153.2C314.395 152.667 313.649 151.931 313.094 150.992C312.561 150.053 312.294 148.997 312.294 147.824H316.454C316.454 148.251 316.529 148.688 316.678 149.136C316.827 149.563 317.062 149.915 317.382 150.192C317.702 150.469 318.097 150.608 318.566 150.608H320.198V154H318.566ZM320.198 154V150.608C320.433 150.608 320.593 150.768 320.678 151.088C320.785 151.387 320.838 151.792 320.838 152.304C320.838 152.816 320.785 153.232 320.678 153.552C320.593 153.851 320.433 154 320.198 154ZM308.55 154C308.337 154 308.177 153.851 308.07 153.552C307.963 153.232 307.91 152.816 307.91 152.304C307.91 151.792 307.963 151.387 308.07 151.088C308.177 150.768 308.337 150.608 308.55 150.608V154ZM314.406 136.56C313.745 136.56 313.179 136.336 312.71 135.888C312.262 135.419 312.038 134.875 312.038 134.256C312.038 133.616 312.262 133.072 312.71 132.624C313.179 132.176 313.745 131.952 314.406 131.952C315.025 131.952 315.558 132.176 316.006 132.624C316.475 133.072 316.71 133.616 316.71 134.256C316.71 134.875 316.475 135.419 316.006 135.888C315.558 136.336 315.025 136.56 314.406 136.56ZM321.806 154V150.608H323.438C323.929 150.608 324.324 150.469 324.622 150.192C324.942 149.915 325.177 149.563 325.326 149.136C325.476 148.688 325.55 148.251 325.55 147.824V137.584C325.55 136.816 325.454 136.261 325.262 135.92C325.07 135.579 324.857 135.355 324.622 135.248C324.388 135.141 324.206 135.056 324.078 134.992C324.078 134.8 324.153 134.544 324.302 134.224C324.473 133.883 324.74 133.573 325.102 133.296C325.486 133.019 325.988 132.88 326.606 132.88C327.246 132.88 327.79 133.051 328.238 133.392C328.708 133.712 329.07 134.16 329.326 134.736C329.582 135.312 329.71 135.973 329.71 136.72V147.824C329.71 148.997 329.433 150.053 328.878 150.992C328.345 151.931 327.609 152.667 326.67 153.2C325.732 153.733 324.654 154 323.438 154H321.806ZM321.806 154C321.593 154 321.433 153.851 321.326 153.552C321.22 153.232 321.166 152.816 321.166 152.304C321.166 151.792 321.22 151.387 321.326 151.088C321.433 150.768 321.593 150.608 321.806 150.608V154ZM338.308 154C337.519 154 336.975 153.776 336.676 153.328C336.378 152.859 336.228 152.357 336.228 151.824V137.584C336.228 136.816 336.132 136.261 335.94 135.92C335.748 135.579 335.535 135.355 335.3 135.248C335.066 135.141 334.884 135.056 334.756 134.992C334.756 134.821 334.831 134.565 334.98 134.224C335.151 133.883 335.418 133.573 335.78 133.296C336.164 133.019 336.676 132.88 337.316 132.88C337.935 132.88 338.468 133.051 338.916 133.392C339.386 133.712 339.748 134.16 340.004 134.736C340.26 135.312 340.388 135.973 340.388 136.72V151.888C340.388 152.379 340.239 152.859 339.94 153.328C339.642 153.776 339.098 154 338.308 154Z" fill="#4F4F4F"/>
<path d="M295.785 109.208C295.582 108.92 295.513 108.669 295.577 108.456C295.641 108.232 295.774 108.061 295.977 107.944C296.19 107.827 296.42 107.784 296.665 107.816C296.91 107.837 297.118 107.96 297.289 108.184L297.113 108.04C296.964 107.955 296.788 107.789 296.585 107.544C296.393 107.288 296.222 106.979 296.073 106.616C295.934 106.243 295.865 105.843 295.865 105.416C295.865 105.032 295.934 104.675 296.073 104.344C296.222 104.013 296.43 103.725 296.697 103.48C296.964 103.235 297.294 103.048 297.689 102.92C298.084 102.781 298.526 102.712 299.017 102.712C299.561 102.712 299.956 102.781 300.201 102.92C300.457 103.059 300.617 103.224 300.681 103.416C300.756 103.597 300.793 103.752 300.793 103.88C300.793 104.2 300.713 104.435 300.553 104.584C300.393 104.723 300.212 104.797 300.009 104.808C299.817 104.819 299.673 104.781 299.577 104.696C299.588 104.408 299.513 104.173 299.353 103.992C299.204 103.8 299.022 103.661 298.809 103.576C298.596 103.48 298.398 103.432 298.217 103.432H298.505C298.345 103.432 298.169 103.496 297.977 103.624C297.796 103.752 297.636 103.949 297.497 104.216C297.358 104.483 297.289 104.84 297.289 105.288C297.289 105.885 297.417 106.344 297.673 106.664C297.94 106.973 298.27 107.181 298.665 107.288C299.06 107.395 299.444 107.448 299.817 107.448C300.062 107.448 300.281 107.437 300.473 107.416C300.665 107.384 300.804 107.357 300.889 107.336C301.113 107.336 301.268 107.389 301.353 107.496C301.449 107.603 301.497 107.725 301.497 107.864C301.508 107.992 301.481 108.109 301.417 108.216C301.364 108.323 301.294 108.376 301.209 108.376C300.846 108.408 300.462 108.445 300.057 108.488C299.662 108.531 299.268 108.579 298.873 108.632C298.489 108.675 298.121 108.723 297.769 108.776C297.417 108.829 297.097 108.883 296.809 108.936C296.521 108.979 296.286 109.021 296.105 109.064C295.934 109.117 295.828 109.165 295.785 109.208ZM307.652 109C307.097 109 306.601 108.872 306.164 108.616C305.737 108.349 305.401 107.992 305.156 107.544C304.911 107.085 304.788 106.568 304.788 105.992V100.808C304.788 100.477 304.74 100.179 304.644 99.912C304.559 99.6453 304.447 99.4213 304.308 99.24C304.169 99.0587 304.036 98.9253 303.908 98.84C303.951 98.7867 304.02 98.728 304.116 98.664C304.223 98.6 304.351 98.5467 304.5 98.504C304.649 98.4613 304.804 98.44 304.964 98.44C305.167 98.44 305.364 98.4933 305.556 98.6C305.748 98.696 305.908 98.872 306.036 99.128C306.164 99.384 306.228 99.7467 306.228 100.216V105.992C306.228 106.291 306.276 106.584 306.372 106.872C306.479 107.16 306.639 107.4 306.852 107.592C307.065 107.784 307.332 107.88 307.652 107.88H308.148V109H307.652ZM308.148 109V107.88C308.276 107.88 308.361 107.928 308.404 108.024C308.447 108.12 308.468 108.259 308.468 108.44C308.468 108.611 308.447 108.749 308.404 108.856C308.361 108.952 308.276 109 308.148 109ZM308.955 109V107.88H310.027C310.368 107.88 310.651 107.8 310.875 107.64C311.099 107.48 311.27 107.277 311.387 107.032C311.515 106.787 311.606 106.531 311.659 106.264C311.723 105.997 311.76 105.757 311.771 105.544C311.782 105.32 311.787 105.16 311.787 105.064C311.787 104.776 311.76 104.435 311.707 104.04C311.654 103.645 311.531 103.235 311.339 102.808C311.158 102.381 310.854 101.992 310.427 101.64C310.48 101.587 310.544 101.539 310.619 101.496C310.704 101.443 310.8 101.4 310.907 101.368C311.014 101.336 311.136 101.32 311.275 101.32C311.648 101.32 311.958 101.443 312.203 101.688C312.459 101.933 312.662 102.253 312.811 102.648C312.96 103.032 313.067 103.443 313.131 103.88C313.195 104.317 313.227 104.723 313.227 105.096C313.227 106.323 312.944 107.283 312.379 107.976C311.814 108.659 311.03 109 310.027 109H308.955ZM308.955 109C308.827 109 308.742 108.952 308.699 108.856C308.656 108.749 308.635 108.611 308.635 108.44C308.635 108.259 308.656 108.12 308.699 108.024C308.742 107.928 308.827 107.88 308.955 107.88V109ZM312.475 100.28C312.23 100.28 312.016 100.189 311.835 100.008C311.654 99.8267 311.563 99.608 311.563 99.352C311.563 99.1067 311.654 98.8933 311.835 98.712C312.016 98.5307 312.23 98.44 312.475 98.44C312.731 98.44 312.944 98.5307 313.115 98.712C313.296 98.8933 313.387 99.1067 313.387 99.352C313.387 99.608 313.296 99.8267 313.115 100.008C312.944 100.189 312.731 100.28 312.475 100.28ZM310.139 100.28C309.894 100.28 309.68 100.189 309.499 100.008C309.318 99.8267 309.227 99.608 309.227 99.352C309.227 99.1067 309.318 98.8933 309.499 98.712C309.68 98.5307 309.894 98.44 310.139 98.44C310.395 98.44 310.608 98.5307 310.779 98.712C310.96 98.8933 311.051 99.1067 311.051 99.352C311.051 99.608 310.96 99.8267 310.779 100.008C310.608 100.189 310.395 100.28 310.139 100.28ZM311.307 98.232C311.072 98.232 310.87 98.152 310.699 97.992C310.539 97.8213 310.459 97.6187 310.459 97.384C310.459 97.1493 310.539 96.952 310.699 96.792C310.87 96.6213 311.072 96.536 311.307 96.536C311.542 96.536 311.739 96.6213 311.899 96.792C312.07 96.952 312.155 97.1493 312.155 97.384C312.155 97.6187 312.07 97.8213 311.899 97.992C311.739 98.152 311.542 98.232 311.307 98.232ZM325.771 109C325.217 109 324.721 108.872 324.283 108.616C323.857 108.349 323.521 107.992 323.275 107.544C323.03 107.085 322.907 106.568 322.907 105.992H324.347C324.347 106.291 324.395 106.584 324.491 106.872C324.598 107.16 324.758 107.4 324.971 107.592C325.185 107.784 325.451 107.88 325.771 107.88H326.347V109H325.771ZM316.315 109C316.145 109 316.027 108.936 315.963 108.808C315.899 108.68 315.867 108.557 315.867 108.44C315.867 108.323 315.899 108.2 315.963 108.072C316.027 107.944 316.145 107.88 316.315 107.88H321.483C321.814 107.88 322.081 107.784 322.283 107.592C322.497 107.4 322.651 107.16 322.747 106.872C322.854 106.584 322.907 106.291 322.907 105.992V100.808C322.907 100.477 322.859 100.179 322.763 99.912C322.678 99.6453 322.566 99.4213 322.427 99.24C322.289 99.0587 322.155 98.9253 322.027 98.84C322.07 98.7867 322.139 98.728 322.235 98.664C322.342 98.6 322.465 98.5467 322.603 98.504C322.753 98.4613 322.907 98.44 323.067 98.44C323.27 98.44 323.467 98.4933 323.659 98.6C323.862 98.696 324.027 98.872 324.155 99.128C324.283 99.384 324.347 99.7467 324.347 100.216V105.992C324.347 106.568 324.225 107.085 323.979 107.544C323.734 107.992 323.398 108.349 322.971 108.616C322.545 108.872 322.049 109 321.483 109H316.315ZM318.507 107.88V103.064C318.507 102.733 318.459 102.435 318.363 102.168C318.278 101.901 318.166 101.677 318.027 101.496C317.889 101.315 317.755 101.181 317.627 101.096C317.67 101.043 317.739 100.984 317.835 100.92C317.942 100.856 318.065 100.803 318.203 100.76C318.353 100.717 318.507 100.696 318.667 100.696C318.87 100.696 319.067 100.749 319.259 100.856C319.462 100.952 319.627 101.128 319.755 101.384C319.883 101.64 319.947 102.003 319.947 102.472V107.88H318.507ZM326.347 109V107.88C326.475 107.88 326.561 107.928 326.603 108.024C326.646 108.12 326.667 108.259 326.667 108.44C326.667 108.611 326.646 108.749 326.603 108.856C326.561 108.952 326.475 109 326.347 109ZM327.149 109V107.88H327.549C327.879 107.88 328.146 107.784 328.349 107.592C328.562 107.4 328.717 107.16 328.813 106.872C328.919 106.584 328.973 106.291 328.973 105.992V102.024C328.973 101.757 329.042 101.576 329.181 101.48C329.319 101.373 329.49 101.32 329.693 101.32C329.895 101.32 330.066 101.373 330.205 101.48C330.343 101.576 330.413 101.757 330.413 102.024V105.992C330.413 106.568 330.29 107.085 330.045 107.544C329.799 107.992 329.463 108.349 329.037 108.616C328.61 108.872 328.114 109 327.549 109H327.149ZM331.837 109C331.282 109 330.786 108.872 330.349 108.616C329.922 108.349 329.586 107.992 329.341 107.544C329.095 107.085 328.973 106.568 328.973 105.992H330.413C330.413 106.291 330.461 106.584 330.557 106.872C330.663 107.16 330.823 107.4 331.037 107.592C331.25 107.784 331.517 107.88 331.837 107.88H332.413V109H331.837ZM332.413 109V107.88C332.541 107.88 332.626 107.928 332.669 108.024C332.711 108.12 332.733 108.259 332.733 108.44C332.733 108.611 332.711 108.749 332.669 108.856C332.626 108.952 332.541 109 332.413 109ZM327.149 109C327.021 109 326.935 108.952 326.893 108.856C326.85 108.749 326.829 108.611 326.829 108.44C326.829 108.259 326.85 108.12 326.893 108.024C326.935 107.928 327.021 107.88 327.149 107.88V109ZM330.861 100.28C330.615 100.28 330.402 100.189 330.221 100.008C330.039 99.8267 329.949 99.608 329.949 99.352C329.949 99.1067 330.039 98.8933 330.221 98.712C330.402 98.5307 330.615 98.44 330.861 98.44C331.117 98.44 331.33 98.5307 331.501 98.712C331.682 98.8933 331.773 99.1067 331.773 99.352C331.773 99.608 331.682 99.8267 331.501 100.008C331.33 100.189 331.117 100.28 330.861 100.28ZM328.525 100.28C328.279 100.28 328.066 100.189 327.885 100.008C327.703 99.8267 327.613 99.608 327.613 99.352C327.613 99.1067 327.703 98.8933 327.885 98.712C328.066 98.5307 328.279 98.44 328.525 98.44C328.781 98.44 328.994 98.5307 329.165 98.712C329.346 98.8933 329.437 99.1067 329.437 99.352C329.437 99.608 329.346 99.8267 329.165 100.008C328.994 100.189 328.781 100.28 328.525 100.28ZM329.693 98.232C329.458 98.232 329.255 98.152 329.085 97.992C328.925 97.8213 328.845 97.6187 328.845 97.384C328.845 97.1493 328.925 96.952 329.085 96.792C329.255 96.6213 329.458 96.536 329.693 96.536C329.927 96.536 330.125 96.6213 330.285 96.792C330.455 96.952 330.541 97.1493 330.541 97.384C330.541 97.6187 330.455 97.8213 330.285 97.992C330.125 98.152 329.927 98.232 329.693 98.232ZM333.214 109V107.88H333.614C333.945 107.88 334.212 107.784 334.414 107.592C334.628 107.4 334.782 107.16 334.878 106.872C334.985 106.584 335.038 106.291 335.038 105.992V100.808C335.038 100.477 334.99 100.179 334.894 99.912C334.809 99.6453 334.697 99.4213 334.558 99.24C334.42 99.0587 334.286 98.9253 334.158 98.84C334.201 98.7867 334.27 98.728 334.366 98.664C334.473 98.6 334.596 98.5467 334.734 98.504C334.884 98.4613 335.038 98.44 335.198 98.44C335.401 98.44 335.598 98.4933 335.79 98.6C335.993 98.696 336.158 98.872 336.286 99.128C336.414 99.384 336.478 99.7467 336.478 100.216V105.992C336.478 106.568 336.356 107.085 336.11 107.544C335.865 107.992 335.529 108.349 335.102 108.616C334.676 108.872 334.18 109 333.614 109H333.214ZM333.214 109C333.086 109 333.001 108.952 332.958 108.856C332.916 108.749 332.894 108.611 332.894 108.44C332.894 108.259 332.916 108.12 332.958 108.024C333.001 107.928 333.086 107.88 333.214 107.88V109ZM340.695 109C340.354 109 340.151 108.899 340.087 108.696C340.023 108.493 339.991 108.253 339.991 107.976V100.808C339.991 100.477 339.943 100.179 339.847 99.912C339.762 99.6453 339.65 99.4213 339.511 99.24C339.373 99.0587 339.239 98.9253 339.111 98.84C339.154 98.7867 339.223 98.728 339.319 98.664C339.426 98.6 339.554 98.5467 339.703 98.504C339.853 98.4613 340.007 98.44 340.167 98.44C340.37 98.44 340.567 98.4933 340.759 98.6C340.951 98.696 341.111 98.872 341.239 99.128C341.367 99.384 341.431 99.7467 341.431 100.216V107.976C341.431 108.253 341.394 108.493 341.319 108.696C341.245 108.899 341.037 109 340.695 109Z" fill="#4F4F4F"/>
<path d="M120.144 256L136.144 216.64H125.264C122.704 216.64 120.72 217.259 119.312 218.496C117.947 219.691 117.264 221.419 117.264 223.68H115.344V218.88C115.344 218.027 115.493 217.216 115.792 216.448C116.091 215.637 116.624 214.997 117.392 214.528C118.203 214.016 119.333 213.76 120.784 213.76H143.888V216.64L127.888 256H120.144Z" fill="#4F4F4F"/>
<path d="M282.616 251V216.312L277.048 219.896L275.512 217.912L285.368 208.76H290.936V251H282.616ZM312.648 252.28C309.149 252.28 306.29 251.661 304.072 250.424C301.853 249.187 299.848 247.501 298.056 245.368L299.911 243.704C301.533 245.709 303.346 247.16 305.352 248.056C307.4 248.952 309.341 249.4 311.176 249.4C312.84 249.4 314.333 249.059 315.656 248.376C316.978 247.651 318.024 246.52 318.792 244.984C319.602 243.405 320.008 241.357 320.008 238.84C320.008 235.512 319.112 233.037 317.32 231.416C315.57 229.795 313.096 228.984 309.896 228.984C308.445 228.984 306.952 229.176 305.416 229.56C303.922 229.901 302.749 230.2 301.896 230.456L299.336 227.96L300.04 208.76H324.936V211.576H307.464L306.888 226.36L308.808 226.232C309.362 226.189 309.96 226.147 310.6 226.104C311.24 226.061 311.858 226.04 312.456 226.04C314.12 226.04 315.912 226.232 317.832 226.616C319.752 227 321.544 227.683 323.208 228.664C324.914 229.603 326.301 230.904 327.368 232.568C328.434 234.232 328.968 236.323 328.968 238.84C328.968 241.528 328.413 243.747 327.304 245.496C326.194 247.245 324.786 248.611 323.08 249.592C321.373 250.573 319.581 251.256 317.704 251.64C315.869 252.067 314.184 252.28 312.648 252.28Z" fill="#4F4F4F"/>
<path d="M67.5271 276V275.3C68.1151 274.731 68.6471 274.217 69.1231 273.76C69.6085 273.303 70.0331 272.883 70.3971 272.5C70.7611 272.117 71.0691 271.749 71.3211 271.394C71.5731 271.039 71.7598 270.68 71.8811 270.316C72.0118 269.952 72.0771 269.56 72.0771 269.14C72.0771 268.673 71.9931 268.286 71.8251 267.978C71.6571 267.661 71.4331 267.427 71.1531 267.278C70.8825 267.119 70.5838 267.04 70.2571 267.04C69.6971 267.04 69.2071 267.245 68.7871 267.656C68.3671 268.057 68.0871 268.645 67.9471 269.42H67.6671C67.6671 269.065 67.6811 268.729 67.7091 268.412C67.7371 268.085 67.8351 267.815 68.0031 267.6C68.2551 267.292 68.6238 267.031 69.1091 266.816C69.5945 266.592 70.1171 266.48 70.6771 266.48C70.9571 266.48 71.2558 266.517 71.5731 266.592C71.8998 266.657 72.2078 266.783 72.4971 266.97C72.7865 267.157 73.0198 267.427 73.1971 267.782C73.3838 268.127 73.4771 268.58 73.4771 269.14C73.4771 269.541 73.4118 269.919 73.2811 270.274C73.1598 270.619 72.9871 270.955 72.7631 271.282C72.5391 271.609 72.2731 271.935 71.9651 272.262C71.6571 272.579 71.3165 272.906 70.9431 273.242C70.5791 273.569 70.1871 273.914 69.7671 274.278C69.3565 274.642 68.9365 275.029 68.5071 275.44H71.6571C72.2171 275.44 72.6465 275.319 72.9451 275.076C73.2531 274.833 73.4071 274.465 73.4071 273.97H73.6871V274.88C73.6871 275.067 73.6545 275.249 73.5891 275.426C73.5238 275.594 73.4071 275.734 73.2391 275.846C73.0711 275.949 72.8238 276 72.4971 276H67.5271ZM79.165 276.28C78.353 276.28 77.6996 276.079 77.205 275.678C76.7103 275.267 76.351 274.693 76.127 273.956C75.9123 273.219 75.805 272.36 75.805 271.38C75.805 270.391 75.9123 269.532 76.127 268.804C76.351 268.067 76.7103 267.497 77.205 267.096C77.6996 266.685 78.353 266.48 79.165 266.48C79.9863 266.48 80.6396 266.685 81.125 267.096C81.6196 267.497 81.9743 268.067 82.189 268.804C82.413 269.532 82.525 270.391 82.525 271.38C82.525 272.36 82.413 273.219 82.189 273.956C81.9743 274.693 81.6196 275.267 81.125 275.678C80.6396 276.079 79.9863 276.28 79.165 276.28ZM79.165 275.72C79.9303 275.72 80.4483 275.365 80.719 274.656C80.9896 273.937 81.125 272.845 81.125 271.38C81.125 269.905 80.9896 268.813 80.719 268.104C80.4483 267.395 79.9303 267.04 79.165 267.04C78.3996 267.04 77.8816 267.395 77.611 268.104C77.3403 268.813 77.205 269.905 77.205 271.38C77.205 272.845 77.3403 273.937 77.611 274.656C77.8816 275.365 78.3996 275.72 79.165 275.72ZM84.5267 276V275.3C85.1147 274.731 85.6467 274.217 86.1227 273.76C86.6081 273.303 87.0327 272.883 87.3967 272.5C87.7607 272.117 88.0687 271.749 88.3207 271.394C88.5727 271.039 88.7594 270.68 88.8807 270.316C89.0114 269.952 89.0767 269.56 89.0767 269.14C89.0767 268.673 88.9927 268.286 88.8247 267.978C88.6567 267.661 88.4327 267.427 88.1527 267.278C87.8821 267.119 87.5834 267.04 87.2567 267.04C86.6967 267.04 86.2067 267.245 85.7867 267.656C85.3667 268.057 85.0867 268.645 84.9467 269.42H84.6667C84.6667 269.065 84.6807 268.729 84.7087 268.412C84.7367 268.085 84.8347 267.815 85.0027 267.6C85.2547 267.292 85.6234 267.031 86.1087 266.816C86.5941 266.592 87.1167 266.48 87.6767 266.48C87.9567 266.48 88.2554 266.517 88.5727 266.592C88.8994 266.657 89.2074 266.783 89.4967 266.97C89.7861 267.157 90.0194 267.427 90.1967 267.782C90.3834 268.127 90.4767 268.58 90.4767 269.14C90.4767 269.541 90.4114 269.919 90.2807 270.274C90.1594 270.619 89.9867 270.955 89.7627 271.282C89.5387 271.609 89.2727 271.935 88.9647 272.262C88.6567 272.579 88.3161 272.906 87.9427 273.242C87.5787 273.569 87.1867 273.914 86.7667 274.278C86.3561 274.642 85.9361 275.029 85.5067 275.44H88.6567C89.2167 275.44 89.6461 275.319 89.9447 275.076C90.2527 274.833 90.4067 274.465 90.4067 273.97H90.6867V274.88C90.6867 275.067 90.6541 275.249 90.5887 275.426C90.5234 275.594 90.4067 275.734 90.2387 275.846C90.0707 275.949 89.8234 276 89.4967 276H84.5267ZM95.8006 276.28C95.3339 276.28 94.9092 276.219 94.5266 276.098C94.1532 275.977 93.8079 275.804 93.4906 275.58C93.1826 275.356 92.8979 275.09 92.6366 274.782L92.8606 274.53C93.2152 274.922 93.6026 275.221 94.0226 275.426C94.4426 275.622 94.9186 275.72 95.4506 275.72C95.8239 275.72 96.1692 275.641 96.4866 275.482C96.8039 275.314 97.0606 275.062 97.2566 274.726C97.4526 274.39 97.5506 273.951 97.5506 273.41C97.5506 272.915 97.4572 272.509 97.2706 272.192C97.0839 271.875 96.8506 271.637 96.5706 271.478C96.2906 271.319 96.0106 271.24 95.7306 271.24C95.4506 271.24 95.2266 271.249 95.0586 271.268C94.8906 271.277 94.7319 271.296 94.5826 271.324C94.4426 271.352 94.2652 271.394 94.0506 271.45L93.6866 270.862L97.4806 267.32H94.8906C94.3306 267.32 93.8966 267.441 93.5886 267.684C93.2899 267.927 93.1406 268.295 93.1406 268.79H92.8606V267.88C92.8606 267.693 92.8932 267.516 92.9586 267.348C93.0239 267.171 93.1406 267.031 93.3086 266.928C93.4859 266.816 93.7332 266.76 94.0506 266.76H98.5026V267.32L94.7506 270.82C94.9932 270.755 95.2406 270.717 95.4926 270.708C95.7539 270.689 95.9266 270.68 96.0106 270.68C96.2159 270.68 96.4819 270.717 96.8086 270.792C97.1352 270.857 97.4619 270.988 97.7886 271.184C98.1152 271.38 98.3906 271.655 98.6146 272.01C98.8386 272.365 98.9506 272.831 98.9506 273.41C98.9506 274.026 98.8386 274.525 98.6146 274.908C98.3906 275.281 98.1059 275.571 97.7606 275.776C97.4246 275.972 97.0792 276.103 96.7246 276.168C96.3699 276.243 96.0619 276.28 95.8006 276.28ZM105.394 278.17L105.254 277.96C105.497 277.801 105.698 277.629 105.856 277.442C106.024 277.255 106.15 277.05 106.234 276.826C106.328 276.602 106.374 276.35 106.374 276.07C106.337 276.098 106.276 276.126 106.192 276.154C106.108 276.191 106.029 276.21 105.954 276.21C105.74 276.21 105.558 276.135 105.408 275.986C105.259 275.837 105.184 275.655 105.184 275.44C105.184 275.197 105.264 274.997 105.422 274.838C105.581 274.679 105.782 274.6 106.024 274.6C106.304 274.6 106.524 274.684 106.682 274.852C106.85 275.02 106.934 275.263 106.934 275.58C106.934 276.177 106.799 276.686 106.528 277.106C106.267 277.535 105.889 277.89 105.394 278.17ZM117.621 279.556C116.743 279.556 115.997 279.407 115.381 279.108C114.774 278.809 114.312 278.399 113.995 277.876C113.687 277.363 113.533 276.789 113.533 276.154C113.533 275.921 113.556 275.631 113.603 275.286C113.659 274.931 113.747 274.581 113.869 274.236C113.999 273.881 114.172 273.587 114.387 273.354C114.611 273.111 114.895 272.99 115.241 272.99C115.362 272.99 115.469 273.004 115.563 273.032C115.656 273.06 115.735 273.097 115.801 273.144C115.875 273.181 115.936 273.223 115.983 273.27C115.647 273.55 115.395 273.863 115.227 274.208C115.059 274.553 114.942 274.889 114.877 275.216C114.821 275.533 114.793 275.813 114.793 276.056C114.793 276.943 115.049 277.582 115.563 277.974C116.085 278.375 116.767 278.576 117.607 278.576C118.428 278.576 119.021 278.385 119.385 278.002C119.758 277.629 119.945 277.003 119.945 276.126V270.666C119.945 270.433 120.005 270.274 120.127 270.19C120.248 270.097 120.397 270.05 120.575 270.05C120.752 270.05 120.901 270.097 121.023 270.19C121.144 270.274 121.205 270.433 121.205 270.666V276.126C121.205 277.171 120.92 278.002 120.351 278.618C119.781 279.243 118.871 279.556 117.621 279.556ZM122.451 276C121.965 276 121.531 275.888 121.149 275.664C120.775 275.431 120.481 275.118 120.267 274.726C120.052 274.325 119.945 273.872 119.945 273.368H121.205C121.205 273.629 121.247 273.886 121.331 274.138C121.424 274.39 121.564 274.6 121.751 274.768C121.937 274.936 122.171 275.02 122.451 275.02H122.647V276H122.451ZM126.623 276C126.137 276 125.703 275.888 125.321 275.664C124.947 275.431 124.653 275.118 124.439 274.726C124.224 274.325 124.117 273.872 124.117 273.368H125.377C125.377 273.629 125.419 273.886 125.503 274.138C125.596 274.39 125.736 274.6 125.923 274.768C126.109 274.936 126.343 275.02 126.623 275.02H126.903V276H126.623ZM122.647 276V275.02H122.871C123.16 275.02 123.393 274.936 123.571 274.768C123.757 274.6 123.893 274.39 123.977 274.138C124.07 273.886 124.117 273.629 124.117 273.368V270.33C124.117 270.097 124.177 269.938 124.299 269.854C124.42 269.761 124.569 269.714 124.747 269.714C124.924 269.714 125.073 269.761 125.195 269.854C125.316 269.938 125.377 270.097 125.377 270.33V273.368C125.377 273.872 125.269 274.325 125.055 274.726C124.84 275.118 124.546 275.431 124.173 275.664C123.799 275.888 123.365 276 122.871 276H122.647ZM126.903 276V275.02H127.267C127.565 275.02 127.813 274.95 128.009 274.81C128.205 274.67 128.354 274.493 128.457 274.278C128.569 274.063 128.648 273.839 128.695 273.606C128.751 273.373 128.783 273.163 128.793 272.976C128.802 272.78 128.807 272.64 128.807 272.556C128.807 272.304 128.783 272.005 128.737 271.66C128.69 271.315 128.583 270.955 128.415 270.582C128.256 270.209 127.99 269.868 127.617 269.56C127.663 269.513 127.719 269.471 127.785 269.434C127.859 269.387 127.943 269.35 128.037 269.322C128.13 269.294 128.237 269.28 128.359 269.28C128.685 269.28 128.956 269.387 129.171 269.602C129.395 269.817 129.572 270.097 129.703 270.442C129.833 270.778 129.927 271.137 129.983 271.52C130.039 271.903 130.067 272.257 130.067 272.584C130.067 273.657 129.819 274.497 129.325 275.104C128.83 275.701 128.144 276 127.267 276H126.903ZM132.692 279.206C132.571 279.206 132.464 279.192 132.37 279.164C132.277 279.136 132.193 279.099 132.118 279.052C132.053 279.005 131.997 278.963 131.95 278.926C132.324 278.609 132.59 278.273 132.748 277.918C132.916 277.563 133.024 277.213 133.07 276.868C133.117 276.532 133.14 276.243 133.14 276V269.896C133.14 269.663 133.201 269.504 133.322 269.42C133.444 269.327 133.593 269.28 133.77 269.28C133.948 269.28 134.097 269.327 134.218 269.42C134.34 269.504 134.4 269.663 134.4 269.896V276C134.4 276.327 134.372 276.677 134.316 277.05C134.26 277.423 134.167 277.773 134.036 278.1C133.906 278.427 133.728 278.693 133.504 278.898C133.29 279.103 133.019 279.206 132.692 279.206ZM139.71 276C139.224 276 138.79 275.888 138.408 275.664C138.034 275.431 137.74 275.118 137.526 274.726C137.311 274.325 137.204 273.872 137.204 273.368V268.832C137.204 268.543 137.162 268.281 137.078 268.048C137.003 267.815 136.905 267.619 136.784 267.46C136.662 267.301 136.546 267.185 136.434 267.11C136.471 267.063 136.532 267.012 136.616 266.956C136.709 266.9 136.821 266.853 136.952 266.816C137.082 266.779 137.218 266.76 137.358 266.76C137.535 266.76 137.708 266.807 137.876 266.9C138.044 266.984 138.184 267.138 138.296 267.362C138.408 267.586 138.464 267.903 138.464 268.314V273.368C138.464 273.629 138.506 273.886 138.59 274.138C138.683 274.39 138.823 274.6 139.01 274.768C139.196 274.936 139.43 275.02 139.71 275.02H140.144V276H139.71ZM140.144 276V275.02C140.256 275.02 140.33 275.062 140.368 275.146C140.405 275.23 140.424 275.351 140.424 275.51C140.424 275.659 140.405 275.781 140.368 275.874C140.33 275.958 140.256 276 140.144 276ZM140.85 276V275.02H143.832C144.476 275.02 144.97 274.815 145.316 274.404C145.661 273.993 145.834 273.401 145.834 272.626C145.834 271.842 145.67 271.254 145.344 270.862C145.017 270.461 144.546 270.26 143.93 270.26C143.528 270.26 143.234 270.311 143.048 270.414C142.87 270.517 142.782 270.657 142.782 270.834V276H141.522V270.834C141.522 270.377 141.746 270.003 142.194 269.714C142.642 269.425 143.22 269.28 143.93 269.28C144.9 269.28 145.67 269.574 146.24 270.162C146.809 270.75 147.094 271.571 147.094 272.626C147.094 273.335 146.972 273.942 146.73 274.446C146.487 274.95 146.151 275.337 145.722 275.608C145.292 275.869 144.802 276 144.252 276H140.85ZM140.85 276C140.738 276 140.663 275.958 140.626 275.874C140.588 275.781 140.57 275.659 140.57 275.51C140.57 275.351 140.588 275.23 140.626 275.146C140.663 275.062 140.738 275.02 140.85 275.02V276Z" fill="#828282"/>
<path d="M252.45 276V268.16L251.092 269.042L250.84 268.72L253.01 266.76H253.71V276H252.45ZM260.341 276V273.62H255.861V273.06L260.481 266.76H261.601V273.06H262.861V273.62H261.601V276H260.341ZM256.701 273.06H260.341V268.104L256.701 273.06ZM268.684 276V273.62H264.204V273.06L268.824 266.76H269.944V273.06H271.204V273.62H269.944V276H268.684ZM265.044 273.06H268.684V268.104L265.044 273.06ZM277.027 276V273.62H272.547V273.06L277.167 266.76H278.287V273.06H279.547V273.62H278.287V276H277.027ZM273.387 273.06H277.027V268.104L273.387 273.06ZM285.831 278.17L285.691 277.96C285.934 277.801 286.134 277.629 286.293 277.442C286.461 277.255 286.587 277.05 286.671 276.826C286.764 276.602 286.811 276.35 286.811 276.07C286.774 276.098 286.713 276.126 286.629 276.154C286.545 276.191 286.466 276.21 286.391 276.21C286.176 276.21 285.994 276.135 285.845 275.986C285.696 275.837 285.621 275.655 285.621 275.44C285.621 275.197 285.7 274.997 285.859 274.838C286.018 274.679 286.218 274.6 286.461 274.6C286.741 274.6 286.96 274.684 287.119 274.852C287.287 275.02 287.371 275.263 287.371 275.58C287.371 276.177 287.236 276.686 286.965 277.106C286.704 277.535 286.326 277.89 285.831 278.17ZM298.057 279.304C297.18 279.304 296.433 279.155 295.817 278.856C295.211 278.557 294.749 278.147 294.431 277.624C294.123 277.111 293.969 276.537 293.969 275.902C293.969 275.669 293.993 275.379 294.039 275.034C294.095 274.679 294.184 274.329 294.305 273.984C294.436 273.629 294.609 273.335 294.823 273.102C295.047 272.859 295.332 272.738 295.677 272.738C295.799 272.738 295.906 272.752 295.999 272.78C296.093 272.808 296.172 272.845 296.237 272.892C296.312 272.929 296.373 272.971 296.419 273.018C296.083 273.298 295.831 273.611 295.663 273.956C295.495 274.301 295.379 274.637 295.313 274.964C295.257 275.281 295.229 275.561 295.229 275.804C295.229 276.691 295.486 277.33 295.999 277.722C296.522 278.123 297.203 278.324 298.043 278.324C298.865 278.324 299.457 278.133 299.821 277.75C300.195 277.377 300.381 276.751 300.381 275.874V269.896C300.381 269.663 300.442 269.504 300.563 269.42C300.685 269.327 300.834 269.28 301.011 269.28C301.189 269.28 301.338 269.327 301.459 269.42C301.581 269.504 301.641 269.663 301.641 269.896V275.874C301.641 276.919 301.357 277.75 300.787 278.366C300.218 278.991 299.308 279.304 298.057 279.304ZM297.819 269.28C297.586 269.28 297.39 269.201 297.231 269.042C297.073 268.883 296.993 268.697 296.993 268.482C296.993 268.258 297.073 268.067 297.231 267.908C297.39 267.749 297.586 267.67 297.819 267.67C298.034 267.67 298.221 267.749 298.379 267.908C298.538 268.067 298.617 268.258 298.617 268.482C298.617 268.697 298.538 268.883 298.379 269.042C298.221 269.201 298.034 269.28 297.819 269.28ZM307.237 276C306.752 276 306.318 275.888 305.935 275.664C305.562 275.431 305.268 275.118 305.053 274.726C304.839 274.325 304.731 273.872 304.731 273.368V268.832C304.731 268.543 304.689 268.281 304.605 268.048C304.531 267.815 304.433 267.619 304.311 267.46C304.19 267.301 304.073 267.185 303.961 267.11C303.999 267.063 304.059 267.012 304.143 266.956C304.237 266.9 304.349 266.853 304.479 266.816C304.61 266.779 304.745 266.76 304.885 266.76C305.063 266.76 305.235 266.807 305.403 266.9C305.571 266.984 305.711 267.138 305.823 267.362C305.935 267.586 305.991 267.903 305.991 268.314V273.368C305.991 273.629 306.033 273.886 306.117 274.138C306.211 274.39 306.351 274.6 306.537 274.768C306.724 274.936 306.957 275.02 307.237 275.02H307.671V276H307.237ZM307.671 276V275.02C307.783 275.02 307.858 275.062 307.895 275.146C307.933 275.23 307.951 275.351 307.951 275.51C307.951 275.659 307.933 275.781 307.895 275.874C307.858 275.958 307.783 276 307.671 276ZM308.377 276V275.02H308.727C309.017 275.02 309.25 274.936 309.427 274.768C309.614 274.6 309.749 274.39 309.833 274.138C309.927 273.886 309.973 273.629 309.973 273.368V269.896C309.973 269.663 310.034 269.504 310.155 269.42C310.277 269.327 310.426 269.28 310.603 269.28C310.781 269.28 310.93 269.327 311.051 269.42C311.173 269.504 311.233 269.663 311.233 269.896V273.368C311.233 273.872 311.126 274.325 310.911 274.726C310.697 275.118 310.403 275.431 310.029 275.664C309.656 275.888 309.222 276 308.727 276H308.377ZM312.479 276C311.994 276 311.56 275.888 311.177 275.664C310.804 275.431 310.51 275.118 310.295 274.726C310.081 274.325 309.973 273.872 309.973 273.368H311.233C311.233 273.629 311.275 273.886 311.359 274.138C311.453 274.39 311.593 274.6 311.779 274.768C311.966 274.936 312.199 275.02 312.479 275.02H312.983V276H312.479ZM312.983 276V275.02C313.095 275.02 313.17 275.062 313.207 275.146C313.245 275.23 313.263 275.351 313.263 275.51C313.263 275.659 313.245 275.781 313.207 275.874C313.17 275.958 313.095 276 312.983 276ZM308.377 276C308.265 276 308.191 275.958 308.153 275.874C308.116 275.781 308.097 275.659 308.097 275.51C308.097 275.351 308.116 275.23 308.153 275.146C308.191 275.062 308.265 275.02 308.377 275.02V276ZM310.617 278.73C310.384 278.73 310.188 278.651 310.029 278.492C309.871 278.333 309.791 278.147 309.791 277.932C309.791 277.708 309.871 277.517 310.029 277.358C310.188 277.199 310.384 277.12 310.617 277.12C310.832 277.12 311.019 277.199 311.177 277.358C311.336 277.517 311.415 277.708 311.415 277.932C311.415 278.147 311.336 278.333 311.177 278.492C311.019 278.651 310.832 278.73 310.617 278.73ZM313.685 276V275.02H316.093C316.662 275.02 317.203 274.936 317.717 274.768C318.239 274.591 318.706 274.357 319.117 274.068C319.527 273.769 319.849 273.433 320.083 273.06C320.325 272.687 320.447 272.299 320.447 271.898C320.447 271.375 320.241 270.974 319.831 270.694C319.42 270.405 318.837 270.26 318.081 270.26C317.325 270.26 316.741 270.405 316.331 270.694C315.92 270.974 315.715 271.375 315.715 271.898C315.715 272.299 315.831 272.687 316.065 273.06C316.307 273.433 316.634 273.769 317.045 274.068C317.455 274.357 317.922 274.591 318.445 274.768C318.967 274.936 319.509 275.02 320.069 275.02H322.477V276H320.069C319.425 276 318.771 275.897 318.109 275.692C317.446 275.487 316.839 275.202 316.289 274.838C315.738 274.465 315.295 274.031 314.959 273.536C314.623 273.032 314.455 272.486 314.455 271.898C314.455 271.431 314.562 271.035 314.777 270.708C314.991 270.372 315.276 270.101 315.631 269.896C315.995 269.681 316.387 269.527 316.807 269.434C317.236 269.331 317.661 269.28 318.081 269.28C318.501 269.28 318.921 269.331 319.341 269.434C319.77 269.527 320.162 269.677 320.517 269.882C320.871 270.087 321.156 270.358 321.371 270.694C321.595 271.021 321.707 271.422 321.707 271.898C321.707 272.486 321.539 273.032 321.203 273.536C320.876 274.031 320.437 274.465 319.887 274.838C319.336 275.202 318.729 275.487 318.067 275.692C317.404 275.897 316.746 276 316.093 276H313.685ZM313.685 276C313.573 276 313.498 275.958 313.461 275.874C313.423 275.781 313.405 275.659 313.405 275.51C313.405 275.351 313.423 275.23 313.461 275.146C313.498 275.062 313.573 275.02 313.685 275.02V276ZM322.477 276V275.02C322.589 275.02 322.663 275.062 322.701 275.146C322.738 275.23 322.757 275.351 322.757 275.51C322.757 275.659 322.738 275.781 322.701 275.874C322.663 275.958 322.589 276 322.477 276ZM331.926 276V275.02H332.29C332.588 275.02 332.836 274.95 333.032 274.81C333.228 274.67 333.377 274.493 333.48 274.278C333.592 274.063 333.671 273.839 333.718 273.606C333.774 273.373 333.806 273.163 333.816 272.976C333.825 272.78 333.83 272.64 333.83 272.556C333.83 272.304 333.806 272.005 333.76 271.66C333.713 271.315 333.606 270.955 333.438 270.582C333.279 270.209 333.013 269.868 332.64 269.56C332.686 269.513 332.742 269.471 332.808 269.434C332.882 269.387 332.966 269.35 333.06 269.322C333.153 269.294 333.26 269.28 333.382 269.28C333.708 269.28 333.979 269.387 334.194 269.602C334.418 269.817 334.595 270.097 334.726 270.442C334.856 270.778 334.95 271.137 335.006 271.52C335.062 271.903 335.09 272.257 335.09 272.584C335.09 273.657 334.842 274.497 334.348 275.104C333.853 275.701 333.167 276 332.29 276H331.926ZM327.474 276C326.988 276 326.554 275.888 326.172 275.664C325.798 275.431 325.504 275.118 325.29 274.726C325.075 274.325 324.968 273.872 324.968 273.368H326.228C326.228 273.629 326.27 273.886 326.354 274.138C326.447 274.39 326.587 274.6 326.774 274.768C326.96 274.936 327.194 275.02 327.474 275.02H327.67V276H327.474ZM323.176 276V275.02H323.722C324.011 275.02 324.244 274.936 324.422 274.768C324.608 274.6 324.744 274.39 324.828 274.138C324.921 273.886 324.968 273.629 324.968 273.368V270.666C324.968 270.433 325.028 270.274 325.15 270.19C325.271 270.097 325.42 270.05 325.598 270.05C325.775 270.05 325.924 270.097 326.046 270.19C326.167 270.274 326.228 270.433 326.228 270.666V273.368C326.228 273.872 326.12 274.325 325.906 274.726C325.691 275.118 325.397 275.431 325.024 275.664C324.65 275.888 324.216 276 323.722 276H323.176ZM331.646 276C331.16 276 330.726 275.888 330.344 275.664C329.97 275.431 329.676 275.118 329.462 274.726C329.247 274.325 329.14 273.872 329.14 273.368H330.4C330.4 273.629 330.442 273.886 330.526 274.138C330.619 274.39 330.759 274.6 330.946 274.768C331.132 274.936 331.366 275.02 331.646 275.02H331.926V276H331.646ZM327.67 276V275.02H327.894C328.183 275.02 328.416 274.936 328.594 274.768C328.78 274.6 328.916 274.39 329 274.138C329.093 273.886 329.14 273.629 329.14 273.368V270.33C329.14 270.097 329.2 269.938 329.322 269.854C329.443 269.761 329.592 269.714 329.77 269.714C329.947 269.714 330.096 269.761 330.218 269.854C330.339 269.938 330.4 270.097 330.4 270.33V273.368C330.4 273.872 330.292 274.325 330.078 274.726C329.863 275.118 329.569 275.431 329.196 275.664C328.822 275.888 328.388 276 327.894 276H327.67ZM323.176 276C323.064 276 322.989 275.958 322.952 275.874C322.914 275.781 322.896 275.659 322.896 275.51C322.896 275.351 322.914 275.23 322.952 275.146C322.989 275.062 323.064 275.02 323.176 275.02V276ZM330.792 268.37C330.577 268.37 330.39 268.291 330.232 268.132C330.073 267.973 329.994 267.782 329.994 267.558C329.994 267.343 330.073 267.157 330.232 266.998C330.39 266.839 330.577 266.76 330.792 266.76C331.016 266.76 331.202 266.839 331.352 266.998C331.51 267.157 331.59 267.343 331.59 267.558C331.59 267.782 331.51 267.973 331.352 268.132C331.202 268.291 331.016 268.37 330.792 268.37ZM328.748 268.37C328.533 268.37 328.346 268.291 328.188 268.132C328.029 267.973 327.95 267.782 327.95 267.558C327.95 267.343 328.029 267.157 328.188 266.998C328.346 266.839 328.533 266.76 328.748 266.76C328.972 266.76 329.158 266.839 329.308 266.998C329.466 267.157 329.546 267.343 329.546 267.558C329.546 267.782 329.466 267.973 329.308 268.132C329.158 268.291 328.972 268.37 328.748 268.37ZM329.77 266.578C329.564 266.578 329.387 266.508 329.238 266.368C329.098 266.219 329.028 266.041 329.028 265.836C329.028 265.631 329.098 265.458 329.238 265.318C329.387 265.169 329.564 265.094 329.77 265.094C329.975 265.094 330.148 265.169 330.288 265.318C330.437 265.458 330.512 265.631 330.512 265.836C330.512 266.041 330.437 266.219 330.288 266.368C330.148 266.508 329.975 266.578 329.77 266.578Z" fill="#828282"/>
<defs>
<filter id="filter0_d_663_6176" x="30" y="18" width="350" height="373.948" filterUnits="userSpaceOnUse" color-interpolation-filters="sRGB">
<feFlood flood-opacity="0" result="BackgroundImageFix"/>
<feColorMatrix in="SourceAlpha" type="matrix" values="0 0 0 0 0 0 0 0 0 0 0 0 0 0 0 0 0 0 127 0" result="hardAlpha"/>
<feOffset/>
<feGaussianBlur stdDeviation="6.5"/>
<feComposite in2="hardAlpha" operator="out"/>
<feColorMatrix type="matrix" values="0 0 0 0 0.1375 0 0 0 0 0.1375 0 0 0 0 0.1375 0 0 0 0.25 0"/>
<feBlend mode="normal" in2="BackgroundImageFix" result="effect1_dropShadow_663_6176"/>
<feBlend mode="normal" in="SourceGraphic" in2="effect1_dropShadow_663_6176" result="shape"/>
</filter>
<filter id="filter1_f_663_6176" x="0.488281" y="0" width="407.617" height="234.348" filterUnits="userSpaceOnUse" color-interpolation-filters="sRGB">
<feFlood flood-opacity="0" result="BackgroundImageFix"/>
<feBlend mode="normal" in="SourceGraphic" in2="BackgroundImageFix" result="shape"/>
<feGaussianBlur stdDeviation="44.5" result="effect1_foregroundBlur_663_6176"/>
</filter>
</defs>
</svg>
