<svg width="409" height="392" viewBox="0 0 409 392" fill="none" xmlns="http://www.w3.org/2000/svg">
<g filter="url(#filter0_d_668_6221)">
<rect x="43" y="31" width="324" height="347.948" rx="17" fill="#FBFBFB"/>
</g>
<g filter="url(#filter1_f_668_6221)">
<rect x="89.4883" y="89" width="229.617" height="56.3478" rx="28.1739" fill="#EBEBEB"/>
</g>
<path d="M220.315 154C219.078 154 217.947 153.701 216.923 153.104C215.899 152.485 215.088 151.6 214.491 150.448C213.894 149.296 213.595 147.909 213.595 146.288C213.595 143.877 214.267 142 215.611 140.656C216.976 139.312 218.8 138.64 221.083 138.64C222.768 138.64 224.134 138.981 225.179 139.664C226.246 140.325 226.779 141.168 226.779 142.192V154H222.619V142.192C222.47 142.149 222.256 142.117 221.979 142.096C221.702 142.053 221.403 142.032 221.083 142.032C219.974 142.032 219.142 142.363 218.587 143.024C218.032 143.685 217.755 144.773 217.755 146.288C217.755 147.653 218 148.72 218.491 149.488C219.003 150.235 219.75 150.608 220.731 150.608H228.795V154H220.315ZM228.795 154V150.608C229.03 150.608 229.19 150.768 229.275 151.088C229.382 151.387 229.435 151.792 229.435 152.304C229.435 152.816 229.382 153.232 229.275 153.552C229.19 153.851 229.03 154 228.795 154ZM222.843 136.4C222.288 136.4 221.798 136.197 221.371 135.792C220.966 135.387 220.763 134.896 220.763 134.32C220.763 133.744 220.966 133.253 221.371 132.848C221.798 132.443 222.288 132.24 222.843 132.24C223.44 132.24 223.931 132.443 224.315 132.848C224.72 133.253 224.923 133.744 224.923 134.32C224.923 134.896 224.72 135.387 224.315 135.792C223.931 136.197 223.44 136.4 222.843 136.4ZM217.659 136.4C217.104 136.4 216.614 136.197 216.187 135.792C215.782 135.387 215.579 134.896 215.579 134.32C215.579 133.744 215.782 133.253 216.187 132.848C216.614 132.443 217.104 132.24 217.659 132.24C218.235 132.24 218.726 132.443 219.131 132.848C219.536 133.253 219.739 133.744 219.739 134.32C219.739 134.896 219.536 135.387 219.131 135.792C218.726 136.197 218.235 136.4 217.659 136.4ZM230.4 154V150.608H239.104C239.829 150.608 240.384 150.384 240.768 149.936C241.152 149.488 241.344 148.837 241.344 147.984V142.192C241.195 142.149 240.981 142.117 240.704 142.096C240.427 142.053 240.128 142.032 239.808 142.032C238.699 142.032 237.867 142.363 237.312 143.024C236.757 143.685 236.48 144.773 236.48 146.288C236.48 147.653 236.725 148.688 237.216 149.392C237.728 150.096 238.475 150.501 239.456 150.608L239.04 153.968C237.803 153.84 236.672 153.488 235.648 152.912C234.645 152.315 233.835 151.472 233.216 150.384C232.619 149.275 232.32 147.909 232.32 146.288C232.32 143.877 232.992 142 234.336 140.656C235.701 139.312 237.525 138.64 239.808 138.64C241.493 138.64 242.859 138.981 243.904 139.664C244.971 140.325 245.504 141.168 245.504 142.192V147.984C245.504 149.136 245.227 150.171 244.672 151.088C244.139 151.984 243.392 152.699 242.432 153.232C241.472 153.744 240.363 154 239.104 154H230.4ZM230.4 154C230.187 154 230.027 153.851 229.92 153.552C229.813 153.232 229.76 152.816 229.76 152.304C229.76 151.792 229.813 151.387 229.92 151.088C230.027 150.768 230.187 150.608 230.4 150.608V154ZM239.84 136.56C239.179 136.56 238.613 136.336 238.144 135.888C237.696 135.419 237.472 134.875 237.472 134.256C237.472 133.616 237.696 133.072 238.144 132.624C238.613 132.176 239.179 131.952 239.84 131.952C240.459 131.952 240.992 132.176 241.44 132.624C241.909 133.072 242.144 133.616 242.144 134.256C242.144 134.875 241.909 135.419 241.44 135.888C240.992 136.336 240.459 136.56 239.84 136.56ZM256.164 154V150.608H259.46V154H256.164ZM252.26 161.328C251.726 161.328 251.278 161.211 250.916 160.976C250.553 160.741 250.276 160.464 250.084 160.144C249.913 159.845 249.828 159.589 249.828 159.376C250.276 159.035 250.66 158.651 250.98 158.224C251.3 157.797 251.545 157.243 251.716 156.56C251.908 155.899 252.004 155.045 252.004 154V140.624C252.004 140.005 252.196 139.525 252.58 139.184C252.985 138.821 253.486 138.64 254.084 138.64C254.702 138.64 255.204 138.821 255.588 139.184C255.972 139.525 256.164 140.005 256.164 140.624V154C256.164 154.939 256.078 155.845 255.908 156.72C255.758 157.595 255.524 158.373 255.204 159.056C254.905 159.76 254.51 160.315 254.02 160.72C253.529 161.125 252.942 161.328 252.26 161.328ZM259.46 154V150.608C259.694 150.608 259.854 150.768 259.94 151.088C260.046 151.387 260.1 151.792 260.1 152.304C260.1 152.816 260.046 153.232 259.94 153.552C259.854 153.851 259.694 154 259.46 154ZM261.069 154V150.608H266.125L264.813 151.696C264.215 151.077 263.746 150.331 263.405 149.456C263.063 148.56 262.893 147.557 262.893 146.448C262.893 144.997 263.149 143.781 263.661 142.8C264.173 141.797 264.813 140.997 265.581 140.4C266.37 139.781 267.159 139.333 267.949 139.056C268.738 138.779 269.421 138.64 269.997 138.64C270.295 138.64 270.733 138.693 271.309 138.8C271.885 138.885 272.471 139.056 273.069 139.312C273.687 139.568 274.21 139.941 274.637 140.432C275.063 140.901 275.277 141.509 275.277 142.256C275.277 143.067 275.031 143.664 274.541 144.048C274.071 144.432 273.559 144.624 273.005 144.624C272.685 144.624 272.322 144.571 271.917 144.464C271.533 144.357 271.223 144.261 270.989 144.176C270.989 143.472 270.85 142.928 270.573 142.544C270.317 142.16 270.018 141.904 269.677 141.776C269.357 141.648 269.09 141.627 268.877 141.712L269.453 141.584C269.154 141.733 268.813 141.989 268.429 142.352C268.045 142.715 267.714 143.216 267.437 143.856C267.181 144.496 267.053 145.317 267.053 146.32C267.053 147.664 267.341 148.72 267.917 149.488C268.493 150.235 269.325 150.608 270.413 150.608H273.485C273.911 150.608 274.317 150.736 274.701 150.992C275.085 151.227 275.277 151.664 275.277 152.304C275.277 152.944 275.085 153.392 274.701 153.648C274.317 153.883 273.911 154 273.485 154H261.069ZM261.069 154C260.855 154 260.695 153.851 260.589 153.552C260.482 153.232 260.429 152.816 260.429 152.304C260.429 151.792 260.482 151.387 260.589 151.088C260.695 150.768 260.855 150.608 261.069 150.608V154ZM292.358 162.896C291.739 162.896 291.238 162.757 290.854 162.48C290.491 162.203 290.225 161.893 290.054 161.552C289.905 161.211 289.83 160.955 289.83 160.784C289.958 160.72 290.139 160.635 290.374 160.528C290.609 160.421 290.822 160.187 291.014 159.824C291.206 159.483 291.302 158.939 291.302 158.192V155.984C291.302 154.939 291.601 154.011 292.198 153.2C292.795 152.389 293.595 151.76 294.598 151.312C295.601 150.843 296.721 150.608 297.958 150.608H299.846C300.827 150.608 301.563 150.235 302.054 149.488C302.566 148.741 302.822 147.664 302.822 146.256C302.822 144.763 302.545 143.685 301.99 143.024C301.435 142.363 300.593 142.032 299.462 142.032C299.185 142.032 298.897 142.053 298.598 142.096C298.321 142.117 298.107 142.149 297.958 142.192V154H293.798V142.192C293.798 141.168 294.321 140.325 295.366 139.664C296.433 138.981 297.809 138.64 299.494 138.64C301.777 138.64 303.59 139.312 304.934 140.656C306.299 142 306.982 143.877 306.982 146.288C306.982 147.909 306.683 149.296 306.086 150.448C305.489 151.6 304.678 152.485 303.654 153.104C302.651 153.701 301.521 154 300.262 154H297.958C297.403 154 296.934 154.085 296.55 154.256C296.187 154.448 295.91 154.693 295.718 154.992C295.547 155.291 295.462 155.621 295.462 155.984V159.056C295.462 159.803 295.334 160.464 295.078 161.04C294.822 161.616 294.459 162.064 293.99 162.384C293.542 162.725 292.998 162.896 292.358 162.896ZM325.754 154V150.608H328.986V154H325.754ZM319.29 154C318.053 154 316.922 153.701 315.898 153.104C314.874 152.485 314.063 151.6 313.466 150.448C312.869 149.296 312.57 147.909 312.57 146.288C312.57 143.877 313.242 142 314.586 140.656C315.951 139.312 317.775 138.64 320.058 138.64C321.743 138.64 323.109 138.981 324.154 139.664C325.221 140.325 325.754 141.168 325.754 142.192V154H321.594V142.192C321.445 142.149 321.231 142.117 320.954 142.096C320.677 142.053 320.378 142.032 320.058 142.032C318.949 142.032 318.117 142.363 317.562 143.024C317.007 143.685 316.73 144.773 316.73 146.288C316.73 147.653 316.975 148.72 317.466 149.488C317.978 150.235 318.725 150.608 319.706 150.608H325.754V154H319.29ZM321.85 161.328C321.317 161.328 320.869 161.211 320.506 160.976C320.143 160.741 319.866 160.464 319.674 160.144C319.503 159.845 319.418 159.589 319.418 159.376C319.866 159.035 320.25 158.651 320.57 158.224C320.89 157.797 321.135 157.243 321.306 156.56C321.498 155.899 321.594 155.045 321.594 154V150.608H325.754V154C325.754 154.939 325.669 155.845 325.498 156.72C325.349 157.595 325.114 158.373 324.794 159.056C324.495 159.76 324.101 160.315 323.61 160.72C323.119 161.125 322.533 161.328 321.85 161.328ZM328.986 154V150.608C329.221 150.608 329.381 150.768 329.466 151.088C329.573 151.387 329.626 151.792 329.626 152.304C329.626 152.816 329.573 153.232 329.466 153.552C329.381 153.851 329.221 154 328.986 154ZM330.594 154V150.608H333.538C333.772 150.608 333.996 150.544 334.21 150.416C334.423 150.288 334.626 150.107 334.818 149.872C335.01 149.616 335.17 149.296 335.298 148.912C335.447 148.507 335.554 148.037 335.618 147.504C335.703 146.949 335.746 146.331 335.746 145.648C335.746 144.603 335.65 143.771 335.458 143.152C335.287 142.533 335.042 142.032 334.722 141.648C334.402 141.264 334.018 140.912 333.57 140.592C333.57 140.357 333.655 140.091 333.826 139.792C334.018 139.493 334.295 139.227 334.658 138.992C335.042 138.757 335.5 138.64 336.034 138.64C336.695 138.64 337.271 138.832 337.762 139.216C338.252 139.6 338.647 140.123 338.946 140.784C339.266 141.424 339.5 142.171 339.65 143.024C339.82 143.856 339.906 144.741 339.906 145.68C339.906 148.261 339.351 150.299 338.242 151.792C337.132 153.264 335.564 154 333.538 154H330.594ZM330.594 154C330.38 154 330.22 153.851 330.114 153.552C330.007 153.232 329.954 152.816 329.954 152.304C329.954 151.792 330.007 151.387 330.114 151.088C330.22 150.768 330.38 150.608 330.594 150.608V154ZM338.626 160.88C338.071 160.88 337.58 160.677 337.154 160.272C336.748 159.867 336.546 159.376 336.546 158.8C336.546 158.224 336.748 157.733 337.154 157.328C337.58 156.923 338.071 156.72 338.626 156.72C339.223 156.72 339.714 156.923 340.098 157.328C340.503 157.733 340.706 158.224 340.706 158.8C340.706 159.376 340.503 159.867 340.098 160.272C339.714 160.677 339.223 160.88 338.626 160.88ZM333.442 160.88C332.887 160.88 332.396 160.677 331.97 160.272C331.564 159.867 331.362 159.376 331.362 158.8C331.362 158.224 331.564 157.733 331.97 157.328C332.396 156.923 332.887 156.72 333.442 156.72C334.018 156.72 334.508 156.923 334.914 157.328C335.319 157.733 335.522 158.224 335.522 158.8C335.522 159.376 335.319 159.867 334.914 160.272C334.508 160.677 334.018 160.88 333.442 160.88Z" fill="#4F4F4F"/>
<path d="M295.785 109.208C295.582 108.92 295.513 108.669 295.577 108.456C295.641 108.232 295.774 108.061 295.977 107.944C296.19 107.827 296.42 107.784 296.665 107.816C296.91 107.837 297.118 107.96 297.289 108.184L297.113 108.04C296.964 107.955 296.788 107.789 296.585 107.544C296.393 107.288 296.222 106.979 296.073 106.616C295.934 106.243 295.865 105.843 295.865 105.416C295.865 105.032 295.934 104.675 296.073 104.344C296.222 104.013 296.43 103.725 296.697 103.48C296.964 103.235 297.294 103.048 297.689 102.92C298.084 102.781 298.526 102.712 299.017 102.712C299.561 102.712 299.956 102.781 300.201 102.92C300.457 103.059 300.617 103.224 300.681 103.416C300.756 103.597 300.793 103.752 300.793 103.88C300.793 104.2 300.713 104.435 300.553 104.584C300.393 104.723 300.212 104.797 300.009 104.808C299.817 104.819 299.673 104.781 299.577 104.696C299.588 104.408 299.513 104.173 299.353 103.992C299.204 103.8 299.022 103.661 298.809 103.576C298.596 103.48 298.398 103.432 298.217 103.432H298.505C298.345 103.432 298.169 103.496 297.977 103.624C297.796 103.752 297.636 103.949 297.497 104.216C297.358 104.483 297.289 104.84 297.289 105.288C297.289 105.885 297.417 106.344 297.673 106.664C297.94 106.973 298.27 107.181 298.665 107.288C299.06 107.395 299.444 107.448 299.817 107.448C300.062 107.448 300.281 107.437 300.473 107.416C300.665 107.384 300.804 107.357 300.889 107.336C301.113 107.336 301.268 107.389 301.353 107.496C301.449 107.603 301.497 107.725 301.497 107.864C301.508 107.992 301.481 108.109 301.417 108.216C301.364 108.323 301.294 108.376 301.209 108.376C300.846 108.408 300.462 108.445 300.057 108.488C299.662 108.531 299.268 108.579 298.873 108.632C298.489 108.675 298.121 108.723 297.769 108.776C297.417 108.829 297.097 108.883 296.809 108.936C296.521 108.979 296.286 109.021 296.105 109.064C295.934 109.117 295.828 109.165 295.785 109.208ZM307.652 109C307.097 109 306.601 108.872 306.164 108.616C305.737 108.349 305.401 107.992 305.156 107.544C304.911 107.085 304.788 106.568 304.788 105.992V100.808C304.788 100.477 304.74 100.179 304.644 99.912C304.559 99.6453 304.447 99.4213 304.308 99.24C304.169 99.0587 304.036 98.9253 303.908 98.84C303.951 98.7867 304.02 98.728 304.116 98.664C304.223 98.6 304.351 98.5467 304.5 98.504C304.649 98.4613 304.804 98.44 304.964 98.44C305.167 98.44 305.364 98.4933 305.556 98.6C305.748 98.696 305.908 98.872 306.036 99.128C306.164 99.384 306.228 99.7467 306.228 100.216V105.992C306.228 106.291 306.276 106.584 306.372 106.872C306.479 107.16 306.639 107.4 306.852 107.592C307.065 107.784 307.332 107.88 307.652 107.88H308.148V109H307.652ZM308.148 109V107.88C308.276 107.88 308.361 107.928 308.404 108.024C308.447 108.12 308.468 108.259 308.468 108.44C308.468 108.611 308.447 108.749 308.404 108.856C308.361 108.952 308.276 109 308.148 109ZM308.955 109V107.88H310.027C310.368 107.88 310.651 107.8 310.875 107.64C311.099 107.48 311.27 107.277 311.387 107.032C311.515 106.787 311.606 106.531 311.659 106.264C311.723 105.997 311.76 105.757 311.771 105.544C311.782 105.32 311.787 105.16 311.787 105.064C311.787 104.776 311.76 104.435 311.707 104.04C311.654 103.645 311.531 103.235 311.339 102.808C311.158 102.381 310.854 101.992 310.427 101.64C310.48 101.587 310.544 101.539 310.619 101.496C310.704 101.443 310.8 101.4 310.907 101.368C311.014 101.336 311.136 101.32 311.275 101.32C311.648 101.32 311.958 101.443 312.203 101.688C312.459 101.933 312.662 102.253 312.811 102.648C312.96 103.032 313.067 103.443 313.131 103.88C313.195 104.317 313.227 104.723 313.227 105.096C313.227 106.323 312.944 107.283 312.379 107.976C311.814 108.659 311.03 109 310.027 109H308.955ZM308.955 109C308.827 109 308.742 108.952 308.699 108.856C308.656 108.749 308.635 108.611 308.635 108.44C308.635 108.259 308.656 108.12 308.699 108.024C308.742 107.928 308.827 107.88 308.955 107.88V109ZM312.475 100.28C312.23 100.28 312.016 100.189 311.835 100.008C311.654 99.8267 311.563 99.608 311.563 99.352C311.563 99.1067 311.654 98.8933 311.835 98.712C312.016 98.5307 312.23 98.44 312.475 98.44C312.731 98.44 312.944 98.5307 313.115 98.712C313.296 98.8933 313.387 99.1067 313.387 99.352C313.387 99.608 313.296 99.8267 313.115 100.008C312.944 100.189 312.731 100.28 312.475 100.28ZM310.139 100.28C309.894 100.28 309.68 100.189 309.499 100.008C309.318 99.8267 309.227 99.608 309.227 99.352C309.227 99.1067 309.318 98.8933 309.499 98.712C309.68 98.5307 309.894 98.44 310.139 98.44C310.395 98.44 310.608 98.5307 310.779 98.712C310.96 98.8933 311.051 99.1067 311.051 99.352C311.051 99.608 310.96 99.8267 310.779 100.008C310.608 100.189 310.395 100.28 310.139 100.28ZM311.307 98.232C311.072 98.232 310.87 98.152 310.699 97.992C310.539 97.8213 310.459 97.6187 310.459 97.384C310.459 97.1493 310.539 96.952 310.699 96.792C310.87 96.6213 311.072 96.536 311.307 96.536C311.542 96.536 311.739 96.6213 311.899 96.792C312.07 96.952 312.155 97.1493 312.155 97.384C312.155 97.6187 312.07 97.8213 311.899 97.992C311.739 98.152 311.542 98.232 311.307 98.232ZM325.771 109C325.217 109 324.721 108.872 324.283 108.616C323.857 108.349 323.521 107.992 323.275 107.544C323.03 107.085 322.907 106.568 322.907 105.992H324.347C324.347 106.291 324.395 106.584 324.491 106.872C324.598 107.16 324.758 107.4 324.971 107.592C325.185 107.784 325.451 107.88 325.771 107.88H326.347V109H325.771ZM316.315 109C316.145 109 316.027 108.936 315.963 108.808C315.899 108.68 315.867 108.557 315.867 108.44C315.867 108.323 315.899 108.2 315.963 108.072C316.027 107.944 316.145 107.88 316.315 107.88H321.483C321.814 107.88 322.081 107.784 322.283 107.592C322.497 107.4 322.651 107.16 322.747 106.872C322.854 106.584 322.907 106.291 322.907 105.992V100.808C322.907 100.477 322.859 100.179 322.763 99.912C322.678 99.6453 322.566 99.4213 322.427 99.24C322.289 99.0587 322.155 98.9253 322.027 98.84C322.07 98.7867 322.139 98.728 322.235 98.664C322.342 98.6 322.465 98.5467 322.603 98.504C322.753 98.4613 322.907 98.44 323.067 98.44C323.27 98.44 323.467 98.4933 323.659 98.6C323.862 98.696 324.027 98.872 324.155 99.128C324.283 99.384 324.347 99.7467 324.347 100.216V105.992C324.347 106.568 324.225 107.085 323.979 107.544C323.734 107.992 323.398 108.349 322.971 108.616C322.545 108.872 322.049 109 321.483 109H316.315ZM318.507 107.88V103.064C318.507 102.733 318.459 102.435 318.363 102.168C318.278 101.901 318.166 101.677 318.027 101.496C317.889 101.315 317.755 101.181 317.627 101.096C317.67 101.043 317.739 100.984 317.835 100.92C317.942 100.856 318.065 100.803 318.203 100.76C318.353 100.717 318.507 100.696 318.667 100.696C318.87 100.696 319.067 100.749 319.259 100.856C319.462 100.952 319.627 101.128 319.755 101.384C319.883 101.64 319.947 102.003 319.947 102.472V107.88H318.507ZM326.347 109V107.88C326.475 107.88 326.561 107.928 326.603 108.024C326.646 108.12 326.667 108.259 326.667 108.44C326.667 108.611 326.646 108.749 326.603 108.856C326.561 108.952 326.475 109 326.347 109ZM327.149 109V107.88H327.549C327.879 107.88 328.146 107.784 328.349 107.592C328.562 107.4 328.717 107.16 328.813 106.872C328.919 106.584 328.973 106.291 328.973 105.992V102.024C328.973 101.757 329.042 101.576 329.181 101.48C329.319 101.373 329.49 101.32 329.693 101.32C329.895 101.32 330.066 101.373 330.205 101.48C330.343 101.576 330.413 101.757 330.413 102.024V105.992C330.413 106.568 330.29 107.085 330.045 107.544C329.799 107.992 329.463 108.349 329.037 108.616C328.61 108.872 328.114 109 327.549 109H327.149ZM331.837 109C331.282 109 330.786 108.872 330.349 108.616C329.922 108.349 329.586 107.992 329.341 107.544C329.095 107.085 328.973 106.568 328.973 105.992H330.413C330.413 106.291 330.461 106.584 330.557 106.872C330.663 107.16 330.823 107.4 331.037 107.592C331.25 107.784 331.517 107.88 331.837 107.88H332.413V109H331.837ZM332.413 109V107.88C332.541 107.88 332.626 107.928 332.669 108.024C332.711 108.12 332.733 108.259 332.733 108.44C332.733 108.611 332.711 108.749 332.669 108.856C332.626 108.952 332.541 109 332.413 109ZM327.149 109C327.021 109 326.935 108.952 326.893 108.856C326.85 108.749 326.829 108.611 326.829 108.44C326.829 108.259 326.85 108.12 326.893 108.024C326.935 107.928 327.021 107.88 327.149 107.88V109ZM330.861 100.28C330.615 100.28 330.402 100.189 330.221 100.008C330.039 99.8267 329.949 99.608 329.949 99.352C329.949 99.1067 330.039 98.8933 330.221 98.712C330.402 98.5307 330.615 98.44 330.861 98.44C331.117 98.44 331.33 98.5307 331.501 98.712C331.682 98.8933 331.773 99.1067 331.773 99.352C331.773 99.608 331.682 99.8267 331.501 100.008C331.33 100.189 331.117 100.28 330.861 100.28ZM328.525 100.28C328.279 100.28 328.066 100.189 327.885 100.008C327.703 99.8267 327.613 99.608 327.613 99.352C327.613 99.1067 327.703 98.8933 327.885 98.712C328.066 98.5307 328.279 98.44 328.525 98.44C328.781 98.44 328.994 98.5307 329.165 98.712C329.346 98.8933 329.437 99.1067 329.437 99.352C329.437 99.608 329.346 99.8267 329.165 100.008C328.994 100.189 328.781 100.28 328.525 100.28ZM329.693 98.232C329.458 98.232 329.255 98.152 329.085 97.992C328.925 97.8213 328.845 97.6187 328.845 97.384C328.845 97.1493 328.925 96.952 329.085 96.792C329.255 96.6213 329.458 96.536 329.693 96.536C329.927 96.536 330.125 96.6213 330.285 96.792C330.455 96.952 330.541 97.1493 330.541 97.384C330.541 97.6187 330.455 97.8213 330.285 97.992C330.125 98.152 329.927 98.232 329.693 98.232ZM333.214 109V107.88H333.614C333.945 107.88 334.212 107.784 334.414 107.592C334.628 107.4 334.782 107.16 334.878 106.872C334.985 106.584 335.038 106.291 335.038 105.992V100.808C335.038 100.477 334.99 100.179 334.894 99.912C334.809 99.6453 334.697 99.4213 334.558 99.24C334.42 99.0587 334.286 98.9253 334.158 98.84C334.201 98.7867 334.27 98.728 334.366 98.664C334.473 98.6 334.596 98.5467 334.734 98.504C334.884 98.4613 335.038 98.44 335.198 98.44C335.401 98.44 335.598 98.4933 335.79 98.6C335.993 98.696 336.158 98.872 336.286 99.128C336.414 99.384 336.478 99.7467 336.478 100.216V105.992C336.478 106.568 336.356 107.085 336.11 107.544C335.865 107.992 335.529 108.349 335.102 108.616C334.676 108.872 334.18 109 333.614 109H333.214ZM333.214 109C333.086 109 333.001 108.952 332.958 108.856C332.916 108.749 332.894 108.611 332.894 108.44C332.894 108.259 332.916 108.12 332.958 108.024C333.001 107.928 333.086 107.88 333.214 107.88V109ZM340.695 109C340.354 109 340.151 108.899 340.087 108.696C340.023 108.493 339.991 108.253 339.991 107.976V100.808C339.991 100.477 339.943 100.179 339.847 99.912C339.762 99.6453 339.65 99.4213 339.511 99.24C339.373 99.0587 339.239 98.9253 339.111 98.84C339.154 98.7867 339.223 98.728 339.319 98.664C339.426 98.6 339.554 98.5467 339.703 98.504C339.853 98.4613 340.007 98.44 340.167 98.44C340.37 98.44 340.567 98.4933 340.759 98.6C340.951 98.696 341.111 98.872 341.239 99.128C341.367 99.384 341.431 99.7467 341.431 100.216V107.976C341.431 108.253 341.394 108.493 341.319 108.696C341.245 108.899 341.037 109 340.695 109Z" fill="#4F4F4F"/>
<path d="M96.624 256V251.84C97.6907 250.773 99.056 249.472 100.72 247.936C102.384 246.357 104.112 244.651 105.904 242.816C107.739 240.939 109.445 238.997 111.024 236.992C112.603 234.944 113.883 232.896 114.864 230.848C115.888 228.8 116.4 226.795 116.4 224.832C116.4 222.613 116.059 220.821 115.376 219.456C114.693 218.048 113.819 217.024 112.752 216.384C111.685 215.701 110.555 215.36 109.36 215.36C106.672 215.36 104.411 216.256 102.576 218.048C100.741 219.84 99.504 222.677 98.864 226.56H96.624C96.624 224.939 96.688 223.296 96.816 221.632C96.944 219.925 97.392 218.581 98.16 217.6C99.312 216.192 100.997 214.997 103.216 214.016C105.477 212.992 107.952 212.48 110.64 212.48C112.133 212.48 113.712 212.651 115.376 212.992C117.083 213.291 118.683 213.867 120.176 214.72C121.712 215.573 122.949 216.811 123.888 218.432C124.869 220.053 125.36 222.187 125.36 224.832C125.36 226.837 124.891 228.821 123.952 230.784C123.013 232.747 121.776 234.667 120.24 236.544C118.747 238.421 117.104 240.213 115.312 241.92C113.52 243.627 111.749 245.205 110 246.656C108.251 248.064 106.672 249.323 105.264 250.432C103.899 251.541 102.875 252.437 102.192 253.12H115.44C118 253.12 119.963 252.523 121.328 251.328C122.736 250.091 123.44 248.341 123.44 246.08H125.36V250.88C125.36 251.733 125.211 252.565 124.912 253.376C124.613 254.144 124.08 254.784 123.312 255.296C122.544 255.765 121.413 256 119.92 256H96.624ZM134.644 256L150.644 216.64H139.764C137.204 216.64 135.22 217.259 133.812 218.496C132.447 219.691 131.764 221.419 131.764 223.68H129.844V218.88C129.844 218.027 129.993 217.216 130.292 216.448C130.591 215.637 131.124 214.997 131.892 214.528C132.703 214.016 133.833 213.76 135.284 213.76H158.388V216.64L142.388 256H134.644Z" fill="#4F4F4F"/>
<path d="M323.104 252.28C321.739 252.28 320.373 252.152 319.008 251.896C317.643 251.683 316.405 251.405 315.296 251.064C314.229 250.723 313.419 250.403 312.864 250.104L313.248 248.312C314.997 248.611 316.32 248.845 317.216 249.016C318.112 249.187 318.88 249.293 319.52 249.336C320.16 249.379 320.928 249.4 321.824 249.4C325.024 249.4 327.584 248.099 329.504 245.496C331.424 242.893 332.384 238.861 332.384 233.4C331.488 234.125 330.229 234.829 328.608 235.512C327.029 236.152 325.301 236.472 323.424 236.472C320.096 236.472 317.451 235.875 315.488 234.68C313.525 233.443 312.117 231.736 311.264 229.56C310.411 227.341 309.984 224.781 309.984 221.88C309.984 219.363 310.539 217.016 311.648 214.84C312.8 212.664 314.485 210.893 316.704 209.528C318.965 208.163 321.739 207.48 325.024 207.48C330.357 207.48 334.347 209.357 336.992 213.112C339.68 216.867 341.024 222.456 341.024 229.88C341.024 237.645 339.509 243.32 336.48 246.904C333.493 250.488 329.035 252.28 323.104 252.28ZM325.344 233.592C326.624 233.592 327.797 233.336 328.864 232.824C329.931 232.312 330.784 231.779 331.424 231.224C332.064 230.669 332.384 230.371 332.384 230.328C332.384 225.592 332.085 221.752 331.488 218.808C330.891 215.864 330.037 213.731 328.928 212.408C327.819 211.043 326.517 210.36 325.024 210.36C323.659 210.36 322.485 210.893 321.504 211.96C320.565 212.984 319.84 214.371 319.328 216.12C318.859 217.869 318.624 219.789 318.624 221.88C318.624 225.677 319.136 228.579 320.16 230.584C321.184 232.589 322.912 233.592 325.344 233.592Z" fill="#4F4F4F"/>
<path d="M71.4072 276V275.3C71.9952 274.731 72.5272 274.217 73.0032 273.76C73.4885 273.303 73.9132 272.883 74.2772 272.5C74.6412 272.117 74.9492 271.749 75.2012 271.394C75.4532 271.039 75.6399 270.68 75.7612 270.316C75.8919 269.952 75.9572 269.56 75.9572 269.14C75.9572 268.673 75.8732 268.286 75.7052 267.978C75.5372 267.661 75.3132 267.427 75.0332 267.278C74.7625 267.119 74.4639 267.04 74.1372 267.04C73.5772 267.04 73.0872 267.245 72.6672 267.656C72.2472 268.057 71.9672 268.645 71.8272 269.42H71.5472C71.5472 269.065 71.5612 268.729 71.5892 268.412C71.6172 268.085 71.7152 267.815 71.8832 267.6C72.1352 267.292 72.5039 267.031 72.9892 266.816C73.4745 266.592 73.9972 266.48 74.5572 266.48C74.8372 266.48 75.1359 266.517 75.4532 266.592C75.7799 266.657 76.0879 266.783 76.3772 266.97C76.6665 267.157 76.8999 267.427 77.0772 267.782C77.2639 268.127 77.3572 268.58 77.3572 269.14C77.3572 269.541 77.2919 269.919 77.1612 270.274C77.0399 270.619 76.8672 270.955 76.6432 271.282C76.4192 271.609 76.1532 271.935 75.8452 272.262C75.5372 272.579 75.1965 272.906 74.8232 273.242C74.4592 273.569 74.0672 273.914 73.6472 274.278C73.2365 274.642 72.8165 275.029 72.3872 275.44H75.5372C76.0972 275.44 76.5265 275.319 76.8252 275.076C77.1332 274.833 77.2872 274.465 77.2872 273.97H77.5672V274.88C77.5672 275.067 77.5345 275.249 77.4692 275.426C77.4039 275.594 77.2872 275.734 77.1192 275.846C76.9512 275.949 76.7039 276 76.3772 276H71.4072ZM83.045 276.28C82.233 276.28 81.5797 276.079 81.085 275.678C80.5904 275.267 80.231 274.693 80.007 273.956C79.7924 273.219 79.685 272.36 79.685 271.38C79.685 270.391 79.7924 269.532 80.007 268.804C80.231 268.067 80.5904 267.497 81.085 267.096C81.5797 266.685 82.233 266.48 83.045 266.48C83.8664 266.48 84.5197 266.685 85.005 267.096C85.4997 267.497 85.8544 268.067 86.069 268.804C86.293 269.532 86.405 270.391 86.405 271.38C86.405 272.36 86.293 273.219 86.069 273.956C85.8544 274.693 85.4997 275.267 85.005 275.678C84.5197 276.079 83.8664 276.28 83.045 276.28ZM83.045 275.72C83.8104 275.72 84.3284 275.365 84.599 274.656C84.8697 273.937 85.005 272.845 85.005 271.38C85.005 269.905 84.8697 268.813 84.599 268.104C84.3284 267.395 83.8104 267.04 83.045 267.04C82.2797 267.04 81.7617 267.395 81.491 268.104C81.2204 268.813 81.085 269.905 81.085 271.38C81.085 272.845 81.2204 273.937 81.491 274.656C81.7617 275.365 82.2797 275.72 83.045 275.72ZM88.4068 276V275.3C88.9948 274.731 89.5268 274.217 90.0028 273.76C90.4881 273.303 90.9128 272.883 91.2768 272.5C91.6408 272.117 91.9488 271.749 92.2008 271.394C92.4528 271.039 92.6395 270.68 92.7608 270.316C92.8915 269.952 92.9568 269.56 92.9568 269.14C92.9568 268.673 92.8728 268.286 92.7048 267.978C92.5368 267.661 92.3128 267.427 92.0328 267.278C91.7621 267.119 91.4635 267.04 91.1368 267.04C90.5768 267.04 90.0868 267.245 89.6668 267.656C89.2468 268.057 88.9668 268.645 88.8268 269.42H88.5468C88.5468 269.065 88.5608 268.729 88.5888 268.412C88.6168 268.085 88.7148 267.815 88.8828 267.6C89.1348 267.292 89.5035 267.031 89.9888 266.816C90.4741 266.592 90.9968 266.48 91.5568 266.48C91.8368 266.48 92.1355 266.517 92.4528 266.592C92.7795 266.657 93.0875 266.783 93.3768 266.97C93.6661 267.157 93.8995 267.427 94.0768 267.782C94.2635 268.127 94.3568 268.58 94.3568 269.14C94.3568 269.541 94.2915 269.919 94.1608 270.274C94.0395 270.619 93.8668 270.955 93.6428 271.282C93.4188 271.609 93.1528 271.935 92.8448 272.262C92.5368 272.579 92.1961 272.906 91.8228 273.242C91.4588 273.569 91.0668 273.914 90.6468 274.278C90.2361 274.642 89.8161 275.029 89.3868 275.44H92.5368C93.0968 275.44 93.5261 275.319 93.8248 275.076C94.1328 274.833 94.2868 274.465 94.2868 273.97H94.5668V274.88C94.5668 275.067 94.5341 275.249 94.4688 275.426C94.4035 275.594 94.2868 275.734 94.1188 275.846C93.9508 275.949 93.7035 276 93.3768 276H88.4068ZM99.6806 276.28C99.214 276.28 98.7893 276.219 98.4066 276.098C98.0333 275.977 97.688 275.804 97.3706 275.58C97.0626 275.356 96.778 275.09 96.5166 274.782L96.7406 274.53C97.0953 274.922 97.4826 275.221 97.9026 275.426C98.3226 275.622 98.7986 275.72 99.3306 275.72C99.704 275.72 100.049 275.641 100.367 275.482C100.684 275.314 100.941 275.062 101.137 274.726C101.333 274.39 101.431 273.951 101.431 273.41C101.431 272.915 101.337 272.509 101.151 272.192C100.964 271.875 100.731 271.637 100.451 271.478C100.171 271.319 99.8906 271.24 99.6106 271.24C99.3306 271.24 99.1066 271.249 98.9386 271.268C98.7706 271.277 98.612 271.296 98.4626 271.324C98.3226 271.352 98.1453 271.394 97.9306 271.45L97.5666 270.862L101.361 267.32H98.7706C98.2106 267.32 97.7766 267.441 97.4686 267.684C97.17 267.927 97.0206 268.295 97.0206 268.79H96.7406V267.88C96.7406 267.693 96.7733 267.516 96.8386 267.348C96.904 267.171 97.0206 267.031 97.1886 266.928C97.366 266.816 97.6133 266.76 97.9306 266.76H102.383V267.32L98.6306 270.82C98.8733 270.755 99.1206 270.717 99.3726 270.708C99.634 270.689 99.8066 270.68 99.8906 270.68C100.096 270.68 100.362 270.717 100.689 270.792C101.015 270.857 101.342 270.988 101.669 271.184C101.995 271.38 102.271 271.655 102.495 272.01C102.719 272.365 102.831 272.831 102.831 273.41C102.831 274.026 102.719 274.525 102.495 274.908C102.271 275.281 101.986 275.571 101.641 275.776C101.305 275.972 100.959 276.103 100.605 276.168C100.25 276.243 99.942 276.28 99.6806 276.28ZM109.274 278.17L109.134 277.96C109.377 277.801 109.578 277.629 109.736 277.442C109.904 277.255 110.03 277.05 110.114 276.826C110.208 276.602 110.254 276.35 110.254 276.07C110.217 276.098 110.156 276.126 110.072 276.154C109.988 276.191 109.909 276.21 109.834 276.21C109.62 276.21 109.438 276.135 109.288 275.986C109.139 275.837 109.064 275.655 109.064 275.44C109.064 275.197 109.144 274.997 109.302 274.838C109.461 274.679 109.662 274.6 109.904 274.6C110.184 274.6 110.404 274.684 110.562 274.852C110.73 275.02 110.814 275.263 110.814 275.58C110.814 276.177 110.679 276.686 110.408 277.106C110.147 277.535 109.769 277.89 109.274 278.17ZM122.985 276V275.02H123.895V276H122.985ZM120.255 276C119.704 276 119.214 275.869 118.785 275.608C118.355 275.337 118.019 274.95 117.777 274.446C117.534 273.942 117.413 273.335 117.413 272.626C117.413 271.571 117.697 270.75 118.267 270.162C118.845 269.574 119.615 269.28 120.577 269.28C121.286 269.28 121.865 269.425 122.313 269.714C122.761 270.003 122.985 270.377 122.985 270.834V276H121.725V270.834C121.725 270.657 121.631 270.517 121.445 270.414C121.267 270.311 120.978 270.26 120.577 270.26C119.961 270.26 119.489 270.461 119.163 270.862C118.836 271.254 118.673 271.842 118.673 272.626C118.673 273.401 118.845 273.993 119.191 274.404C119.536 274.815 120.031 275.02 120.675 275.02H122.985V276H120.255ZM121.277 279.206C121.155 279.206 121.048 279.192 120.955 279.164C120.861 279.136 120.777 279.099 120.703 279.052C120.637 279.005 120.581 278.963 120.535 278.926C120.908 278.609 121.174 278.273 121.333 277.918C121.501 277.563 121.608 277.213 121.655 276.868C121.701 276.532 121.725 276.243 121.725 276V275.02H122.985V276C122.985 276.327 122.957 276.677 122.901 277.05C122.845 277.423 122.751 277.773 122.621 278.1C122.49 278.427 122.313 278.693 122.089 278.898C121.874 279.103 121.603 279.206 121.277 279.206ZM123.895 276V275.02C124.007 275.02 124.081 275.062 124.119 275.146C124.156 275.23 124.175 275.351 124.175 275.51C124.175 275.659 124.156 275.781 124.119 275.874C124.081 275.958 124.007 276 123.895 276ZM124.599 276V275.02H124.949C125.239 275.02 125.472 274.936 125.649 274.768C125.836 274.6 125.971 274.39 126.055 274.138C126.149 273.886 126.195 273.629 126.195 273.368V269.896C126.195 269.663 126.256 269.504 126.377 269.42C126.499 269.327 126.648 269.28 126.825 269.28C127.003 269.28 127.152 269.327 127.273 269.42C127.395 269.504 127.455 269.663 127.455 269.896V273.368C127.455 273.872 127.348 274.325 127.133 274.726C126.919 275.118 126.625 275.431 126.251 275.664C125.878 275.888 125.444 276 124.949 276H124.599ZM128.701 276C128.216 276 127.782 275.888 127.399 275.664C127.026 275.431 126.732 275.118 126.517 274.726C126.303 274.325 126.195 273.872 126.195 273.368H127.455C127.455 273.629 127.497 273.886 127.581 274.138C127.675 274.39 127.815 274.6 128.001 274.768C128.188 274.936 128.421 275.02 128.701 275.02H129.205V276H128.701ZM129.205 276V275.02C129.317 275.02 129.392 275.062 129.429 275.146C129.467 275.23 129.485 275.351 129.485 275.51C129.485 275.659 129.467 275.781 129.429 275.874C129.392 275.958 129.317 276 129.205 276ZM124.599 276C124.487 276 124.413 275.958 124.375 275.874C124.338 275.781 124.319 275.659 124.319 275.51C124.319 275.351 124.338 275.23 124.375 275.146C124.413 275.062 124.487 275.02 124.599 275.02V276ZM127.847 278.73C127.633 278.73 127.446 278.651 127.287 278.492C127.129 278.333 127.049 278.147 127.049 277.932C127.049 277.708 127.129 277.517 127.287 277.358C127.446 277.199 127.633 277.12 127.847 277.12C128.071 277.12 128.258 277.199 128.407 277.358C128.566 277.517 128.645 277.708 128.645 277.932C128.645 278.147 128.566 278.333 128.407 278.492C128.258 278.651 128.071 278.73 127.847 278.73ZM125.803 278.73C125.589 278.73 125.402 278.651 125.243 278.492C125.085 278.333 125.005 278.147 125.005 277.932C125.005 277.708 125.085 277.517 125.243 277.358C125.402 277.199 125.589 277.12 125.803 277.12C126.027 277.12 126.214 277.199 126.363 277.358C126.522 277.517 126.601 277.708 126.601 277.932C126.601 278.147 126.522 278.333 126.363 278.492C126.214 278.651 126.027 278.73 125.803 278.73ZM129.907 276V275.02H130.845C131.143 275.02 131.391 274.95 131.587 274.81C131.783 274.67 131.932 274.493 132.035 274.278C132.147 274.063 132.226 273.839 132.273 273.606C132.329 273.373 132.361 273.163 132.371 272.976C132.38 272.78 132.385 272.64 132.385 272.556C132.385 272.304 132.361 272.005 132.315 271.66C132.268 271.315 132.161 270.955 131.993 270.582C131.834 270.209 131.568 269.868 131.195 269.56C131.241 269.513 131.297 269.471 131.363 269.434C131.437 269.387 131.521 269.35 131.615 269.322C131.708 269.294 131.815 269.28 131.937 269.28C132.263 269.28 132.534 269.387 132.749 269.602C132.973 269.817 133.15 270.097 133.281 270.442C133.411 270.778 133.505 271.137 133.561 271.52C133.617 271.903 133.645 272.257 133.645 272.584C133.645 273.657 133.397 274.497 132.903 275.104C132.408 275.701 131.722 276 130.845 276H129.907ZM129.907 276C129.795 276 129.72 275.958 129.683 275.874C129.645 275.781 129.627 275.659 129.627 275.51C129.627 275.351 129.645 275.23 129.683 275.146C129.72 275.062 129.795 275.02 129.907 275.02V276ZM131.979 268.37C131.745 268.37 131.549 268.291 131.391 268.132C131.232 267.973 131.153 267.787 131.153 267.572C131.153 267.348 131.232 267.157 131.391 266.998C131.549 266.839 131.745 266.76 131.979 266.76C132.193 266.76 132.38 266.839 132.539 266.998C132.697 267.157 132.777 267.348 132.777 267.572C132.777 267.787 132.697 267.973 132.539 268.132C132.38 268.291 132.193 268.37 131.979 268.37ZM141.737 276V275.02H142.647V276H141.737ZM139.007 276C138.456 276 137.966 275.869 137.537 275.608C137.108 275.337 136.772 274.95 136.529 274.446C136.286 273.942 136.165 273.335 136.165 272.626C136.165 271.571 136.45 270.75 137.019 270.162C137.598 269.574 138.368 269.28 139.329 269.28C140.038 269.28 140.617 269.425 141.065 269.714C141.513 270.003 141.737 270.377 141.737 270.834V276H140.477V270.834C140.477 270.657 140.384 270.517 140.197 270.414C140.02 270.311 139.73 270.26 139.329 270.26C138.713 270.26 138.242 270.461 137.915 270.862C137.588 271.254 137.425 271.842 137.425 272.626C137.425 273.401 137.598 273.993 137.943 274.404C138.288 274.815 138.783 275.02 139.427 275.02H141.737V276H139.007ZM140.029 279.206C139.908 279.206 139.8 279.192 139.707 279.164C139.614 279.136 139.53 279.099 139.455 279.052C139.39 279.005 139.334 278.963 139.287 278.926C139.66 278.609 139.926 278.273 140.085 277.918C140.253 277.563 140.36 277.213 140.407 276.868C140.454 276.532 140.477 276.243 140.477 276V275.02H141.737V276C141.737 276.327 141.709 276.677 141.653 277.05C141.597 277.423 141.504 277.773 141.373 278.1C141.242 278.427 141.065 278.693 140.841 278.898C140.626 279.103 140.356 279.206 140.029 279.206ZM142.647 276V275.02C142.759 275.02 142.834 275.062 142.871 275.146C142.908 275.23 142.927 275.351 142.927 275.51C142.927 275.659 142.908 275.781 142.871 275.874C142.834 275.958 142.759 276 142.647 276ZM143.352 276V275.02H144.29C144.588 275.02 144.836 274.95 145.032 274.81C145.228 274.67 145.377 274.493 145.48 274.278C145.592 274.063 145.671 273.839 145.718 273.606C145.774 273.373 145.806 273.163 145.816 272.976C145.825 272.78 145.83 272.64 145.83 272.556C145.83 272.304 145.806 272.005 145.76 271.66C145.713 271.315 145.606 270.955 145.438 270.582C145.279 270.209 145.013 269.868 144.64 269.56C144.686 269.513 144.742 269.471 144.808 269.434C144.882 269.387 144.966 269.35 145.06 269.322C145.153 269.294 145.26 269.28 145.382 269.28C145.708 269.28 145.979 269.387 146.194 269.602C146.418 269.817 146.595 270.097 146.726 270.442C146.856 270.778 146.95 271.137 147.006 271.52C147.062 271.903 147.09 272.257 147.09 272.584C147.09 273.657 146.842 274.497 146.348 275.104C145.853 275.701 145.167 276 144.29 276H143.352ZM143.352 276C143.24 276 143.165 275.958 143.128 275.874C143.09 275.781 143.072 275.659 143.072 275.51C143.072 275.351 143.09 275.23 143.128 275.146C143.165 275.062 143.24 275.02 143.352 275.02V276ZM146.432 278.73C146.217 278.73 146.03 278.651 145.872 278.492C145.713 278.333 145.634 278.147 145.634 277.932C145.634 277.708 145.713 277.517 145.872 277.358C146.03 277.199 146.217 277.12 146.432 277.12C146.656 277.12 146.842 277.199 146.992 277.358C147.15 277.517 147.23 277.708 147.23 277.932C147.23 278.147 147.15 278.333 146.992 278.492C146.842 278.651 146.656 278.73 146.432 278.73ZM144.388 278.73C144.173 278.73 143.986 278.651 143.828 278.492C143.669 278.333 143.59 278.147 143.59 277.932C143.59 277.708 143.669 277.517 143.828 277.358C143.986 277.199 144.173 277.12 144.388 277.12C144.612 277.12 144.798 277.199 144.948 277.358C145.106 277.517 145.186 277.708 145.186 277.932C145.186 278.147 145.106 278.333 144.948 278.492C144.798 278.651 144.612 278.73 144.388 278.73Z" fill="#828282"/>
<path d="M241.408 276V268.16L240.05 269.042L239.798 268.72L241.968 266.76H242.668V276H241.408ZM249.3 276V273.62H244.82V273.06L249.44 266.76H250.56V273.06H251.82V273.62H250.56V276H249.3ZM245.66 273.06H249.3V268.104L245.66 273.06ZM257.643 276V273.62H253.163V273.06L257.783 266.76H258.903V273.06H260.163V273.62H258.903V276H257.643ZM254.003 273.06H257.643V268.104L254.003 273.06ZM265.985 276V273.62H261.505V273.06L266.125 266.76H267.245V273.06H268.505V273.62H267.245V276H265.985ZM262.345 273.06H265.985V268.104L262.345 273.06ZM274.79 278.17L274.65 277.96C274.892 277.801 275.093 277.629 275.252 277.442C275.42 277.255 275.546 277.05 275.63 276.826C275.723 276.602 275.77 276.35 275.77 276.07C275.732 276.098 275.672 276.126 275.588 276.154C275.504 276.191 275.424 276.21 275.35 276.21C275.135 276.21 274.953 276.135 274.804 275.986C274.654 275.837 274.58 275.655 274.58 275.44C274.58 275.197 274.659 274.997 274.818 274.838C274.976 274.679 275.177 274.6 275.42 274.6C275.7 274.6 275.919 274.684 276.078 274.852C276.246 275.02 276.33 275.263 276.33 275.58C276.33 276.177 276.194 276.686 275.924 277.106C275.662 277.535 275.284 277.89 274.79 278.17ZM285.77 276C285.219 276 284.729 275.869 284.3 275.608C283.871 275.337 283.535 274.95 283.292 274.446C283.049 273.942 282.928 273.335 282.928 272.626C282.928 271.571 283.213 270.75 283.782 270.162C284.361 269.574 285.131 269.28 286.092 269.28C286.801 269.28 287.38 269.425 287.828 269.714C288.276 270.003 288.5 270.377 288.5 270.834V276H287.24V270.834C287.24 270.657 287.147 270.517 286.96 270.414C286.783 270.311 286.493 270.26 286.092 270.26C285.476 270.26 285.005 270.461 284.678 270.862C284.351 271.254 284.188 271.842 284.188 272.626C284.188 273.401 284.361 273.993 284.706 274.404C285.051 274.815 285.546 275.02 286.19 275.02H289.172V276H285.77ZM289.172 276V275.02C289.284 275.02 289.359 275.062 289.396 275.146C289.433 275.23 289.452 275.351 289.452 275.51C289.452 275.659 289.433 275.781 289.396 275.874C289.359 275.958 289.284 276 289.172 276ZM297.89 276C297.405 276 296.971 275.888 296.588 275.664C296.215 275.431 295.921 275.118 295.706 274.726C295.492 274.325 295.384 273.872 295.384 273.368V272.976H296.644V273.368C296.644 273.629 296.686 273.886 296.77 274.138C296.864 274.39 297.004 274.6 297.19 274.768C297.377 274.936 297.61 275.02 297.89 275.02H298.394V276H297.89ZM289.868 276V275.02H294.138C294.521 275.02 294.824 274.871 295.048 274.572C295.272 274.264 295.384 273.741 295.384 273.004C295.384 271.977 295.146 271.263 294.67 270.862C294.204 270.461 293.527 270.26 292.64 270.26C292.454 270.26 292.286 270.265 292.136 270.274C291.987 270.283 291.852 270.297 291.73 270.316C291.609 270.325 291.492 270.33 291.38 270.33C291.156 270.33 290.974 270.297 290.834 270.232C290.694 270.167 290.587 270.073 290.512 269.952C290.447 269.821 290.396 269.677 290.358 269.518C290.34 269.415 290.321 269.313 290.302 269.21C290.293 269.098 290.293 269.023 290.302 268.986C290.396 269.051 290.522 269.126 290.68 269.21C290.839 269.294 291.054 269.336 291.324 269.336C291.418 269.336 291.525 269.331 291.646 269.322C291.777 269.313 291.922 269.303 292.08 269.294C292.239 269.285 292.412 269.28 292.598 269.28C293.317 269.28 293.933 269.369 294.446 269.546C294.96 269.714 295.375 269.961 295.692 270.288C296.019 270.615 296.257 271.007 296.406 271.464C296.565 271.921 296.644 272.43 296.644 272.99C296.644 273.737 296.528 274.334 296.294 274.782C296.061 275.221 295.753 275.533 295.37 275.72C294.997 275.907 294.586 276 294.138 276H289.868ZM289.868 276C289.756 276 289.682 275.958 289.644 275.874C289.607 275.781 289.588 275.659 289.588 275.51C289.588 275.351 289.607 275.23 289.644 275.146C289.682 275.062 289.756 275.02 289.868 275.02V276ZM298.394 276V275.02C298.506 275.02 298.581 275.062 298.618 275.146C298.656 275.23 298.674 275.351 298.674 275.51C298.674 275.659 298.656 275.781 298.618 275.874C298.581 275.958 298.506 276 298.394 276ZM292.836 278.73C292.603 278.73 292.407 278.651 292.248 278.492C292.09 278.333 292.01 278.147 292.01 277.932C292.01 277.708 292.09 277.517 292.248 277.358C292.407 277.199 292.603 277.12 292.836 277.12C293.051 277.12 293.238 277.199 293.396 277.358C293.555 277.517 293.634 277.708 293.634 277.932C293.634 278.147 293.555 278.333 293.396 278.492C293.238 278.651 293.051 278.73 292.836 278.73ZM307.122 276C306.636 276 306.202 275.888 305.82 275.664C305.446 275.431 305.152 275.118 304.938 274.726C304.723 274.325 304.616 273.872 304.616 273.368V272.976H305.876V273.368C305.876 273.629 305.918 273.886 306.002 274.138C306.095 274.39 306.235 274.6 306.422 274.768C306.608 274.936 306.842 275.02 307.122 275.02H307.626V276H307.122ZM299.1 276V275.02H303.37C303.752 275.02 304.056 274.871 304.28 274.572C304.504 274.264 304.616 273.741 304.616 273.004C304.616 271.977 304.378 271.263 303.902 270.862C303.435 270.461 302.758 270.26 301.872 270.26C301.685 270.26 301.517 270.265 301.368 270.274C301.218 270.283 301.083 270.297 300.962 270.316C300.84 270.325 300.724 270.33 300.612 270.33C300.388 270.33 300.206 270.297 300.066 270.232C299.926 270.167 299.818 270.073 299.744 269.952C299.678 269.821 299.627 269.677 299.59 269.518C299.571 269.415 299.552 269.313 299.534 269.21C299.524 269.098 299.524 269.023 299.534 268.986C299.627 269.051 299.753 269.126 299.912 269.21C300.07 269.294 300.285 269.336 300.556 269.336C300.649 269.336 300.756 269.331 300.878 269.322C301.008 269.313 301.153 269.303 301.312 269.294C301.47 269.285 301.643 269.28 301.83 269.28C302.548 269.28 303.164 269.369 303.678 269.546C304.191 269.714 304.606 269.961 304.924 270.288C305.25 270.615 305.488 271.007 305.638 271.464C305.796 271.921 305.876 272.43 305.876 272.99C305.876 273.737 305.759 274.334 305.526 274.782C305.292 275.221 304.984 275.533 304.602 275.72C304.228 275.907 303.818 276 303.37 276H299.1ZM299.1 276C298.988 276 298.913 275.958 298.876 275.874C298.838 275.781 298.82 275.659 298.82 275.51C298.82 275.351 298.838 275.23 298.876 275.146C298.913 275.062 298.988 275.02 299.1 275.02V276ZM307.626 276V275.02C307.738 275.02 307.812 275.062 307.85 275.146C307.887 275.23 307.906 275.351 307.906 275.51C307.906 275.659 307.887 275.781 307.85 275.874C307.812 275.958 307.738 276 307.626 276ZM308.331 276V275.02H308.681C308.97 275.02 309.204 274.936 309.381 274.768C309.568 274.6 309.703 274.39 309.787 274.138C309.88 273.886 309.927 273.629 309.927 273.368V268.832C309.927 268.543 309.885 268.281 309.801 268.048C309.726 267.815 309.628 267.619 309.507 267.46C309.386 267.301 309.269 267.185 309.157 267.11C309.194 267.063 309.255 267.012 309.339 266.956C309.432 266.9 309.54 266.853 309.661 266.816C309.792 266.779 309.927 266.76 310.067 266.76C310.244 266.76 310.417 266.807 310.585 266.9C310.762 266.984 310.907 267.138 311.019 267.362C311.131 267.586 311.187 267.903 311.187 268.314V273.368C311.187 273.872 311.08 274.325 310.865 274.726C310.65 275.118 310.356 275.431 309.983 275.664C309.61 275.888 309.176 276 308.681 276H308.331ZM308.331 276C308.219 276 308.144 275.958 308.107 275.874C308.07 275.781 308.051 275.659 308.051 275.51C308.051 275.351 308.07 275.23 308.107 275.146C308.144 275.062 308.219 275.02 308.331 275.02V276ZM314.877 276C314.578 276 314.401 275.911 314.345 275.734C314.289 275.557 314.261 275.347 314.261 275.104V268.832C314.261 268.543 314.219 268.281 314.135 268.048C314.06 267.815 313.962 267.619 313.841 267.46C313.719 267.301 313.603 267.185 313.491 267.11C313.528 267.063 313.589 267.012 313.673 266.956C313.766 266.9 313.878 266.853 314.009 266.816C314.139 266.779 314.275 266.76 314.415 266.76C314.592 266.76 314.765 266.807 314.933 266.9C315.101 266.984 315.241 267.138 315.353 267.362C315.465 267.586 315.521 267.903 315.521 268.314V275.104C315.521 275.347 315.488 275.557 315.423 275.734C315.357 275.911 315.175 276 314.877 276ZM324.874 276C324.324 276 323.834 275.869 323.404 275.608C322.975 275.337 322.639 274.95 322.396 274.446C322.154 273.942 322.032 273.335 322.032 272.626C322.032 271.571 322.317 270.75 322.886 270.162C323.465 269.574 324.235 269.28 325.196 269.28C325.906 269.28 326.484 269.425 326.932 269.714C327.38 270.003 327.604 270.377 327.604 270.834V276H326.344V270.834C326.344 270.657 326.251 270.517 326.064 270.414C325.887 270.311 325.598 270.26 325.196 270.26C324.58 270.26 324.109 270.461 323.782 270.862C323.456 271.254 323.292 271.842 323.292 272.626C323.292 273.401 323.465 273.993 323.81 274.404C324.156 274.815 324.65 275.02 325.294 275.02H327.604V276H324.874ZM325.896 279.206C325.775 279.206 325.668 279.192 325.574 279.164C325.481 279.136 325.397 279.099 325.322 279.052C325.257 279.005 325.201 278.963 325.154 278.926C325.528 278.609 325.794 278.273 325.952 277.918C326.12 277.563 326.228 277.213 326.274 276.868C326.321 276.532 326.344 276.243 326.344 276V275.02H327.604V276C327.604 276.327 327.576 276.677 327.52 277.05C327.464 277.423 327.371 277.773 327.24 278.1C327.11 278.427 326.932 278.693 326.708 278.898C326.494 279.103 326.223 279.206 325.896 279.206ZM330.395 276C330.217 276 330.091 275.953 330.017 275.86C329.951 275.757 329.919 275.641 329.919 275.51C329.919 275.379 329.951 275.267 330.017 275.174C330.091 275.071 330.217 275.02 330.395 275.02H332.271C332.849 275.02 333.288 274.805 333.587 274.376C333.885 273.937 334.035 273.34 334.035 272.584C334.035 272.024 333.955 271.562 333.797 271.198C333.638 270.834 333.4 270.577 333.083 270.428C332.775 270.269 332.397 270.227 331.949 270.302L332.761 270.148C332.471 270.204 332.21 270.288 331.977 270.4C331.743 270.512 331.561 270.671 331.431 270.876C331.3 271.081 331.235 271.357 331.235 271.702C331.16 271.711 331.057 271.711 330.927 271.702C330.805 271.683 330.693 271.651 330.591 271.604C330.469 271.548 330.362 271.459 330.269 271.338C330.175 271.217 330.129 271.049 330.129 270.834C330.129 270.61 330.18 270.405 330.283 270.218C330.395 270.022 330.549 269.859 330.745 269.728C330.95 269.588 331.188 269.481 331.459 269.406C331.729 269.322 332.028 269.28 332.355 269.28C332.803 269.28 333.204 269.355 333.559 269.504C333.923 269.653 334.235 269.873 334.497 270.162C334.758 270.451 334.954 270.801 335.085 271.212C335.225 271.623 335.295 272.094 335.295 272.626C335.295 273.401 335.155 274.04 334.875 274.544C334.595 275.039 334.226 275.407 333.769 275.65C333.311 275.883 332.812 276 332.271 276H330.395ZM332.397 268.37C332.163 268.37 331.967 268.291 331.809 268.132C331.65 267.973 331.571 267.787 331.571 267.572C331.571 267.348 331.65 267.157 331.809 266.998C331.967 266.839 332.163 266.76 332.397 266.76C332.611 266.76 332.798 266.839 332.957 266.998C333.115 267.157 333.195 267.348 333.195 267.572C333.195 267.787 333.115 267.973 332.957 268.132C332.798 268.291 332.611 268.37 332.397 268.37Z" fill="#828282"/>
<defs>
<filter id="filter0_d_668_6221" x="30" y="18" width="350" height="373.948" filterUnits="userSpaceOnUse" color-interpolation-filters="sRGB">
<feFlood flood-opacity="0" result="BackgroundImageFix"/>
<feColorMatrix in="SourceAlpha" type="matrix" values="0 0 0 0 0 0 0 0 0 0 0 0 0 0 0 0 0 0 127 0" result="hardAlpha"/>
<feOffset/>
<feGaussianBlur stdDeviation="6.5"/>
<feComposite in2="hardAlpha" operator="out"/>
<feColorMatrix type="matrix" values="0 0 0 0 0.1375 0 0 0 0 0.1375 0 0 0 0 0.1375 0 0 0 0.25 0"/>
<feBlend mode="normal" in2="BackgroundImageFix" result="effect1_dropShadow_668_6221"/>
<feBlend mode="normal" in="SourceGraphic" in2="effect1_dropShadow_668_6221" result="shape"/>
</filter>
<filter id="filter1_f_668_6221" x="0.488281" y="0" width="407.617" height="234.348" filterUnits="userSpaceOnUse" color-interpolation-filters="sRGB">
<feFlood flood-opacity="0" result="BackgroundImageFix"/>
<feBlend mode="normal" in="SourceGraphic" in2="BackgroundImageFix" result="shape"/>
<feGaussianBlur stdDeviation="44.5" result="effect1_foregroundBlur_668_6221"/>
</filter>
</defs>
</svg>
