<svg width="409" height="397" viewBox="0 0 409 397" fill="none" xmlns="http://www.w3.org/2000/svg">
<g filter="url(#filter0_d_663_6187)">
<rect x="41.7773" y="36.0781" width="324" height="347.948" rx="17" transform="rotate(-1.07134 41.7773 36.0781)" fill="#FBFBFB"/>
</g>
<g filter="url(#filter1_f_663_6187)">
<rect x="89.3438" y="93.1987" width="229.617" height="56.3478" rx="28.1739" transform="rotate(-1.07134 89.3438 93.1987)" fill="#EBEBEB"/>
</g>
<path d="M182.55 164.021C180.545 164.058 178.8 163.749 177.316 163.094C175.831 162.461 174.672 161.511 173.838 160.247C173.025 159.003 172.602 157.485 172.568 155.694C172.554 154.926 172.614 154.157 172.749 153.386C172.906 152.615 173.138 151.906 173.446 151.26C173.754 150.615 174.139 150.095 174.601 149.703C175.084 149.31 175.656 149.107 176.318 149.094C176.872 149.084 177.333 149.193 177.7 149.421C178.067 149.648 178.339 149.91 178.515 150.206C178.712 150.501 178.813 150.765 178.818 151C178.397 151.328 178.02 151.687 177.686 152.077C177.372 152.446 177.126 152.941 176.945 153.563C176.786 154.164 176.716 154.976 176.735 156C176.764 157.536 177.265 158.7 178.24 159.492C179.237 160.284 180.673 160.663 182.55 160.628C184.171 160.598 185.306 160.214 185.953 159.476C186.623 158.759 186.941 157.495 186.907 155.682L186.673 143.204C186.663 142.671 186.803 142.177 187.094 141.724C187.384 141.249 187.923 141.004 188.712 140.989C189.501 140.974 190.05 141.199 190.357 141.663C190.664 142.105 190.823 142.593 190.833 143.126L191.066 155.604C191.113 158.121 190.468 160.138 189.131 161.657C187.794 163.176 185.6 163.963 182.55 164.021ZM181.577 141.123C180.916 141.135 180.347 140.922 179.869 140.483C179.413 140.022 179.178 139.482 179.167 138.863C179.155 138.223 179.369 137.675 179.808 137.219C180.269 136.762 180.83 136.528 181.491 136.515C182.11 136.504 182.647 136.718 183.104 137.157C183.581 137.597 183.826 138.136 183.838 138.776C183.85 139.395 183.625 139.943 183.165 140.421C182.725 140.877 182.196 141.111 181.577 141.123ZM204.101 156.064C202.907 156.086 201.824 155.84 200.855 155.325C199.906 154.809 199.146 154.087 198.574 153.159C198.023 152.23 197.737 151.18 197.715 150.007L197.523 139.768C197.509 139 197.402 138.448 197.204 138.11C197.006 137.772 196.788 137.552 196.552 137.45C196.315 137.348 196.132 137.266 196.003 137.204C196 137.034 196.07 136.776 196.213 136.432C196.377 136.088 196.638 135.773 196.995 135.489C197.374 135.205 197.883 135.057 198.523 135.045C199.142 135.033 199.678 135.194 200.132 135.527C200.608 135.838 200.979 136.279 201.245 136.85C201.512 137.421 201.652 138.08 201.666 138.827L201.874 149.929C201.882 150.355 201.965 150.791 202.122 151.236C202.28 151.66 202.521 152.008 202.846 152.279C203.171 152.55 203.568 152.682 204.038 152.673L204.901 152.657L204.965 156.048L204.101 156.064ZM204.965 156.048L204.901 152.657C205.136 152.652 205.299 152.809 205.39 153.128C205.503 153.424 205.563 153.828 205.573 154.34C205.583 154.852 205.537 155.269 205.436 155.591C205.357 155.891 205.2 156.044 204.965 156.048ZM231.979 155.543C230.784 155.565 229.702 155.319 228.733 154.803C227.784 154.288 227.024 153.566 226.452 152.638C225.901 151.709 225.614 150.658 225.593 149.485L229.737 148.608L229.752 149.407C229.76 149.834 229.843 150.27 230 150.715C230.158 151.139 230.399 151.486 230.724 151.758C231.049 152.029 231.446 152.16 231.915 152.151L233.547 152.121L233.611 155.512L231.979 155.543ZM206.575 156.018L206.512 152.626L223.373 152.311C224.056 152.298 224.594 152.011 224.989 151.449C225.405 150.886 225.602 149.976 225.578 148.717C225.545 146.947 225.095 145.675 224.227 144.902C223.38 144.128 222.189 143.756 220.653 143.785C219.459 143.807 218.439 144.029 217.593 144.45C216.768 144.849 216.074 145.374 215.51 146.025C214.967 146.654 214.532 147.345 214.205 148.098C213.877 148.829 213.613 149.539 213.412 150.225L211.365 150.263C211.68 148.871 212.03 147.648 212.416 146.595C212.802 145.521 213.232 144.595 213.708 143.818C214.206 143.041 214.77 142.412 215.401 141.93C216.054 141.427 216.793 141.051 217.621 140.801C218.448 140.551 219.395 140.415 220.462 140.396C223.32 140.342 225.563 141.047 227.19 142.51C228.839 143.973 229.688 145.995 229.736 148.576C229.777 150.751 229.233 152.479 228.105 153.759C226.998 155.017 225.441 155.665 223.436 155.703L206.575 156.018ZM209.359 155.966L209.171 145.92C209.159 145.301 208.99 144.824 208.664 144.489C208.359 144.132 208.056 143.913 207.756 143.834C207.856 143.469 208.115 143.091 208.535 142.699C208.975 142.307 209.633 142.102 210.508 142.086C211.169 142.074 211.683 142.181 212.05 142.409C212.438 142.637 212.721 142.93 212.898 143.289C213.075 143.628 213.189 143.967 213.238 144.307C213.286 144.626 213.312 144.882 213.316 145.074L213.518 155.888L209.359 155.966ZM206.575 156.018C206.362 156.022 206.199 155.876 206.087 155.579C205.974 155.261 205.913 154.846 205.904 154.334C205.894 153.822 205.94 153.416 206.041 153.115C206.142 152.793 206.299 152.63 206.512 152.626L206.575 156.018ZM233.611 155.512L233.547 152.121C233.782 152.117 233.945 152.274 234.036 152.592C234.148 152.888 234.209 153.293 234.219 153.805C234.228 154.317 234.183 154.733 234.082 155.055C234.002 155.356 233.845 155.508 233.611 155.512ZM219.173 138.243C218.512 138.256 217.943 138.042 217.465 137.603C217.008 137.142 216.774 136.602 216.763 135.984C216.751 135.344 216.964 134.796 217.404 134.34C217.865 133.883 218.426 133.648 219.087 133.636C219.706 133.624 220.243 133.838 220.699 134.278C221.177 134.717 221.422 135.257 221.434 135.897C221.445 136.515 221.221 137.063 220.76 137.541C220.321 137.998 219.792 138.232 219.173 138.243ZM235.202 155.483L235.138 152.091L243.201 151.94C244.182 151.922 244.911 151.535 245.387 150.779C245.885 150.002 246.121 148.931 246.095 147.565C246.067 146.051 245.77 144.968 245.203 144.318C244.636 143.667 243.798 143.352 242.688 143.372C242.369 143.378 242.07 143.405 241.794 143.453C241.517 143.48 241.304 143.516 241.156 143.561L241.377 155.367L237.217 155.445L236.996 143.639C236.977 142.615 237.484 141.763 238.517 141.082C239.571 140.38 240.94 140.013 242.625 139.981C244.907 139.938 246.733 140.576 248.102 141.895C249.492 143.213 250.21 145.077 250.255 147.488C250.285 149.109 250.012 150.501 249.437 151.664C248.861 152.827 248.067 153.727 247.055 154.365C246.063 154.981 244.939 155.3 243.68 155.324L235.202 155.483ZM235.202 155.483C234.988 155.487 234.826 155.34 234.713 155.044C234.601 154.726 234.54 154.311 234.53 153.799C234.52 153.287 234.566 152.881 234.667 152.58C234.768 152.258 234.925 152.095 235.138 152.091L235.202 155.483ZM257.132 162.402C256.599 162.412 256.148 162.303 255.781 162.075C255.414 161.847 255.132 161.575 254.934 161.259C254.758 160.963 254.668 160.709 254.664 160.496C255.105 160.146 255.482 159.755 255.794 159.322C256.106 158.89 256.341 158.33 256.499 157.645C256.678 156.98 256.758 156.125 256.739 155.08L256.489 141.706C256.477 141.088 256.66 140.604 257.038 140.256C257.436 139.885 257.934 139.695 258.531 139.684C259.15 139.672 259.654 139.844 260.045 140.199C260.436 140.533 260.636 141.01 260.648 141.628L260.898 155.002C260.916 155.941 260.847 156.849 260.693 157.726C260.56 158.604 260.34 159.387 260.033 160.075C259.747 160.785 259.363 161.346 258.88 161.761C258.397 162.175 257.814 162.389 257.132 162.402ZM281.157 154.623L281.094 151.232L284.389 151.17L284.452 154.562L281.157 154.623ZM277.391 162.023C276.858 162.033 276.407 161.924 276.04 161.696C275.673 161.468 275.391 161.196 275.193 160.88C275.017 160.584 274.927 160.33 274.923 160.117C275.364 159.767 275.741 159.376 276.053 158.943C276.365 158.511 276.6 157.952 276.758 157.266C276.937 156.601 277.017 155.746 276.998 154.701L276.748 141.327C276.736 140.709 276.919 140.225 277.297 139.877C277.695 139.507 278.193 139.316 278.79 139.305C279.409 139.293 279.913 139.465 280.304 139.821C280.694 140.155 280.895 140.631 280.907 141.25L281.157 154.623C281.175 155.562 281.106 156.47 280.952 157.347C280.819 158.225 280.599 159.008 280.292 159.696C280.006 160.406 279.622 160.968 279.139 161.382C278.656 161.797 278.073 162.01 277.391 162.023ZM284.452 154.562L284.389 151.17C284.624 151.166 284.787 151.323 284.878 151.641C284.99 151.938 285.051 152.342 285.061 152.854C285.07 153.366 285.025 153.783 284.924 154.105C284.844 154.405 284.687 154.557 284.452 154.562ZM309.193 154.099C307.999 154.121 306.917 153.875 305.947 153.359C304.999 152.844 304.238 152.122 303.666 151.194C303.115 150.265 302.829 149.214 302.807 148.041L302.781 146.633L306.914 145.148L306.966 147.963C306.974 148.39 307.057 148.826 307.215 149.271C307.372 149.695 307.613 150.042 307.938 150.314C308.264 150.585 308.661 150.716 309.13 150.707L310.762 150.677L310.825 154.068L309.193 154.099ZM286.061 154.531L285.998 151.14L288.974 151.084C291.128 151.044 292.604 150.664 293.401 149.945C294.219 149.205 294.613 148.013 294.582 146.371C294.565 145.432 294.436 144.837 294.197 144.586C293.979 144.334 293.635 144.212 293.166 144.221C292.697 144.23 292.347 144.364 292.117 144.624C291.909 144.884 291.813 145.484 291.831 146.422C291.862 148.065 292.289 149.241 293.113 149.951C293.958 150.639 295.458 150.963 297.612 150.923L299.244 150.892C300.332 150.872 301.197 150.365 301.84 149.372C302.482 148.357 302.786 146.9 302.75 145.002C302.723 143.551 302.456 142.404 301.95 141.56C301.443 140.716 300.579 140.124 299.356 139.784C298.154 139.423 296.476 139.262 294.322 139.302C293.853 139.311 293.416 139.33 293.011 139.359C292.627 139.366 292.35 139.371 292.179 139.374C291.369 139.39 290.715 139.242 290.218 138.931C289.722 138.599 289.362 138.179 289.139 137.671C288.916 137.163 288.8 136.653 288.79 136.141C288.78 135.608 288.848 135.255 288.994 135.081C289.162 134.907 289.352 134.818 289.565 134.814C289.678 135.154 289.951 135.447 290.382 135.695C290.813 135.922 291.487 136.027 292.404 136.01C292.703 136.004 292.98 135.988 293.236 135.962C293.491 135.936 293.917 135.917 294.515 135.906C298.802 135.826 301.92 136.568 303.87 138.132C305.84 139.674 306.854 141.97 306.911 145.02C306.949 147.046 306.618 148.749 305.919 150.127C305.218 151.485 304.288 152.516 303.128 153.22C301.967 153.903 300.694 154.258 299.307 154.284L297.675 154.314C295.862 154.348 294.205 154.123 292.702 153.639C291.199 153.155 289.989 152.356 289.072 151.243C288.176 150.107 287.711 148.622 287.677 146.788C287.656 145.679 287.819 144.684 288.165 143.802C288.533 142.921 289.117 142.216 289.918 141.689C290.719 141.141 291.78 140.854 293.102 140.829C294.425 140.805 295.496 141.051 296.317 141.569C297.137 142.066 297.737 142.748 298.115 143.616C298.516 144.484 298.726 145.472 298.747 146.581C298.781 148.415 298.361 149.917 297.487 151.085C296.634 152.232 295.465 153.075 293.982 153.615C292.498 154.155 290.85 154.442 289.037 154.476L286.061 154.531ZM286.061 154.531C285.848 154.535 285.685 154.389 285.573 154.093C285.461 153.775 285.399 153.36 285.39 152.848C285.38 152.336 285.426 151.93 285.527 151.629C285.628 151.307 285.785 151.144 285.998 151.14L286.061 154.531ZM310.825 154.068L310.762 150.677C310.996 150.673 311.159 150.83 311.251 151.148C311.363 151.445 311.424 151.849 311.433 152.361C311.443 152.873 311.397 153.29 311.297 153.611C311.217 153.912 311.06 154.064 310.825 154.068ZM333.682 153.641L333.619 150.25L334.515 150.233C334.749 150.228 334.972 150.16 335.183 150.028C335.394 149.896 335.593 149.711 335.781 149.473C335.968 149.213 336.122 148.89 336.243 148.504C336.385 148.096 336.482 147.625 336.536 147.09C336.611 146.534 336.642 145.915 336.63 145.232C336.61 144.187 336.499 143.357 336.295 142.742C336.113 142.127 335.858 141.63 335.531 141.252C335.204 140.874 334.813 140.529 334.36 140.218C334.355 139.983 334.435 139.715 334.601 139.413C334.787 139.111 335.059 138.839 335.417 138.598C335.797 138.356 336.253 138.23 336.787 138.22C337.448 138.208 338.027 138.389 338.525 138.764C339.023 139.139 339.427 139.654 339.738 140.309C340.07 140.943 340.319 141.685 340.484 142.536C340.67 143.364 340.772 144.248 340.79 145.187C340.838 147.767 340.321 149.815 339.24 151.329C338.158 152.821 336.605 153.586 334.578 153.624L333.682 153.641ZM322.036 153.859C320.821 153.881 319.738 153.635 318.79 153.119C317.842 152.604 317.081 151.882 316.509 150.954C315.958 150.025 315.672 148.974 315.65 147.801L319.809 147.723C319.817 148.15 319.9 148.586 320.058 149.031C320.215 149.455 320.456 149.802 320.781 150.074C321.107 150.345 321.504 150.476 321.973 150.467L322.677 150.454L322.74 153.846L322.036 153.859ZM312.438 154.038L312.375 150.647L313.59 150.624C314.081 150.615 314.473 150.469 314.766 150.186C315.081 149.903 315.309 149.546 315.451 149.117C315.592 148.666 315.658 148.228 315.65 147.801L315.551 142.49C315.542 141.999 315.682 141.527 315.972 141.074C316.262 140.599 316.802 140.354 317.591 140.339C318.38 140.325 318.928 140.549 319.236 141.013C319.543 141.455 319.701 141.922 319.71 142.412L319.809 147.723C319.831 148.896 319.574 149.957 319.037 150.906C318.521 151.855 317.799 152.604 316.87 153.155C315.942 153.706 314.87 153.993 313.654 154.015L312.438 154.038ZM332.339 153.666C331.144 153.688 330.062 153.442 329.092 152.927C328.144 152.411 327.383 151.689 326.811 150.761C326.261 149.832 325.974 148.782 325.952 147.608L330.112 147.531C330.119 147.957 330.202 148.393 330.36 148.838C330.517 149.262 330.758 149.61 331.084 149.881C331.409 150.152 331.806 150.283 332.275 150.275L333.619 150.25L333.682 153.641L332.339 153.666ZM322.74 153.846L322.677 150.454L323.893 150.431C324.383 150.422 324.775 150.276 325.069 149.993C325.383 149.71 325.611 149.354 325.753 148.924C325.894 148.474 325.96 148.035 325.952 147.608L325.839 141.529C325.829 141.039 325.97 140.567 326.26 140.113C326.55 139.638 327.09 139.394 327.879 139.379C328.668 139.364 329.216 139.589 329.524 140.052C329.831 140.495 329.989 140.961 329.998 141.452L330.112 147.531C330.133 148.704 329.876 149.765 329.339 150.714C328.823 151.662 328.101 152.412 327.173 152.963C326.244 153.513 325.172 153.8 323.956 153.823L322.74 153.846ZM312.438 154.038C312.225 154.042 312.062 153.896 311.95 153.599C311.837 153.281 311.776 152.866 311.766 152.354C311.757 151.843 311.803 151.436 311.904 151.136C312.004 150.814 312.161 150.651 312.375 150.647L312.438 154.038ZM330.413 136.259C329.858 136.269 329.364 136.076 328.93 135.679C328.517 135.281 328.305 134.794 328.294 134.218C328.284 133.642 328.477 133.148 328.875 132.735C329.294 132.322 329.78 132.11 330.335 132.1C330.932 132.089 331.427 132.282 331.818 132.68C332.231 133.078 332.443 133.565 332.454 134.14C332.464 134.716 332.271 135.211 331.873 135.624C331.497 136.036 331.01 136.248 330.413 136.259ZM325.23 136.356C324.675 136.366 324.181 136.173 323.747 135.776C323.334 135.378 323.122 134.891 323.111 134.315C323.1 133.739 323.294 133.245 323.692 132.832C324.111 132.419 324.597 132.207 325.152 132.197C325.728 132.186 326.222 132.379 326.635 132.777C327.048 133.175 327.26 133.662 327.27 134.237C327.281 134.813 327.088 135.308 326.69 135.721C326.292 136.133 325.806 136.345 325.23 136.356ZM327.732 131.54C327.178 131.551 326.716 131.378 326.346 131.022C325.976 130.645 325.787 130.19 325.777 129.657C325.766 129.102 325.939 128.64 326.295 128.271C326.651 127.901 327.095 127.712 327.628 127.702C328.183 127.691 328.645 127.864 329.014 128.22C329.405 128.575 329.606 129.03 329.616 129.585C329.626 130.118 329.442 130.58 329.066 130.971C328.71 131.341 328.265 131.53 327.732 131.54Z" fill="#4F4F4F"/>
<path d="M290.493 113.505C289.491 113.524 288.634 113.369 287.924 113.041C287.224 112.713 286.688 112.253 286.314 111.663C285.951 111.083 285.763 110.43 285.749 109.705C285.744 109.439 285.765 109.108 285.811 108.712C285.867 108.305 285.961 107.904 286.092 107.506C286.234 107.098 286.425 106.759 286.665 106.488C286.916 106.205 287.239 106.061 287.633 106.053C287.772 106.051 287.895 106.064 288.002 106.094C288.109 106.124 288.201 106.165 288.276 106.217C288.363 106.258 288.433 106.305 288.487 106.357C288.109 106.685 287.828 107.047 287.643 107.445C287.459 107.844 287.333 108.23 287.265 108.605C287.208 108.969 287.182 109.289 287.187 109.566C287.206 110.58 287.513 111.305 288.108 111.742C288.713 112.189 289.496 112.404 290.456 112.386C291.395 112.368 292.068 112.137 292.476 111.692C292.894 111.257 293.094 110.539 293.075 109.536L292.959 103.297C292.954 103.031 293.02 102.848 293.156 102.75C293.293 102.64 293.463 102.584 293.665 102.58C293.868 102.576 294.04 102.626 294.18 102.73C294.321 102.824 294.393 103.004 294.398 103.27L294.515 109.509C294.537 110.704 294.23 111.659 293.592 112.375C292.955 113.102 291.922 113.478 290.493 113.505ZM295.936 109.339C295.382 109.349 294.883 109.23 294.441 108.983C294.01 108.724 293.667 108.373 293.413 107.93C293.159 107.476 293.027 106.961 293.016 106.385L294.456 106.358C294.462 106.656 294.515 106.949 294.617 107.235C294.729 107.521 294.893 107.758 295.11 107.946C295.327 108.134 295.595 108.225 295.915 108.219L296.139 108.215L296.16 109.335L295.936 109.339ZM300.703 109.25C300.149 109.26 299.65 109.141 299.208 108.893C298.777 108.635 298.434 108.284 298.18 107.84C297.927 107.386 297.794 106.872 297.784 106.296L299.223 106.269C299.229 106.567 299.282 106.86 299.384 107.146C299.496 107.432 299.66 107.669 299.877 107.857C300.094 108.045 300.362 108.136 300.682 108.13L301.066 108.123L301.087 109.242L300.703 109.25ZM296.16 109.335L296.139 108.215L296.395 108.21C296.726 108.204 296.991 108.103 297.19 107.907C297.399 107.711 297.549 107.468 297.64 107.178C297.741 106.889 297.789 106.594 297.784 106.296L297.719 102.824C297.714 102.558 297.78 102.375 297.916 102.276C298.053 102.167 298.223 102.111 298.425 102.107C298.628 102.103 298.8 102.153 298.94 102.257C299.081 102.351 299.153 102.531 299.158 102.797L299.223 106.269C299.234 106.845 299.121 107.364 298.884 107.827C298.647 108.28 298.318 108.643 297.897 108.918C297.475 109.182 296.981 109.319 296.416 109.33L296.16 109.335ZM305.47 109.16C304.916 109.171 304.418 109.052 303.976 108.804C303.544 108.546 303.201 108.195 302.948 107.751C302.694 107.297 302.561 106.782 302.551 106.206L303.99 106.18C303.996 106.478 304.05 106.771 304.151 107.057C304.263 107.343 304.427 107.58 304.644 107.768C304.861 107.956 305.13 108.047 305.45 108.041L306.025 108.03L306.046 109.15L305.47 109.16ZM301.087 109.242L301.066 108.123L301.162 108.121C301.493 108.115 301.758 108.014 301.957 107.818C302.166 107.622 302.317 107.379 302.407 107.089C302.508 106.799 302.556 106.505 302.551 106.206L302.477 102.239C302.472 101.973 302.537 101.79 302.674 101.691C302.811 101.582 302.981 101.526 303.183 101.522C303.386 101.518 303.557 101.568 303.698 101.672C303.839 101.766 303.911 101.946 303.916 102.212L303.99 106.18C304.001 106.755 303.888 107.275 303.652 107.738C303.415 108.191 303.085 108.554 302.664 108.829C302.242 109.093 301.748 109.23 301.183 109.241L301.087 109.242ZM306.046 109.15L306.025 108.03C306.153 108.027 306.24 108.074 306.284 108.169C306.329 108.264 306.352 108.402 306.356 108.584C306.359 108.754 306.34 108.893 306.3 109.001C306.259 109.098 306.174 109.147 306.046 109.15ZM306.846 109.135L306.825 108.015L307.225 108.007C307.556 108.001 307.82 107.9 308.019 107.705C308.229 107.509 308.379 107.266 308.47 106.976C308.571 106.686 308.619 106.392 308.613 106.093L308.539 102.126C308.534 101.859 308.6 101.677 308.737 101.578C308.874 101.469 309.043 101.412 309.246 101.408C309.449 101.405 309.62 101.455 309.761 101.559C309.901 101.652 309.974 101.832 309.979 102.099L310.053 106.066C310.064 106.642 309.951 107.162 309.714 107.625C309.477 108.077 309.148 108.441 308.726 108.715C308.305 108.979 307.811 109.117 307.246 109.127L306.846 109.135ZM311.533 109.047C310.979 109.057 310.48 108.939 310.038 108.691C309.607 108.432 309.264 108.081 309.01 107.638C308.756 107.184 308.624 106.669 308.613 106.093L310.053 106.066C310.059 106.365 310.112 106.657 310.214 106.943C310.326 107.229 310.49 107.466 310.707 107.654C310.924 107.842 311.192 107.933 311.512 107.927L312.088 107.916L312.109 109.036L311.533 109.047ZM312.109 109.036L312.088 107.916C312.216 107.914 312.302 107.96 312.347 108.056C312.391 108.151 312.415 108.289 312.419 108.47C312.422 108.641 312.403 108.78 312.362 108.888C312.321 108.984 312.237 109.034 312.109 109.036ZM306.846 109.135C306.718 109.137 306.632 109.091 306.587 108.996C306.543 108.89 306.519 108.751 306.516 108.581C306.512 108.399 306.531 108.26 306.572 108.164C306.613 108.067 306.697 108.017 306.825 108.015L306.846 109.135ZM310.616 112.185C310.37 112.189 310.155 112.103 309.971 111.925C309.786 111.747 309.691 111.535 309.687 111.29C309.682 111.034 309.769 110.814 309.946 110.629C310.124 110.444 310.336 110.35 310.581 110.345C310.837 110.34 311.052 110.427 311.226 110.605C311.411 110.783 311.506 111 311.51 111.256C311.515 111.501 311.428 111.716 311.25 111.901C311.083 112.085 310.872 112.18 310.616 112.185ZM308.28 112.228C308.035 112.233 307.82 112.146 307.635 111.968C307.45 111.791 307.356 111.579 307.351 111.334C307.346 111.078 307.433 110.857 307.611 110.673C307.789 110.488 308 110.393 308.246 110.389C308.502 110.384 308.717 110.471 308.891 110.649C309.075 110.827 309.17 111.044 309.175 111.3C309.179 111.545 309.093 111.76 308.915 111.945C308.748 112.129 308.536 112.224 308.28 112.228ZM321.469 108.861C320.914 108.872 320.416 108.753 319.974 108.505C319.543 108.246 319.2 107.895 318.946 107.452C318.692 106.998 318.56 106.483 318.549 105.907L318.534 105.091L319.974 105.065L319.989 105.88C319.995 106.179 320.048 106.471 320.149 106.758C320.261 107.043 320.421 107.281 320.627 107.469C320.844 107.657 321.117 107.748 321.448 107.741L322.024 107.731L322.045 108.85L321.469 108.861ZM312.911 109.021L312.89 107.901L316.297 107.838C317.033 107.824 317.594 107.579 317.98 107.102C318.365 106.626 318.55 105.945 318.533 105.059C318.517 104.164 318.317 103.495 317.936 103.054C317.554 102.603 317.011 102.383 316.307 102.397C315.849 102.405 315.514 102.47 315.303 102.591C315.102 102.713 315.004 102.874 315.008 103.077L315.118 108.98L313.678 109.007L313.568 103.104C313.558 102.581 313.806 102.15 314.312 101.81C314.818 101.47 315.476 101.292 316.286 101.277C317.395 101.256 318.282 101.576 318.945 102.235C319.608 102.895 319.951 103.827 319.973 105.033C319.988 105.843 319.863 106.539 319.596 107.12C319.33 107.701 318.954 108.151 318.469 108.469C317.984 108.777 317.427 108.937 316.798 108.949L312.911 109.021ZM312.911 109.021C312.783 109.024 312.696 108.977 312.652 108.882C312.607 108.776 312.583 108.638 312.58 108.467C312.577 108.286 312.595 108.147 312.636 108.05C312.677 107.953 312.762 107.904 312.89 107.901L312.911 109.021ZM322.045 108.85L322.024 107.731C322.152 107.728 322.238 107.775 322.283 107.87C322.327 107.965 322.351 108.103 322.354 108.285C322.358 108.455 322.339 108.594 322.298 108.702C322.257 108.798 322.173 108.848 322.045 108.85ZM332.016 108.664C331.461 108.674 330.963 108.556 330.521 108.308C330.089 108.049 329.747 107.698 329.493 107.255C329.239 106.801 329.107 106.286 329.096 105.71L329.088 105.262L330.527 105.235L330.536 105.683C330.541 105.982 330.595 106.274 330.696 106.56C330.808 106.846 330.973 107.083 331.19 107.271C331.407 107.459 331.675 107.55 331.995 107.544L332.571 107.533L332.592 108.653L332.016 108.664ZM322.849 108.835L322.828 107.716L327.708 107.624C328.145 107.616 328.488 107.439 328.738 107.093C328.987 106.736 329.104 106.137 329.088 105.294C329.066 104.121 328.779 103.31 328.227 102.862C327.685 102.413 326.907 102.198 325.894 102.217C325.681 102.221 325.489 102.23 325.319 102.244C325.148 102.258 324.994 102.277 324.856 102.301C324.717 102.314 324.584 102.322 324.456 102.324C324.2 102.329 323.991 102.296 323.83 102.224C323.669 102.152 323.544 102.048 323.456 101.911C323.379 101.763 323.317 101.599 323.271 101.418C323.247 101.301 323.224 101.184 323.2 101.068C323.187 100.94 323.186 100.854 323.195 100.812C323.303 100.884 323.449 100.967 323.632 101.059C323.815 101.152 324.061 101.195 324.371 101.19C324.477 101.188 324.6 101.18 324.738 101.167C324.887 101.153 325.053 101.14 325.234 101.125C325.415 101.111 325.612 101.102 325.825 101.098C326.646 101.083 327.352 101.171 327.943 101.363C328.533 101.544 329.013 101.818 329.382 102.184C329.762 102.55 330.043 102.993 330.223 103.513C330.414 104.032 330.516 104.611 330.528 105.251C330.544 106.104 330.423 106.789 330.166 107.306C329.909 107.813 329.564 108.176 329.13 108.398C328.708 108.619 328.24 108.735 327.729 108.744L322.849 108.835ZM322.849 108.835C322.721 108.838 322.635 108.791 322.591 108.696C322.546 108.59 322.522 108.452 322.519 108.282C322.516 108.1 322.534 107.961 322.575 107.864C322.616 107.768 322.7 107.718 322.828 107.716L322.849 108.835ZM332.592 108.653L332.571 107.533C332.699 107.531 332.785 107.577 332.829 107.673C332.874 107.768 332.898 107.906 332.901 108.087C332.904 108.258 332.886 108.397 332.845 108.504C332.804 108.601 332.72 108.651 332.592 108.653ZM326.078 100.054C325.811 100.059 325.586 99.972 325.401 99.7941C325.216 99.6162 325.121 99.4046 325.117 99.1593C325.112 98.9034 325.199 98.6831 325.377 98.4984C325.554 98.3137 325.777 98.2188 326.043 98.2138C326.289 98.2093 326.504 98.2959 326.688 98.4738C326.873 98.6517 326.968 98.8687 326.973 99.1246C326.977 99.3699 326.89 99.5849 326.713 99.7696C326.535 99.9543 326.323 100.049 326.078 100.054ZM333.398 108.638L333.377 107.518L333.777 107.511C334.107 107.505 334.372 107.404 334.571 107.208C334.781 107.012 334.931 106.769 335.021 106.479C335.123 106.189 335.171 105.895 335.165 105.597L335.068 100.413C335.062 100.083 335.008 99.7852 334.907 99.5203C334.817 99.2553 334.701 99.0335 334.559 98.8547C334.417 98.676 334.281 98.5452 334.151 98.4623C334.193 98.4082 334.261 98.3482 334.356 98.2824C334.462 98.2164 334.583 98.1608 334.721 98.1156C334.87 98.0701 335.024 98.0459 335.184 98.0429C335.386 98.0391 335.585 98.0888 335.779 98.1918C335.983 98.284 336.152 98.4569 336.284 98.7105C336.417 98.964 336.488 99.3254 336.497 99.7947L336.605 105.57C336.616 106.146 336.503 106.665 336.266 107.128C336.029 107.581 335.7 107.944 335.278 108.219C334.856 108.483 334.363 108.62 333.797 108.631L333.398 108.638ZM333.398 108.638C333.27 108.641 333.183 108.594 333.139 108.499C333.094 108.393 333.07 108.255 333.067 108.084C333.064 107.903 333.082 107.764 333.123 107.667C333.164 107.57 333.249 107.521 333.377 107.518L333.398 108.638ZM340.877 108.498C340.536 108.505 340.331 108.407 340.264 108.206C340.196 108.004 340.159 107.765 340.154 107.488L340.02 100.321C340.014 99.9903 339.96 99.6926 339.859 99.4277C339.769 99.1627 339.653 98.9408 339.511 98.7621C339.369 98.5834 339.233 98.4526 339.103 98.3697C339.145 98.3156 339.213 98.2556 339.308 98.1898C339.414 98.1238 339.541 98.0681 339.689 98.0227C339.838 97.9772 339.992 97.953 340.152 97.95C340.354 97.9462 340.553 97.9959 340.747 98.0989C340.94 98.1913 341.104 98.3643 341.236 98.6178C341.369 98.8714 341.44 99.2328 341.449 99.7021L341.594 107.461C341.599 107.738 341.566 107.979 341.495 108.183C341.424 108.387 341.218 108.492 340.877 108.498Z" fill="#4F4F4F"/>
<path d="M94.6006 260.13L94.5228 255.97C95.5693 254.884 96.9101 253.557 98.5451 251.991C100.179 250.381 101.875 248.642 103.632 246.775C105.432 244.863 107.102 242.89 108.643 240.856C110.183 238.779 111.424 236.707 112.367 234.641C113.353 232.574 113.827 230.56 113.79 228.597C113.749 226.379 113.374 224.594 112.666 223.242C111.957 221.847 111.064 220.839 109.985 220.219C108.906 219.557 107.769 219.236 106.575 219.259C103.887 219.309 101.643 220.247 99.8419 222.073C98.0411 223.899 96.857 226.759 96.2897 230.653L94.0501 230.695C94.0198 229.074 94.0531 227.43 94.15 225.764C94.246 224.055 94.6688 222.703 95.4183 221.708C96.5438 220.278 98.2065 219.052 100.406 218.03C102.648 216.964 105.113 216.406 107.8 216.355C109.294 216.327 110.875 216.469 112.545 216.779C114.257 217.045 115.868 217.591 117.377 218.417C118.928 219.241 120.189 220.455 121.157 222.059C122.169 223.661 122.699 225.785 122.749 228.43C122.786 230.435 122.354 232.427 121.452 234.407C120.551 236.387 119.349 238.33 117.849 240.236C116.391 242.141 114.782 243.963 113.022 245.703C111.262 247.443 109.521 249.054 107.8 250.537C106.077 251.978 104.522 253.266 103.135 254.401C101.791 255.536 100.784 256.451 100.114 257.146L113.359 256.898C115.919 256.851 117.87 256.217 119.213 254.997C120.598 253.733 121.269 251.971 121.226 249.71L123.146 249.674L123.236 254.473C123.252 255.327 123.118 256.161 122.835 256.977C122.55 257.751 122.029 258.401 121.271 258.927C120.512 259.41 119.386 259.666 117.893 259.694L94.6006 260.13ZM144.22 260.482C141.49 260.533 139.138 260.278 137.164 259.718C135.234 259.199 133.534 258.442 132.065 257.445C130.638 256.447 129.314 255.256 128.093 253.87L129.85 251.981C131.68 253.953 133.585 255.411 135.565 256.355C137.588 257.256 139.516 257.69 141.35 257.655C143.014 257.624 144.501 257.255 145.811 256.548C147.162 255.797 148.208 254.668 148.948 253.16C149.73 251.61 150.098 249.64 150.053 247.251C150.01 244.947 149.591 243.077 148.796 241.641C148.043 240.162 147.042 239.092 145.792 238.433C144.542 237.773 143.171 237.458 141.677 237.486C140.824 237.502 140.079 237.558 139.44 237.655C138.845 237.752 138.207 237.892 137.528 238.075C136.891 238.258 136.042 238.508 134.981 238.827L133.4 236.424L150.563 219.716L139.109 219.931C136.549 219.978 134.577 220.634 133.192 221.898C131.85 223.117 131.199 224.858 131.242 227.119L129.322 227.155L129.232 222.356C129.216 221.502 129.351 220.689 129.635 219.916C129.918 219.1 130.44 218.45 131.199 217.966C132 217.439 133.125 217.162 134.576 217.135L156.204 216.73L156.258 219.61L140.605 234.881C140.646 234.838 141.136 234.786 142.074 234.726C143.053 234.622 143.927 234.563 144.695 234.549C146.145 234.522 147.686 234.727 149.315 235.166C150.987 235.562 152.536 236.258 153.963 237.256C155.432 238.21 156.63 239.489 157.556 241.093C158.482 242.698 158.967 244.694 159.012 247.083C159.062 249.771 158.549 251.978 157.471 253.705C156.437 255.431 155.118 256.8 153.516 257.812C151.912 258.781 150.26 259.452 148.56 259.825C146.904 260.24 145.457 260.459 144.22 260.482Z" fill="#4F4F4F"/>
<path d="M312.459 251.055L311.81 216.373L306.31 220.06L304.737 218.105L314.421 208.771L319.988 208.667L320.777 250.899L312.459 251.055Z" fill="#4F4F4F"/>
<path d="M70.8822 280.577L70.8691 279.877C71.4464 279.297 71.9687 278.773 72.436 278.307C72.9127 277.841 73.3295 277.413 73.6863 277.024C74.043 276.634 74.3441 276.26 74.5894 275.901C74.8347 275.541 75.0147 275.179 75.1292 274.812C75.253 274.446 75.311 274.053 75.3031 273.633C75.2944 273.166 75.2032 272.781 75.0295 272.476C74.8556 272.162 74.6272 271.933 74.3445 271.788C74.0709 271.635 73.7708 271.561 73.4442 271.567C72.8843 271.578 72.3982 271.792 71.986 272.211C71.5735 272.62 71.3046 273.213 71.1791 273.99L70.8991 273.995C70.8925 273.641 70.9002 273.304 70.9223 272.987C70.9442 272.66 71.0371 272.387 71.2011 272.169C71.4473 271.857 71.811 271.588 72.2922 271.365C72.7733 271.132 73.2937 271.01 73.8536 271C74.1336 270.994 74.4329 271.026 74.7516 271.095C75.0794 271.154 75.3897 271.274 75.6825 271.455C75.9753 271.637 76.2136 271.903 76.3976 272.254C76.5906 272.596 76.6924 273.047 76.7029 273.607C76.7104 274.008 76.6521 274.387 76.5281 274.744C76.4133 275.092 76.2469 275.431 76.0291 275.762C75.8112 276.092 75.5514 276.424 75.2495 276.756C74.9475 277.079 74.613 277.412 74.246 277.755C73.8882 278.089 73.5027 278.441 73.0896 278.813C72.6858 279.185 72.2731 279.58 71.8516 279.999L75.001 279.94C75.5609 279.929 75.9879 279.8 76.282 279.552C76.5854 279.303 76.7325 278.932 76.7232 278.437L77.0032 278.432L77.0202 279.342C77.0237 279.528 76.9944 279.711 76.9324 279.89C76.8702 280.059 76.7562 280.201 76.5903 280.316C76.4243 280.422 76.1779 280.478 75.8513 280.484L70.8822 280.577ZM82.5232 280.639C81.7114 280.654 81.0544 280.466 80.5523 280.074C80.0501 279.673 79.6801 279.105 79.4423 278.372C79.2139 277.639 79.0905 276.783 79.0722 275.803C79.0537 274.814 79.145 273.953 79.346 273.221C79.5561 272.48 79.9048 271.904 80.3919 271.493C80.8788 271.074 81.5281 270.856 82.34 270.841C83.1612 270.825 83.8182 271.019 84.3112 271.42C84.8132 271.812 85.1785 272.375 85.4069 273.108C85.6445 273.832 85.7725 274.688 85.791 275.677C85.8093 276.657 85.7134 277.518 85.5032 278.259C85.3024 279 84.9585 279.581 84.4716 280.001C83.9939 280.411 83.3444 280.624 82.5232 280.639ZM82.5128 280.079C83.278 280.065 83.7892 279.701 84.0466 278.986C84.3038 278.263 84.4187 277.168 84.3913 275.703C84.3637 274.229 84.208 273.14 83.9241 272.435C83.6402 271.731 83.1157 271.386 82.3505 271.401C81.5853 271.415 81.074 271.779 80.8166 272.494C80.5593 273.208 80.4444 274.302 80.472 275.777C80.4993 277.242 80.6551 278.331 80.9391 279.044C81.223 279.749 81.7476 280.094 82.5128 280.079ZM87.8788 280.259L87.8657 279.559C88.443 278.979 88.9653 278.456 89.4327 277.989C89.9094 277.523 90.3261 277.095 90.6829 276.706C91.0397 276.316 91.3407 275.942 91.586 275.583C91.8314 275.223 92.0113 274.861 92.1258 274.495C92.2496 274.128 92.3076 273.735 92.2998 273.315C92.291 272.848 92.1998 272.463 92.0261 272.158C91.8522 271.844 91.6239 271.615 91.3411 271.471C91.0675 271.317 90.7674 271.243 90.4408 271.249C89.8809 271.26 89.3949 271.474 88.9826 271.893C88.5702 272.302 88.3012 272.895 88.1757 273.672L87.8958 273.677C87.8891 273.323 87.8969 272.987 87.9189 272.669C87.9408 272.342 88.0337 272.069 88.1977 271.851C88.4439 271.539 88.8076 271.271 89.2888 271.047C89.7699 270.814 90.2904 270.692 90.8503 270.682C91.1302 270.676 91.4295 270.708 91.7482 270.777C92.0761 270.836 92.3864 270.956 92.6791 271.138C92.9719 271.319 93.2103 271.585 93.3942 271.936C93.5873 272.278 93.6891 272.729 93.6995 273.289C93.707 273.69 93.6488 274.069 93.5248 274.426C93.4099 274.774 93.2436 275.113 93.0257 275.444C92.8079 275.775 92.548 276.106 92.2462 276.439C91.9442 276.762 91.6097 277.095 91.2427 277.438C90.8848 277.771 90.4994 278.124 90.0862 278.495C89.6825 278.867 89.2698 279.262 88.8482 279.681L91.9976 279.622C92.5575 279.611 92.9845 279.482 93.2786 279.234C93.582 278.985 93.7291 278.614 93.7198 278.119L93.9998 278.114L94.0168 279.024C94.0203 279.211 93.991 279.393 93.929 279.572C93.8669 279.741 93.7528 279.883 93.587 279.998C93.4209 280.104 93.1746 280.16 92.848 280.166L87.8788 280.259ZM99.1559 280.328C98.6893 280.337 98.2636 280.284 97.8787 280.17C97.5032 280.056 97.1547 279.889 96.8332 279.671C96.5211 279.453 96.2315 279.193 95.9645 278.89L96.1837 278.633C96.5457 279.019 96.9385 279.31 97.3623 279.507C97.7859 279.696 98.2636 279.785 98.7955 279.775C99.1688 279.768 99.5126 279.682 99.8269 279.517C100.141 279.343 100.393 279.087 100.583 278.747C100.772 278.408 100.862 277.967 100.852 277.426C100.843 276.931 100.742 276.527 100.549 276.213C100.357 275.9 100.119 275.666 99.836 275.513C99.5531 275.359 99.2717 275.285 98.9917 275.29C98.7118 275.296 98.488 275.309 98.3203 275.331C98.1525 275.343 97.9943 275.365 97.8455 275.396C97.706 275.426 97.5295 275.472 97.3159 275.532L96.941 274.951L100.668 271.338L98.0786 271.387C97.5187 271.397 97.087 271.527 96.7836 271.775C96.4895 272.023 96.3471 272.395 96.3563 272.889L96.0764 272.894L96.0594 271.985C96.0559 271.798 96.0852 271.62 96.1474 271.451C96.2094 271.272 96.3235 271.13 96.4895 271.024C96.6647 270.909 96.911 270.848 97.2282 270.842L101.679 270.759L101.69 271.319L98.004 274.889C98.2454 274.819 98.492 274.777 98.7438 274.763C99.0047 274.739 99.1772 274.727 99.2612 274.725C99.4665 274.721 99.7331 274.754 100.061 274.822C100.389 274.881 100.718 275.006 101.048 275.196C101.379 275.386 101.659 275.656 101.89 276.006C102.12 276.357 102.241 276.821 102.252 277.4C102.263 278.016 102.161 278.517 101.944 278.904C101.727 279.281 101.448 279.576 101.106 279.788C100.774 279.99 100.431 280.127 100.078 280.199C99.7245 280.28 99.4172 280.323 99.1559 280.328ZM108.783 282.038L108.64 281.831C108.879 281.668 109.077 281.491 109.232 281.302C109.396 281.112 109.518 280.904 109.598 280.679C109.687 280.453 109.729 280.2 109.724 279.92C109.687 279.949 109.627 279.978 109.544 280.008C109.46 280.047 109.381 280.067 109.307 280.068C109.092 280.072 108.909 280.001 108.757 279.854C108.604 279.708 108.526 279.527 108.522 279.313C108.518 279.07 108.593 278.868 108.749 278.706C108.905 278.545 109.104 278.462 109.347 278.457C109.627 278.452 109.847 278.532 110.009 278.697C110.18 278.862 110.269 279.103 110.275 279.42C110.286 280.017 110.16 280.528 109.897 280.953C109.644 281.387 109.273 281.749 108.783 282.038ZM121.033 283.196C120.156 283.212 119.407 283.077 118.785 282.789C118.173 282.502 117.704 282.1 117.377 281.584C117.059 281.076 116.894 280.505 116.883 279.871C116.878 279.637 116.896 279.348 116.936 279.001C116.986 278.646 117.068 278.294 117.183 277.947C117.307 277.59 117.474 277.292 117.684 277.055C117.903 276.808 118.186 276.682 118.531 276.675C118.652 276.673 118.76 276.685 118.854 276.711C118.948 276.737 119.028 276.773 119.094 276.819C119.169 276.855 119.231 276.895 119.278 276.941C118.948 277.227 118.701 277.545 118.54 277.893C118.378 278.242 118.268 278.58 118.209 278.908C118.159 279.226 118.136 279.506 118.141 279.749C118.157 280.636 118.426 281.27 118.946 281.652C119.476 282.044 120.161 282.232 121.001 282.216C121.822 282.201 122.411 281.998 122.768 281.609C123.134 281.229 123.309 280.6 123.293 279.723L123.191 274.264C123.186 274.03 123.244 273.871 123.364 273.784C123.483 273.689 123.632 273.639 123.809 273.636C123.987 273.633 124.137 273.677 124.26 273.768C124.383 273.849 124.446 274.007 124.451 274.24L124.553 279.699C124.572 280.744 124.303 281.58 123.745 282.207C123.188 282.843 122.284 283.172 121.033 283.196ZM125.796 279.55C125.311 279.559 124.875 279.455 124.488 279.238C124.11 279.012 123.811 278.705 123.589 278.317C123.367 277.92 123.251 277.469 123.241 276.965L124.501 276.942C124.506 277.203 124.553 277.459 124.642 277.709C124.74 277.959 124.883 278.167 125.073 278.331C125.263 278.496 125.498 278.575 125.778 278.57L125.974 278.566L125.992 279.546L125.796 279.55ZM129.967 279.472C129.482 279.481 129.046 279.377 128.659 279.16C128.282 278.934 127.982 278.627 127.76 278.239C127.538 277.842 127.422 277.391 127.413 276.887L128.672 276.864C128.677 277.125 128.724 277.381 128.813 277.631C128.911 277.881 129.055 278.089 129.244 278.253C129.434 278.418 129.669 278.497 129.949 278.492L130.229 278.487L130.247 279.467L129.967 279.472ZM125.992 279.546L125.974 278.566L126.198 278.562C126.487 278.557 126.719 278.468 126.893 278.297C127.076 278.126 127.208 277.913 127.287 277.66C127.376 277.406 127.418 277.148 127.413 276.887L127.356 273.85C127.351 273.616 127.409 273.457 127.529 273.37C127.648 273.275 127.797 273.225 127.974 273.222C128.151 273.219 128.302 273.263 128.425 273.354C128.548 273.435 128.611 273.593 128.616 273.826L128.672 276.864C128.682 277.368 128.583 277.822 128.376 278.227C128.169 278.623 127.88 278.941 127.512 279.182C127.142 279.413 126.711 279.533 126.216 279.542L125.992 279.546ZM130.247 279.467L130.229 278.487L130.593 278.48C130.892 278.474 131.138 278.4 131.331 278.256C131.524 278.112 131.67 277.932 131.769 277.716C131.877 277.499 131.952 277.274 131.994 277.04C132.046 276.805 132.075 276.595 132.08 276.408C132.086 276.212 132.088 276.072 132.087 275.988C132.082 275.736 132.053 275.437 132 275.093C131.947 274.749 131.833 274.391 131.658 274.021C131.492 273.651 131.22 273.315 130.841 273.014C130.887 272.967 130.942 272.924 131.006 272.885C131.08 272.837 131.163 272.798 131.256 272.769C131.349 272.739 131.456 272.723 131.577 272.721C131.904 272.714 132.177 272.817 132.395 273.027C132.623 273.238 132.806 273.514 132.943 273.857C133.08 274.191 133.18 274.548 133.243 274.93C133.306 275.311 133.341 275.665 133.347 275.992C133.367 277.065 133.135 277.91 132.652 278.525C132.169 279.132 131.488 279.443 130.611 279.46L130.247 279.467ZM136.096 282.564C135.975 282.566 135.867 282.554 135.773 282.528C135.679 282.502 135.595 282.466 135.519 282.421C135.453 282.375 135.396 282.334 135.349 282.298C135.716 281.973 135.976 281.633 136.128 281.275C136.289 280.917 136.39 280.565 136.43 280.219C136.471 279.882 136.488 279.593 136.484 279.35L136.37 273.247C136.365 273.014 136.423 272.854 136.543 272.768C136.662 272.672 136.811 272.623 136.988 272.619C137.165 272.616 137.316 272.66 137.439 272.751C137.562 272.833 137.625 272.99 137.63 273.223L137.744 279.326C137.75 279.653 137.728 280.003 137.679 280.378C137.63 280.752 137.544 281.104 137.419 281.433C137.294 281.762 137.122 282.031 136.902 282.241C136.691 282.45 136.423 282.558 136.096 282.564ZM143.052 279.227C142.567 279.236 142.131 279.132 141.744 278.916C141.366 278.689 141.067 278.382 140.845 277.994C140.622 277.597 140.507 277.146 140.497 276.642L140.412 272.107C140.407 271.818 140.36 271.557 140.272 271.326C140.193 271.094 140.091 270.9 139.967 270.743C139.843 270.587 139.724 270.473 139.61 270.4C139.647 270.353 139.707 270.3 139.789 270.243C139.882 270.185 139.993 270.136 140.123 270.096C140.253 270.057 140.388 270.035 140.528 270.033C140.705 270.029 140.879 270.073 141.048 270.163C141.218 270.244 141.361 270.395 141.477 270.617C141.593 270.839 141.655 271.155 141.663 271.566L141.757 276.619C141.762 276.88 141.809 277.136 141.897 277.386C141.995 277.637 142.139 277.844 142.329 278.008C142.519 278.173 142.754 278.253 143.034 278.247L143.468 278.239L143.486 279.219L143.052 279.227ZM143.486 279.219L143.468 278.239C143.58 278.237 143.655 278.278 143.694 278.361C143.733 278.444 143.754 278.565 143.757 278.724C143.76 278.873 143.743 278.995 143.708 279.089C143.672 279.174 143.598 279.217 143.486 279.219ZM144.192 279.206L144.174 278.226L147.155 278.17C147.799 278.158 148.29 277.944 148.627 277.527C148.965 277.11 149.126 276.514 149.112 275.739C149.097 274.955 148.923 274.371 148.589 273.985C148.255 273.59 147.78 273.398 147.164 273.409C146.763 273.417 146.47 273.474 146.285 273.58C146.11 273.686 146.024 273.827 146.027 274.005L146.124 279.17L144.864 279.193L144.767 274.028C144.759 273.571 144.976 273.193 145.418 272.896C145.861 272.598 146.436 272.443 147.146 272.429C148.116 272.411 148.892 272.691 149.472 273.268C150.052 273.845 150.352 274.661 150.372 275.716C150.385 276.425 150.275 277.034 150.042 277.542C149.809 278.051 149.48 278.444 149.056 278.723C148.631 278.992 148.144 279.132 147.593 279.142L144.192 279.206ZM144.192 279.206C144.08 279.208 144.004 279.167 143.966 279.084C143.926 278.991 143.906 278.87 143.903 278.721C143.9 278.563 143.916 278.441 143.952 278.356C143.988 278.271 144.062 278.228 144.174 278.226L144.192 279.206Z" fill="#828282"/>
<path d="M259.915 277.042L259.768 269.203L258.427 270.11L258.169 269.793L260.302 267.793L261.002 267.78L261.175 277.018L259.915 277.042ZM267.805 276.894L267.761 274.514L263.281 274.598L263.271 274.038L267.772 267.653L268.892 267.632L269.01 273.931L270.27 273.907L270.28 274.467L269.02 274.491L269.065 276.87L267.805 276.894ZM264.111 274.023L267.75 273.955L267.658 268.999L264.111 274.023ZM276.146 276.738L276.102 274.358L271.623 274.442L271.612 273.882L276.113 267.497L277.233 267.476L277.351 273.775L278.611 273.751L278.621 274.311L277.362 274.335L277.406 276.714L276.146 276.738ZM272.452 273.867L276.091 273.799L275.999 268.843L272.452 273.867ZM284.487 276.582L284.443 274.202L279.964 274.286L279.953 273.726L284.455 267.341L285.574 267.32L285.692 273.619L286.952 273.595L286.962 274.155L285.703 274.179L285.747 276.559L284.487 276.582ZM280.793 273.711L284.432 273.643L284.34 268.687L280.793 273.711ZM293.331 278.587L293.187 278.38C293.427 278.217 293.624 278.04 293.779 277.851C293.944 277.661 294.066 277.453 294.146 277.228C294.235 277.002 294.277 276.749 294.272 276.469C294.235 276.498 294.175 276.527 294.091 276.557C294.008 276.595 293.929 276.616 293.854 276.617C293.64 276.621 293.456 276.55 293.304 276.403C293.152 276.257 293.074 276.076 293.07 275.861C293.065 275.619 293.141 275.417 293.297 275.255C293.452 275.094 293.652 275.01 293.894 275.006C294.174 275.001 294.395 275.081 294.557 275.246C294.728 275.41 294.816 275.651 294.822 275.969C294.833 276.566 294.708 277.077 294.445 277.502C294.192 277.936 293.82 278.298 293.331 278.587ZM305.576 279.492C304.699 279.509 303.95 279.373 303.328 279.086C302.716 278.799 302.247 278.397 301.92 277.88C301.602 277.373 301.437 276.802 301.425 276.167C301.421 275.934 301.439 275.644 301.479 275.298C301.529 274.942 301.611 274.591 301.726 274.243C301.85 273.886 302.017 273.589 302.227 273.352C302.446 273.105 302.729 272.978 303.074 272.972C303.195 272.97 303.303 272.982 303.397 273.008C303.491 273.034 303.571 273.07 303.637 273.115C303.712 273.151 303.774 273.192 303.821 273.238C303.49 273.524 303.244 273.842 303.083 274.19C302.921 274.538 302.811 274.877 302.752 275.204C302.702 275.523 302.679 275.803 302.683 276.046C302.7 276.932 302.969 277.567 303.489 277.949C304.019 278.341 304.704 278.528 305.544 278.513C306.365 278.497 306.954 278.295 307.311 277.906C307.677 277.525 307.852 276.897 307.836 276.019L307.724 270.042C307.72 269.809 307.777 269.649 307.897 269.563C308.017 269.468 308.165 269.418 308.342 269.415C308.52 269.411 308.67 269.455 308.793 269.546C308.916 269.628 308.979 269.786 308.984 270.019L309.096 275.996C309.115 277.041 308.846 277.877 308.288 278.503C307.731 279.139 306.827 279.469 305.576 279.492ZM305.151 269.474C304.918 269.479 304.72 269.403 304.559 269.248C304.397 269.092 304.314 268.907 304.31 268.692C304.306 268.468 304.382 268.275 304.537 268.114C304.693 267.952 304.888 267.869 305.121 267.865C305.335 267.861 305.524 267.937 305.685 268.092C305.847 268.248 305.93 268.438 305.934 268.662C305.938 268.876 305.862 269.064 305.706 269.226C305.551 269.388 305.366 269.47 305.151 269.474ZM314.693 276.017C314.208 276.026 313.772 275.922 313.385 275.706C313.007 275.479 312.707 275.172 312.485 274.784C312.263 274.387 312.148 273.936 312.138 273.433L312.053 268.897C312.048 268.608 312.001 268.348 311.913 268.116C311.834 267.884 311.732 267.69 311.608 267.533C311.483 267.377 311.365 267.263 311.251 267.19C311.288 267.143 311.347 267.09 311.43 267.033C311.523 266.975 311.634 266.926 311.764 266.886C311.894 266.847 312.029 266.825 312.169 266.823C312.346 266.819 312.519 266.863 312.689 266.953C312.859 267.034 313.001 267.185 313.118 267.407C313.234 267.629 313.296 267.945 313.303 268.356L313.398 273.409C313.403 273.67 313.45 273.926 313.538 274.176C313.636 274.427 313.78 274.634 313.97 274.799C314.16 274.963 314.395 275.043 314.675 275.037L315.109 275.029L315.127 276.009L314.693 276.017ZM315.127 276.009L315.109 275.029C315.22 275.027 315.296 275.068 315.335 275.151C315.374 275.234 315.395 275.355 315.398 275.514C315.4 275.663 315.384 275.785 315.348 275.879C315.313 275.964 315.239 276.007 315.127 276.009ZM326.891 275.789C326.406 275.798 325.97 275.694 325.583 275.478C325.205 275.251 324.905 274.944 324.683 274.556C324.461 274.159 324.345 273.708 324.336 273.204L325.589 272.831L325.596 273.181C325.601 273.442 325.647 273.698 325.736 273.948C325.834 274.199 325.978 274.406 326.168 274.57C326.358 274.735 326.593 274.815 326.872 274.809L327.376 274.8L327.395 275.78L326.891 275.789ZM315.833 275.996L315.814 275.016L323.121 274.879C323.504 274.872 323.804 274.713 324.022 274.4C324.241 274.088 324.343 273.578 324.33 272.868C324.311 271.879 324.074 271.174 323.618 270.753C323.171 270.332 322.57 270.129 321.814 270.143C321.217 270.154 320.715 270.276 320.309 270.507C319.902 270.739 319.572 271.034 319.317 271.394C319.063 271.753 318.855 272.14 318.695 272.554C318.544 272.958 318.416 273.343 318.31 273.709L317.731 273.44C317.81 273.158 317.893 272.835 317.979 272.469C318.075 272.094 318.203 271.718 318.364 271.342C318.525 270.965 318.747 270.616 319.031 270.293C319.314 269.961 319.678 269.693 320.122 269.489C320.566 269.284 321.124 269.176 321.796 269.163C322.972 269.141 323.892 269.451 324.558 270.092C325.223 270.733 325.567 271.65 325.59 272.845C325.607 273.787 325.402 274.524 324.973 275.055C324.553 275.576 323.942 275.844 323.139 275.859L315.833 275.996ZM317.093 275.972L317.011 271.591C317.006 271.33 316.922 271.079 316.758 270.84C316.605 270.6 316.447 270.421 316.286 270.302C316.36 270.236 316.471 270.168 316.619 270.1C316.767 270.023 316.929 269.982 317.106 269.979C317.218 269.977 317.34 269.998 317.472 270.042C317.603 270.086 317.726 270.163 317.84 270.273C317.963 270.383 318.064 270.54 318.143 270.744C318.221 270.948 318.264 271.213 318.27 271.54L318.352 275.949L317.093 275.972ZM315.833 275.996C315.721 275.998 315.645 275.957 315.606 275.874C315.567 275.781 315.546 275.661 315.544 275.511C315.541 275.353 315.557 275.231 315.593 275.146C315.629 275.062 315.702 275.018 315.814 275.016L315.833 275.996ZM327.395 275.78L327.376 274.8C327.488 274.798 327.564 274.838 327.603 274.922C327.642 275.005 327.663 275.126 327.666 275.285C327.668 275.434 327.652 275.555 327.616 275.65C327.581 275.734 327.507 275.778 327.395 275.78ZM321.233 268.264C321 268.268 320.802 268.192 320.641 268.037C320.479 267.881 320.396 267.696 320.392 267.481C320.388 267.257 320.464 267.064 320.62 266.903C320.775 266.741 320.97 266.658 321.203 266.654C321.418 266.65 321.606 266.726 321.767 266.881C321.929 267.037 322.012 267.227 322.016 267.451C322.02 267.665 321.944 267.854 321.789 268.015C321.633 268.177 321.448 268.26 321.233 268.264ZM328.097 275.767L328.079 274.787L331.06 274.731C331.704 274.719 332.195 274.504 332.532 274.087C332.87 273.67 333.032 273.074 333.017 272.3C333.002 271.516 332.828 270.931 332.494 270.545C332.16 270.15 331.685 269.958 331.069 269.97C330.668 269.977 330.375 270.034 330.19 270.14C330.015 270.246 329.929 270.388 329.932 270.565L330.029 275.73L328.769 275.754L328.672 270.589C328.664 270.132 328.881 269.754 329.323 269.457C329.766 269.159 330.342 269.003 331.051 268.99C332.021 268.972 332.797 269.252 333.377 269.829C333.957 270.406 334.257 271.222 334.277 272.276C334.29 272.986 334.18 273.594 333.947 274.103C333.714 274.611 333.385 275.005 332.961 275.284C332.536 275.553 332.049 275.693 331.498 275.703L328.097 275.767ZM328.097 275.767C327.985 275.769 327.91 275.728 327.871 275.645C327.832 275.552 327.811 275.431 327.808 275.282C327.805 275.123 327.821 275.002 327.857 274.917C327.893 274.832 327.967 274.789 328.079 274.787L328.097 275.767ZM337.028 278.806C336.906 278.808 336.799 278.796 336.705 278.77C336.611 278.744 336.527 278.708 336.451 278.663C336.385 278.617 336.328 278.576 336.281 278.54C336.648 278.216 336.908 277.875 337.06 277.517C337.221 277.16 337.322 276.808 337.362 276.461C337.402 276.125 337.42 275.835 337.416 275.592L337.302 269.489C337.297 269.256 337.355 269.096 337.475 269.01C337.594 268.914 337.743 268.865 337.92 268.862C338.097 268.858 338.247 268.902 338.371 268.993C338.493 269.075 338.557 269.232 338.561 269.466L338.676 275.569C338.682 275.895 338.66 276.246 338.611 276.62C338.562 276.994 338.475 277.346 338.351 277.675C338.226 278.004 338.054 278.273 337.834 278.483C337.623 278.692 337.354 278.8 337.028 278.806Z" fill="#828282"/>
<defs>
<filter id="filter0_d_663_6187" x="29.0938" y="17.335" width="355.816" height="379.315" filterUnits="userSpaceOnUse" color-interpolation-filters="sRGB">
<feFlood flood-opacity="0" result="BackgroundImageFix"/>
<feColorMatrix in="SourceAlpha" type="matrix" values="0 0 0 0 0 0 0 0 0 0 0 0 0 0 0 0 0 0 127 0" result="hardAlpha"/>
<feOffset/>
<feGaussianBlur stdDeviation="6.5"/>
<feComposite in2="hardAlpha" operator="out"/>
<feColorMatrix type="matrix" values="0 0 0 0 0.1375 0 0 0 0 0.1375 0 0 0 0 0.1375 0 0 0 0.25 0"/>
<feBlend mode="normal" in2="BackgroundImageFix" result="effect1_dropShadow_663_6187"/>
<feBlend mode="normal" in="SourceGraphic" in2="effect1_dropShadow_663_6187" result="shape"/>
</filter>
<filter id="filter1_f_663_6187" x="0.867188" y="0.427246" width="407.586" height="237.588" filterUnits="userSpaceOnUse" color-interpolation-filters="sRGB">
<feFlood flood-opacity="0" result="BackgroundImageFix"/>
<feBlend mode="normal" in="SourceGraphic" in2="BackgroundImageFix" result="shape"/>
<feGaussianBlur stdDeviation="44.5" result="effect1_foregroundBlur_663_6187"/>
</filter>
</defs>
</svg>
