<svg width="409" height="392" viewBox="0 0 409 392" fill="none" xmlns="http://www.w3.org/2000/svg">
<g filter="url(#filter0_d_668_6254)">
<rect x="43" y="31" width="324" height="347.948" rx="17" fill="#FBFBFB"/>
</g>
<g filter="url(#filter1_f_668_6254)">
<rect x="89.4883" y="89" width="229.617" height="56.3478" rx="28.1739" fill="#EBEBEB"/>
</g>
<path d="M161.335 154.48C160.994 154.16 160.77 153.755 160.663 153.264C160.578 152.773 160.674 152.315 160.951 151.888C161.229 151.44 161.751 151.131 162.519 150.96C163.287 150.768 164.354 150.811 165.719 151.088L164.247 151.056C163.927 150.992 163.533 150.8 163.063 150.48C162.594 150.139 162.178 149.68 161.815 149.104C161.474 148.507 161.303 147.803 161.303 146.992C161.303 146.416 161.421 145.808 161.655 145.168C161.89 144.507 162.253 143.899 162.743 143.344C163.234 142.768 163.874 142.309 164.663 141.968C165.453 141.605 166.391 141.424 167.479 141.424C168.247 141.424 168.919 141.531 169.495 141.744C170.093 141.936 170.551 142.245 170.871 142.672C171.213 143.099 171.383 143.664 171.383 144.368C171.383 145.093 171.202 145.605 170.839 145.904C170.477 146.203 170.039 146.341 169.527 146.32C169.015 146.299 168.514 146.192 168.023 146C168.045 145.659 168.002 145.307 167.895 144.944C167.81 144.581 167.639 144.283 167.383 144.048C167.127 143.813 166.754 143.728 166.263 143.792L166.743 143.6C166.594 143.707 166.413 143.909 166.199 144.208C165.986 144.507 165.794 144.859 165.623 145.264C165.474 145.648 165.399 146.053 165.399 146.48C165.399 147.035 165.549 147.589 165.847 148.144C166.167 148.699 166.615 149.157 167.191 149.52C167.767 149.861 168.45 150.032 169.239 150.032C169.709 150.032 170.135 149.989 170.519 149.904C170.903 149.797 171.234 149.744 171.511 149.744C171.938 149.744 172.258 149.904 172.471 150.224C172.685 150.544 172.791 150.917 172.791 151.344C172.791 151.749 172.695 152.112 172.503 152.432C172.333 152.752 172.077 152.923 171.735 152.944C171.65 152.944 171.362 152.965 170.871 153.008C170.381 153.051 169.762 153.115 169.015 153.2C168.29 153.264 167.511 153.349 166.679 153.456C165.869 153.541 165.079 153.648 164.311 153.776C163.565 153.883 162.914 153.989 162.359 154.096C161.826 154.224 161.485 154.352 161.335 154.48ZM181.158 154C180.369 154 179.825 153.776 179.526 153.328C179.228 152.859 179.078 152.357 179.078 151.824V137.584C179.078 136.816 178.982 136.261 178.79 135.92C178.598 135.579 178.385 135.355 178.15 135.248C177.916 135.141 177.734 135.056 177.606 134.992C177.606 134.821 177.681 134.565 177.83 134.224C178.001 133.883 178.268 133.573 178.63 133.296C179.014 133.019 179.526 132.88 180.166 132.88C180.785 132.88 181.318 133.051 181.766 133.392C182.236 133.712 182.598 134.16 182.854 134.736C183.11 135.312 183.238 135.973 183.238 136.72V151.888C183.238 152.379 183.089 152.859 182.79 153.328C182.492 153.776 181.948 154 181.158 154ZM189.522 161.328C188.989 161.328 188.541 161.211 188.178 160.976C187.815 160.741 187.538 160.464 187.346 160.144C187.175 159.845 187.09 159.589 187.09 159.376C187.538 159.035 187.922 158.651 188.242 158.224C188.562 157.797 188.807 157.243 188.978 156.56C189.17 155.899 189.266 155.045 189.266 154V140.624C189.266 140.005 189.458 139.525 189.842 139.184C190.247 138.821 190.749 138.64 191.346 138.64C191.965 138.64 192.466 138.821 192.85 139.184C193.234 139.525 193.426 140.005 193.426 140.624V154C193.426 154.939 193.341 155.845 193.17 156.72C193.021 157.595 192.786 158.373 192.466 159.056C192.167 159.76 191.773 160.315 191.282 160.72C190.791 161.125 190.205 161.328 189.522 161.328ZM212.217 154V150.608H215.449V154H212.217ZM205.753 154C204.515 154 203.385 153.701 202.361 153.104C201.337 152.485 200.526 151.6 199.929 150.448C199.331 149.296 199.033 147.909 199.033 146.288C199.033 143.877 199.705 142 201.049 140.656C202.414 139.312 204.238 138.64 206.521 138.64C208.206 138.64 209.571 138.981 210.617 139.664C211.683 140.325 212.217 141.168 212.217 142.192V154H208.057V142.192C207.907 142.149 207.694 142.117 207.417 142.096C207.139 142.053 206.841 142.032 206.521 142.032C205.411 142.032 204.579 142.363 204.025 143.024C203.47 143.685 203.193 144.773 203.193 146.288C203.193 147.653 203.438 148.72 203.929 149.488C204.441 150.235 205.187 150.608 206.169 150.608H212.217V154H205.753ZM208.313 161.328C207.779 161.328 207.331 161.211 206.969 160.976C206.606 160.741 206.329 160.464 206.137 160.144C205.966 159.845 205.881 159.589 205.881 159.376C206.329 159.035 206.713 158.651 207.033 158.224C207.353 157.797 207.598 157.243 207.769 156.56C207.961 155.899 208.057 155.045 208.057 154V150.608H212.217V154C212.217 154.939 212.131 155.845 211.961 156.72C211.811 157.595 211.577 158.373 211.257 159.056C210.958 159.76 210.563 160.315 210.073 160.72C209.582 161.125 208.995 161.328 208.313 161.328ZM215.449 154V150.608C215.683 150.608 215.843 150.768 215.929 151.088C216.035 151.387 216.089 151.792 216.089 152.304C216.089 152.816 216.035 153.232 215.929 153.552C215.843 153.851 215.683 154 215.449 154ZM238.304 154V150.608H239.2C239.435 150.608 239.659 150.544 239.872 150.416C240.086 150.288 240.288 150.107 240.48 149.872C240.672 149.616 240.832 149.296 240.96 148.912C241.11 148.507 241.216 148.037 241.28 147.504C241.366 146.949 241.408 146.331 241.408 145.648C241.408 144.603 241.312 143.771 241.12 143.152C240.95 142.533 240.704 142.032 240.384 141.648C240.064 141.264 239.68 140.912 239.232 140.592C239.232 140.357 239.318 140.091 239.488 139.792C239.68 139.493 239.958 139.227 240.32 138.992C240.704 138.757 241.163 138.64 241.696 138.64C242.358 138.64 242.934 138.832 243.424 139.216C243.915 139.6 244.31 140.123 244.608 140.784C244.928 141.424 245.163 142.171 245.312 143.024C245.483 143.856 245.568 144.741 245.568 145.68C245.568 148.261 245.014 150.299 243.904 151.792C242.795 153.264 241.227 154 239.2 154H238.304ZM226.656 154C225.44 154 224.363 153.733 223.424 153.2C222.486 152.667 221.739 151.931 221.184 150.992C220.651 150.053 220.384 148.997 220.384 147.824H224.544C224.544 148.251 224.619 148.688 224.768 149.136C224.918 149.563 225.152 149.915 225.472 150.192C225.792 150.469 226.187 150.608 226.656 150.608H227.36V154H226.656ZM217.056 154V150.608H218.272C218.763 150.608 219.158 150.469 219.456 150.192C219.776 149.915 220.011 149.563 220.16 149.136C220.31 148.688 220.384 148.251 220.384 147.824V142.512C220.384 142.021 220.534 141.552 220.832 141.104C221.131 140.635 221.675 140.4 222.464 140.4C223.254 140.4 223.798 140.635 224.096 141.104C224.395 141.552 224.544 142.021 224.544 142.512V147.824C224.544 148.997 224.267 150.053 223.712 150.992C223.179 151.931 222.443 152.667 221.504 153.2C220.566 153.733 219.488 154 218.272 154H217.056ZM236.96 154C235.766 154 234.688 153.733 233.728 153.2C232.79 152.667 232.043 151.931 231.488 150.992C230.955 150.053 230.688 148.997 230.688 147.824H234.848C234.848 148.251 234.923 148.688 235.072 149.136C235.222 149.563 235.456 149.915 235.776 150.192C236.096 150.469 236.491 150.608 236.96 150.608H238.304V154H236.96ZM227.36 154V150.608H228.576C229.067 150.608 229.462 150.469 229.76 150.192C230.08 149.915 230.315 149.563 230.464 149.136C230.614 148.688 230.688 148.251 230.688 147.824V141.744C230.688 141.253 230.838 140.784 231.136 140.336C231.435 139.867 231.979 139.632 232.768 139.632C233.558 139.632 234.102 139.867 234.4 140.336C234.699 140.784 234.848 141.253 234.848 141.744V147.824C234.848 148.997 234.571 150.053 234.016 150.992C233.483 151.931 232.747 152.667 231.808 153.2C230.87 153.733 229.792 154 228.576 154H227.36ZM217.056 154C216.843 154 216.683 153.851 216.576 153.552C216.47 153.232 216.416 152.816 216.416 152.304C216.416 151.792 216.47 151.387 216.576 151.088C216.683 150.768 216.843 150.608 217.056 150.608V154ZM235.36 136.56C234.806 136.56 234.315 136.357 233.888 135.952C233.483 135.547 233.28 135.056 233.28 134.48C233.28 133.904 233.483 133.413 233.888 133.008C234.315 132.603 234.806 132.4 235.36 132.4C235.958 132.4 236.448 132.603 236.832 133.008C237.238 133.413 237.44 133.904 237.44 134.48C237.44 135.056 237.238 135.547 236.832 135.952C236.448 136.357 235.958 136.56 235.36 136.56ZM230.176 136.56C229.622 136.56 229.131 136.357 228.704 135.952C228.299 135.547 228.096 135.056 228.096 134.48C228.096 133.904 228.299 133.413 228.704 133.008C229.131 132.603 229.622 132.4 230.176 132.4C230.752 132.4 231.243 132.603 231.648 133.008C232.054 133.413 232.256 133.904 232.256 134.48C232.256 135.056 232.054 135.547 231.648 135.952C231.243 136.357 230.752 136.56 230.176 136.56ZM232.768 131.792C232.214 131.792 231.755 131.611 231.392 131.248C231.03 130.864 230.848 130.405 230.848 129.872C230.848 129.317 231.03 128.859 231.392 128.496C231.755 128.133 232.203 127.952 232.736 127.952C233.291 127.952 233.75 128.133 234.112 128.496C234.496 128.859 234.688 129.317 234.688 129.872C234.688 130.405 234.496 130.864 234.112 131.248C233.75 131.611 233.302 131.792 232.768 131.792ZM258.594 154C257.399 154 256.322 153.733 255.362 153.2C254.423 152.667 253.677 151.931 253.122 150.992C252.589 150.053 252.322 148.997 252.322 147.824V137.584C252.322 136.816 252.226 136.261 252.034 135.92C251.842 135.579 251.629 135.355 251.394 135.248C251.159 135.141 250.978 135.056 250.85 134.992C250.85 134.821 250.925 134.565 251.074 134.224C251.245 133.883 251.511 133.573 251.874 133.296C252.258 133.019 252.77 132.88 253.41 132.88C254.029 132.88 254.562 133.051 255.01 133.392C255.479 133.712 255.842 134.16 256.098 134.736C256.354 135.312 256.482 135.973 256.482 136.72V147.824C256.482 148.251 256.557 148.688 256.706 149.136C256.855 149.563 257.09 149.915 257.41 150.192C257.73 150.469 258.125 150.608 258.594 150.608H259.458V154H258.594ZM259.458 154V150.608C259.693 150.608 259.853 150.768 259.938 151.088C260.045 151.387 260.098 151.792 260.098 152.304C260.098 152.816 260.045 153.232 259.938 153.552C259.853 153.851 259.693 154 259.458 154ZM261.069 154V150.608H266.125L264.813 151.696C264.215 151.077 263.746 150.331 263.405 149.456C263.063 148.56 262.893 147.557 262.893 146.448C262.893 144.997 263.149 143.781 263.661 142.8C264.173 141.797 264.813 140.997 265.581 140.4C266.37 139.781 267.159 139.333 267.949 139.056C268.738 138.779 269.421 138.64 269.997 138.64C270.295 138.64 270.733 138.693 271.309 138.8C271.885 138.885 272.471 139.056 273.069 139.312C273.687 139.568 274.21 139.941 274.637 140.432C275.063 140.901 275.277 141.509 275.277 142.256C275.277 143.067 275.031 143.664 274.541 144.048C274.071 144.432 273.559 144.624 273.005 144.624C272.685 144.624 272.322 144.571 271.917 144.464C271.533 144.357 271.223 144.261 270.989 144.176C270.989 143.472 270.85 142.928 270.573 142.544C270.317 142.16 270.018 141.904 269.677 141.776C269.357 141.648 269.09 141.627 268.877 141.712L269.453 141.584C269.154 141.733 268.813 141.989 268.429 142.352C268.045 142.715 267.714 143.216 267.437 143.856C267.181 144.496 267.053 145.317 267.053 146.32C267.053 147.664 267.341 148.72 267.917 149.488C268.493 150.235 269.325 150.608 270.413 150.608H273.485C273.911 150.608 274.317 150.736 274.701 150.992C275.085 151.227 275.277 151.664 275.277 152.304C275.277 152.944 275.085 153.392 274.701 153.648C274.317 153.883 273.911 154 273.485 154H261.069ZM261.069 154C260.855 154 260.695 153.851 260.589 153.552C260.482 153.232 260.429 152.816 260.429 152.304C260.429 151.792 260.482 151.387 260.589 151.088C260.695 150.768 260.855 150.608 261.069 150.608V154ZM292.358 162.896C291.739 162.896 291.238 162.757 290.854 162.48C290.491 162.203 290.225 161.893 290.054 161.552C289.905 161.211 289.83 160.955 289.83 160.784C289.958 160.72 290.139 160.635 290.374 160.528C290.609 160.421 290.822 160.187 291.014 159.824C291.206 159.483 291.302 158.939 291.302 158.192V155.984C291.302 154.939 291.601 154.011 292.198 153.2C292.795 152.389 293.595 151.76 294.598 151.312C295.601 150.843 296.721 150.608 297.958 150.608H299.846C300.827 150.608 301.563 150.235 302.054 149.488C302.566 148.741 302.822 147.664 302.822 146.256C302.822 144.763 302.545 143.685 301.99 143.024C301.435 142.363 300.593 142.032 299.462 142.032C299.185 142.032 298.897 142.053 298.598 142.096C298.321 142.117 298.107 142.149 297.958 142.192V154H293.798V142.192C293.798 141.168 294.321 140.325 295.366 139.664C296.433 138.981 297.809 138.64 299.494 138.64C301.777 138.64 303.59 139.312 304.934 140.656C306.299 142 306.982 143.877 306.982 146.288C306.982 147.909 306.683 149.296 306.086 150.448C305.489 151.6 304.678 152.485 303.654 153.104C302.651 153.701 301.521 154 300.262 154H297.958C297.403 154 296.934 154.085 296.55 154.256C296.187 154.448 295.91 154.693 295.718 154.992C295.547 155.291 295.462 155.621 295.462 155.984V159.056C295.462 159.803 295.334 160.464 295.078 161.04C294.822 161.616 294.459 162.064 293.99 162.384C293.542 162.725 292.998 162.896 292.358 162.896ZM325.754 154V150.608H328.986V154H325.754ZM319.29 154C318.053 154 316.922 153.701 315.898 153.104C314.874 152.485 314.063 151.6 313.466 150.448C312.869 149.296 312.57 147.909 312.57 146.288C312.57 143.877 313.242 142 314.586 140.656C315.951 139.312 317.775 138.64 320.058 138.64C321.743 138.64 323.109 138.981 324.154 139.664C325.221 140.325 325.754 141.168 325.754 142.192V154H321.594V142.192C321.445 142.149 321.231 142.117 320.954 142.096C320.677 142.053 320.378 142.032 320.058 142.032C318.949 142.032 318.117 142.363 317.562 143.024C317.007 143.685 316.73 144.773 316.73 146.288C316.73 147.653 316.975 148.72 317.466 149.488C317.978 150.235 318.725 150.608 319.706 150.608H325.754V154H319.29ZM321.85 161.328C321.317 161.328 320.869 161.211 320.506 160.976C320.143 160.741 319.866 160.464 319.674 160.144C319.503 159.845 319.418 159.589 319.418 159.376C319.866 159.035 320.25 158.651 320.57 158.224C320.89 157.797 321.135 157.243 321.306 156.56C321.498 155.899 321.594 155.045 321.594 154V150.608H325.754V154C325.754 154.939 325.669 155.845 325.498 156.72C325.349 157.595 325.114 158.373 324.794 159.056C324.495 159.76 324.101 160.315 323.61 160.72C323.119 161.125 322.533 161.328 321.85 161.328ZM328.986 154V150.608C329.221 150.608 329.381 150.768 329.466 151.088C329.573 151.387 329.626 151.792 329.626 152.304C329.626 152.816 329.573 153.232 329.466 153.552C329.381 153.851 329.221 154 328.986 154ZM330.594 154V150.608H333.538C333.772 150.608 333.996 150.544 334.21 150.416C334.423 150.288 334.626 150.107 334.818 149.872C335.01 149.616 335.17 149.296 335.298 148.912C335.447 148.507 335.554 148.037 335.618 147.504C335.703 146.949 335.746 146.331 335.746 145.648C335.746 144.603 335.65 143.771 335.458 143.152C335.287 142.533 335.042 142.032 334.722 141.648C334.402 141.264 334.018 140.912 333.57 140.592C333.57 140.357 333.655 140.091 333.826 139.792C334.018 139.493 334.295 139.227 334.658 138.992C335.042 138.757 335.5 138.64 336.034 138.64C336.695 138.64 337.271 138.832 337.762 139.216C338.252 139.6 338.647 140.123 338.946 140.784C339.266 141.424 339.5 142.171 339.65 143.024C339.82 143.856 339.906 144.741 339.906 145.68C339.906 148.261 339.351 150.299 338.242 151.792C337.132 153.264 335.564 154 333.538 154H330.594ZM330.594 154C330.38 154 330.22 153.851 330.114 153.552C330.007 153.232 329.954 152.816 329.954 152.304C329.954 151.792 330.007 151.387 330.114 151.088C330.22 150.768 330.38 150.608 330.594 150.608V154ZM338.626 160.88C338.071 160.88 337.58 160.677 337.154 160.272C336.748 159.867 336.546 159.376 336.546 158.8C336.546 158.224 336.748 157.733 337.154 157.328C337.58 156.923 338.071 156.72 338.626 156.72C339.223 156.72 339.714 156.923 340.098 157.328C340.503 157.733 340.706 158.224 340.706 158.8C340.706 159.376 340.503 159.867 340.098 160.272C339.714 160.677 339.223 160.88 338.626 160.88ZM333.442 160.88C332.887 160.88 332.396 160.677 331.97 160.272C331.564 159.867 331.362 159.376 331.362 158.8C331.362 158.224 331.564 157.733 331.97 157.328C332.396 156.923 332.887 156.72 333.442 156.72C334.018 156.72 334.508 156.923 334.914 157.328C335.319 157.733 335.522 158.224 335.522 158.8C335.522 159.376 335.319 159.867 334.914 160.272C334.508 160.677 334.018 160.88 333.442 160.88Z" fill="#4F4F4F"/>
<path d="M297.193 109C296.564 109 296.004 108.851 295.513 108.552C295.022 108.243 294.638 107.8 294.361 107.224C294.084 106.648 293.945 105.955 293.945 105.144C293.945 103.939 294.27 103 294.921 102.328C295.582 101.656 296.462 101.32 297.561 101.32C298.372 101.32 299.033 101.485 299.545 101.816C300.057 102.147 300.313 102.573 300.313 103.096V109H298.873V103.096C298.873 102.893 298.766 102.733 298.553 102.616C298.35 102.499 298.02 102.44 297.561 102.44C296.857 102.44 296.318 102.669 295.945 103.128C295.572 103.576 295.385 104.248 295.385 105.144C295.385 106.029 295.582 106.707 295.977 107.176C296.372 107.645 296.937 107.88 297.673 107.88H301.081V109H297.193ZM301.081 109V107.88C301.209 107.88 301.294 107.928 301.337 108.024C301.38 108.12 301.401 108.259 301.401 108.44C301.401 108.611 301.38 108.749 301.337 108.856C301.294 108.952 301.209 109 301.081 109ZM298.377 100.28C298.132 100.28 297.918 100.189 297.737 100.008C297.556 99.8267 297.465 99.6133 297.465 99.368C297.465 99.112 297.556 98.8933 297.737 98.712C297.918 98.5307 298.132 98.44 298.377 98.44C298.633 98.44 298.846 98.5307 299.017 98.712C299.198 98.8933 299.289 99.112 299.289 99.368C299.289 99.6133 299.198 99.8267 299.017 100.008C298.846 100.189 298.633 100.28 298.377 100.28ZM296.041 100.28C295.796 100.28 295.582 100.189 295.401 100.008C295.22 99.8267 295.129 99.6133 295.129 99.368C295.129 99.112 295.22 98.8933 295.401 98.712C295.582 98.5307 295.796 98.44 296.041 98.44C296.297 98.44 296.51 98.5307 296.681 98.712C296.862 98.8933 296.953 99.112 296.953 99.368C296.953 99.6133 296.862 99.8267 296.681 100.008C296.51 100.189 296.297 100.28 296.041 100.28ZM301.877 109V107.88H304.629C305.28 107.88 305.898 107.784 306.485 107.592C307.082 107.389 307.616 107.123 308.085 106.792C308.554 106.451 308.922 106.067 309.189 105.64C309.466 105.213 309.605 104.771 309.605 104.312C309.605 103.715 309.37 103.256 308.901 102.936C308.432 102.605 307.765 102.44 306.901 102.44C306.037 102.44 305.37 102.605 304.901 102.936C304.432 103.256 304.197 103.715 304.197 104.312C304.197 104.771 304.33 105.213 304.597 105.64C304.874 106.067 305.248 106.451 305.717 106.792C306.186 107.123 306.72 107.389 307.317 107.592C307.914 107.784 308.533 107.88 309.173 107.88H311.925V109H309.173C308.437 109 307.69 108.883 306.933 108.648C306.176 108.413 305.482 108.088 304.853 107.672C304.224 107.245 303.717 106.749 303.333 106.184C302.949 105.608 302.757 104.984 302.757 104.312C302.757 103.779 302.88 103.325 303.125 102.952C303.37 102.568 303.696 102.259 304.101 102.024C304.517 101.779 304.965 101.603 305.445 101.496C305.936 101.379 306.421 101.32 306.901 101.32C307.381 101.32 307.861 101.379 308.341 101.496C308.832 101.603 309.28 101.773 309.685 102.008C310.09 102.243 310.416 102.552 310.661 102.936C310.917 103.309 311.045 103.768 311.045 104.312C311.045 104.984 310.853 105.608 310.469 106.184C310.096 106.749 309.594 107.245 308.965 107.672C308.336 108.088 307.642 108.413 306.885 108.648C306.128 108.883 305.376 109 304.629 109H301.877ZM301.877 109C301.749 109 301.664 108.952 301.621 108.856C301.578 108.749 301.557 108.611 301.557 108.44C301.557 108.259 301.578 108.12 301.621 108.024C301.664 107.928 301.749 107.88 301.877 107.88V109ZM311.925 109V107.88C312.053 107.88 312.138 107.928 312.181 108.024C312.224 108.12 312.245 108.259 312.245 108.44C312.245 108.611 312.224 108.749 312.181 108.856C312.138 108.952 312.053 109 311.925 109ZM321.284 109C320.729 109 320.233 108.872 319.796 108.616C319.369 108.349 319.033 107.992 318.788 107.544C318.542 107.085 318.42 106.568 318.42 105.992V105.176H319.86V105.992C319.86 106.291 319.908 106.584 320.004 106.872C320.11 107.16 320.265 107.4 320.468 107.592C320.681 107.784 320.953 107.88 321.284 107.88H321.86V109H321.284ZM312.724 109V107.88H316.132C316.868 107.88 317.433 107.645 317.828 107.176C318.222 106.707 318.42 106.029 318.42 105.144C318.42 104.248 318.233 103.576 317.86 103.128C317.486 102.669 316.948 102.44 316.244 102.44C315.785 102.44 315.449 102.499 315.236 102.616C315.033 102.733 314.932 102.893 314.932 103.096V109H313.492V103.096C313.492 102.573 313.748 102.147 314.26 101.816C314.772 101.485 315.433 101.32 316.244 101.32C317.353 101.32 318.233 101.656 318.884 102.328C319.534 103 319.86 103.939 319.86 105.144C319.86 105.955 319.721 106.648 319.444 107.224C319.166 107.8 318.782 108.243 318.292 108.552C317.801 108.851 317.241 109 316.612 109H312.724ZM312.724 109C312.596 109 312.51 108.952 312.468 108.856C312.425 108.749 312.404 108.611 312.404 108.44C312.404 108.259 312.425 108.12 312.468 108.024C312.51 107.928 312.596 107.88 312.724 107.88V109ZM321.86 109V107.88C321.988 107.88 322.073 107.928 322.116 108.024C322.158 108.12 322.18 108.259 322.18 108.44C322.18 108.611 322.158 108.749 322.116 108.856C322.073 108.952 321.988 109 321.86 109ZM331.832 109C331.278 109 330.782 108.872 330.344 108.616C329.918 108.349 329.582 107.992 329.336 107.544C329.091 107.085 328.968 106.568 328.968 105.992V105.544H330.408V105.992C330.408 106.291 330.456 106.584 330.552 106.872C330.659 107.16 330.819 107.4 331.032 107.592C331.246 107.784 331.512 107.88 331.832 107.88H332.408V109H331.832ZM322.664 109V107.88H327.544C327.982 107.88 328.328 107.709 328.584 107.368C328.84 107.016 328.968 106.419 328.968 105.576C328.968 104.403 328.696 103.587 328.152 103.128C327.619 102.669 326.846 102.44 325.832 102.44C325.619 102.44 325.427 102.445 325.256 102.456C325.086 102.467 324.931 102.483 324.792 102.504C324.654 102.515 324.52 102.52 324.392 102.52C324.136 102.52 323.928 102.483 323.768 102.408C323.608 102.333 323.486 102.227 323.4 102.088C323.326 101.939 323.267 101.773 323.224 101.592C323.203 101.475 323.182 101.357 323.16 101.24C323.15 101.112 323.15 101.027 323.16 100.984C323.267 101.059 323.411 101.144 323.592 101.24C323.774 101.336 324.019 101.384 324.328 101.384C324.435 101.384 324.558 101.379 324.696 101.368C324.846 101.357 325.011 101.347 325.192 101.336C325.374 101.325 325.571 101.32 325.784 101.32C326.606 101.32 327.31 101.421 327.896 101.624C328.483 101.816 328.958 102.099 329.32 102.472C329.694 102.845 329.966 103.293 330.136 103.816C330.318 104.339 330.408 104.92 330.408 105.56C330.408 106.413 330.275 107.096 330.008 107.608C329.742 108.109 329.39 108.467 328.952 108.68C328.526 108.893 328.056 109 327.544 109H322.664ZM322.664 109C322.536 109 322.451 108.952 322.408 108.856C322.366 108.749 322.344 108.611 322.344 108.44C322.344 108.259 322.366 108.12 322.408 108.024C322.451 107.928 322.536 107.88 322.664 107.88V109ZM332.408 109V107.88C332.536 107.88 332.622 107.928 332.664 108.024C332.707 108.12 332.728 108.259 332.728 108.44C332.728 108.611 332.707 108.749 332.664 108.856C332.622 108.952 332.536 109 332.408 109ZM326.056 112.12C325.79 112.12 325.566 112.029 325.384 111.848C325.203 111.667 325.112 111.453 325.112 111.208C325.112 110.952 325.203 110.733 325.384 110.552C325.566 110.371 325.79 110.28 326.056 110.28C326.302 110.28 326.515 110.371 326.696 110.552C326.878 110.733 326.968 110.952 326.968 111.208C326.968 111.453 326.878 111.667 326.696 111.848C326.515 112.029 326.302 112.12 326.056 112.12ZM333.214 109V107.88H333.614C333.945 107.88 334.212 107.784 334.414 107.592C334.628 107.4 334.782 107.16 334.878 106.872C334.985 106.584 335.038 106.291 335.038 105.992V100.808C335.038 100.477 334.99 100.179 334.894 99.912C334.809 99.6453 334.697 99.4213 334.558 99.24C334.42 99.0587 334.286 98.9253 334.158 98.84C334.201 98.7867 334.27 98.728 334.366 98.664C334.473 98.6 334.596 98.5467 334.734 98.504C334.884 98.4613 335.038 98.44 335.198 98.44C335.401 98.44 335.598 98.4933 335.79 98.6C335.993 98.696 336.158 98.872 336.286 99.128C336.414 99.384 336.478 99.7467 336.478 100.216V105.992C336.478 106.568 336.356 107.085 336.11 107.544C335.865 107.992 335.529 108.349 335.102 108.616C334.676 108.872 334.18 109 333.614 109H333.214ZM333.214 109C333.086 109 333.001 108.952 332.958 108.856C332.916 108.749 332.894 108.611 332.894 108.44C332.894 108.259 332.916 108.12 332.958 108.024C333.001 107.928 333.086 107.88 333.214 107.88V109ZM340.695 109C340.354 109 340.151 108.899 340.087 108.696C340.023 108.493 339.991 108.253 339.991 107.976V100.808C339.991 100.477 339.943 100.179 339.847 99.912C339.762 99.6453 339.65 99.4213 339.511 99.24C339.373 99.0587 339.239 98.9253 339.111 98.84C339.154 98.7867 339.223 98.728 339.319 98.664C339.426 98.6 339.554 98.5467 339.703 98.504C339.853 98.4613 340.007 98.44 340.167 98.44C340.37 98.44 340.567 98.4933 340.759 98.6C340.951 98.696 341.111 98.872 341.239 99.128C341.367 99.384 341.431 99.7467 341.431 100.216V107.976C341.431 108.253 341.394 108.493 341.319 108.696C341.245 108.899 341.037 109 340.695 109Z" fill="#4F4F4F"/>
<path d="M88.624 256V251.84C89.6907 250.773 91.056 249.472 92.72 247.936C94.384 246.357 96.112 244.651 97.904 242.816C99.7387 240.939 101.445 238.997 103.024 236.992C104.603 234.944 105.883 232.896 106.864 230.848C107.888 228.8 108.4 226.795 108.4 224.832C108.4 222.613 108.059 220.821 107.376 219.456C106.693 218.048 105.819 217.024 104.752 216.384C103.685 215.701 102.555 215.36 101.36 215.36C98.672 215.36 96.4107 216.256 94.576 218.048C92.7413 219.84 91.504 222.677 90.864 226.56H88.624C88.624 224.939 88.688 223.296 88.816 221.632C88.944 219.925 89.392 218.581 90.16 217.6C91.312 216.192 92.9973 214.997 95.216 214.016C97.4773 212.992 99.952 212.48 102.64 212.48C104.133 212.48 105.712 212.651 107.376 212.992C109.083 213.291 110.683 213.867 112.176 214.72C113.712 215.573 114.949 216.811 115.888 218.432C116.869 220.053 117.36 222.187 117.36 224.832C117.36 226.837 116.891 228.821 115.952 230.784C115.013 232.747 113.776 234.667 112.24 236.544C110.747 238.421 109.104 240.213 107.312 241.92C105.52 243.627 103.749 245.205 102 246.656C100.251 248.064 98.672 249.323 97.264 250.432C95.8987 251.541 94.8747 252.437 94.192 253.12H107.44C110 253.12 111.963 252.523 113.328 251.328C114.736 250.091 115.44 248.341 115.44 246.08H117.36V250.88C117.36 251.733 117.211 252.565 116.912 253.376C116.613 254.144 116.08 254.784 115.312 255.296C114.544 255.765 113.413 256 111.92 256H88.624ZM138.996 257.28C136.095 257.28 133.428 256.896 130.996 256.128C128.564 255.403 126.623 254.229 125.172 252.608C123.721 250.987 122.996 248.875 122.996 246.272C122.996 244.224 123.487 242.475 124.468 241.024C125.492 239.573 126.815 238.336 128.436 237.312C130.1 236.245 131.849 235.328 133.684 234.56C132.02 233.621 130.505 232.661 129.14 231.68C127.775 230.656 126.665 229.504 125.812 228.224C125.001 226.901 124.596 225.323 124.596 223.488C124.596 220.672 125.236 218.475 126.516 216.896C127.839 215.275 129.588 214.144 131.764 213.504C133.983 212.821 136.393 212.48 138.996 212.48C141.641 212.48 144.052 212.8 146.228 213.44C148.404 214.08 150.132 215.147 151.412 216.64C152.735 218.133 153.396 220.203 153.396 222.848C153.396 224.469 153.012 225.941 152.244 227.264C151.476 228.544 150.431 229.675 149.108 230.656C147.828 231.595 146.377 232.405 144.756 233.088C146.548 234.027 148.212 235.072 149.748 236.224C151.327 237.333 152.585 238.656 153.524 240.192C154.505 241.685 154.996 243.499 154.996 245.632C154.996 248.448 154.271 250.709 152.82 252.416C151.412 254.123 149.492 255.36 147.06 256.128C144.671 256.896 141.983 257.28 138.996 257.28ZM138.996 254.4C140.447 254.4 141.727 254.123 142.836 253.568C143.945 253.013 144.799 252.181 145.396 251.072C146.036 249.92 146.356 248.533 146.356 246.912C146.356 245.163 145.929 243.648 145.076 242.368C144.223 241.045 143.092 239.893 141.684 238.912C140.276 237.888 138.74 236.949 137.076 236.096C136.009 236.651 135.049 237.355 134.196 238.208C133.385 239.061 132.745 240.128 132.276 241.408C131.849 242.688 131.636 244.309 131.636 246.272C131.636 248.149 131.935 249.685 132.532 250.88C133.172 252.075 134.047 252.971 135.156 253.568C136.265 254.123 137.545 254.4 138.996 254.4ZM141.428 231.424C142.537 230.571 143.369 229.525 143.924 228.288C144.479 227.008 144.756 225.195 144.756 222.848C144.756 220.885 144.436 219.371 143.796 218.304C143.199 217.195 142.452 216.427 141.556 216C140.66 215.573 139.807 215.36 138.996 215.36C138.185 215.36 137.332 215.573 136.436 216C135.54 216.384 134.772 217.067 134.132 218.048C133.535 219.029 133.236 220.416 133.236 222.208C133.236 223.531 133.599 224.768 134.324 225.92C135.092 227.029 136.095 228.053 137.332 228.992C138.612 229.931 139.977 230.741 141.428 231.424Z" fill="#4F4F4F"/>
<path d="M298.616 251V216.312L293.048 219.896L291.512 217.912L301.368 208.76H306.936V251H298.616ZM331.08 252.28C327.026 252.28 323.762 251.341 321.288 249.464C318.856 247.587 317.106 244.963 316.04 241.592C314.973 238.221 314.44 234.317 314.44 229.88C314.44 225.443 314.973 221.539 316.04 218.168C317.106 214.797 318.856 212.173 321.288 210.296C323.762 208.419 327.026 207.48 331.08 207.48C335.176 207.48 338.44 208.419 340.872 210.296C343.304 212.173 345.053 214.797 346.12 218.168C347.186 221.539 347.72 225.443 347.72 229.88C347.72 234.317 347.186 238.221 346.12 241.592C345.053 244.963 343.304 247.587 340.872 249.464C338.44 251.341 335.176 252.28 331.08 252.28ZM331.08 249.4C333.768 249.4 335.709 247.843 336.904 244.728C338.141 241.571 338.76 236.621 338.76 229.88C338.76 223.139 338.141 218.211 336.904 215.096C335.709 211.939 333.768 210.36 331.08 210.36C328.392 210.36 326.429 211.939 325.192 215.096C323.997 218.211 323.4 223.139 323.4 229.88C323.4 236.621 323.997 241.571 325.192 244.728C326.429 247.843 328.392 249.4 331.08 249.4Z" fill="#4F4F4F"/>
<path d="M72.2959 276V275.3C72.8839 274.731 73.4159 274.217 73.8919 273.76C74.3772 273.303 74.8019 272.883 75.1659 272.5C75.5299 272.117 75.8379 271.749 76.0899 271.394C76.3419 271.039 76.5285 270.68 76.6499 270.316C76.7805 269.952 76.8459 269.56 76.8459 269.14C76.8459 268.673 76.7619 268.286 76.5939 267.978C76.4259 267.661 76.2019 267.427 75.9219 267.278C75.6512 267.119 75.3525 267.04 75.0259 267.04C74.4659 267.04 73.9759 267.245 73.5559 267.656C73.1359 268.057 72.8559 268.645 72.7159 269.42H72.4359C72.4359 269.065 72.4499 268.729 72.4779 268.412C72.5059 268.085 72.6039 267.815 72.7719 267.6C73.0239 267.292 73.3925 267.031 73.8779 266.816C74.3632 266.592 74.8859 266.48 75.4459 266.48C75.7259 266.48 76.0245 266.517 76.3419 266.592C76.6685 266.657 76.9765 266.783 77.2659 266.97C77.5552 267.157 77.7885 267.427 77.9659 267.782C78.1525 268.127 78.2459 268.58 78.2459 269.14C78.2459 269.541 78.1805 269.919 78.0499 270.274C77.9285 270.619 77.7559 270.955 77.5319 271.282C77.3079 271.609 77.0419 271.935 76.7339 272.262C76.4259 272.579 76.0852 272.906 75.7119 273.242C75.3479 273.569 74.9559 273.914 74.5359 274.278C74.1252 274.642 73.7052 275.029 73.2759 275.44H76.4259C76.9859 275.44 77.4152 275.319 77.7139 275.076C78.0219 274.833 78.1759 274.465 78.1759 273.97H78.4559V274.88C78.4559 275.067 78.4232 275.249 78.3579 275.426C78.2925 275.594 78.1759 275.734 78.0079 275.846C77.8399 275.949 77.5925 276 77.2659 276H72.2959ZM83.9337 276.28C83.1217 276.28 82.4684 276.079 81.9737 275.678C81.479 275.267 81.1197 274.693 80.8957 273.956C80.681 273.219 80.5737 272.36 80.5737 271.38C80.5737 270.391 80.681 269.532 80.8957 268.804C81.1197 268.067 81.479 267.497 81.9737 267.096C82.4684 266.685 83.1217 266.48 83.9337 266.48C84.755 266.48 85.4084 266.685 85.8937 267.096C86.3884 267.497 86.743 268.067 86.9577 268.804C87.1817 269.532 87.2937 270.391 87.2937 271.38C87.2937 272.36 87.1817 273.219 86.9577 273.956C86.743 274.693 86.3884 275.267 85.8937 275.678C85.4084 276.079 84.755 276.28 83.9337 276.28ZM83.9337 275.72C84.699 275.72 85.217 275.365 85.4877 274.656C85.7584 273.937 85.8937 272.845 85.8937 271.38C85.8937 269.905 85.7584 268.813 85.4877 268.104C85.217 267.395 84.699 267.04 83.9337 267.04C83.1684 267.04 82.6504 267.395 82.3797 268.104C82.109 268.813 81.9737 269.905 81.9737 271.38C81.9737 272.845 82.109 273.937 82.3797 274.656C82.6504 275.365 83.1684 275.72 83.9337 275.72ZM89.2955 276V275.3C89.8835 274.731 90.4155 274.217 90.8915 273.76C91.3768 273.303 91.8015 272.883 92.1655 272.5C92.5295 272.117 92.8375 271.749 93.0895 271.394C93.3415 271.039 93.5282 270.68 93.6495 270.316C93.7802 269.952 93.8455 269.56 93.8455 269.14C93.8455 268.673 93.7615 268.286 93.5935 267.978C93.4255 267.661 93.2015 267.427 92.9215 267.278C92.6508 267.119 92.3522 267.04 92.0255 267.04C91.4655 267.04 90.9755 267.245 90.5555 267.656C90.1355 268.057 89.8555 268.645 89.7155 269.42H89.4355C89.4355 269.065 89.4495 268.729 89.4775 268.412C89.5055 268.085 89.6035 267.815 89.7715 267.6C90.0235 267.292 90.3922 267.031 90.8775 266.816C91.3628 266.592 91.8855 266.48 92.4455 266.48C92.7255 266.48 93.0242 266.517 93.3415 266.592C93.6682 266.657 93.9762 266.783 94.2655 266.97C94.5548 267.157 94.7882 267.427 94.9655 267.782C95.1522 268.127 95.2455 268.58 95.2455 269.14C95.2455 269.541 95.1802 269.919 95.0495 270.274C94.9282 270.619 94.7555 270.955 94.5315 271.282C94.3075 271.609 94.0415 271.935 93.7335 272.262C93.4255 272.579 93.0848 272.906 92.7115 273.242C92.3475 273.569 91.9555 273.914 91.5355 274.278C91.1248 274.642 90.7048 275.029 90.2755 275.44H93.4255C93.9855 275.44 94.4148 275.319 94.7135 275.076C95.0215 274.833 95.1755 274.465 95.1755 273.97H95.4555V274.88C95.4555 275.067 95.4228 275.249 95.3575 275.426C95.2922 275.594 95.1755 275.734 95.0075 275.846C94.8395 275.949 94.5922 276 94.2655 276H89.2955ZM100.569 276.28C100.103 276.28 99.678 276.219 99.2953 276.098C98.922 275.977 98.5766 275.804 98.2593 275.58C97.9513 275.356 97.6666 275.09 97.4053 274.782L97.6293 274.53C97.984 274.922 98.3713 275.221 98.7913 275.426C99.2113 275.622 99.6873 275.72 100.219 275.72C100.593 275.72 100.938 275.641 101.255 275.482C101.573 275.314 101.829 275.062 102.025 274.726C102.221 274.39 102.319 273.951 102.319 273.41C102.319 272.915 102.226 272.509 102.039 272.192C101.853 271.875 101.619 271.637 101.339 271.478C101.059 271.319 100.779 271.24 100.499 271.24C100.219 271.24 99.9953 271.249 99.8273 271.268C99.6593 271.277 99.5006 271.296 99.3513 271.324C99.2113 271.352 99.034 271.394 98.8193 271.45L98.4553 270.862L102.249 267.32H99.6593C99.0993 267.32 98.6653 267.441 98.3573 267.684C98.0586 267.927 97.9093 268.295 97.9093 268.79H97.6293V267.88C97.6293 267.693 97.662 267.516 97.7273 267.348C97.7926 267.171 97.9093 267.031 98.0773 266.928C98.2546 266.816 98.502 266.76 98.8193 266.76H103.271V267.32L99.5193 270.82C99.762 270.755 100.009 270.717 100.261 270.708C100.523 270.689 100.695 270.68 100.779 270.68C100.985 270.68 101.251 270.717 101.577 270.792C101.904 270.857 102.231 270.988 102.557 271.184C102.884 271.38 103.159 271.655 103.383 272.01C103.607 272.365 103.719 272.831 103.719 273.41C103.719 274.026 103.607 274.525 103.383 274.908C103.159 275.281 102.875 275.571 102.529 275.776C102.193 275.972 101.848 276.103 101.493 276.168C101.139 276.243 100.831 276.28 100.569 276.28ZM110.163 278.17L110.023 277.96C110.266 277.801 110.466 277.629 110.625 277.442C110.793 277.255 110.919 277.05 111.003 276.826C111.096 276.602 111.143 276.35 111.143 276.07C111.106 276.098 111.045 276.126 110.961 276.154C110.877 276.191 110.798 276.21 110.723 276.21C110.508 276.21 110.326 276.135 110.177 275.986C110.028 275.837 109.953 275.655 109.953 275.44C109.953 275.197 110.032 274.997 110.191 274.838C110.35 274.679 110.55 274.6 110.793 274.6C111.073 274.6 111.292 274.684 111.451 274.852C111.619 275.02 111.703 275.263 111.703 275.58C111.703 276.177 111.568 276.686 111.297 277.106C111.036 277.535 110.658 277.89 110.163 278.17ZM123.873 276V275.02H124.783V276H123.873ZM121.143 276C120.593 276 120.103 275.869 119.673 275.608C119.244 275.337 118.908 274.95 118.665 274.446C118.423 273.942 118.301 273.335 118.301 272.626C118.301 271.571 118.586 270.75 119.155 270.162C119.734 269.574 120.504 269.28 121.465 269.28C122.175 269.28 122.753 269.425 123.201 269.714C123.649 270.003 123.873 270.377 123.873 270.834V276H122.613V270.834C122.613 270.657 122.52 270.517 122.333 270.414C122.156 270.311 121.867 270.26 121.465 270.26C120.849 270.26 120.378 270.461 120.051 270.862C119.725 271.254 119.561 271.842 119.561 272.626C119.561 273.401 119.734 273.993 120.079 274.404C120.425 274.815 120.919 275.02 121.563 275.02H123.873V276H121.143ZM122.165 279.206C122.044 279.206 121.937 279.192 121.843 279.164C121.75 279.136 121.666 279.099 121.591 279.052C121.526 279.005 121.47 278.963 121.423 278.926C121.797 278.609 122.063 278.273 122.221 277.918C122.389 277.563 122.497 277.213 122.543 276.868C122.59 276.532 122.613 276.243 122.613 276V275.02H123.873V276C123.873 276.327 123.845 276.677 123.789 277.05C123.733 277.423 123.64 277.773 123.509 278.1C123.379 278.427 123.201 278.693 122.977 278.898C122.763 279.103 122.492 279.206 122.165 279.206ZM124.783 276V275.02C124.895 275.02 124.97 275.062 125.007 275.146C125.045 275.23 125.063 275.351 125.063 275.51C125.063 275.659 125.045 275.781 125.007 275.874C124.97 275.958 124.895 276 124.783 276ZM125.488 276V275.02H125.838C126.127 275.02 126.361 274.936 126.538 274.768C126.725 274.6 126.86 274.39 126.944 274.138C127.037 273.886 127.084 273.629 127.084 273.368V269.896C127.084 269.663 127.145 269.504 127.266 269.42C127.387 269.327 127.537 269.28 127.714 269.28C127.891 269.28 128.041 269.327 128.162 269.42C128.283 269.504 128.344 269.663 128.344 269.896V273.368C128.344 273.872 128.237 274.325 128.022 274.726C127.807 275.118 127.513 275.431 127.14 275.664C126.767 275.888 126.333 276 125.838 276H125.488ZM129.59 276C129.105 276 128.671 275.888 128.288 275.664C127.915 275.431 127.621 275.118 127.406 274.726C127.191 274.325 127.084 273.872 127.084 273.368H128.344C128.344 273.629 128.386 273.886 128.47 274.138C128.563 274.39 128.703 274.6 128.89 274.768C129.077 274.936 129.31 275.02 129.59 275.02H130.094V276H129.59ZM130.094 276V275.02C130.206 275.02 130.281 275.062 130.318 275.146C130.355 275.23 130.374 275.351 130.374 275.51C130.374 275.659 130.355 275.781 130.318 275.874C130.281 275.958 130.206 276 130.094 276ZM125.488 276C125.376 276 125.301 275.958 125.264 275.874C125.227 275.781 125.208 275.659 125.208 275.51C125.208 275.351 125.227 275.23 125.264 275.146C125.301 275.062 125.376 275.02 125.488 275.02V276ZM128.736 278.73C128.521 278.73 128.335 278.651 128.176 278.492C128.017 278.333 127.938 278.147 127.938 277.932C127.938 277.708 128.017 277.517 128.176 277.358C128.335 277.199 128.521 277.12 128.736 277.12C128.96 277.12 129.147 277.199 129.296 277.358C129.455 277.517 129.534 277.708 129.534 277.932C129.534 278.147 129.455 278.333 129.296 278.492C129.147 278.651 128.96 278.73 128.736 278.73ZM126.692 278.73C126.477 278.73 126.291 278.651 126.132 278.492C125.973 278.333 125.894 278.147 125.894 277.932C125.894 277.708 125.973 277.517 126.132 277.358C126.291 277.199 126.477 277.12 126.692 277.12C126.916 277.12 127.103 277.199 127.252 277.358C127.411 277.517 127.49 277.708 127.49 277.932C127.49 278.147 127.411 278.333 127.252 278.492C127.103 278.651 126.916 278.73 126.692 278.73ZM130.795 276V275.02H131.145C131.435 275.02 131.668 274.936 131.845 274.768C132.032 274.6 132.167 274.39 132.251 274.138C132.345 273.886 132.391 273.629 132.391 273.368V268.832C132.391 268.543 132.349 268.281 132.265 268.048C132.191 267.815 132.093 267.619 131.971 267.46C131.85 267.301 131.733 267.185 131.621 267.11C131.659 267.063 131.719 267.012 131.803 266.956C131.897 266.9 132.004 266.853 132.125 266.816C132.256 266.779 132.391 266.76 132.531 266.76C132.709 266.76 132.881 266.807 133.049 266.9C133.227 266.984 133.371 267.138 133.483 267.362C133.595 267.586 133.651 267.903 133.651 268.314V273.368C133.651 273.872 133.544 274.325 133.329 274.726C133.115 275.118 132.821 275.431 132.447 275.664C132.074 275.888 131.64 276 131.145 276H130.795ZM130.795 276C130.683 276 130.609 275.958 130.571 275.874C130.534 275.781 130.515 275.659 130.515 275.51C130.515 275.351 130.534 275.23 130.571 275.146C130.609 275.062 130.683 275.02 130.795 275.02V276ZM141.737 276V275.02H142.647V276H141.737ZM139.007 276C138.456 276 137.966 275.869 137.537 275.608C137.108 275.337 136.772 274.95 136.529 274.446C136.286 273.942 136.165 273.335 136.165 272.626C136.165 271.571 136.45 270.75 137.019 270.162C137.598 269.574 138.368 269.28 139.329 269.28C140.038 269.28 140.617 269.425 141.065 269.714C141.513 270.003 141.737 270.377 141.737 270.834V276H140.477V270.834C140.477 270.657 140.384 270.517 140.197 270.414C140.02 270.311 139.73 270.26 139.329 270.26C138.713 270.26 138.242 270.461 137.915 270.862C137.588 271.254 137.425 271.842 137.425 272.626C137.425 273.401 137.598 273.993 137.943 274.404C138.288 274.815 138.783 275.02 139.427 275.02H141.737V276H139.007ZM140.029 279.206C139.908 279.206 139.8 279.192 139.707 279.164C139.614 279.136 139.53 279.099 139.455 279.052C139.39 279.005 139.334 278.963 139.287 278.926C139.66 278.609 139.926 278.273 140.085 277.918C140.253 277.563 140.36 277.213 140.407 276.868C140.454 276.532 140.477 276.243 140.477 276V275.02H141.737V276C141.737 276.327 141.709 276.677 141.653 277.05C141.597 277.423 141.504 277.773 141.373 278.1C141.242 278.427 141.065 278.693 140.841 278.898C140.626 279.103 140.356 279.206 140.029 279.206ZM142.647 276V275.02C142.759 275.02 142.834 275.062 142.871 275.146C142.908 275.23 142.927 275.351 142.927 275.51C142.927 275.659 142.908 275.781 142.871 275.874C142.834 275.958 142.759 276 142.647 276ZM143.352 276V275.02H144.29C144.588 275.02 144.836 274.95 145.032 274.81C145.228 274.67 145.377 274.493 145.48 274.278C145.592 274.063 145.671 273.839 145.718 273.606C145.774 273.373 145.806 273.163 145.816 272.976C145.825 272.78 145.83 272.64 145.83 272.556C145.83 272.304 145.806 272.005 145.76 271.66C145.713 271.315 145.606 270.955 145.438 270.582C145.279 270.209 145.013 269.868 144.64 269.56C144.686 269.513 144.742 269.471 144.808 269.434C144.882 269.387 144.966 269.35 145.06 269.322C145.153 269.294 145.26 269.28 145.382 269.28C145.708 269.28 145.979 269.387 146.194 269.602C146.418 269.817 146.595 270.097 146.726 270.442C146.856 270.778 146.95 271.137 147.006 271.52C147.062 271.903 147.09 272.257 147.09 272.584C147.09 273.657 146.842 274.497 146.348 275.104C145.853 275.701 145.167 276 144.29 276H143.352ZM143.352 276C143.24 276 143.165 275.958 143.128 275.874C143.09 275.781 143.072 275.659 143.072 275.51C143.072 275.351 143.09 275.23 143.128 275.146C143.165 275.062 143.24 275.02 143.352 275.02V276ZM146.432 278.73C146.217 278.73 146.03 278.651 145.872 278.492C145.713 278.333 145.634 278.147 145.634 277.932C145.634 277.708 145.713 277.517 145.872 277.358C146.03 277.199 146.217 277.12 146.432 277.12C146.656 277.12 146.842 277.199 146.992 277.358C147.15 277.517 147.23 277.708 147.23 277.932C147.23 278.147 147.15 278.333 146.992 278.492C146.842 278.651 146.656 278.73 146.432 278.73ZM144.388 278.73C144.173 278.73 143.986 278.651 143.828 278.492C143.669 278.333 143.59 278.147 143.59 277.932C143.59 277.708 143.669 277.517 143.828 277.358C143.986 277.199 144.173 277.12 144.388 277.12C144.612 277.12 144.798 277.199 144.948 277.358C145.106 277.517 145.186 277.708 145.186 277.932C145.186 278.147 145.106 278.333 144.948 278.492C144.798 278.651 144.612 278.73 144.388 278.73Z" fill="#828282"/>
<path d="M274.32 276V268.16L272.962 269.042L272.71 268.72L274.88 266.76H275.58V276H274.32ZM282.211 276V273.62H277.731V273.06L282.351 266.76H283.471V273.06H284.731V273.62H283.471V276H282.211ZM278.571 273.06H282.211V268.104L278.571 273.06ZM290.554 276V273.62H286.074V273.06L290.694 266.76H291.814V273.06H293.074V273.62H291.814V276H290.554ZM286.914 273.06H290.554V268.104L286.914 273.06ZM298.896 276V273.62H294.416V273.06L299.036 266.76H300.156V273.06H301.416V273.62H300.156V276H298.896ZM295.256 273.06H298.896V268.104L295.256 273.06ZM307.701 278.17L307.561 277.96C307.804 277.801 308.004 277.629 308.163 277.442C308.331 277.255 308.457 277.05 308.541 276.826C308.634 276.602 308.681 276.35 308.681 276.07C308.644 276.098 308.583 276.126 308.499 276.154C308.415 276.191 308.336 276.21 308.261 276.21C308.046 276.21 307.864 276.135 307.715 275.986C307.566 275.837 307.491 275.655 307.491 275.44C307.491 275.197 307.57 274.997 307.729 274.838C307.888 274.679 308.088 274.6 308.331 274.6C308.611 274.6 308.83 274.684 308.989 274.852C309.157 275.02 309.241 275.263 309.241 275.58C309.241 276.177 309.106 276.686 308.835 277.106C308.574 277.535 308.196 277.89 307.701 278.17ZM316.189 279.892C316.105 279.892 316.021 279.883 315.937 279.864C315.853 279.845 315.774 279.822 315.699 279.794C315.625 279.766 315.555 279.738 315.489 279.71C315.583 279.626 315.667 279.519 315.741 279.388C315.825 279.267 315.895 279.117 315.951 278.94C316.007 278.763 316.035 278.562 316.035 278.338V277.442C316.035 276.957 316.157 276.532 316.399 276.168C316.642 275.804 316.978 275.524 317.407 275.328C317.846 275.123 318.35 275.02 318.919 275.02H319.577C320.221 275.02 320.716 274.815 321.061 274.404C321.407 273.993 321.579 273.401 321.579 272.626C321.579 271.842 321.416 271.254 321.089 270.862C320.763 270.461 320.291 270.26 319.675 270.26C319.274 270.26 318.98 270.311 318.793 270.414C318.616 270.517 318.527 270.657 318.527 270.834V275.538H317.267V270.834C317.267 270.386 317.491 270.017 317.939 269.728C318.387 269.429 318.966 269.28 319.675 269.28C320.646 269.28 321.416 269.574 321.985 270.162C322.555 270.75 322.839 271.571 322.839 272.626C322.839 273.335 322.718 273.942 322.475 274.446C322.233 274.95 321.897 275.337 321.467 275.608C321.038 275.869 320.548 276 319.997 276H318.919C318.499 276 318.173 276.07 317.939 276.21C317.706 276.359 317.538 276.541 317.435 276.756C317.342 276.98 317.295 277.209 317.295 277.442V278.338C317.295 278.739 317.239 279.052 317.127 279.276C317.015 279.509 316.875 279.668 316.707 279.752C316.539 279.845 316.367 279.892 316.189 279.892ZM327.178 276V275.02H328.914V276H327.178ZM325.47 279.206C325.348 279.206 325.241 279.192 325.148 279.164C325.054 279.136 324.97 279.099 324.896 279.052C324.83 279.005 324.774 278.963 324.728 278.926C325.101 278.609 325.367 278.273 325.526 277.918C325.694 277.563 325.801 277.213 325.848 276.868C325.894 276.532 325.918 276.243 325.918 276V269.896C325.918 269.663 325.978 269.504 326.1 269.42C326.221 269.327 326.37 269.28 326.548 269.28C326.725 269.28 326.874 269.327 326.996 269.42C327.117 269.504 327.178 269.663 327.178 269.896V276C327.178 276.327 327.15 276.677 327.094 277.05C327.038 277.423 326.944 277.773 326.814 278.1C326.683 278.427 326.506 278.693 326.282 278.898C326.067 279.103 325.796 279.206 325.47 279.206ZM328.914 276V275.02C329.026 275.02 329.1 275.062 329.138 275.146C329.175 275.23 329.194 275.351 329.194 275.51C329.194 275.659 329.175 275.781 329.138 275.874C329.1 275.958 329.026 276 328.914 276ZM337.64 276C337.155 276 336.721 275.888 336.338 275.664C335.965 275.431 335.671 275.118 335.456 274.726C335.242 274.325 335.134 273.872 335.134 273.368V272.976H336.394V273.368C336.394 273.629 336.436 273.886 336.52 274.138C336.614 274.39 336.754 274.6 336.94 274.768C337.127 274.936 337.36 275.02 337.64 275.02H338.144V276H337.64ZM329.618 276V275.02H333.888C334.271 275.02 334.574 274.871 334.798 274.572C335.022 274.264 335.134 273.741 335.134 273.004C335.134 271.977 334.896 271.263 334.42 270.862C333.954 270.461 333.277 270.26 332.39 270.26C332.204 270.26 332.036 270.265 331.886 270.274C331.737 270.283 331.602 270.297 331.48 270.316C331.359 270.325 331.242 270.33 331.13 270.33C330.906 270.33 330.724 270.297 330.584 270.232C330.444 270.167 330.337 270.073 330.262 269.952C330.197 269.821 330.146 269.677 330.108 269.518C330.09 269.415 330.071 269.313 330.052 269.21C330.043 269.098 330.043 269.023 330.052 268.986C330.146 269.051 330.272 269.126 330.43 269.21C330.589 269.294 330.804 269.336 331.074 269.336C331.168 269.336 331.275 269.331 331.396 269.322C331.527 269.313 331.672 269.303 331.83 269.294C331.989 269.285 332.162 269.28 332.348 269.28C333.067 269.28 333.683 269.369 334.196 269.546C334.71 269.714 335.125 269.961 335.442 270.288C335.769 270.615 336.007 271.007 336.156 271.464C336.315 271.921 336.394 272.43 336.394 272.99C336.394 273.737 336.278 274.334 336.044 274.782C335.811 275.221 335.503 275.533 335.12 275.72C334.747 275.907 334.336 276 333.888 276H329.618ZM329.618 276C329.506 276 329.432 275.958 329.394 275.874C329.357 275.781 329.338 275.659 329.338 275.51C329.338 275.351 329.357 275.23 329.394 275.146C329.432 275.062 329.506 275.02 329.618 275.02V276ZM338.144 276V275.02C338.256 275.02 338.331 275.062 338.368 275.146C338.406 275.23 338.424 275.351 338.424 275.51C338.424 275.659 338.406 275.781 338.368 275.874C338.331 275.958 338.256 276 338.144 276ZM338.85 276V275.02H341.832C342.476 275.02 342.97 274.815 343.316 274.404C343.661 273.993 343.834 273.401 343.834 272.626C343.834 271.842 343.67 271.254 343.344 270.862C343.017 270.461 342.546 270.26 341.93 270.26C341.528 270.26 341.234 270.311 341.048 270.414C340.87 270.517 340.782 270.657 340.782 270.834V276H339.522V270.834C339.522 270.377 339.746 270.003 340.194 269.714C340.642 269.425 341.22 269.28 341.93 269.28C342.9 269.28 343.67 269.574 344.24 270.162C344.809 270.75 345.094 271.571 345.094 272.626C345.094 273.335 344.972 273.942 344.73 274.446C344.487 274.95 344.151 275.337 343.722 275.608C343.292 275.869 342.802 276 342.252 276H338.85ZM338.85 276C338.738 276 338.663 275.958 338.626 275.874C338.588 275.781 338.57 275.659 338.57 275.51C338.57 275.351 338.588 275.23 338.626 275.146C338.663 275.062 338.738 275.02 338.85 275.02V276Z" fill="#828282"/>
<defs>
<filter id="filter0_d_668_6254" x="30" y="18" width="350" height="373.948" filterUnits="userSpaceOnUse" color-interpolation-filters="sRGB">
<feFlood flood-opacity="0" result="BackgroundImageFix"/>
<feColorMatrix in="SourceAlpha" type="matrix" values="0 0 0 0 0 0 0 0 0 0 0 0 0 0 0 0 0 0 127 0" result="hardAlpha"/>
<feOffset/>
<feGaussianBlur stdDeviation="6.5"/>
<feComposite in2="hardAlpha" operator="out"/>
<feColorMatrix type="matrix" values="0 0 0 0 0.1375 0 0 0 0 0.1375 0 0 0 0 0.1375 0 0 0 0.25 0"/>
<feBlend mode="normal" in2="BackgroundImageFix" result="effect1_dropShadow_668_6254"/>
<feBlend mode="normal" in="SourceGraphic" in2="effect1_dropShadow_668_6254" result="shape"/>
</filter>
<filter id="filter1_f_668_6254" x="0.488281" y="0" width="407.617" height="234.348" filterUnits="userSpaceOnUse" color-interpolation-filters="sRGB">
<feFlood flood-opacity="0" result="BackgroundImageFix"/>
<feBlend mode="normal" in="SourceGraphic" in2="BackgroundImageFix" result="shape"/>
<feGaussianBlur stdDeviation="44.5" result="effect1_foregroundBlur_668_6254"/>
</filter>
</defs>
</svg>
